ply
format ascii 1.0
element vertex 502
property float x
property float y
property float z
end_header
-0.456972 -0.059502 -0.096566
-0.457392 -0.058595 -0.096547
-0.457812 -0.057688 -0.096528
-0.458232 -0.056781 -0.096510
-0.458653 -0.055873 -0.096491
-0.459073 -0.054966 -0.096472
-0.459493 -0.054059 -0.096454
-0.459913 -0.053152 -0.096435
-0.460333 -0.052244 -0.096416
-0.460754 -0.051337 -0.096398
-0.461174 -0.050430 -0.096379
-0.461594 -0.049523 -0.096360
-0.462014 -0.048616 -0.096342
-0.462435 -0.047708 -0.096323
-0.462855 -0.046801 -0.096304
-0.463275 -0.045894 -0.096286
-0.463695 -0.044987 -0.096267
-0.464115 -0.044079 -0.096248
-0.464536 -0.043172 -0.096230
-0.464956 -0.042265 -0.096211
-0.465376 -0.041358 -0.096192
-0.465796 -0.040450 -0.096174
-0.466216 -0.039543 -0.096155
-0.466637 -0.038636 -0.096136
-0.467057 -0.037729 -0.096118
-0.467477 -0.036821 -0.096099
-0.467897 -0.035914 -0.096080
-0.468318 -0.035007 -0.096062
-0.468738 -0.034100 -0.096043
-0.469158 -0.033193 -0.096024
-0.469578 -0.032285 -0.096006
-0.469998 -0.031378 -0.095987
-0.470419 -0.030471 -0.095968
-0.470839 -0.029564 -0.095950
-0.471259 -0.028656 -0.095931
-0.471679 -0.027749 -0.095912
-0.472100 -0.026842 -0.095894
-0.472520 -0.025935 -0.095875
-0.472940 -0.025027 -0.095856
-0.473360 -0.024120 -0.095838
-0.473780 -0.023213 -0.095819
-0.474201 -0.022306 -0.095801
-0.474621 -0.021399 -0.095782
-0.475041 -0.020491 -0.095763
-0.475461 -0.019584 -0.095745
-0.475882 -0.018677 -0.095726
-0.476302 -0.017770 -0.095707
-0.476722 -0.016862 -0.095689
-0.477142 -0.015955 -0.095670
-0.477562 -0.015048 -0.095651
-0.477983 -0.014141 -0.095633
-0.478403 -0.013233 -0.095614
-0.478823 -0.012326 -0.095595
-0.479243 -0.011419 -0.095577
-0.479663 -0.010512 -0.095558
-0.480084 -0.009605 -0.095539
-0.480504 -0.008697 -0.095521
-0.480924 -0.007790 -0.095502
-0.481344 -0.006883 -0.095483
-0.481765 -0.005976 -0.095465
-0.482185 -0.005068 -0.095446
-0.482605 -0.004161 -0.095427
-0.483025 -0.003254 -0.095409
-0.483445 -0.002347 -0.095390
-0.483866 -0.001439 -0.095371
-0.484286 -0.000532 -0.095353
-0.484706 0.000375 -0.095334
-0.485126 0.001282 -0.095315
-0.485547 0.002189 -0.095297
-0.485967 0.003097 -0.095278
-0.486387 0.004004 -0.095259
-0.486807 0.004911 -0.095241
-0.487227 0.005818 -0.095222
-0.487648 0.006726 -0.095203
-0.488068 0.007633 -0.095185
-0.488488 0.008540 -0.095166
-0.488908 0.009447 -0.095147
-0.489328 0.010355 -0.095129
-0.489749 0.011262 -0.095110
-0.490169 0.012169 -0.095091
-0.490589 0.013076 -0.095073
-0.491009 0.013983 -0.095054
-0.491430 0.014891 -0.095035
-0.491850 0.015798 -0.095017
-0.492270 0.016705 -0.094998
-0.492690 0.017612 -0.094979
-0.493110 0.018520 -0.094961
-0.493531 0.019427 -0.094942
-0.493951 0.020334 -0.094923
-0.494371 0.021241 -0.094905
-0.494791 0.022149 -0.094886
-0.495212 0.023056 -0.094867
-0.495632 0.023963 -0.094849
-0.496052 0.024870 -0.094830
-0.496472 0.025778 -0.094811
-0.496892 0.026685 -0.094793
-0.497313 0.027592 -0.094774
-0.497733 0.028499 -0.094755
-0.498153 0.029406 -0.094737
-0.498573 0.030314 -0.094718
-0.498994 0.031221 -0.094699
-0.499414 0.032128 -0.094681
-0.499834 0.033035 -0.094662
-0.500254 0.033943 -0.094643
-0.500674 0.034850 -0.094625
-0.501095 0.035757 -0.094606
-0.501515 0.036664 -0.094587
-0.501935 0.037572 -0.094569
-0.502355 0.038479 -0.094550
-0.502775 0.039386 -0.094531
-0.503196 0.040293 -0.094513
-0.503616 0.041200 -0.094494
-0.504036 0.042108 -0.094475
-0.504456 0.043015 -0.094457
-0.504877 0.043922 -0.094438
-0.505297 0.044829 -0.094419
-0.505717 0.045737 -0.094401
-0.506137 0.046644 -0.094382
-0.506557 0.047551 -0.094363
-0.506978 0.048458 -0.094345
-0.507398 0.049366 -0.094326
-0.507818 0.050273 -0.094307
-0.508238 0.051180 -0.094289
-0.508659 0.052087 -0.094270
-0.509079 0.052994 -0.094251
-0.509499 0.053902 -0.094233
-0.509919 0.054809 -0.094214
-0.510339 0.055716 -0.094195
-0.510760 0.056623 -0.094177
-0.511180 0.057531 -0.094158
-0.511600 0.058438 -0.094139
-0.512020 0.059345 -0.094121
-0.512440 0.060252 -0.094102
-0.512861 0.061160 -0.094083
-0.513281 0.062067 -0.094065
-0.513701 0.062974 -0.094046
-0.514121 0.063881 -0.094027
-0.514542 0.064788 -0.094009
-0.514962 0.065696 -0.093990
-0.515382 0.066603 -0.093971
-0.515802 0.067510 -0.093953
-0.516222 0.068417 -0.093934
-0.516643 0.069325 -0.093915
-0.517063 0.070232 -0.093897
-0.517483 0.071139 -0.093878
-0.517903 0.072046 -0.093859
-0.518324 0.072954 -0.093841
-0.518744 0.073861 -0.093822
-0.519164 0.074768 -0.093803
-0.519584 0.075675 -0.093785
-0.520004 0.076582 -0.093766
-0.520425 0.077490 -0.093748
-0.520845 0.078397 -0.093729
-0.521265 0.079304 -0.093710
-0.521685 0.080211 -0.093692
-0.522106 0.081119 -0.093673
-0.522526 0.082026 -0.093654
-0.522946 0.082933 -0.093636
-0.523366 0.083840 -0.093617
-0.523786 0.084748 -0.093598
-0.524207 0.085655 -0.093580
-0.524627 0.086562 -0.093561
-0.525047 0.087469 -0.093542
-0.525467 0.088376 -0.093524
-0.525887 0.089284 -0.093505
-0.526308 0.090191 -0.093486
-0.526728 0.091098 -0.093468
-0.527148 0.092005 -0.093449
-0.527568 0.092913 -0.093430
-0.527989 0.093820 -0.093412
-0.528409 0.094727 -0.093393
-0.528829 0.095634 -0.093374
-0.529249 0.096542 -0.093356
-0.529669 0.097449 -0.093337
-0.530090 0.098356 -0.093318
-0.530510 0.099263 -0.093300
-0.530930 0.100171 -0.093281
-0.531350 0.101078 -0.093262
-0.531771 0.101985 -0.093244
-0.532191 0.102892 -0.093225
-0.532611 0.103799 -0.093206
-0.533031 0.104707 -0.093188
-0.533451 0.105614 -0.093169
-0.533872 0.106521 -0.093150
-0.534292 0.107428 -0.093132
-0.534712 0.108336 -0.093113
-0.535132 0.109243 -0.093094
-0.535553 0.110150 -0.093076
-0.535973 0.111057 -0.093057
-0.536393 0.111965 -0.093038
-0.536813 0.112872 -0.093020
-0.537233 0.113779 -0.093001
-0.537654 0.114686 -0.092982
-0.538074 0.115593 -0.092964
-0.538494 0.116501 -0.092945
-0.538914 0.117408 -0.092926
-0.539334 0.118315 -0.092908
-0.539755 0.119222 -0.092889
-0.540175 0.120130 -0.092870
-0.540595 0.121037 -0.092852
-0.541015 0.121944 -0.092833
-0.541436 0.122851 -0.092814
-0.541856 0.123759 -0.092796
-0.542276 0.124666 -0.092777
-0.542696 0.125573 -0.092758
-0.543116 0.126480 -0.092740
-0.543537 0.127387 -0.092721
-0.543957 0.128295 -0.092702
-0.544377 0.129202 -0.092684
-0.544797 0.130109 -0.092665
-0.545218 0.131016 -0.092646
-0.545638 0.131924 -0.092628
-0.546058 0.132831 -0.092609
-0.546478 0.133738 -0.092590
-0.546898 0.134645 -0.092572
-0.547319 0.135553 -0.092553
-0.547739 0.136460 -0.092534
-0.548159 0.137367 -0.092516
-0.548579 0.138274 -0.092497
-0.548999 0.139181 -0.092478
-0.549420 0.140089 -0.092460
-0.549840 0.140996 -0.092441
-0.550260 0.141903 -0.092422
-0.550680 0.142810 -0.092404
-0.551101 0.143718 -0.092385
-0.551521 0.144625 -0.092366
-0.551941 0.145532 -0.092348
-0.552361 0.146439 -0.092329
-0.552781 0.147347 -0.092310
-0.553202 0.148254 -0.092292
-0.553622 0.149161 -0.092273
-0.554042 0.150068 -0.092254
-0.554462 0.150975 -0.092236
-0.554883 0.151883 -0.092217
-0.555303 0.152790 -0.092198
-0.555723 0.153697 -0.092180
-0.556143 0.154604 -0.092161
-0.556563 0.155512 -0.092142
-0.556984 0.156419 -0.092124
-0.557404 0.157326 -0.092105
-0.557824 0.158233 -0.092086
-0.558244 0.159141 -0.092068
-0.558665 0.160048 -0.092049
-0.559085 0.160955 -0.092030
-0.559505 0.161862 -0.092012
-0.559925 0.162770 -0.091993
-0.560345 0.163677 -0.091974
-0.560766 0.164584 -0.091956
-0.561186 0.165491 -0.091937
-0.561606 0.166398 -0.091918
-0.562026 0.167306 -0.091900
-0.464230 -0.062866 -0.096504
-0.464650 -0.061958 -0.096486
-0.465071 -0.061051 -0.096467
-0.465491 -0.060144 -0.096448
-0.465911 -0.059237 -0.096430
-0.466331 -0.058329 -0.096411
-0.466751 -0.057422 -0.096392
-0.467172 -0.056515 -0.096374
-0.467592 -0.055608 -0.096355
-0.468012 -0.054701 -0.096336
-0.468432 -0.053793 -0.096318
-0.468853 -0.052886 -0.096299
-0.469273 -0.051979 -0.096280
-0.469693 -0.051072 -0.096262
-0.470113 -0.050164 -0.096243
-0.470533 -0.049257 -0.096224
-0.470954 -0.048350 -0.096206
-0.471374 -0.047443 -0.096187
-0.471794 -0.046535 -0.096168
-0.472214 -0.045628 -0.096150
-0.472635 -0.044721 -0.096131
-0.473055 -0.043814 -0.096112
-0.473475 -0.042907 -0.096094
-0.473895 -0.041999 -0.096075
-0.474315 -0.041092 -0.096056
-0.474736 -0.040185 -0.096038
-0.475156 -0.039278 -0.096019
-0.475576 -0.038370 -0.096000
-0.475996 -0.037463 -0.095982
-0.476416 -0.036556 -0.095963
-0.476837 -0.035649 -0.095944
-0.477257 -0.034741 -0.095926
-0.477677 -0.033834 -0.095907
-0.478097 -0.032927 -0.095888
-0.478518 -0.032020 -0.095870
-0.478938 -0.031112 -0.095851
-0.479358 -0.030205 -0.095832
-0.479778 -0.029298 -0.095814
-0.480198 -0.028391 -0.095795
-0.480619 -0.027484 -0.095776
-0.481039 -0.026576 -0.095758
-0.481459 -0.025669 -0.095739
-0.481879 -0.024762 -0.095720
-0.482300 -0.023855 -0.095702
-0.482720 -0.022947 -0.095683
-0.483140 -0.022040 -0.095664
-0.483560 -0.021133 -0.095646
-0.483980 -0.020226 -0.095627
-0.484401 -0.019318 -0.095608
-0.484821 -0.018411 -0.095590
-0.485241 -0.017504 -0.095571
-0.485661 -0.016597 -0.095552
-0.486081 -0.015690 -0.095534
-0.486502 -0.014782 -0.095515
-0.486922 -0.013875 -0.095496
-0.487342 -0.012968 -0.095478
-0.487762 -0.012061 -0.095459
-0.488183 -0.011153 -0.095440
-0.488603 -0.010246 -0.095422
-0.489023 -0.009339 -0.095403
-0.489443 -0.008432 -0.095384
-0.489863 -0.007524 -0.095366
-0.490284 -0.006617 -0.095347
-0.490704 -0.005710 -0.095328
-0.491124 -0.004803 -0.095310
-0.491544 -0.003896 -0.095291
-0.491965 -0.002988 -0.095272
-0.492385 -0.002081 -0.095254
-0.492805 -0.001174 -0.095235
-0.493225 -0.000267 -0.095216
-0.493645 0.000641 -0.095198
-0.494066 0.001548 -0.095179
-0.494486 0.002455 -0.095160
-0.494906 0.003362 -0.095142
-0.495326 0.004270 -0.095123
-0.495747 0.005177 -0.095104
-0.496167 0.006084 -0.095086
-0.496587 0.006991 -0.095067
-0.497007 0.007898 -0.095048
-0.497427 0.008806 -0.095030
-0.497848 0.009713 -0.095011
-0.498268 0.010620 -0.094992
-0.498688 0.011527 -0.094974
-0.499108 0.012435 -0.094955
-0.499528 0.013342 -0.094936
-0.499949 0.014249 -0.094918
-0.500369 0.015156 -0.094899
-0.500789 0.016064 -0.094880
-0.501209 0.016971 -0.094862
-0.501630 0.017878 -0.094843
-0.502050 0.018785 -0.094824
-0.502470 0.019692 -0.094806
-0.502890 0.020600 -0.094787
-0.503310 0.021507 -0.094768
-0.503731 0.022414 -0.094750
-0.504151 0.023321 -0.094731
-0.504571 0.024229 -0.094713
-0.504991 0.025136 -0.094694
-0.505412 0.026043 -0.094675
-0.505832 0.026950 -0.094657
-0.506252 0.027858 -0.094638
-0.506672 0.028765 -0.094619
-0.507092 0.029672 -0.094601
-0.507513 0.030579 -0.094582
-0.507933 0.031487 -0.094563
-0.508353 0.032394 -0.094545
-0.508773 0.033301 -0.094526
-0.509193 0.034208 -0.094507
-0.509614 0.035115 -0.094489
-0.510034 0.036023 -0.094470
-0.510454 0.036930 -0.094451
-0.510874 0.037837 -0.094433
-0.511295 0.038744 -0.094414
-0.511715 0.039652 -0.094395
-0.512135 0.040559 -0.094377
-0.512555 0.041466 -0.094358
-0.512975 0.042373 -0.094339
-0.513396 0.043281 -0.094321
-0.513816 0.044188 -0.094302
-0.514236 0.045095 -0.094283
-0.514656 0.046002 -0.094265
-0.515077 0.046909 -0.094246
-0.515497 0.047817 -0.094227
-0.515917 0.048724 -0.094209
-0.516337 0.049631 -0.094190
-0.516757 0.050538 -0.094171
-0.517178 0.051446 -0.094153
-0.517598 0.052353 -0.094134
-0.518018 0.053260 -0.094115
-0.518438 0.054167 -0.094097
-0.518859 0.055075 -0.094078
-0.519279 0.055982 -0.094059
-0.519699 0.056889 -0.094041
-0.520119 0.057796 -0.094022
-0.520539 0.058703 -0.094003
-0.520960 0.059611 -0.093985
-0.521380 0.060518 -0.093966
-0.521800 0.061425 -0.093947
-0.522220 0.062332 -0.093929
-0.522640 0.063240 -0.093910
-0.523061 0.064147 -0.093891
-0.523481 0.065054 -0.093873
-0.523901 0.065961 -0.093854
-0.524321 0.066869 -0.093835
-0.524742 0.067776 -0.093817
-0.525162 0.068683 -0.093798
-0.525582 0.069590 -0.093779
-0.526002 0.070497 -0.093761
-0.526422 0.071405 -0.093742
-0.526843 0.072312 -0.093723
-0.527263 0.073219 -0.093705
-0.527683 0.074126 -0.093686
-0.528103 0.075034 -0.093667
-0.528524 0.075941 -0.093649
-0.528944 0.076848 -0.093630
-0.529364 0.077755 -0.093611
-0.529784 0.078663 -0.093593
-0.530204 0.079570 -0.093574
-0.530625 0.080477 -0.093555
-0.531045 0.081384 -0.093537
-0.531465 0.082291 -0.093518
-0.531885 0.083199 -0.093499
-0.532305 0.084106 -0.093481
-0.532726 0.085013 -0.093462
-0.533146 0.085920 -0.093443
-0.533566 0.086828 -0.093425
-0.533986 0.087735 -0.093406
-0.534407 0.088642 -0.093387
-0.534827 0.089549 -0.093369
-0.535247 0.090457 -0.093350
-0.535667 0.091364 -0.093331
-0.536087 0.092271 -0.093313
-0.536508 0.093178 -0.093294
-0.536928 0.094085 -0.093275
-0.537348 0.094993 -0.093257
-0.537768 0.095900 -0.093238
-0.538189 0.096807 -0.093219
-0.538609 0.097714 -0.093201
-0.539029 0.098622 -0.093182
-0.539449 0.099529 -0.093163
-0.539869 0.100436 -0.093145
-0.540290 0.101343 -0.093126
-0.540710 0.102251 -0.093107
-0.541130 0.103158 -0.093089
-0.541550 0.104065 -0.093070
-0.541971 0.104972 -0.093051
-0.542391 0.105880 -0.093033
-0.542811 0.106787 -0.093014
-0.543231 0.107694 -0.092995
-0.543651 0.108601 -0.092977
-0.544072 0.109508 -0.092958
-0.544492 0.110416 -0.092939
-0.544912 0.111323 -0.092921
-0.545332 0.112230 -0.092902
-0.545752 0.113137 -0.092883
-0.546173 0.114045 -0.092865
-0.546593 0.114952 -0.092846
-0.547013 0.115859 -0.092827
-0.547433 0.116766 -0.092809
-0.547854 0.117674 -0.092790
-0.548274 0.118581 -0.092771
-0.548694 0.119488 -0.092753
-0.549114 0.120395 -0.092734
-0.549534 0.121302 -0.092715
-0.549955 0.122210 -0.092697
-0.550375 0.123117 -0.092678
-0.550795 0.124024 -0.092659
-0.551215 0.124931 -0.092641
-0.551636 0.125839 -0.092622
-0.552056 0.126746 -0.092604
-0.552476 0.127653 -0.092585
-0.552896 0.128560 -0.092566
-0.553316 0.129468 -0.092548
-0.553737 0.130375 -0.092529
-0.554157 0.131282 -0.092510
-0.554577 0.132189 -0.092492
-0.554997 0.133096 -0.092473
-0.555417 0.134004 -0.092454
-0.555838 0.134911 -0.092436
-0.556258 0.135818 -0.092417
-0.556678 0.136725 -0.092398
-0.557098 0.137633 -0.092380
-0.557519 0.138540 -0.092361
-0.557939 0.139447 -0.092342
-0.558359 0.140354 -0.092324
-0.558779 0.141262 -0.092305
-0.559199 0.142169 -0.092286
-0.559620 0.143076 -0.092268
-0.560040 0.143983 -0.092249
-0.560460 0.144890 -0.092230
-0.560880 0.145798 -0.092212
-0.561301 0.146705 -0.092193
-0.561721 0.147612 -0.092174
-0.562141 0.148519 -0.092156
-0.562561 0.149427 -0.092137
-0.562981 0.150334 -0.092118
-0.563402 0.151241 -0.092100
-0.563822 0.152148 -0.092081
-0.564242 0.153056 -0.092062
-0.564662 0.153963 -0.092044
-0.565083 0.154870 -0.092025
-0.565503 0.155777 -0.092006
-0.565923 0.156684 -0.091988
-0.566343 0.157592 -0.091969
-0.566763 0.158499 -0.091950
-0.567184 0.159406 -0.091932
-0.567604 0.160313 -0.091913
-0.568024 0.161221 -0.091894
-0.568444 0.162128 -0.091876
-0.568864 0.163035 -0.091857
-0.569285 0.163942 -0.091838
