ply
format ascii 1.0
element vertex 419
property float x
property float y
property float z
end_header
-0.604780 0.039703 -0.098739
-0.603790 0.039553 -0.098720
-0.602801 0.039402 -0.098701
-0.601811 0.039251 -0.098682
-0.600822 0.039101 -0.098662
-0.599832 0.038950 -0.098643
-0.598843 0.038799 -0.098624
-0.597853 0.038648 -0.098604
-0.596864 0.038498 -0.098585
-0.595874 0.038347 -0.098566
-0.594885 0.038196 -0.098547
-0.593895 0.038046 -0.098527
-0.592906 0.037895 -0.098508
-0.591916 0.037744 -0.098489
-0.590927 0.037593 -0.098470
-0.589937 0.037443 -0.098450
-0.588948 0.037292 -0.098431
-0.587958 0.037141 -0.098412
-0.586969 0.036991 -0.098392
-0.585979 0.036840 -0.098373
-0.584990 0.036689 -0.098354
-0.584000 0.036538 -0.098335
-0.583011 0.036388 -0.098315
-0.582022 0.036237 -0.098296
-0.581032 0.036086 -0.098277
-0.580043 0.035936 -0.098258
-0.579053 0.035785 -0.098238
-0.578064 0.035634 -0.098219
-0.577074 0.035483 -0.098200
-0.576085 0.035333 -0.098180
-0.575095 0.035182 -0.098161
-0.574106 0.035031 -0.098142
-0.573116 0.034881 -0.098123
-0.572127 0.034730 -0.098103
-0.571137 0.034579 -0.098084
-0.570148 0.034428 -0.098065
-0.569158 0.034278 -0.098046
-0.568169 0.034127 -0.098026
-0.567179 0.033976 -0.098007
-0.566190 0.033826 -0.097988
-0.565200 0.033675 -0.097968
-0.564211 0.033524 -0.097949
-0.563221 0.033373 -0.097930
-0.562232 0.033223 -0.097911
-0.561242 0.033072 -0.097891
-0.560253 0.032921 -0.097872
-0.559263 0.032771 -0.097853
-0.558274 0.032620 -0.097834
-0.557284 0.032469 -0.097814
-0.556295 0.032318 -0.097795
-0.555305 0.032168 -0.097776
-0.554316 0.032017 -0.097756
-0.553326 0.031866 -0.097737
-0.552337 0.031716 -0.097718
-0.551347 0.031565 -0.097699
-0.550358 0.031414 -0.097679
-0.549368 0.031263 -0.097660
-0.548379 0.031113 -0.097641
-0.547389 0.030962 -0.097622
-0.546400 0.030811 -0.097602
-0.545410 0.030660 -0.097583
-0.544421 0.030510 -0.097564
-0.543432 0.030359 -0.097544
-0.542442 0.030208 -0.097525
-0.541453 0.030058 -0.097506
-0.540463 0.029907 -0.097487
-0.539474 0.029756 -0.097467
-0.538484 0.029605 -0.097448
-0.537495 0.029455 -0.097429
-0.536505 0.029304 -0.097410
-0.535516 0.029153 -0.097390
-0.534526 0.029003 -0.097371
-0.533537 0.028852 -0.097352
-0.532547 0.028701 -0.097332
-0.531558 0.028550 -0.097313
-0.530568 0.028400 -0.097294
-0.529579 0.028249 -0.097275
-0.528589 0.028098 -0.097255
-0.527600 0.027948 -0.097236
-0.526610 0.027797 -0.097217
-0.525621 0.027646 -0.097198
-0.524631 0.027495 -0.097178
-0.523642 0.027345 -0.097159
-0.522652 0.027194 -0.097140
-0.521663 0.027043 -0.097120
-0.520673 0.026893 -0.097101
-0.519684 0.026742 -0.097082
-0.518694 0.026591 -0.097063
-0.517705 0.026440 -0.097043
-0.516715 0.026290 -0.097024
-0.515726 0.026139 -0.097005
-0.514736 0.025988 -0.096986
-0.513747 0.025838 -0.096966
-0.512757 0.025687 -0.096947
-0.511768 0.025536 -0.096928
-0.510778 0.025385 -0.096908
-0.509789 0.025235 -0.096889
-0.508799 0.025084 -0.096870
-0.507810 0.024933 -0.096851
-0.506820 0.024783 -0.096831
-0.505831 0.024632 -0.096812
-0.504842 0.024481 -0.096793
-0.503852 0.024330 -0.096773
-0.502863 0.024180 -0.096754
-0.501873 0.024029 -0.096735
-0.500884 0.023878 -0.096716
-0.499894 0.023728 -0.096696
-0.498905 0.023577 -0.096677
-0.497915 0.023426 -0.096658
-0.496926 0.023275 -0.096639
-0.495936 0.023125 -0.096619
-0.494947 0.022974 -0.096600
-0.493957 0.022823 -0.096581
-0.492968 0.022673 -0.096561
-0.491978 0.022522 -0.096542
-0.490989 0.022371 -0.096523
-0.489999 0.022220 -0.096504
-0.489010 0.022070 -0.096484
-0.488020 0.021919 -0.096465
-0.487031 0.021768 -0.096446
-0.486041 0.021618 -0.096427
-0.485052 0.021467 -0.096407
-0.484062 0.021316 -0.096388
-0.483073 0.021165 -0.096369
-0.482083 0.021015 -0.096349
-0.481094 0.020864 -0.096330
-0.480104 0.020713 -0.096311
-0.479115 0.020563 -0.096292
-0.478125 0.020412 -0.096272
-0.477136 0.020261 -0.096253
-0.476146 0.020110 -0.096234
-0.475157 0.019960 -0.096215
-0.474167 0.019809 -0.096195
-0.473178 0.019658 -0.096176
-0.472188 0.019508 -0.096157
-0.471199 0.019357 -0.096137
-0.470209 0.019206 -0.096118
-0.469220 0.019055 -0.096099
-0.468230 0.018905 -0.096080
-0.467241 0.018754 -0.096060
-0.466251 0.018603 -0.096041
-0.465262 0.018453 -0.096022
-0.464273 0.018302 -0.096003
-0.463283 0.018151 -0.095983
-0.462294 0.018000 -0.095964
-0.461304 0.017850 -0.095945
-0.460315 0.017699 -0.095925
-0.459325 0.017548 -0.095906
-0.458336 0.017397 -0.095887
-0.457346 0.017247 -0.095868
-0.456357 0.017096 -0.095848
-0.455367 0.016945 -0.095829
-0.454378 0.016795 -0.095810
-0.453388 0.016644 -0.095791
-0.452399 0.016493 -0.095771
-0.451409 0.016342 -0.095752
-0.450420 0.016192 -0.095733
-0.449430 0.016041 -0.095713
-0.448441 0.015890 -0.095694
-0.447451 0.015740 -0.095675
-0.446462 0.015589 -0.095656
-0.445472 0.015438 -0.095636
-0.444483 0.015287 -0.095617
-0.443493 0.015137 -0.095598
-0.442504 0.014986 -0.095579
-0.441514 0.014835 -0.095559
-0.440525 0.014685 -0.095540
-0.439535 0.014534 -0.095521
-0.438546 0.014383 -0.095501
-0.437556 0.014232 -0.095482
-0.436567 0.014082 -0.095463
-0.435577 0.013931 -0.095444
-0.434588 0.013780 -0.095424
-0.433598 0.013630 -0.095405
-0.432609 0.013479 -0.095386
-0.431619 0.013328 -0.095367
-0.430630 0.013177 -0.095347
-0.429640 0.013027 -0.095328
-0.428651 0.012876 -0.095309
-0.427661 0.012725 -0.095289
-0.426672 0.012575 -0.095270
-0.425683 0.012424 -0.095251
-0.424693 0.012273 -0.095232
-0.423704 0.012122 -0.095212
-0.422714 0.011972 -0.095193
-0.421725 0.011821 -0.095174
-0.420735 0.011670 -0.095155
-0.419746 0.011520 -0.095135
-0.418756 0.011369 -0.095116
-0.417767 0.011218 -0.095097
-0.416777 0.011067 -0.095077
-0.415788 0.010917 -0.095058
-0.414798 0.010766 -0.095039
-0.413809 0.010615 -0.095020
-0.412819 0.010465 -0.095000
-0.411830 0.010314 -0.094981
-0.410840 0.010163 -0.094962
-0.409851 0.010012 -0.094943
-0.408861 0.009862 -0.094923
-0.407872 0.009711 -0.094904
-0.406882 0.009560 -0.094885
-0.405893 0.009410 -0.094865
-0.404903 0.009259 -0.094846
-0.403914 0.009108 -0.094827
-0.402924 0.008957 -0.094808
-0.401935 0.008807 -0.094788
-0.400945 0.008656 -0.094769
-0.399956 0.008505 -0.094750
-0.398966 0.008355 -0.094731
-0.397977 0.008204 -0.094711
-0.396987 0.008053 -0.094692
-0.395998 0.007902 -0.094673
-0.395008 0.007752 -0.094653
-0.598908 0.030713 -0.099003
-0.597920 0.030563 -0.098984
-0.596931 0.030412 -0.098965
-0.595942 0.030262 -0.098945
-0.594954 0.030111 -0.098926
-0.593965 0.029960 -0.098907
-0.592976 0.029810 -0.098888
-0.591987 0.029659 -0.098868
-0.590999 0.029509 -0.098849
-0.590010 0.029358 -0.098830
-0.589021 0.029207 -0.098811
-0.588032 0.029057 -0.098791
-0.587044 0.028906 -0.098772
-0.586055 0.028756 -0.098753
-0.585066 0.028605 -0.098734
-0.584078 0.028454 -0.098714
-0.583089 0.028304 -0.098695
-0.582100 0.028153 -0.098676
-0.581111 0.028003 -0.098657
-0.580123 0.027852 -0.098637
-0.579134 0.027701 -0.098618
-0.578145 0.027551 -0.098599
-0.577157 0.027400 -0.098580
-0.576168 0.027250 -0.098560
-0.575179 0.027099 -0.098541
-0.574190 0.026948 -0.098522
-0.573202 0.026798 -0.098503
-0.572213 0.026647 -0.098483
-0.571224 0.026497 -0.098464
-0.570235 0.026346 -0.098445
-0.569247 0.026195 -0.098426
-0.568258 0.026045 -0.098406
-0.567269 0.025894 -0.098387
-0.566281 0.025744 -0.098368
-0.565292 0.025593 -0.098348
-0.564303 0.025442 -0.098329
-0.563314 0.025292 -0.098310
-0.562326 0.025141 -0.098291
-0.561337 0.024991 -0.098271
-0.560348 0.024840 -0.098252
-0.559359 0.024689 -0.098233
-0.558371 0.024539 -0.098214
-0.557382 0.024388 -0.098194
-0.556393 0.024238 -0.098175
-0.555405 0.024087 -0.098156
-0.554416 0.023936 -0.098137
-0.553427 0.023786 -0.098117
-0.552438 0.023635 -0.098098
-0.551450 0.023485 -0.098079
-0.550461 0.023334 -0.098060
-0.549472 0.023183 -0.098040
-0.548484 0.023033 -0.098021
-0.547495 0.022882 -0.098002
-0.546506 0.022732 -0.097983
-0.545517 0.022581 -0.097963
-0.544529 0.022430 -0.097944
-0.543540 0.022280 -0.097925
-0.542551 0.022129 -0.097906
-0.541562 0.021979 -0.097886
-0.540574 0.021828 -0.097867
-0.539585 0.021677 -0.097848
-0.538596 0.021527 -0.097828
-0.537608 0.021376 -0.097809
-0.536619 0.021226 -0.097790
-0.535630 0.021075 -0.097771
-0.534641 0.020924 -0.097751
-0.533653 0.020774 -0.097732
-0.532664 0.020623 -0.097713
-0.531675 0.020473 -0.097694
-0.530687 0.020322 -0.097674
-0.529698 0.020171 -0.097655
-0.528709 0.020021 -0.097636
-0.527720 0.019870 -0.097617
-0.526732 0.019720 -0.097597
-0.525743 0.019569 -0.097578
-0.524754 0.019418 -0.097559
-0.523765 0.019268 -0.097540
-0.522777 0.019117 -0.097520
-0.521788 0.018967 -0.097501
-0.520799 0.018816 -0.097482
-0.519811 0.018665 -0.097463
-0.518822 0.018515 -0.097443
-0.517833 0.018364 -0.097424
-0.516844 0.018214 -0.097405
-0.515856 0.018063 -0.097386
-0.514867 0.017912 -0.097366
-0.513878 0.017762 -0.097347
-0.512889 0.017611 -0.097328
-0.511901 0.017461 -0.097309
-0.510912 0.017310 -0.097289
-0.509923 0.017159 -0.097270
-0.508935 0.017009 -0.097251
-0.507946 0.016858 -0.097231
-0.506957 0.016708 -0.097212
-0.505968 0.016557 -0.097193
-0.504980 0.016406 -0.097174
-0.503991 0.016256 -0.097154
-0.503002 0.016105 -0.097135
-0.502014 0.015955 -0.097116
-0.501025 0.015804 -0.097097
-0.500036 0.015653 -0.097077
-0.499047 0.015503 -0.097058
-0.498059 0.015352 -0.097039
-0.497070 0.015202 -0.097020
-0.496081 0.015051 -0.097000
-0.495092 0.014900 -0.096981
-0.494104 0.014750 -0.096962
-0.493115 0.014599 -0.096943
-0.492126 0.014449 -0.096923
-0.491138 0.014298 -0.096904
-0.490149 0.014147 -0.096885
-0.489160 0.013997 -0.096866
-0.488171 0.013846 -0.096846
-0.487183 0.013696 -0.096827
-0.486194 0.013545 -0.096808
-0.485205 0.013394 -0.096789
-0.484217 0.013244 -0.096769
-0.483228 0.013093 -0.096750
-0.482239 0.012943 -0.096731
-0.481250 0.012792 -0.096712
-0.480262 0.012641 -0.096692
-0.479273 0.012491 -0.096673
-0.478284 0.012340 -0.096654
-0.477295 0.012190 -0.096634
-0.476307 0.012039 -0.096615
-0.475318 0.011888 -0.096596
-0.474329 0.011738 -0.096577
-0.473341 0.011587 -0.096557
-0.472352 0.011437 -0.096538
-0.471363 0.011286 -0.096519
-0.470374 0.011135 -0.096500
-0.469386 0.010985 -0.096480
-0.468397 0.010834 -0.096461
-0.467408 0.010684 -0.096442
-0.466420 0.010533 -0.096423
-0.465431 0.010382 -0.096403
-0.464442 0.010232 -0.096384
-0.463453 0.010081 -0.096365
-0.462465 0.009931 -0.096346
-0.461476 0.009780 -0.096326
-0.460487 0.009629 -0.096307
-0.459498 0.009479 -0.096288
-0.458510 0.009328 -0.096269
-0.457521 0.009178 -0.096249
-0.456532 0.009027 -0.096230
-0.455544 0.008876 -0.096211
-0.454555 0.008726 -0.096192
-0.453566 0.008575 -0.096172
-0.452577 0.008425 -0.096153
-0.451589 0.008274 -0.096134
-0.450600 0.008123 -0.096114
-0.449611 0.007973 -0.096095
-0.448622 0.007822 -0.096076
-0.447634 0.007672 -0.096057
-0.446645 0.007521 -0.096037
-0.445656 0.007370 -0.096018
-0.444668 0.007220 -0.095999
-0.443679 0.007069 -0.095980
-0.442690 0.006919 -0.095960
-0.441701 0.006768 -0.095941
-0.440713 0.006617 -0.095922
-0.439724 0.006467 -0.095903
-0.438735 0.006316 -0.095883
-0.437747 0.006166 -0.095864
-0.436758 0.006015 -0.095845
-0.435769 0.005864 -0.095826
-0.434780 0.005714 -0.095806
-0.433792 0.005563 -0.095787
-0.432803 0.005413 -0.095768
-0.431814 0.005262 -0.095749
-0.430825 0.005111 -0.095729
-0.429837 0.004961 -0.095710
-0.428848 0.004810 -0.095691
-0.427859 0.004660 -0.095672
-0.426871 0.004509 -0.095652
-0.425882 0.004358 -0.095633
-0.424893 0.004208 -0.095614
-0.423904 0.004057 -0.095595
-0.422916 0.003907 -0.095575
-0.421927 0.003756 -0.095556
-0.420938 0.003605 -0.095537
-0.419950 0.003455 -0.095517
-0.418961 0.003304 -0.095498
-0.417972 0.003154 -0.095479
-0.416983 0.003003 -0.095460
-0.415995 0.002852 -0.095440
-0.415006 0.002702 -0.095421
-0.414017 0.002551 -0.095402
-0.413028 0.002401 -0.095383
-0.412040 0.002250 -0.095363
-0.411051 0.002099 -0.095344
-0.410062 0.001949 -0.095325
-0.409074 0.001798 -0.095306
-0.408085 0.001648 -0.095286
-0.407096 0.001497 -0.095267
-0.406107 0.001347 -0.095248
-0.405119 0.001196 -0.095229
-0.404130 0.001045 -0.095209
-0.403141 0.000895 -0.095190
-0.402152 0.000744 -0.095171
-0.401164 0.000594 -0.095152
-0.400175 0.000443 -0.095132
-0.399186 0.000292 -0.095113
-0.398198 0.000142 -0.095094
-0.397209 -0.000009 -0.095075
-0.396220 -0.000159 -0.095055
