ply
format ascii 1.0
element vertex 502
property float x
property float y
property float z
end_header
-0.446937 -0.022586 -0.055186
-0.447584 -0.021824 -0.055163
-0.448231 -0.021062 -0.055140
-0.448878 -0.020300 -0.055117
-0.449525 -0.019537 -0.055094
-0.450172 -0.018775 -0.055071
-0.450819 -0.018013 -0.055049
-0.451466 -0.017251 -0.055026
-0.452113 -0.016488 -0.055003
-0.452760 -0.015726 -0.054980
-0.453407 -0.014964 -0.054957
-0.454054 -0.014202 -0.054934
-0.454701 -0.013440 -0.054911
-0.455348 -0.012677 -0.054889
-0.455995 -0.011915 -0.054866
-0.456642 -0.011153 -0.054843
-0.457289 -0.010391 -0.054820
-0.457937 -0.009628 -0.054797
-0.458584 -0.008866 -0.054774
-0.459231 -0.008104 -0.054751
-0.459878 -0.007342 -0.054729
-0.460525 -0.006580 -0.054706
-0.461172 -0.005817 -0.054683
-0.461819 -0.005055 -0.054660
-0.462466 -0.004293 -0.054637
-0.463113 -0.003531 -0.054614
-0.463760 -0.002768 -0.054591
-0.464407 -0.002006 -0.054568
-0.465054 -0.001244 -0.054546
-0.465701 -0.000482 -0.054523
-0.466348 0.000281 -0.054500
-0.466995 0.001043 -0.054477
-0.467642 0.001805 -0.054454
-0.468289 0.002567 -0.054431
-0.468936 0.003329 -0.054408
-0.469583 0.004092 -0.054386
-0.470230 0.004854 -0.054363
-0.470877 0.005616 -0.054340
-0.471524 0.006378 -0.054317
-0.472171 0.007141 -0.054294
-0.472818 0.007903 -0.054271
-0.473465 0.008665 -0.054248
-0.474112 0.009427 -0.054226
-0.474760 0.010189 -0.054203
-0.475407 0.010952 -0.054180
-0.476054 0.011714 -0.054157
-0.476701 0.012476 -0.054134
-0.477348 0.013238 -0.054111
-0.477995 0.014001 -0.054088
-0.478642 0.014763 -0.054065
-0.479289 0.015525 -0.054043
-0.479936 0.016287 -0.054020
-0.480583 0.017050 -0.053997
-0.481230 0.017812 -0.053974
-0.481877 0.018574 -0.053951
-0.482524 0.019336 -0.053928
-0.483171 0.020098 -0.053905
-0.483818 0.020861 -0.053883
-0.484465 0.021623 -0.053860
-0.485112 0.022385 -0.053837
-0.485759 0.023147 -0.053814
-0.486406 0.023910 -0.053791
-0.487053 0.024672 -0.053768
-0.487700 0.025434 -0.053745
-0.488347 0.026196 -0.053723
-0.488994 0.026958 -0.053700
-0.489641 0.027721 -0.053677
-0.490288 0.028483 -0.053654
-0.490935 0.029245 -0.053631
-0.491583 0.030007 -0.053608
-0.492230 0.030770 -0.053585
-0.492877 0.031532 -0.053563
-0.493524 0.032294 -0.053540
-0.494171 0.033056 -0.053517
-0.494818 0.033819 -0.053494
-0.495465 0.034581 -0.053471
-0.496112 0.035343 -0.053448
-0.496759 0.036105 -0.053425
-0.497406 0.036867 -0.053402
-0.498053 0.037630 -0.053380
-0.498700 0.038392 -0.053357
-0.499347 0.039154 -0.053334
-0.499994 0.039916 -0.053311
-0.500641 0.040679 -0.053288
-0.501288 0.041441 -0.053265
-0.501935 0.042203 -0.053242
-0.502582 0.042965 -0.053220
-0.503229 0.043727 -0.053197
-0.503876 0.044490 -0.053174
-0.504523 0.045252 -0.053151
-0.505170 0.046014 -0.053128
-0.505817 0.046776 -0.053105
-0.506464 0.047539 -0.053082
-0.507111 0.048301 -0.053060
-0.507758 0.049063 -0.053037
-0.508406 0.049825 -0.053014
-0.509053 0.050588 -0.052991
-0.509700 0.051350 -0.052968
-0.510347 0.052112 -0.052945
-0.510994 0.052874 -0.052922
-0.511641 0.053636 -0.052899
-0.512288 0.054399 -0.052877
-0.512935 0.055161 -0.052854
-0.513582 0.055923 -0.052831
-0.514229 0.056685 -0.052808
-0.514876 0.057448 -0.052785
-0.515523 0.058210 -0.052762
-0.516170 0.058972 -0.052739
-0.516817 0.059734 -0.052717
-0.517464 0.060496 -0.052694
-0.518111 0.061259 -0.052671
-0.518758 0.062021 -0.052648
-0.519405 0.062783 -0.052625
-0.520052 0.063545 -0.052602
-0.520699 0.064308 -0.052579
-0.521346 0.065070 -0.052557
-0.521993 0.065832 -0.052534
-0.522640 0.066594 -0.052511
-0.523287 0.067357 -0.052488
-0.523934 0.068119 -0.052465
-0.524581 0.068881 -0.052442
-0.525229 0.069643 -0.052419
-0.525876 0.070405 -0.052396
-0.526523 0.071168 -0.052374
-0.527170 0.071930 -0.052351
-0.527817 0.072692 -0.052328
-0.528464 0.073454 -0.052305
-0.529111 0.074217 -0.052282
-0.529758 0.074979 -0.052259
-0.530405 0.075741 -0.052236
-0.531052 0.076503 -0.052214
-0.531699 0.077265 -0.052191
-0.532346 0.078028 -0.052168
-0.532993 0.078790 -0.052145
-0.533640 0.079552 -0.052122
-0.534287 0.080314 -0.052099
-0.534934 0.081077 -0.052076
-0.535581 0.081839 -0.052054
-0.536228 0.082601 -0.052031
-0.536875 0.083363 -0.052008
-0.537522 0.084126 -0.051985
-0.538169 0.084888 -0.051962
-0.538816 0.085650 -0.051939
-0.539463 0.086412 -0.051916
-0.540110 0.087174 -0.051894
-0.540757 0.087937 -0.051871
-0.541404 0.088699 -0.051848
-0.542052 0.089461 -0.051825
-0.542699 0.090223 -0.051802
-0.543346 0.090986 -0.051779
-0.543993 0.091748 -0.051756
-0.544640 0.092510 -0.051733
-0.545287 0.093272 -0.051711
-0.545934 0.094034 -0.051688
-0.546581 0.094797 -0.051665
-0.547228 0.095559 -0.051642
-0.547875 0.096321 -0.051619
-0.548522 0.097083 -0.051596
-0.549169 0.097846 -0.051573
-0.549816 0.098608 -0.051551
-0.550463 0.099370 -0.051528
-0.551110 0.100132 -0.051505
-0.551757 0.100895 -0.051482
-0.552404 0.101657 -0.051459
-0.553051 0.102419 -0.051436
-0.553698 0.103181 -0.051413
-0.554345 0.103943 -0.051391
-0.554992 0.104706 -0.051368
-0.555639 0.105468 -0.051345
-0.556286 0.106230 -0.051322
-0.556933 0.106992 -0.051299
-0.557580 0.107755 -0.051276
-0.558227 0.108517 -0.051253
-0.558875 0.109279 -0.051230
-0.559522 0.110041 -0.051208
-0.560169 0.110803 -0.051185
-0.560816 0.111566 -0.051162
-0.561463 0.112328 -0.051139
-0.562110 0.113090 -0.051116
-0.562757 0.113852 -0.051093
-0.563404 0.114615 -0.051070
-0.564051 0.115377 -0.051048
-0.564698 0.116139 -0.051025
-0.565345 0.116901 -0.051002
-0.565992 0.117664 -0.050979
-0.566639 0.118426 -0.050956
-0.567286 0.119188 -0.050933
-0.567933 0.119950 -0.050910
-0.568580 0.120712 -0.050888
-0.569227 0.121475 -0.050865
-0.569874 0.122237 -0.050842
-0.570521 0.122999 -0.050819
-0.571168 0.123761 -0.050796
-0.571815 0.124524 -0.050773
-0.572462 0.125286 -0.050750
-0.573109 0.126048 -0.050728
-0.573756 0.126810 -0.050705
-0.574403 0.127572 -0.050682
-0.575050 0.128335 -0.050659
-0.575698 0.129097 -0.050636
-0.576345 0.129859 -0.050613
-0.576992 0.130621 -0.050590
-0.577639 0.131384 -0.050567
-0.578286 0.132146 -0.050545
-0.578933 0.132908 -0.050522
-0.579580 0.133670 -0.050499
-0.580227 0.134433 -0.050476
-0.580874 0.135195 -0.050453
-0.581521 0.135957 -0.050430
-0.582168 0.136719 -0.050407
-0.582815 0.137481 -0.050385
-0.583462 0.138244 -0.050362
-0.584109 0.139006 -0.050339
-0.584756 0.139768 -0.050316
-0.585403 0.140530 -0.050293
-0.586050 0.141293 -0.050270
-0.586697 0.142055 -0.050247
-0.587344 0.142817 -0.050225
-0.587991 0.143579 -0.050202
-0.588638 0.144341 -0.050179
-0.589285 0.145104 -0.050156
-0.589932 0.145866 -0.050133
-0.590579 0.146628 -0.050110
-0.591226 0.147390 -0.050087
-0.591873 0.148153 -0.050064
-0.592521 0.148915 -0.050042
-0.593168 0.149677 -0.050019
-0.593815 0.150439 -0.049996
-0.594462 0.151201 -0.049973
-0.595109 0.151964 -0.049950
-0.595756 0.152726 -0.049927
-0.596403 0.153488 -0.049904
-0.597050 0.154250 -0.049882
-0.597697 0.155013 -0.049859
-0.598344 0.155775 -0.049836
-0.598991 0.156537 -0.049813
-0.599638 0.157299 -0.049790
-0.600285 0.158062 -0.049767
-0.600932 0.158824 -0.049744
-0.601579 0.159586 -0.049722
-0.602226 0.160348 -0.049699
-0.602873 0.161110 -0.049676
-0.603520 0.161873 -0.049653
-0.604167 0.162635 -0.049630
-0.604814 0.163397 -0.049607
-0.605461 0.164159 -0.049584
-0.606108 0.164922 -0.049561
-0.606755 0.165684 -0.049539
-0.607402 0.166446 -0.049516
-0.608049 0.167208 -0.049493
-0.608696 0.167970 -0.049470
-0.440837 -0.017410 -0.055120
-0.441484 -0.016648 -0.055098
-0.442131 -0.015886 -0.055075
-0.442778 -0.015124 -0.055052
-0.443425 -0.014361 -0.055029
-0.444072 -0.013599 -0.055006
-0.444720 -0.012837 -0.054983
-0.445367 -0.012075 -0.054960
-0.446014 -0.011312 -0.054938
-0.446661 -0.010550 -0.054915
-0.447308 -0.009788 -0.054892
-0.447955 -0.009026 -0.054869
-0.448602 -0.008264 -0.054846
-0.449249 -0.007501 -0.054823
-0.449896 -0.006739 -0.054800
-0.450543 -0.005977 -0.054777
-0.451190 -0.005215 -0.054755
-0.451837 -0.004452 -0.054732
-0.452484 -0.003690 -0.054709
-0.453131 -0.002928 -0.054686
-0.453778 -0.002166 -0.054663
-0.454425 -0.001404 -0.054640
-0.455072 -0.000641 -0.054617
-0.455719 0.000121 -0.054595
-0.456366 0.000883 -0.054572
-0.457013 0.001645 -0.054549
-0.457660 0.002408 -0.054526
-0.458307 0.003170 -0.054503
-0.458954 0.003932 -0.054480
-0.459601 0.004694 -0.054457
-0.460248 0.005457 -0.054435
-0.460895 0.006219 -0.054412
-0.461543 0.006981 -0.054389
-0.462190 0.007743 -0.054366
-0.462837 0.008505 -0.054343
-0.463484 0.009268 -0.054320
-0.464131 0.010030 -0.054297
-0.464778 0.010792 -0.054275
-0.465425 0.011554 -0.054252
-0.466072 0.012317 -0.054229
-0.466719 0.013079 -0.054206
-0.467366 0.013841 -0.054183
-0.468013 0.014603 -0.054160
-0.468660 0.015365 -0.054137
-0.469307 0.016128 -0.054114
-0.469954 0.016890 -0.054092
-0.470601 0.017652 -0.054069
-0.471248 0.018414 -0.054046
-0.471895 0.019177 -0.054023
-0.472542 0.019939 -0.054000
-0.473189 0.020701 -0.053977
-0.473836 0.021463 -0.053954
-0.474483 0.022226 -0.053932
-0.475130 0.022988 -0.053909
-0.475777 0.023750 -0.053886
-0.476424 0.024512 -0.053863
-0.477071 0.025274 -0.053840
-0.477718 0.026037 -0.053817
-0.478366 0.026799 -0.053794
-0.479013 0.027561 -0.053772
-0.479660 0.028323 -0.053749
-0.480307 0.029086 -0.053726
-0.480954 0.029848 -0.053703
-0.481601 0.030610 -0.053680
-0.482248 0.031372 -0.053657
-0.482895 0.032134 -0.053634
-0.483542 0.032897 -0.053611
-0.484189 0.033659 -0.053589
-0.484836 0.034421 -0.053566
-0.485483 0.035183 -0.053543
-0.486130 0.035946 -0.053520
-0.486777 0.036708 -0.053497
-0.487424 0.037470 -0.053474
-0.488071 0.038232 -0.053451
-0.488718 0.038995 -0.053429
-0.489365 0.039757 -0.053406
-0.490012 0.040519 -0.053383
-0.490659 0.041281 -0.053360
-0.491306 0.042043 -0.053337
-0.491953 0.042806 -0.053314
-0.492600 0.043568 -0.053291
-0.493247 0.044330 -0.053269
-0.493894 0.045092 -0.053246
-0.494541 0.045855 -0.053223
-0.495189 0.046617 -0.053200
-0.495836 0.047379 -0.053177
-0.496483 0.048141 -0.053154
-0.497130 0.048903 -0.053131
-0.497777 0.049666 -0.053109
-0.498424 0.050428 -0.053086
-0.499071 0.051190 -0.053063
-0.499718 0.051952 -0.053040
-0.500365 0.052715 -0.053017
-0.501012 0.053477 -0.052994
-0.501659 0.054239 -0.052971
-0.502306 0.055001 -0.052948
-0.502953 0.055764 -0.052926
-0.503600 0.056526 -0.052903
-0.504247 0.057288 -0.052880
-0.504894 0.058050 -0.052857
-0.505541 0.058812 -0.052834
-0.506188 0.059575 -0.052811
-0.506835 0.060337 -0.052788
-0.507482 0.061099 -0.052766
-0.508129 0.061861 -0.052743
-0.508776 0.062624 -0.052720
-0.509423 0.063386 -0.052697
-0.510070 0.064148 -0.052674
-0.510717 0.064910 -0.052651
-0.511364 0.065672 -0.052628
-0.512012 0.066435 -0.052606
-0.512659 0.067197 -0.052583
-0.513306 0.067959 -0.052560
-0.513953 0.068721 -0.052537
-0.514600 0.069484 -0.052514
-0.515247 0.070246 -0.052491
-0.515894 0.071008 -0.052468
-0.516541 0.071770 -0.052445
-0.517188 0.072533 -0.052423
-0.517835 0.073295 -0.052400
-0.518482 0.074057 -0.052377
-0.519129 0.074819 -0.052354
-0.519776 0.075581 -0.052331
-0.520423 0.076344 -0.052308
-0.521070 0.077106 -0.052285
-0.521717 0.077868 -0.052263
-0.522364 0.078630 -0.052240
-0.523011 0.079393 -0.052217
-0.523658 0.080155 -0.052194
-0.524305 0.080917 -0.052171
-0.524952 0.081679 -0.052148
-0.525599 0.082441 -0.052125
-0.526246 0.083204 -0.052103
-0.526893 0.083966 -0.052080
-0.527540 0.084728 -0.052057
-0.528187 0.085490 -0.052034
-0.528835 0.086253 -0.052011
-0.529482 0.087015 -0.051988
-0.530129 0.087777 -0.051965
-0.530776 0.088539 -0.051943
-0.531423 0.089302 -0.051920
-0.532070 0.090064 -0.051897
-0.532717 0.090826 -0.051874
-0.533364 0.091588 -0.051851
-0.534011 0.092350 -0.051828
-0.534658 0.093113 -0.051805
-0.535305 0.093875 -0.051782
-0.535952 0.094637 -0.051760
-0.536599 0.095399 -0.051737
-0.537246 0.096162 -0.051714
-0.537893 0.096924 -0.051691
-0.538540 0.097686 -0.051668
-0.539187 0.098448 -0.051645
-0.539834 0.099210 -0.051622
-0.540481 0.099973 -0.051600
-0.541128 0.100735 -0.051577
-0.541775 0.101497 -0.051554
-0.542422 0.102259 -0.051531
-0.543069 0.103022 -0.051508
-0.543716 0.103784 -0.051485
-0.544363 0.104546 -0.051462
-0.545010 0.105308 -0.051440
-0.545658 0.106071 -0.051417
-0.546305 0.106833 -0.051394
-0.546952 0.107595 -0.051371
-0.547599 0.108357 -0.051348
-0.548246 0.109119 -0.051325
-0.548893 0.109882 -0.051302
-0.549540 0.110644 -0.051279
-0.550187 0.111406 -0.051257
-0.550834 0.112168 -0.051234
-0.551481 0.112931 -0.051211
-0.552128 0.113693 -0.051188
-0.552775 0.114455 -0.051165
-0.553422 0.115217 -0.051142
-0.554069 0.115979 -0.051119
-0.554716 0.116742 -0.051097
-0.555363 0.117504 -0.051074
-0.556010 0.118266 -0.051051
-0.556657 0.119028 -0.051028
-0.557304 0.119791 -0.051005
-0.557951 0.120553 -0.050982
-0.558598 0.121315 -0.050959
-0.559245 0.122077 -0.050937
-0.559892 0.122840 -0.050914
-0.560539 0.123602 -0.050891
-0.561186 0.124364 -0.050868
-0.561833 0.125126 -0.050845
-0.562481 0.125888 -0.050822
-0.563128 0.126651 -0.050799
-0.563775 0.127413 -0.050776
-0.564422 0.128175 -0.050754
-0.565069 0.128937 -0.050731
-0.565716 0.129700 -0.050708
-0.566363 0.130462 -0.050685
-0.567010 0.131224 -0.050662
-0.567657 0.131986 -0.050639
-0.568304 0.132748 -0.050616
-0.568951 0.133511 -0.050594
-0.569598 0.134273 -0.050571
-0.570245 0.135035 -0.050548
-0.570892 0.135797 -0.050525
-0.571539 0.136560 -0.050502
-0.572186 0.137322 -0.050479
-0.572833 0.138084 -0.050456
-0.573480 0.138846 -0.050434
-0.574127 0.139609 -0.050411
-0.574774 0.140371 -0.050388
-0.575421 0.141133 -0.050365
-0.576068 0.141895 -0.050342
-0.576715 0.142657 -0.050319
-0.577362 0.143420 -0.050296
-0.578009 0.144182 -0.050274
-0.578656 0.144944 -0.050251
-0.579304 0.145706 -0.050228
-0.579951 0.146469 -0.050205
-0.580598 0.147231 -0.050182
-0.581245 0.147993 -0.050159
-0.581892 0.148755 -0.050136
-0.582539 0.149517 -0.050113
-0.583186 0.150280 -0.050091
-0.583833 0.151042 -0.050068
-0.584480 0.151804 -0.050045
-0.585127 0.152566 -0.050022
-0.585774 0.153329 -0.049999
-0.586421 0.154091 -0.049976
-0.587068 0.154853 -0.049953
-0.587715 0.155615 -0.049931
-0.588362 0.156378 -0.049908
-0.589009 0.157140 -0.049885
-0.589656 0.157902 -0.049862
-0.590303 0.158664 -0.049839
-0.590950 0.159426 -0.049816
-0.591597 0.160189 -0.049793
-0.592244 0.160951 -0.049771
-0.592891 0.161713 -0.049748
-0.593538 0.162475 -0.049725
-0.594185 0.163238 -0.049702
-0.594832 0.164000 -0.049679
-0.595480 0.164762 -0.049656
-0.596127 0.165524 -0.049633
-0.596774 0.166286 -0.049610
-0.597421 0.167049 -0.049588
-0.598068 0.167811 -0.049565
-0.598715 0.168573 -0.049542
-0.599362 0.169335 -0.049519
-0.600009 0.170098 -0.049496
-0.600656 0.170860 -0.049473
-0.601303 0.171622 -0.049450
-0.601950 0.172384 -0.049428
-0.602597 0.173147 -0.049405
