ply
format ascii 1.0
element vertex 502
property float x
property float y
property float z
end_header
-0.647930 0.029009 -0.047097
-0.646962 0.029262 -0.047096
-0.645995 0.029516 -0.047095
-0.645027 0.029769 -0.047094
-0.644059 0.030023 -0.047093
-0.643092 0.030277 -0.047092
-0.642124 0.030530 -0.047090
-0.641156 0.030784 -0.047089
-0.640189 0.031037 -0.047088
-0.639221 0.031291 -0.047087
-0.638254 0.031545 -0.047086
-0.637286 0.031798 -0.047085
-0.636318 0.032052 -0.047084
-0.635351 0.032305 -0.047083
-0.634383 0.032559 -0.047082
-0.633415 0.032813 -0.047081
-0.632448 0.033066 -0.047080
-0.631480 0.033320 -0.047079
-0.630512 0.033573 -0.047078
-0.629545 0.033827 -0.047077
-0.628577 0.034081 -0.047076
-0.627609 0.034334 -0.047075
-0.626642 0.034588 -0.047074
-0.625674 0.034841 -0.047073
-0.624706 0.035095 -0.047072
-0.623739 0.035348 -0.047071
-0.622771 0.035602 -0.047070
-0.621803 0.035856 -0.047069
-0.620836 0.036109 -0.047068
-0.619868 0.036363 -0.047067
-0.618900 0.036616 -0.047065
-0.617933 0.036870 -0.047064
-0.616965 0.037124 -0.047063
-0.615998 0.037377 -0.047062
-0.615030 0.037631 -0.047061
-0.614062 0.037884 -0.047060
-0.613095 0.038138 -0.047059
-0.612127 0.038392 -0.047058
-0.611159 0.038645 -0.047057
-0.610192 0.038899 -0.047056
-0.609224 0.039152 -0.047055
-0.608256 0.039406 -0.047054
-0.607289 0.039660 -0.047053
-0.606321 0.039913 -0.047052
-0.605353 0.040167 -0.047051
-0.604386 0.040420 -0.047050
-0.603418 0.040674 -0.047049
-0.602450 0.040928 -0.047048
-0.601483 0.041181 -0.047047
-0.600515 0.041435 -0.047046
-0.599547 0.041688 -0.047045
-0.598580 0.041942 -0.047044
-0.597612 0.042195 -0.047043
-0.596644 0.042449 -0.047042
-0.595677 0.042703 -0.047040
-0.594709 0.042956 -0.047039
-0.593742 0.043210 -0.047038
-0.592774 0.043463 -0.047037
-0.591806 0.043717 -0.047036
-0.590839 0.043971 -0.047035
-0.589871 0.044224 -0.047034
-0.588903 0.044478 -0.047033
-0.587936 0.044731 -0.047032
-0.586968 0.044985 -0.047031
-0.586000 0.045239 -0.047030
-0.585033 0.045492 -0.047029
-0.584065 0.045746 -0.047028
-0.583097 0.045999 -0.047027
-0.582130 0.046253 -0.047026
-0.581162 0.046507 -0.047025
-0.580194 0.046760 -0.047024
-0.579227 0.047014 -0.047023
-0.578259 0.047267 -0.047022
-0.577291 0.047521 -0.047021
-0.576324 0.047775 -0.047020
-0.575356 0.048028 -0.047019
-0.574388 0.048282 -0.047018
-0.573421 0.048535 -0.047017
-0.572453 0.048789 -0.047015
-0.571486 0.049043 -0.047014
-0.570518 0.049296 -0.047013
-0.569550 0.049550 -0.047012
-0.568583 0.049803 -0.047011
-0.567615 0.050057 -0.047010
-0.566647 0.050310 -0.047009
-0.565680 0.050564 -0.047008
-0.564712 0.050818 -0.047007
-0.563744 0.051071 -0.047006
-0.562777 0.051325 -0.047005
-0.561809 0.051578 -0.047004
-0.560841 0.051832 -0.047003
-0.559874 0.052086 -0.047002
-0.558906 0.052339 -0.047001
-0.557938 0.052593 -0.047000
-0.556971 0.052846 -0.046999
-0.556003 0.053100 -0.046998
-0.555035 0.053354 -0.046997
-0.554068 0.053607 -0.046996
-0.553100 0.053861 -0.046995
-0.552133 0.054114 -0.046994
-0.551165 0.054368 -0.046993
-0.550197 0.054622 -0.046992
-0.549230 0.054875 -0.046990
-0.548262 0.055129 -0.046989
-0.547294 0.055382 -0.046988
-0.546327 0.055636 -0.046987
-0.545359 0.055890 -0.046986
-0.544391 0.056143 -0.046985
-0.543424 0.056397 -0.046984
-0.542456 0.056650 -0.046983
-0.541488 0.056904 -0.046982
-0.540521 0.057157 -0.046981
-0.539553 0.057411 -0.046980
-0.538585 0.057665 -0.046979
-0.537618 0.057918 -0.046978
-0.536650 0.058172 -0.046977
-0.535682 0.058425 -0.046976
-0.534715 0.058679 -0.046975
-0.533747 0.058933 -0.046974
-0.532779 0.059186 -0.046973
-0.531812 0.059440 -0.046972
-0.530844 0.059693 -0.046971
-0.529877 0.059947 -0.046970
-0.528909 0.060201 -0.046969
-0.527941 0.060454 -0.046968
-0.526974 0.060708 -0.046967
-0.526006 0.060961 -0.046965
-0.525038 0.061215 -0.046964
-0.524071 0.061469 -0.046963
-0.523103 0.061722 -0.046962
-0.522135 0.061976 -0.046961
-0.521168 0.062229 -0.046960
-0.520200 0.062483 -0.046959
-0.519232 0.062737 -0.046958
-0.518265 0.062990 -0.046957
-0.517297 0.063244 -0.046956
-0.516329 0.063497 -0.046955
-0.515362 0.063751 -0.046954
-0.514394 0.064004 -0.046953
-0.513426 0.064258 -0.046952
-0.512459 0.064512 -0.046951
-0.511491 0.064765 -0.046950
-0.510523 0.065019 -0.046949
-0.509556 0.065272 -0.046948
-0.508588 0.065526 -0.046947
-0.507621 0.065780 -0.046946
-0.506653 0.066033 -0.046945
-0.505685 0.066287 -0.046944
-0.504718 0.066540 -0.046943
-0.503750 0.066794 -0.046942
-0.502782 0.067048 -0.046940
-0.501815 0.067301 -0.046939
-0.500847 0.067555 -0.046938
-0.499879 0.067808 -0.046937
-0.498912 0.068062 -0.046936
-0.497944 0.068316 -0.046935
-0.496976 0.068569 -0.046934
-0.496009 0.068823 -0.046933
-0.495041 0.069076 -0.046932
-0.494073 0.069330 -0.046931
-0.493106 0.069584 -0.046930
-0.492138 0.069837 -0.046929
-0.491170 0.070091 -0.046928
-0.490203 0.070344 -0.046927
-0.489235 0.070598 -0.046926
-0.488267 0.070852 -0.046925
-0.487300 0.071105 -0.046924
-0.486332 0.071359 -0.046923
-0.485365 0.071612 -0.046922
-0.484397 0.071866 -0.046921
-0.483429 0.072119 -0.046920
-0.482462 0.072373 -0.046919
-0.481494 0.072627 -0.046918
-0.480526 0.072880 -0.046916
-0.479559 0.073134 -0.046915
-0.478591 0.073387 -0.046914
-0.477623 0.073641 -0.046913
-0.476656 0.073895 -0.046912
-0.475688 0.074148 -0.046911
-0.474720 0.074402 -0.046910
-0.473753 0.074655 -0.046909
-0.472785 0.074909 -0.046908
-0.471817 0.075163 -0.046907
-0.470850 0.075416 -0.046906
-0.469882 0.075670 -0.046905
-0.468914 0.075923 -0.046904
-0.467947 0.076177 -0.046903
-0.466979 0.076431 -0.046902
-0.466011 0.076684 -0.046901
-0.465044 0.076938 -0.046900
-0.464076 0.077191 -0.046899
-0.463109 0.077445 -0.046898
-0.462141 0.077699 -0.046897
-0.461173 0.077952 -0.046896
-0.460206 0.078206 -0.046895
-0.459238 0.078459 -0.046894
-0.458270 0.078713 -0.046893
-0.457303 0.078966 -0.046891
-0.456335 0.079220 -0.046890
-0.455367 0.079474 -0.046889
-0.454400 0.079727 -0.046888
-0.453432 0.079981 -0.046887
-0.452464 0.080234 -0.046886
-0.451497 0.080488 -0.046885
-0.450529 0.080742 -0.046884
-0.449561 0.080995 -0.046883
-0.448594 0.081249 -0.046882
-0.447626 0.081502 -0.046881
-0.446658 0.081756 -0.046880
-0.445691 0.082010 -0.046879
-0.444723 0.082263 -0.046878
-0.443755 0.082517 -0.046877
-0.442788 0.082770 -0.046876
-0.441820 0.083024 -0.046875
-0.440853 0.083278 -0.046874
-0.439885 0.083531 -0.046873
-0.438917 0.083785 -0.046872
-0.437950 0.084038 -0.046871
-0.436982 0.084292 -0.046870
-0.436014 0.084546 -0.046869
-0.435047 0.084799 -0.046868
-0.434079 0.085053 -0.046866
-0.433111 0.085306 -0.046865
-0.432144 0.085560 -0.046864
-0.431176 0.085813 -0.046863
-0.430208 0.086067 -0.046862
-0.429241 0.086321 -0.046861
-0.428273 0.086574 -0.046860
-0.427305 0.086828 -0.046859
-0.426338 0.087081 -0.046858
-0.425370 0.087335 -0.046857
-0.424402 0.087589 -0.046856
-0.423435 0.087842 -0.046855
-0.422467 0.088096 -0.046854
-0.421499 0.088349 -0.046853
-0.420532 0.088603 -0.046852
-0.419564 0.088857 -0.046851
-0.418597 0.089110 -0.046850
-0.417629 0.089364 -0.046849
-0.416661 0.089617 -0.046848
-0.415694 0.089871 -0.046847
-0.414726 0.090125 -0.046846
-0.413758 0.090378 -0.046845
-0.412791 0.090632 -0.046844
-0.411823 0.090885 -0.046843
-0.410855 0.091139 -0.046841
-0.409888 0.091393 -0.046840
-0.408920 0.091646 -0.046839
-0.407952 0.091900 -0.046838
-0.406985 0.092153 -0.046837
-0.406017 0.092407 -0.046836
-0.645898 0.021272 -0.047318
-0.644930 0.021526 -0.047317
-0.643963 0.021780 -0.047316
-0.642995 0.022033 -0.047315
-0.642027 0.022287 -0.047314
-0.641060 0.022540 -0.047313
-0.640092 0.022794 -0.047312
-0.639124 0.023048 -0.047311
-0.638157 0.023301 -0.047310
-0.637189 0.023555 -0.047309
-0.636221 0.023808 -0.047308
-0.635254 0.024062 -0.047307
-0.634286 0.024315 -0.047306
-0.633318 0.024569 -0.047305
-0.632351 0.024823 -0.047304
-0.631383 0.025076 -0.047303
-0.630415 0.025330 -0.047302
-0.629448 0.025583 -0.047301
-0.628480 0.025837 -0.047300
-0.627512 0.026091 -0.047299
-0.626545 0.026344 -0.047298
-0.625577 0.026598 -0.047297
-0.624609 0.026851 -0.047295
-0.623642 0.027105 -0.047294
-0.622674 0.027359 -0.047293
-0.621707 0.027612 -0.047292
-0.620739 0.027866 -0.047291
-0.619771 0.028119 -0.047290
-0.618804 0.028373 -0.047289
-0.617836 0.028627 -0.047288
-0.616868 0.028880 -0.047287
-0.615901 0.029134 -0.047286
-0.614933 0.029387 -0.047285
-0.613965 0.029641 -0.047284
-0.612998 0.029895 -0.047283
-0.612030 0.030148 -0.047282
-0.611062 0.030402 -0.047281
-0.610095 0.030655 -0.047280
-0.609127 0.030909 -0.047279
-0.608159 0.031163 -0.047278
-0.607192 0.031416 -0.047277
-0.606224 0.031670 -0.047276
-0.605256 0.031923 -0.047275
-0.604289 0.032177 -0.047274
-0.603321 0.032430 -0.047273
-0.602353 0.032684 -0.047272
-0.601386 0.032938 -0.047270
-0.600418 0.033191 -0.047269
-0.599451 0.033445 -0.047268
-0.598483 0.033698 -0.047267
-0.597515 0.033952 -0.047266
-0.596548 0.034206 -0.047265
-0.595580 0.034459 -0.047264
-0.594612 0.034713 -0.047263
-0.593645 0.034966 -0.047262
-0.592677 0.035220 -0.047261
-0.591709 0.035474 -0.047260
-0.590742 0.035727 -0.047259
-0.589774 0.035981 -0.047258
-0.588806 0.036234 -0.047257
-0.587839 0.036488 -0.047256
-0.586871 0.036742 -0.047255
-0.585903 0.036995 -0.047254
-0.584936 0.037249 -0.047253
-0.583968 0.037502 -0.047252
-0.583000 0.037756 -0.047251
-0.582033 0.038010 -0.047250
-0.581065 0.038263 -0.047249
-0.580098 0.038517 -0.047248
-0.579130 0.038770 -0.047247
-0.578162 0.039024 -0.047245
-0.577195 0.039277 -0.047244
-0.576227 0.039531 -0.047243
-0.575259 0.039785 -0.047242
-0.574292 0.040038 -0.047241
-0.573324 0.040292 -0.047240
-0.572356 0.040545 -0.047239
-0.571389 0.040799 -0.047238
-0.570421 0.041053 -0.047237
-0.569453 0.041306 -0.047236
-0.568486 0.041560 -0.047235
-0.567518 0.041813 -0.047234
-0.566550 0.042067 -0.047233
-0.565583 0.042321 -0.047232
-0.564615 0.042574 -0.047231
-0.563647 0.042828 -0.047230
-0.562680 0.043081 -0.047229
-0.561712 0.043335 -0.047228
-0.560744 0.043589 -0.047227
-0.559777 0.043842 -0.047226
-0.558809 0.044096 -0.047225
-0.557842 0.044349 -0.047224
-0.556874 0.044603 -0.047223
-0.555906 0.044857 -0.047222
-0.554939 0.045110 -0.047220
-0.553971 0.045364 -0.047219
-0.553003 0.045617 -0.047218
-0.552036 0.045871 -0.047217
-0.551068 0.046124 -0.047216
-0.550100 0.046378 -0.047215
-0.549133 0.046632 -0.047214
-0.548165 0.046885 -0.047213
-0.547197 0.047139 -0.047212
-0.546230 0.047392 -0.047211
-0.545262 0.047646 -0.047210
-0.544294 0.047900 -0.047209
-0.543327 0.048153 -0.047208
-0.542359 0.048407 -0.047207
-0.541391 0.048660 -0.047206
-0.540424 0.048914 -0.047205
-0.539456 0.049168 -0.047204
-0.538488 0.049421 -0.047203
-0.537521 0.049675 -0.047202
-0.536553 0.049928 -0.047201
-0.535586 0.050182 -0.047200
-0.534618 0.050436 -0.047199
-0.533650 0.050689 -0.047198
-0.532683 0.050943 -0.047196
-0.531715 0.051196 -0.047195
-0.530747 0.051450 -0.047194
-0.529780 0.051704 -0.047193
-0.528812 0.051957 -0.047192
-0.527844 0.052211 -0.047191
-0.526877 0.052464 -0.047190
-0.525909 0.052718 -0.047189
-0.524941 0.052972 -0.047188
-0.523974 0.053225 -0.047187
-0.523006 0.053479 -0.047186
-0.522038 0.053732 -0.047185
-0.521071 0.053986 -0.047184
-0.520103 0.054239 -0.047183
-0.519135 0.054493 -0.047182
-0.518168 0.054747 -0.047181
-0.517200 0.055000 -0.047180
-0.516232 0.055254 -0.047179
-0.515265 0.055507 -0.047178
-0.514297 0.055761 -0.047177
-0.513330 0.056015 -0.047176
-0.512362 0.056268 -0.047175
-0.511394 0.056522 -0.047174
-0.510427 0.056775 -0.047173
-0.509459 0.057029 -0.047171
-0.508491 0.057283 -0.047170
-0.507524 0.057536 -0.047169
-0.506556 0.057790 -0.047168
-0.505588 0.058043 -0.047167
-0.504621 0.058297 -0.047166
-0.503653 0.058551 -0.047165
-0.502685 0.058804 -0.047164
-0.501718 0.059058 -0.047163
-0.500750 0.059311 -0.047162
-0.499782 0.059565 -0.047161
-0.498815 0.059819 -0.047160
-0.497847 0.060072 -0.047159
-0.496879 0.060326 -0.047158
-0.495912 0.060579 -0.047157
-0.494944 0.060833 -0.047156
-0.493976 0.061086 -0.047155
-0.493009 0.061340 -0.047154
-0.492041 0.061594 -0.047153
-0.491074 0.061847 -0.047152
-0.490106 0.062101 -0.047151
-0.489138 0.062354 -0.047150
-0.488171 0.062608 -0.047149
-0.487203 0.062862 -0.047148
-0.486235 0.063115 -0.047146
-0.485268 0.063369 -0.047145
-0.484300 0.063622 -0.047144
-0.483332 0.063876 -0.047143
-0.482365 0.064130 -0.047142
-0.481397 0.064383 -0.047141
-0.480429 0.064637 -0.047140
-0.479462 0.064890 -0.047139
-0.478494 0.065144 -0.047138
-0.477526 0.065398 -0.047137
-0.476559 0.065651 -0.047136
-0.475591 0.065905 -0.047135
-0.474623 0.066158 -0.047134
-0.473656 0.066412 -0.047133
-0.472688 0.066666 -0.047132
-0.471720 0.066919 -0.047131
-0.470753 0.067173 -0.047130
-0.469785 0.067426 -0.047129
-0.468818 0.067680 -0.047128
-0.467850 0.067933 -0.047127
-0.466882 0.068187 -0.047126
-0.465915 0.068441 -0.047125
-0.464947 0.068694 -0.047124
-0.463979 0.068948 -0.047123
-0.463012 0.069201 -0.047121
-0.462044 0.069455 -0.047120
-0.461076 0.069709 -0.047119
-0.460109 0.069962 -0.047118
-0.459141 0.070216 -0.047117
-0.458173 0.070469 -0.047116
-0.457206 0.070723 -0.047115
-0.456238 0.070977 -0.047114
-0.455270 0.071230 -0.047113
-0.454303 0.071484 -0.047112
-0.453335 0.071737 -0.047111
-0.452367 0.071991 -0.047110
-0.451400 0.072245 -0.047109
-0.450432 0.072498 -0.047108
-0.449464 0.072752 -0.047107
-0.448497 0.073005 -0.047106
-0.447529 0.073259 -0.047105
-0.446562 0.073513 -0.047104
-0.445594 0.073766 -0.047103
-0.444626 0.074020 -0.047102
-0.443659 0.074273 -0.047101
-0.442691 0.074527 -0.047100
-0.441723 0.074781 -0.047099
-0.440756 0.075034 -0.047098
-0.439788 0.075288 -0.047096
-0.438820 0.075541 -0.047095
-0.437853 0.075795 -0.047094
-0.436885 0.076048 -0.047093
-0.435917 0.076302 -0.047092
-0.434950 0.076556 -0.047091
-0.433982 0.076809 -0.047090
-0.433014 0.077063 -0.047089
-0.432047 0.077316 -0.047088
-0.431079 0.077570 -0.047087
-0.430111 0.077824 -0.047086
-0.429144 0.078077 -0.047085
-0.428176 0.078331 -0.047084
-0.427209 0.078584 -0.047083
-0.426241 0.078838 -0.047082
-0.425273 0.079092 -0.047081
-0.424306 0.079345 -0.047080
-0.423338 0.079599 -0.047079
-0.422370 0.079852 -0.047078
-0.421403 0.080106 -0.047077
-0.420435 0.080360 -0.047076
-0.419467 0.080613 -0.047075
-0.418500 0.080867 -0.047074
-0.417532 0.081120 -0.047073
-0.416564 0.081374 -0.047071
-0.415597 0.081628 -0.047070
-0.414629 0.081881 -0.047069
-0.413661 0.082135 -0.047068
-0.412694 0.082388 -0.047067
-0.411726 0.082642 -0.047066
-0.410758 0.082895 -0.047065
-0.409791 0.083149 -0.047064
-0.408823 0.083403 -0.047063
-0.407855 0.083656 -0.047062
-0.406888 0.083910 -0.047061
-0.405920 0.084163 -0.047060
-0.404953 0.084417 -0.047059
-0.403985 0.084671 -0.047058
