ply
format ascii 1.0
element vertex 502
property float x
property float y
property float z
end_header
-0.646885 0.046602 -0.082350
-0.645885 0.046627 -0.082363
-0.644885 0.046651 -0.082376
-0.643886 0.046676 -0.082389
-0.642886 0.046700 -0.082402
-0.641886 0.046725 -0.082415
-0.640887 0.046749 -0.082428
-0.639887 0.046773 -0.082441
-0.638887 0.046798 -0.082453
-0.637888 0.046822 -0.082466
-0.636888 0.046847 -0.082479
-0.635889 0.046871 -0.082492
-0.634889 0.046896 -0.082505
-0.633889 0.046920 -0.082518
-0.632890 0.046945 -0.082531
-0.631890 0.046969 -0.082544
-0.630890 0.046994 -0.082557
-0.629891 0.047018 -0.082569
-0.628891 0.047043 -0.082582
-0.627891 0.047067 -0.082595
-0.626892 0.047092 -0.082608
-0.625892 0.047116 -0.082621
-0.624893 0.047141 -0.082634
-0.623893 0.047165 -0.082647
-0.622893 0.047189 -0.082660
-0.621894 0.047214 -0.082672
-0.620894 0.047238 -0.082685
-0.619894 0.047263 -0.082698
-0.618895 0.047287 -0.082711
-0.617895 0.047312 -0.082724
-0.616895 0.047336 -0.082737
-0.615896 0.047361 -0.082750
-0.614896 0.047385 -0.082763
-0.613897 0.047410 -0.082776
-0.612897 0.047434 -0.082788
-0.611897 0.047459 -0.082801
-0.610898 0.047483 -0.082814
-0.609898 0.047508 -0.082827
-0.608898 0.047532 -0.082840
-0.607899 0.047557 -0.082853
-0.606899 0.047581 -0.082866
-0.605899 0.047605 -0.082879
-0.604900 0.047630 -0.082891
-0.603900 0.047654 -0.082904
-0.602901 0.047679 -0.082917
-0.601901 0.047703 -0.082930
-0.600901 0.047728 -0.082943
-0.599902 0.047752 -0.082956
-0.598902 0.047777 -0.082969
-0.597902 0.047801 -0.082982
-0.596903 0.047826 -0.082995
-0.595903 0.047850 -0.083007
-0.594904 0.047875 -0.083020
-0.593904 0.047899 -0.083033
-0.592904 0.047924 -0.083046
-0.591905 0.047948 -0.083059
-0.590905 0.047973 -0.083072
-0.589905 0.047997 -0.083085
-0.588906 0.048021 -0.083098
-0.587906 0.048046 -0.083111
-0.586906 0.048070 -0.083123
-0.585907 0.048095 -0.083136
-0.584907 0.048119 -0.083149
-0.583908 0.048144 -0.083162
-0.582908 0.048168 -0.083175
-0.581908 0.048193 -0.083188
-0.580909 0.048217 -0.083201
-0.579909 0.048242 -0.083214
-0.578909 0.048266 -0.083226
-0.577910 0.048291 -0.083239
-0.576910 0.048315 -0.083252
-0.575910 0.048340 -0.083265
-0.574911 0.048364 -0.083278
-0.573911 0.048389 -0.083291
-0.572912 0.048413 -0.083304
-0.571912 0.048437 -0.083317
-0.570912 0.048462 -0.083330
-0.569913 0.048486 -0.083342
-0.568913 0.048511 -0.083355
-0.567913 0.048535 -0.083368
-0.566914 0.048560 -0.083381
-0.565914 0.048584 -0.083394
-0.564914 0.048609 -0.083407
-0.563915 0.048633 -0.083420
-0.562915 0.048658 -0.083433
-0.561916 0.048682 -0.083445
-0.560916 0.048707 -0.083458
-0.559916 0.048731 -0.083471
-0.558917 0.048756 -0.083484
-0.557917 0.048780 -0.083497
-0.556917 0.048804 -0.083510
-0.555918 0.048829 -0.083523
-0.554918 0.048853 -0.083536
-0.553918 0.048878 -0.083549
-0.552919 0.048902 -0.083561
-0.551919 0.048927 -0.083574
-0.550920 0.048951 -0.083587
-0.549920 0.048976 -0.083600
-0.548920 0.049000 -0.083613
-0.547921 0.049025 -0.083626
-0.546921 0.049049 -0.083639
-0.545921 0.049074 -0.083652
-0.544922 0.049098 -0.083664
-0.543922 0.049123 -0.083677
-0.542923 0.049147 -0.083690
-0.541923 0.049172 -0.083703
-0.540923 0.049196 -0.083716
-0.539924 0.049220 -0.083729
-0.538924 0.049245 -0.083742
-0.537924 0.049269 -0.083755
-0.536925 0.049294 -0.083768
-0.535925 0.049318 -0.083780
-0.534925 0.049343 -0.083793
-0.533926 0.049367 -0.083806
-0.532926 0.049392 -0.083819
-0.531927 0.049416 -0.083832
-0.530927 0.049441 -0.083845
-0.529927 0.049465 -0.083858
-0.528928 0.049490 -0.083871
-0.527928 0.049514 -0.083883
-0.526928 0.049539 -0.083896
-0.525929 0.049563 -0.083909
-0.524929 0.049588 -0.083922
-0.523929 0.049612 -0.083935
-0.522930 0.049636 -0.083948
-0.521930 0.049661 -0.083961
-0.520931 0.049685 -0.083974
-0.519931 0.049710 -0.083987
-0.518931 0.049734 -0.083999
-0.517932 0.049759 -0.084012
-0.516932 0.049783 -0.084025
-0.515932 0.049808 -0.084038
-0.514933 0.049832 -0.084051
-0.513933 0.049857 -0.084064
-0.512933 0.049881 -0.084077
-0.511934 0.049906 -0.084090
-0.510934 0.049930 -0.084102
-0.509935 0.049955 -0.084115
-0.508935 0.049979 -0.084128
-0.507935 0.050004 -0.084141
-0.506936 0.050028 -0.084154
-0.505936 0.050052 -0.084167
-0.504936 0.050077 -0.084180
-0.503937 0.050101 -0.084193
-0.502937 0.050126 -0.084206
-0.501937 0.050150 -0.084218
-0.500938 0.050175 -0.084231
-0.499938 0.050199 -0.084244
-0.498939 0.050224 -0.084257
-0.497939 0.050248 -0.084270
-0.496939 0.050273 -0.084283
-0.495940 0.050297 -0.084296
-0.494940 0.050322 -0.084309
-0.493940 0.050346 -0.084322
-0.492941 0.050371 -0.084334
-0.491941 0.050395 -0.084347
-0.490942 0.050420 -0.084360
-0.489942 0.050444 -0.084373
-0.488942 0.050468 -0.084386
-0.487943 0.050493 -0.084399
-0.486943 0.050517 -0.084412
-0.485943 0.050542 -0.084425
-0.484944 0.050566 -0.084437
-0.483944 0.050591 -0.084450
-0.482944 0.050615 -0.084463
-0.481945 0.050640 -0.084476
-0.480945 0.050664 -0.084489
-0.479946 0.050689 -0.084502
-0.478946 0.050713 -0.084515
-0.477946 0.050738 -0.084528
-0.476947 0.050762 -0.084541
-0.475947 0.050787 -0.084553
-0.474947 0.050811 -0.084566
-0.473948 0.050835 -0.084579
-0.472948 0.050860 -0.084592
-0.471948 0.050884 -0.084605
-0.470949 0.050909 -0.084618
-0.469949 0.050933 -0.084631
-0.468950 0.050958 -0.084644
-0.467950 0.050982 -0.084656
-0.466950 0.051007 -0.084669
-0.465951 0.051031 -0.084682
-0.464951 0.051056 -0.084695
-0.463951 0.051080 -0.084708
-0.462952 0.051105 -0.084721
-0.461952 0.051129 -0.084734
-0.460952 0.051154 -0.084747
-0.459953 0.051178 -0.084760
-0.458953 0.051203 -0.084772
-0.457954 0.051227 -0.084785
-0.456954 0.051251 -0.084798
-0.455954 0.051276 -0.084811
-0.454955 0.051300 -0.084824
-0.453955 0.051325 -0.084837
-0.452955 0.051349 -0.084850
-0.451956 0.051374 -0.084863
-0.450956 0.051398 -0.084875
-0.449956 0.051423 -0.084888
-0.448957 0.051447 -0.084901
-0.447957 0.051472 -0.084914
-0.446958 0.051496 -0.084927
-0.445958 0.051521 -0.084940
-0.444958 0.051545 -0.084953
-0.443959 0.051570 -0.084966
-0.442959 0.051594 -0.084979
-0.441959 0.051619 -0.084991
-0.440960 0.051643 -0.085004
-0.439960 0.051667 -0.085017
-0.438961 0.051692 -0.085030
-0.437961 0.051716 -0.085043
-0.436961 0.051741 -0.085056
-0.435962 0.051765 -0.085069
-0.434962 0.051790 -0.085082
-0.433962 0.051814 -0.085094
-0.432963 0.051839 -0.085107
-0.431963 0.051863 -0.085120
-0.430963 0.051888 -0.085133
-0.429964 0.051912 -0.085146
-0.428964 0.051937 -0.085159
-0.427965 0.051961 -0.085172
-0.426965 0.051986 -0.085185
-0.425965 0.052010 -0.085198
-0.424966 0.052035 -0.085210
-0.423966 0.052059 -0.085223
-0.422966 0.052083 -0.085236
-0.421967 0.052108 -0.085249
-0.420967 0.052132 -0.085262
-0.419967 0.052157 -0.085275
-0.418968 0.052181 -0.085288
-0.417968 0.052206 -0.085301
-0.416969 0.052230 -0.085313
-0.415969 0.052255 -0.085326
-0.414969 0.052279 -0.085339
-0.413970 0.052304 -0.085352
-0.412970 0.052328 -0.085365
-0.411970 0.052353 -0.085378
-0.410971 0.052377 -0.085391
-0.409971 0.052402 -0.085404
-0.408971 0.052426 -0.085417
-0.407972 0.052450 -0.085429
-0.406972 0.052475 -0.085442
-0.405973 0.052499 -0.085455
-0.404973 0.052524 -0.085468
-0.403973 0.052548 -0.085481
-0.402974 0.052573 -0.085494
-0.401974 0.052597 -0.085507
-0.400974 0.052622 -0.085520
-0.399975 0.052646 -0.085532
-0.398975 0.052671 -0.085545
-0.397975 0.052695 -0.085558
-0.396976 0.052720 -0.085571
-0.647088 0.054673 -0.082329
-0.646088 0.054697 -0.082342
-0.645089 0.054722 -0.082355
-0.644089 0.054746 -0.082368
-0.643090 0.054770 -0.082381
-0.642090 0.054795 -0.082394
-0.641090 0.054819 -0.082407
-0.640091 0.054844 -0.082420
-0.639091 0.054868 -0.082432
-0.638091 0.054893 -0.082445
-0.637092 0.054917 -0.082458
-0.636092 0.054942 -0.082471
-0.635093 0.054966 -0.082484
-0.634093 0.054991 -0.082497
-0.633093 0.055015 -0.082510
-0.632094 0.055040 -0.082523
-0.631094 0.055064 -0.082535
-0.630094 0.055089 -0.082548
-0.629095 0.055113 -0.082561
-0.628095 0.055137 -0.082574
-0.627095 0.055162 -0.082587
-0.626096 0.055186 -0.082600
-0.625096 0.055211 -0.082613
-0.624097 0.055235 -0.082626
-0.623097 0.055260 -0.082639
-0.622097 0.055284 -0.082651
-0.621098 0.055309 -0.082664
-0.620098 0.055333 -0.082677
-0.619098 0.055358 -0.082690
-0.618099 0.055382 -0.082703
-0.617099 0.055407 -0.082716
-0.616099 0.055431 -0.082729
-0.615100 0.055456 -0.082742
-0.614100 0.055480 -0.082754
-0.613101 0.055505 -0.082767
-0.612101 0.055529 -0.082780
-0.611101 0.055553 -0.082793
-0.610102 0.055578 -0.082806
-0.609102 0.055602 -0.082819
-0.608102 0.055627 -0.082832
-0.607103 0.055651 -0.082845
-0.606103 0.055676 -0.082858
-0.605103 0.055700 -0.082870
-0.604104 0.055725 -0.082883
-0.603104 0.055749 -0.082896
-0.602105 0.055774 -0.082909
-0.601105 0.055798 -0.082922
-0.600105 0.055823 -0.082935
-0.599106 0.055847 -0.082948
-0.598106 0.055872 -0.082961
-0.597106 0.055896 -0.082973
-0.596107 0.055921 -0.082986
-0.595107 0.055945 -0.082999
-0.594107 0.055969 -0.083012
-0.593108 0.055994 -0.083025
-0.592108 0.056018 -0.083038
-0.591109 0.056043 -0.083051
-0.590109 0.056067 -0.083064
-0.589109 0.056092 -0.083077
-0.588110 0.056116 -0.083089
-0.587110 0.056141 -0.083102
-0.586110 0.056165 -0.083115
-0.585111 0.056190 -0.083128
-0.584111 0.056214 -0.083141
-0.583112 0.056239 -0.083154
-0.582112 0.056263 -0.083167
-0.581112 0.056288 -0.083180
-0.580113 0.056312 -0.083192
-0.579113 0.056337 -0.083205
-0.578113 0.056361 -0.083218
-0.577114 0.056385 -0.083231
-0.576114 0.056410 -0.083244
-0.575114 0.056434 -0.083257
-0.574115 0.056459 -0.083270
-0.573115 0.056483 -0.083283
-0.572116 0.056508 -0.083296
-0.571116 0.056532 -0.083308
-0.570116 0.056557 -0.083321
-0.569117 0.056581 -0.083334
-0.568117 0.056606 -0.083347
-0.567117 0.056630 -0.083360
-0.566118 0.056655 -0.083373
-0.565118 0.056679 -0.083386
-0.564118 0.056704 -0.083399
-0.563119 0.056728 -0.083412
-0.562119 0.056753 -0.083424
-0.561120 0.056777 -0.083437
-0.560120 0.056801 -0.083450
-0.559120 0.056826 -0.083463
-0.558121 0.056850 -0.083476
-0.557121 0.056875 -0.083489
-0.556121 0.056899 -0.083502
-0.555122 0.056924 -0.083515
-0.554122 0.056948 -0.083527
-0.553122 0.056973 -0.083540
-0.552123 0.056997 -0.083553
-0.551123 0.057022 -0.083566
-0.550124 0.057046 -0.083579
-0.549124 0.057071 -0.083592
-0.548124 0.057095 -0.083605
-0.547125 0.057120 -0.083618
-0.546125 0.057144 -0.083631
-0.545125 0.057168 -0.083643
-0.544126 0.057193 -0.083656
-0.543126 0.057217 -0.083669
-0.542126 0.057242 -0.083682
-0.541127 0.057266 -0.083695
-0.540127 0.057291 -0.083708
-0.539128 0.057315 -0.083721
-0.538128 0.057340 -0.083734
-0.537128 0.057364 -0.083746
-0.536129 0.057389 -0.083759
-0.535129 0.057413 -0.083772
-0.534129 0.057438 -0.083785
-0.533130 0.057462 -0.083798
-0.532130 0.057487 -0.083811
-0.531131 0.057511 -0.083824
-0.530131 0.057536 -0.083837
-0.529131 0.057560 -0.083850
-0.528132 0.057584 -0.083862
-0.527132 0.057609 -0.083875
-0.526132 0.057633 -0.083888
-0.525133 0.057658 -0.083901
-0.524133 0.057682 -0.083914
-0.523133 0.057707 -0.083927
-0.522134 0.057731 -0.083940
-0.521134 0.057756 -0.083953
-0.520135 0.057780 -0.083965
-0.519135 0.057805 -0.083978
-0.518135 0.057829 -0.083991
-0.517136 0.057854 -0.084004
-0.516136 0.057878 -0.084017
-0.515136 0.057903 -0.084030
-0.514137 0.057927 -0.084043
-0.513137 0.057952 -0.084056
-0.512137 0.057976 -0.084069
-0.511138 0.058000 -0.084081
-0.510138 0.058025 -0.084094
-0.509139 0.058049 -0.084107
-0.508139 0.058074 -0.084120
-0.507139 0.058098 -0.084133
-0.506140 0.058123 -0.084146
-0.505140 0.058147 -0.084159
-0.504140 0.058172 -0.084172
-0.503141 0.058196 -0.084184
-0.502141 0.058221 -0.084197
-0.501141 0.058245 -0.084210
-0.500142 0.058270 -0.084223
-0.499142 0.058294 -0.084236
-0.498143 0.058319 -0.084249
-0.497143 0.058343 -0.084262
-0.496143 0.058368 -0.084275
-0.495144 0.058392 -0.084288
-0.494144 0.058416 -0.084300
-0.493144 0.058441 -0.084313
-0.492145 0.058465 -0.084326
-0.491145 0.058490 -0.084339
-0.490145 0.058514 -0.084352
-0.489146 0.058539 -0.084365
-0.488146 0.058563 -0.084378
-0.487147 0.058588 -0.084391
-0.486147 0.058612 -0.084403
-0.485147 0.058637 -0.084416
-0.484148 0.058661 -0.084429
-0.483148 0.058686 -0.084442
-0.482148 0.058710 -0.084455
-0.481149 0.058735 -0.084468
-0.480149 0.058759 -0.084481
-0.479150 0.058783 -0.084494
-0.478150 0.058808 -0.084507
-0.477150 0.058832 -0.084519
-0.476151 0.058857 -0.084532
-0.475151 0.058881 -0.084545
-0.474151 0.058906 -0.084558
-0.473152 0.058930 -0.084571
-0.472152 0.058955 -0.084584
-0.471152 0.058979 -0.084597
-0.470153 0.059004 -0.084610
-0.469153 0.059028 -0.084623
-0.468154 0.059053 -0.084635
-0.467154 0.059077 -0.084648
-0.466154 0.059102 -0.084661
-0.465155 0.059126 -0.084674
-0.464155 0.059151 -0.084687
-0.463155 0.059175 -0.084700
-0.462156 0.059199 -0.084713
-0.461156 0.059224 -0.084726
-0.460156 0.059248 -0.084738
-0.459157 0.059273 -0.084751
-0.458157 0.059297 -0.084764
-0.457158 0.059322 -0.084777
-0.456158 0.059346 -0.084790
-0.455158 0.059371 -0.084803
-0.454159 0.059395 -0.084816
-0.453159 0.059420 -0.084829
-0.452159 0.059444 -0.084842
-0.451160 0.059469 -0.084854
-0.450160 0.059493 -0.084867
-0.449160 0.059518 -0.084880
-0.448161 0.059542 -0.084893
-0.447161 0.059567 -0.084906
-0.446162 0.059591 -0.084919
-0.445162 0.059615 -0.084932
-0.444162 0.059640 -0.084945
-0.443163 0.059664 -0.084957
-0.442163 0.059689 -0.084970
-0.441163 0.059713 -0.084983
-0.440164 0.059738 -0.084996
-0.439164 0.059762 -0.085009
-0.438164 0.059787 -0.085022
-0.437165 0.059811 -0.085035
-0.436165 0.059836 -0.085048
-0.435166 0.059860 -0.085061
-0.434166 0.059885 -0.085073
-0.433166 0.059909 -0.085086
-0.432167 0.059934 -0.085099
-0.431167 0.059958 -0.085112
-0.430167 0.059983 -0.085125
-0.429168 0.060007 -0.085138
-0.428168 0.060031 -0.085151
-0.427169 0.060056 -0.085164
-0.426169 0.060080 -0.085176
-0.425169 0.060105 -0.085189
-0.424170 0.060129 -0.085202
-0.423170 0.060154 -0.085215
-0.422170 0.060178 -0.085228
-0.421171 0.060203 -0.085241
-0.420171 0.060227 -0.085254
-0.419171 0.060252 -0.085267
-0.418172 0.060276 -0.085280
-0.417172 0.060301 -0.085292
-0.416173 0.060325 -0.085305
-0.415173 0.060350 -0.085318
-0.414173 0.060374 -0.085331
-0.413174 0.060399 -0.085344
-0.412174 0.060423 -0.085357
-0.411174 0.060447 -0.085370
-0.410175 0.060472 -0.085383
-0.409175 0.060496 -0.085395
-0.408175 0.060521 -0.085408
-0.407176 0.060545 -0.085421
-0.406176 0.060570 -0.085434
-0.405177 0.060594 -0.085447
-0.404177 0.060619 -0.085460
-0.403177 0.060643 -0.085473
-0.402178 0.060668 -0.085486
-0.401178 0.060692 -0.085499
-0.400178 0.060717 -0.085511
-0.399179 0.060741 -0.085524
-0.398179 0.060766 -0.085537
-0.397179 0.060790 -0.085550
