ply
format ascii 1.0
element vertex 502
property float x
property float y
property float z
end_header
-0.612524 0.120566 -0.091130
-0.611621 0.120138 -0.091149
-0.610717 0.119709 -0.091169
-0.609814 0.119280 -0.091188
-0.608911 0.118851 -0.091207
-0.608008 0.118422 -0.091227
-0.607104 0.117993 -0.091246
-0.606201 0.117564 -0.091265
-0.605298 0.117136 -0.091284
-0.604395 0.116707 -0.091304
-0.603492 0.116278 -0.091323
-0.602588 0.115849 -0.091342
-0.601685 0.115420 -0.091362
-0.600782 0.114991 -0.091381
-0.599879 0.114562 -0.091400
-0.598975 0.114133 -0.091419
-0.598072 0.113705 -0.091439
-0.597169 0.113276 -0.091458
-0.596266 0.112847 -0.091477
-0.595363 0.112418 -0.091497
-0.594459 0.111989 -0.091516
-0.593556 0.111560 -0.091535
-0.592653 0.111131 -0.091554
-0.591750 0.110703 -0.091574
-0.590846 0.110274 -0.091593
-0.589943 0.109845 -0.091612
-0.589040 0.109416 -0.091632
-0.588137 0.108987 -0.091651
-0.587234 0.108558 -0.091670
-0.586330 0.108129 -0.091689
-0.585427 0.107700 -0.091709
-0.584524 0.107272 -0.091728
-0.583621 0.106843 -0.091747
-0.582718 0.106414 -0.091767
-0.581814 0.105985 -0.091786
-0.580911 0.105556 -0.091805
-0.580008 0.105127 -0.091824
-0.579105 0.104698 -0.091844
-0.578201 0.104270 -0.091863
-0.577298 0.103841 -0.091882
-0.576395 0.103412 -0.091902
-0.575492 0.102983 -0.091921
-0.574589 0.102554 -0.091940
-0.573685 0.102125 -0.091959
-0.572782 0.101696 -0.091979
-0.571879 0.101267 -0.091998
-0.570976 0.100839 -0.092017
-0.570072 0.100410 -0.092037
-0.569169 0.099981 -0.092056
-0.568266 0.099552 -0.092075
-0.567363 0.099123 -0.092094
-0.566460 0.098694 -0.092114
-0.565556 0.098265 -0.092133
-0.564653 0.097837 -0.092152
-0.563750 0.097408 -0.092172
-0.562847 0.096979 -0.092191
-0.561944 0.096550 -0.092210
-0.561040 0.096121 -0.092229
-0.560137 0.095692 -0.092249
-0.559234 0.095263 -0.092268
-0.558331 0.094834 -0.092287
-0.557427 0.094406 -0.092307
-0.556524 0.093977 -0.092326
-0.555621 0.093548 -0.092345
-0.554718 0.093119 -0.092364
-0.553815 0.092690 -0.092384
-0.552911 0.092261 -0.092403
-0.552008 0.091832 -0.092422
-0.551105 0.091403 -0.092442
-0.550202 0.090975 -0.092461
-0.549298 0.090546 -0.092480
-0.548395 0.090117 -0.092499
-0.547492 0.089688 -0.092519
-0.546589 0.089259 -0.092538
-0.545686 0.088830 -0.092557
-0.544782 0.088401 -0.092577
-0.543879 0.087973 -0.092596
-0.542976 0.087544 -0.092615
-0.542073 0.087115 -0.092634
-0.541169 0.086686 -0.092654
-0.540266 0.086257 -0.092673
-0.539363 0.085828 -0.092692
-0.538460 0.085399 -0.092712
-0.537557 0.084970 -0.092731
-0.536653 0.084542 -0.092750
-0.535750 0.084113 -0.092769
-0.534847 0.083684 -0.092789
-0.533944 0.083255 -0.092808
-0.533041 0.082826 -0.092827
-0.532137 0.082397 -0.092847
-0.531234 0.081968 -0.092866
-0.530331 0.081540 -0.092885
-0.529428 0.081111 -0.092904
-0.528524 0.080682 -0.092924
-0.527621 0.080253 -0.092943
-0.526718 0.079824 -0.092962
-0.525815 0.079395 -0.092982
-0.524912 0.078966 -0.093001
-0.524008 0.078537 -0.093020
-0.523105 0.078109 -0.093040
-0.522202 0.077680 -0.093059
-0.521299 0.077251 -0.093078
-0.520395 0.076822 -0.093097
-0.519492 0.076393 -0.093117
-0.518589 0.075964 -0.093136
-0.517686 0.075535 -0.093155
-0.516783 0.075107 -0.093175
-0.515879 0.074678 -0.093194
-0.514976 0.074249 -0.093213
-0.514073 0.073820 -0.093232
-0.513170 0.073391 -0.093252
-0.512266 0.072962 -0.093271
-0.511363 0.072533 -0.093290
-0.510460 0.072104 -0.093310
-0.509557 0.071676 -0.093329
-0.508654 0.071247 -0.093348
-0.507750 0.070818 -0.093367
-0.506847 0.070389 -0.093387
-0.505944 0.069960 -0.093406
-0.505041 0.069531 -0.093425
-0.504138 0.069102 -0.093445
-0.503234 0.068674 -0.093464
-0.502331 0.068245 -0.093483
-0.501428 0.067816 -0.093502
-0.500525 0.067387 -0.093522
-0.499621 0.066958 -0.093541
-0.498718 0.066529 -0.093560
-0.497815 0.066100 -0.093580
-0.496912 0.065671 -0.093599
-0.496009 0.065243 -0.093618
-0.495105 0.064814 -0.093637
-0.494202 0.064385 -0.093657
-0.493299 0.063956 -0.093676
-0.492396 0.063527 -0.093695
-0.491492 0.063098 -0.093715
-0.490589 0.062669 -0.093734
-0.489686 0.062241 -0.093753
-0.488783 0.061812 -0.093772
-0.487880 0.061383 -0.093792
-0.486976 0.060954 -0.093811
-0.486073 0.060525 -0.093830
-0.485170 0.060096 -0.093850
-0.484267 0.059667 -0.093869
-0.483364 0.059238 -0.093888
-0.482460 0.058810 -0.093907
-0.481557 0.058381 -0.093927
-0.480654 0.057952 -0.093946
-0.479751 0.057523 -0.093965
-0.478847 0.057094 -0.093985
-0.477944 0.056665 -0.094004
-0.477041 0.056236 -0.094023
-0.476138 0.055808 -0.094042
-0.475235 0.055379 -0.094062
-0.474331 0.054950 -0.094081
-0.473428 0.054521 -0.094100
-0.472525 0.054092 -0.094120
-0.471622 0.053663 -0.094139
-0.470718 0.053234 -0.094158
-0.469815 0.052805 -0.094177
-0.468912 0.052377 -0.094197
-0.468009 0.051948 -0.094216
-0.467106 0.051519 -0.094235
-0.466202 0.051090 -0.094255
-0.465299 0.050661 -0.094274
-0.464396 0.050232 -0.094293
-0.463493 0.049803 -0.094312
-0.462589 0.049375 -0.094332
-0.461686 0.048946 -0.094351
-0.460783 0.048517 -0.094370
-0.459880 0.048088 -0.094390
-0.458977 0.047659 -0.094409
-0.458073 0.047230 -0.094428
-0.457170 0.046801 -0.094447
-0.456267 0.046372 -0.094467
-0.455364 0.045944 -0.094486
-0.454461 0.045515 -0.094505
-0.453557 0.045086 -0.094525
-0.452654 0.044657 -0.094544
-0.451751 0.044228 -0.094563
-0.450848 0.043799 -0.094582
-0.449944 0.043370 -0.094602
-0.449041 0.042942 -0.094621
-0.448138 0.042513 -0.094640
-0.447235 0.042084 -0.094660
-0.446332 0.041655 -0.094679
-0.445428 0.041226 -0.094698
-0.444525 0.040797 -0.094717
-0.443622 0.040368 -0.094737
-0.442719 0.039939 -0.094756
-0.441815 0.039511 -0.094775
-0.440912 0.039082 -0.094795
-0.440009 0.038653 -0.094814
-0.439106 0.038224 -0.094833
-0.438203 0.037795 -0.094852
-0.437299 0.037366 -0.094872
-0.436396 0.036937 -0.094891
-0.435493 0.036509 -0.094910
-0.434590 0.036080 -0.094930
-0.433687 0.035651 -0.094949
-0.432783 0.035222 -0.094968
-0.431880 0.034793 -0.094987
-0.430977 0.034364 -0.095007
-0.430074 0.033935 -0.095026
-0.429170 0.033506 -0.095045
-0.428267 0.033078 -0.095065
-0.427364 0.032649 -0.095084
-0.426461 0.032220 -0.095103
-0.425558 0.031791 -0.095122
-0.424654 0.031362 -0.095142
-0.423751 0.030933 -0.095161
-0.422848 0.030504 -0.095180
-0.421945 0.030076 -0.095200
-0.421041 0.029647 -0.095219
-0.420138 0.029218 -0.095238
-0.419235 0.028789 -0.095257
-0.418332 0.028360 -0.095277
-0.417429 0.027931 -0.095296
-0.416525 0.027502 -0.095315
-0.415622 0.027073 -0.095335
-0.414719 0.026645 -0.095354
-0.413816 0.026216 -0.095373
-0.412912 0.025787 -0.095392
-0.412009 0.025358 -0.095412
-0.411106 0.024929 -0.095431
-0.410203 0.024500 -0.095450
-0.409300 0.024071 -0.095470
-0.408396 0.023643 -0.095489
-0.407493 0.023214 -0.095508
-0.406590 0.022785 -0.095527
-0.405687 0.022356 -0.095547
-0.404784 0.021927 -0.095566
-0.403880 0.021498 -0.095585
-0.402977 0.021069 -0.095605
-0.402074 0.020640 -0.095624
-0.401171 0.020212 -0.095643
-0.400267 0.019783 -0.095662
-0.399364 0.019354 -0.095682
-0.398461 0.018925 -0.095701
-0.397558 0.018496 -0.095720
-0.396655 0.018067 -0.095740
-0.395751 0.017638 -0.095759
-0.394848 0.017210 -0.095778
-0.393945 0.016781 -0.095797
-0.393042 0.016352 -0.095817
-0.392138 0.015923 -0.095836
-0.391235 0.015494 -0.095855
-0.390332 0.015065 -0.095875
-0.389429 0.014636 -0.095894
-0.388526 0.014207 -0.095913
-0.387622 0.013779 -0.095932
-0.386719 0.013350 -0.095952
-0.609089 0.127792 -0.091023
-0.608186 0.127363 -0.091042
-0.607283 0.126934 -0.091061
-0.606380 0.126505 -0.091081
-0.605477 0.126076 -0.091100
-0.604573 0.125648 -0.091119
-0.603670 0.125219 -0.091138
-0.602767 0.124790 -0.091158
-0.601864 0.124361 -0.091177
-0.600960 0.123932 -0.091196
-0.600057 0.123503 -0.091216
-0.599154 0.123074 -0.091235
-0.598251 0.122645 -0.091254
-0.597348 0.122217 -0.091273
-0.596444 0.121788 -0.091293
-0.595541 0.121359 -0.091312
-0.594638 0.120930 -0.091331
-0.593735 0.120501 -0.091351
-0.592832 0.120072 -0.091370
-0.591928 0.119643 -0.091389
-0.591025 0.119214 -0.091408
-0.590122 0.118786 -0.091428
-0.589219 0.118357 -0.091447
-0.588315 0.117928 -0.091466
-0.587412 0.117499 -0.091486
-0.586509 0.117070 -0.091505
-0.585606 0.116641 -0.091524
-0.584703 0.116212 -0.091543
-0.583799 0.115784 -0.091563
-0.582896 0.115355 -0.091582
-0.581993 0.114926 -0.091601
-0.581090 0.114497 -0.091621
-0.580186 0.114068 -0.091640
-0.579283 0.113639 -0.091659
-0.578380 0.113210 -0.091678
-0.577477 0.112781 -0.091698
-0.576574 0.112353 -0.091717
-0.575670 0.111924 -0.091736
-0.574767 0.111495 -0.091756
-0.573864 0.111066 -0.091775
-0.572961 0.110637 -0.091794
-0.572057 0.110208 -0.091813
-0.571154 0.109779 -0.091833
-0.570251 0.109351 -0.091852
-0.569348 0.108922 -0.091871
-0.568445 0.108493 -0.091891
-0.567541 0.108064 -0.091910
-0.566638 0.107635 -0.091929
-0.565735 0.107206 -0.091948
-0.564832 0.106777 -0.091968
-0.563929 0.106348 -0.091987
-0.563025 0.105920 -0.092006
-0.562122 0.105491 -0.092026
-0.561219 0.105062 -0.092045
-0.560316 0.104633 -0.092064
-0.559412 0.104204 -0.092083
-0.558509 0.103775 -0.092103
-0.557606 0.103346 -0.092122
-0.556703 0.102918 -0.092141
-0.555800 0.102489 -0.092161
-0.554896 0.102060 -0.092180
-0.553993 0.101631 -0.092199
-0.553090 0.101202 -0.092218
-0.552187 0.100773 -0.092238
-0.551283 0.100344 -0.092257
-0.550380 0.099915 -0.092276
-0.549477 0.099487 -0.092296
-0.548574 0.099058 -0.092315
-0.547671 0.098629 -0.092334
-0.546767 0.098200 -0.092353
-0.545864 0.097771 -0.092373
-0.544961 0.097342 -0.092392
-0.544058 0.096913 -0.092411
-0.543155 0.096485 -0.092431
-0.542251 0.096056 -0.092450
-0.541348 0.095627 -0.092469
-0.540445 0.095198 -0.092488
-0.539542 0.094769 -0.092508
-0.538638 0.094340 -0.092527
-0.537735 0.093911 -0.092546
-0.536832 0.093482 -0.092566
-0.535929 0.093054 -0.092585
-0.535026 0.092625 -0.092604
-0.534122 0.092196 -0.092623
-0.533219 0.091767 -0.092643
-0.532316 0.091338 -0.092662
-0.531413 0.090909 -0.092681
-0.530509 0.090480 -0.092701
-0.529606 0.090052 -0.092720
-0.528703 0.089623 -0.092739
-0.527800 0.089194 -0.092759
-0.526897 0.088765 -0.092778
-0.525993 0.088336 -0.092797
-0.525090 0.087907 -0.092816
-0.524187 0.087478 -0.092836
-0.523284 0.087049 -0.092855
-0.522380 0.086621 -0.092874
-0.521477 0.086192 -0.092894
-0.520574 0.085763 -0.092913
-0.519671 0.085334 -0.092932
-0.518768 0.084905 -0.092951
-0.517864 0.084476 -0.092971
-0.516961 0.084047 -0.092990
-0.516058 0.083619 -0.093009
-0.515155 0.083190 -0.093029
-0.514252 0.082761 -0.093048
-0.513348 0.082332 -0.093067
-0.512445 0.081903 -0.093086
-0.511542 0.081474 -0.093106
-0.510639 0.081045 -0.093125
-0.509735 0.080616 -0.093144
-0.508832 0.080188 -0.093164
-0.507929 0.079759 -0.093183
-0.507026 0.079330 -0.093202
-0.506123 0.078901 -0.093221
-0.505219 0.078472 -0.093241
-0.504316 0.078043 -0.093260
-0.503413 0.077614 -0.093279
-0.502510 0.077186 -0.093299
-0.501606 0.076757 -0.093318
-0.500703 0.076328 -0.093337
-0.499800 0.075899 -0.093356
-0.498897 0.075470 -0.093376
-0.497994 0.075041 -0.093395
-0.497090 0.074612 -0.093414
-0.496187 0.074183 -0.093434
-0.495284 0.073755 -0.093453
-0.494381 0.073326 -0.093472
-0.493477 0.072897 -0.093491
-0.492574 0.072468 -0.093511
-0.491671 0.072039 -0.093530
-0.490768 0.071610 -0.093549
-0.489865 0.071181 -0.093569
-0.488961 0.070753 -0.093588
-0.488058 0.070324 -0.093607
-0.487155 0.069895 -0.093626
-0.486252 0.069466 -0.093646
-0.485349 0.069037 -0.093665
-0.484445 0.068608 -0.093684
-0.483542 0.068179 -0.093704
-0.482639 0.067750 -0.093723
-0.481736 0.067322 -0.093742
-0.480832 0.066893 -0.093761
-0.479929 0.066464 -0.093781
-0.479026 0.066035 -0.093800
-0.478123 0.065606 -0.093819
-0.477220 0.065177 -0.093839
-0.476316 0.064748 -0.093858
-0.475413 0.064320 -0.093877
-0.474510 0.063891 -0.093896
-0.473607 0.063462 -0.093916
-0.472703 0.063033 -0.093935
-0.471800 0.062604 -0.093954
-0.470897 0.062175 -0.093974
-0.469994 0.061746 -0.093993
-0.469091 0.061317 -0.094012
-0.468187 0.060889 -0.094031
-0.467284 0.060460 -0.094051
-0.466381 0.060031 -0.094070
-0.465478 0.059602 -0.094089
-0.464575 0.059173 -0.094109
-0.463671 0.058744 -0.094128
-0.462768 0.058315 -0.094147
-0.461865 0.057887 -0.094166
-0.460962 0.057458 -0.094186
-0.460058 0.057029 -0.094205
-0.459155 0.056600 -0.094224
-0.458252 0.056171 -0.094244
-0.457349 0.055742 -0.094263
-0.456446 0.055313 -0.094282
-0.455542 0.054884 -0.094301
-0.454639 0.054456 -0.094321
-0.453736 0.054027 -0.094340
-0.452833 0.053598 -0.094359
-0.451929 0.053169 -0.094379
-0.451026 0.052740 -0.094398
-0.450123 0.052311 -0.094417
-0.449220 0.051882 -0.094436
-0.448317 0.051454 -0.094456
-0.447413 0.051025 -0.094475
-0.446510 0.050596 -0.094494
-0.445607 0.050167 -0.094514
-0.444704 0.049738 -0.094533
-0.443800 0.049309 -0.094552
-0.442897 0.048880 -0.094571
-0.441994 0.048451 -0.094591
-0.441091 0.048023 -0.094610
-0.440188 0.047594 -0.094629
-0.439284 0.047165 -0.094649
-0.438381 0.046736 -0.094668
-0.437478 0.046307 -0.094687
-0.436575 0.045878 -0.094706
-0.435672 0.045449 -0.094726
-0.434768 0.045021 -0.094745
-0.433865 0.044592 -0.094764
-0.432962 0.044163 -0.094784
-0.432059 0.043734 -0.094803
-0.431155 0.043305 -0.094822
-0.430252 0.042876 -0.094841
-0.429349 0.042447 -0.094861
-0.428446 0.042018 -0.094880
-0.427543 0.041590 -0.094899
-0.426639 0.041161 -0.094919
-0.425736 0.040732 -0.094938
-0.424833 0.040303 -0.094957
-0.423930 0.039874 -0.094976
-0.423026 0.039445 -0.094996
-0.422123 0.039016 -0.095015
-0.421220 0.038588 -0.095034
-0.420317 0.038159 -0.095054
-0.419414 0.037730 -0.095073
-0.418510 0.037301 -0.095092
-0.417607 0.036872 -0.095111
-0.416704 0.036443 -0.095131
-0.415801 0.036014 -0.095150
-0.414898 0.035585 -0.095169
-0.413994 0.035157 -0.095189
-0.413091 0.034728 -0.095208
-0.412188 0.034299 -0.095227
-0.411285 0.033870 -0.095246
-0.410381 0.033441 -0.095266
-0.409478 0.033012 -0.095285
-0.408575 0.032583 -0.095304
-0.407672 0.032155 -0.095324
-0.406769 0.031726 -0.095343
-0.405865 0.031297 -0.095362
-0.404962 0.030868 -0.095381
-0.404059 0.030439 -0.095401
-0.403156 0.030010 -0.095420
-0.402252 0.029581 -0.095439
-0.401349 0.029152 -0.095459
-0.400446 0.028724 -0.095478
-0.399543 0.028295 -0.095497
-0.398640 0.027866 -0.095516
-0.397736 0.027437 -0.095536
-0.396833 0.027008 -0.095555
-0.395930 0.026579 -0.095574
-0.395027 0.026150 -0.095594
-0.394123 0.025722 -0.095613
-0.393220 0.025293 -0.095632
-0.392317 0.024864 -0.095651
-0.391414 0.024435 -0.095671
-0.390511 0.024006 -0.095690
-0.389607 0.023577 -0.095709
-0.388704 0.023148 -0.095729
-0.387801 0.022719 -0.095748
-0.386898 0.022291 -0.095767
-0.385995 0.021862 -0.095786
-0.385091 0.021433 -0.095806
-0.384188 0.021004 -0.095825
-0.383285 0.020575 -0.095844
