#usda 1.0
(
    defaultPrim = "World"
    metersPerUnit = 0.01
    upAxis = "Y"
)

def Xform "World" (
    kind = "component"
)
{
    quatf xformOp:orient = (1, 0, 0, 0)
    float3 xformOp:scale = (1, 1, 1)
    double3 xformOp:translate = (0, 0, 0)
    uniform token[] xformOpOrder = ["xformOp:translate", "xformOp:orient", "xformOp:scale"]

    def Scope "Looks"
    {
        def Material "material"
        {
            token outputs:mdl:displacement.connect = </World/Looks/material/material.outputs:out>
            token outputs:mdl:surface.connect = </World/Looks/material/material.outputs:out>
            token outputs:mdl:volume.connect = </World/Looks/material/material.outputs:out>

            def Shader "material"
            {
                uniform token info:implementationSource = "sourceAsset"
                uniform asset info:mdl:sourceAsset = @OmniPBR.mdl@
                uniform token info:mdl:sourceAsset:subIdentifier = "OmniPBR"
                color3f inputs:diffuse_color_constant = (1, 1, 1) (
                    customData = {
                        float3 default = (1, 1, 1)
                        dictionary range = {
                            float3 max = (1, 1, 1)
                            float3 min = (0, 0, 0)
                        }
                    }
                    displayGroup = "Albedo"
                    displayName = "Base Color"
                )
                color3f inputs:emissive_color = (1, 1, 1) (
                    customData = {
                        float3 default = (1, 1, 1)
                        dictionary range = {
                            float3 max = (1, 1, 1)
                            float3 min = (0, 0, 0)
                        }
                    }
                    displayGroup = "Emissive"
                    displayName = "Emissive Color"
                )
                float inputs:emissive_intensity = 10000 (
                    customData = {
                        float default = 10000
                        dictionary range = {
                            float max = 100000
                            float min = 0
                        }
                    }
                    displayGroup = "Emissive"
                    displayName = "Emissive Intensity"
                )
                bool inputs:enable_emission = 0 (
                    customData = {
                        bool default = 0
                    }
                    displayGroup = "Emissive"
                    displayName = "Enable Emission"
                )
                bool inputs:enable_opacity = 0 (
                    customData = {
                        bool default = 0
                    }
                    displayGroup = "Opacity"
                    displayName = "Enable Opacity"
                )
                bool inputs:enable_opacity_texture = 0 (
                    customData = {
                        bool default = 0
                    }
                    displayGroup = "Opacity"
                    displayName = "Enable Opacity Texture"
                )
                float inputs:opacity_constant = 1 (
                    customData = {
                        float default = 1
                        dictionary range = {
                            float max = 1
                            float min = 0
                        }
                    }
                    displayGroup = "Opacity"
                    displayName = "Opacity Amount"
                )
                int inputs:opacity_mode = 1 (
                    customData = {
                        int default = 1
                        dictionary range = {
                            int max = 3
                            int min = 0
                        }
                    }
                    displayGroup = "Opacity"
                    displayName = "Opacity Mono Source"
                    renderType = "::base::mono_mode"
                    sdrMetadata = {
                        string __SDR__enum_value = "mono_average"
                        string options = "mono_alpha:0|mono_average:1|mono_luminance:2|mono_maximum:3"
                    }
                )
                float inputs:opacity_threshold = 0 (
                    customData = {
                        float default = 0
                        dictionary range = {
                            float max = 1
                            float min = 0
                        }
                    }
                    displayGroup = "Opacity"
                    displayName = "Opacity Threshold"
                )
                float inputs:texture_rotate = 0 (
                    customData = {
                        float default = 0
                        dictionary range = {
                            float max = 360
                            float min = 0
                        }
                    }
                    displayGroup = "UV"
                    displayName = "Texture Rotate"
                )
                float2 inputs:texture_scale = (1, 1) (
                    customData = {
                        float2 default = (1, 1)
                    }
                    displayGroup = "UV"
                    displayName = "Texture Scale"
                )
                float2 inputs:texture_translate = (0, 0) (
                    customData = {
                        float2 default = (0, 0)
                    }
                    displayGroup = "UV"
                    displayName = "Texture Translate"
                )
                token outputs:out
            }
        }
    }

    def Mesh "mesh_" (
        prepend apiSchemas = ["MaterialBindingAPI"]
    )
    {
        float3[] extent = [(-74.989746, -50, -74.989746), (75, 1.6653345e-14, 75)]
        int[] faceVertexCounts = [3, 3, 3, 3, 3, 3, 3, 3, 3, 3, 3, 3, 3, 3, 3, 3, 3, 3, 3, 3, 3, 3, 3, 3, 3, 3, 3, 3, 3, 3, 3, 3, 3, 3, 3, 3, 3, 3, 3, 3, 3, 3, 3, 3, 3, 3, 3, 3, 3, 3, 3, 3, 3, 3, 3, 3, 3, 3, 3, 3, 3, 3, 3, 3, 3, 3, 3, 3, 3, 3, 3, 3, 3, 3, 3, 3, 3, 3, 3, 3, 3, 3, 3, 3, 3, 3, 3, 3, 3, 3, 3, 3, 3, 3, 3, 3, 3, 3, 3, 3, 3, 3, 3, 3, 3, 3, 3, 3, 3, 3, 3, 3, 3, 3, 3, 3, 3, 3, 3, 3, 3, 3, 3, 3, 3, 3, 3, 3, 3, 3, 3, 3, 3, 3, 3, 3, 3, 3, 3, 3, 3, 3, 3, 3, 3, 3, 3, 3, 3, 3, 3, 3, 3, 3, 3, 3, 3, 3, 3, 3, 3, 3, 3, 3, 3, 3, 3, 3, 3, 3, 3, 3, 3, 3, 3, 3, 3, 3, 3, 3, 3, 3, 3, 3, 3, 3, 3, 3, 3, 3, 3, 3, 3, 3, 3, 3, 3, 3, 3, 3, 3, 3, 3, 3, 3, 3, 3, 3, 3, 3, 3, 3, 3, 3, 3, 3, 3, 3, 3, 3, 3, 3, 3, 3, 3, 3, 3, 3, 3, 3, 3, 3, 3, 3, 3, 3, 3, 3, 3, 3, 3, 3, 3, 3, 3, 3, 3, 3, 3, 3, 3, 3, 3, 3, 3, 3, 3, 3, 3, 3, 3, 3, 3, 3, 3, 3, 3, 3, 3, 3, 3, 3, 3, 3, 3, 3, 3, 3, 3, 3, 3, 3, 3, 3, 3, 3, 3, 3, 3, 3, 3, 3, 3, 3, 3, 3, 3, 3, 3, 3, 3, 3, 3, 3, 3, 3, 3, 3, 3, 3, 3, 3, 3, 3, 3, 3, 3, 3, 3, 3, 3, 3, 3, 3, 3, 3, 3, 3, 3, 3, 3, 3, 3, 3, 3, 3, 3, 3, 3, 3, 3, 3, 3, 3, 3, 3, 3, 3, 3, 3, 3, 3, 3, 3, 3, 3, 3, 3, 3, 3, 3, 3, 3, 3, 3, 3, 3, 3, 3, 3, 3, 3, 3, 3, 3, 3, 3, 3, 3, 3, 3, 3, 3, 3, 3, 3, 3, 3, 3, 3, 3, 3, 3, 3, 3, 3, 3, 3, 3, 3, 3, 3, 3, 3, 3, 3, 3, 3, 3, 3, 3, 3, 3, 3, 3, 3, 3, 3, 3, 3, 3, 3, 3, 3, 3, 3, 3, 3, 3, 3, 3, 3, 3, 3, 3, 3, 3, 3, 3, 3, 3, 3, 3, 3, 3, 3, 3, 3, 3, 3, 3, 3, 3, 3, 3, 3, 3, 3, 3, 3, 3, 3, 3, 3, 3, 3, 3, 3, 3, 3, 3, 3, 3, 3, 3, 3, 3, 3, 3, 3, 3, 3, 3, 3, 3, 3, 3, 3, 3, 3, 3, 3, 3, 3, 3, 3, 3, 3, 3, 3, 3, 3, 3, 3, 3, 3, 3, 3, 3, 3, 3, 3, 3, 3, 3, 3, 3, 3, 3, 3, 3, 3, 3, 3, 3, 3, 3, 3, 3, 3, 3, 3, 3, 3, 3, 3, 3, 3, 3, 3, 3, 3, 3, 3, 3, 3, 3, 3, 3, 3, 3, 3, 3, 3, 3, 3, 3, 3, 3, 3, 3, 3, 3, 3, 3, 3, 3, 3, 3, 3, 3, 3, 3, 3, 3, 3, 3, 3, 3, 3, 3, 3, 3, 3, 3, 3, 3, 3, 3, 3, 3, 3, 3, 3, 3, 3, 3, 3, 3, 3, 3, 3, 3, 3, 3, 3, 3, 3, 3, 3, 3, 3, 3, 3, 3, 3, 3, 3, 3, 3, 3, 3, 3, 3, 3, 3, 3, 3, 3, 3, 3, 3, 3, 3, 3, 3, 3, 3, 3, 3, 3, 3, 3, 3, 3, 3, 3, 3, 3, 3, 3, 3, 3, 3, 3, 3, 3, 3, 3, 3, 3, 3, 3, 3, 3, 3, 3, 3, 3, 3, 3, 3, 3, 3, 3, 3, 3, 3, 3, 3, 3, 3, 3, 3, 3, 3, 3, 3, 3, 3, 3, 3, 3, 3, 3, 3, 3, 3, 3, 3, 3, 3, 3, 3, 3, 3, 3, 3, 3, 3, 3, 3, 3, 3, 3, 3, 3, 3, 3, 3, 3, 3, 3, 3, 3, 3, 3, 3, 3, 3, 3, 3, 3, 3, 3, 3, 3, 3, 3, 3, 3, 3, 3, 3, 3, 3, 3, 3, 3, 3, 3, 3, 3, 3, 3, 3, 3, 3, 3, 3, 3, 3, 3, 3]
        int[] faceVertexIndices = [0, 1, 2, 2, 1, 3, 3, 1, 4, 1, 5, 4, 4, 5, 6, 5, 7, 6, 6, 8, 9, 7, 8, 6, 9, 10, 11, 8, 10, 9, 11, 12, 13, 10, 12, 11, 13, 14, 15, 12, 14, 13, 15, 16, 17, 17, 16, 18, 14, 16, 15, 16, 19, 18, 18, 20, 21, 21, 20, 22, 19, 20, 18, 20, 23, 22, 22, 24, 25, 23, 24, 22, 25, 26, 27, 27, 26, 28, 24, 26, 25, 28, 29, 30, 26, 29, 28, 29, 31, 30, 30, 32, 33, 33, 32, 34, 31, 32, 30, 32, 35, 34, 34, 36, 37, 35, 36, 34, 37, 38, 39, 36, 38, 37, 39, 40, 41, 38, 40, 39, 41, 42, 43, 40, 42, 41, 43, 44, 45, 42, 44, 43, 45, 46, 47, 47, 46, 48, 44, 46, 45, 46, 49, 48, 48, 50, 51, 51, 50, 52, 49, 50, 48, 50, 53, 52, 52, 54, 55, 55, 54, 56, 53, 54, 52, 54, 57, 56, 57, 58, 56, 56, 58, 59, 58, 60, 59, 59, 60, 61, 60, 62, 61, 61, 62, 63, 62, 64, 63, 63, 64, 65, 64, 66, 65, 65, 66, 67, 66, 68, 67, 67, 68, 69, 68, 70, 69, 69, 70, 71, 71, 72, 73, 70, 72, 71, 73, 72, 74, 72, 75, 74, 75, 76, 74, 74, 76, 77, 77, 78, 79, 79, 78, 80, 76, 78, 77, 80, 81, 82, 78, 81, 80, 81, 83, 82, 82, 84, 85, 85, 84, 86, 83, 84, 82, 86, 87, 88, 84, 87, 86, 87, 89, 88, 88, 90, 91, 89, 90, 88, 91, 92, 93, 93, 92, 94, 90, 92, 91, 92, 95, 94, 94, 96, 97, 95, 96, 94, 97, 98, 99, 96, 98, 97, 99, 100, 101, 98, 100, 99, 101, 102, 103, 100, 102, 101, 103, 104, 105, 102, 104, 103, 105, 106, 107, 104, 106, 105, 106, 108, 107, 107, 108, 109, 108, 110, 109, 109, 110, 111, 110, 112, 111, 111, 112, 113, 113, 112, 114, 112, 115, 114, 114, 115, 116, 115, 117, 116, 117, 118, 116, 116, 118, 119, 119, 118, 120, 118, 121, 120, 121, 122, 120, 120, 122, 123, 123, 122, 124, 122, 125, 124, 125, 126, 124, 124, 126, 127, 127, 126, 128, 126, 129, 128, 129, 130, 128, 128, 130, 131, 131, 130, 132, 130, 133, 132, 133, 134, 132, 132, 134, 135, 135, 134, 136, 134, 137, 136, 137, 138, 136, 136, 138, 139, 138, 140, 139, 139, 140, 141, 140, 142, 141, 141, 142, 143, 143, 144, 145, 142, 144, 143, 145, 146, 147, 147, 146, 148, 144, 146, 145, 146, 149, 148, 148, 150, 151, 149, 150, 148, 151, 152, 153, 150, 152, 151, 153, 154, 155, 152, 154, 153, 155, 156, 157, 154, 156, 155, 156, 158, 157, 157, 158, 159, 158, 160, 159, 159, 160, 161, 160, 162, 161, 161, 162, 163, 163, 162, 164, 162, 165, 164, 165, 166, 164, 164, 166, 167, 166, 168, 167, 167, 168, 169, 169, 168, 170, 168, 171, 170, 171, 172, 170, 170, 172, 173, 172, 174, 173, 173, 174, 175, 174, 176, 175, 175, 176, 177, 176, 178, 177, 177, 178, 179, 178, 180, 179, 179, 180, 181, 180, 182, 181, 181, 182, 183, 182, 184, 183, 183, 184, 185, 184, 186, 185, 185, 186, 187, 186, 188, 187, 187, 188, 189, 188, 190, 189, 189, 190, 191, 191, 190, 192, 190, 193, 192, 193, 194, 195, 193, 195, 192, 0, 2, 196, 197, 0, 196, 197, 196, 198, 199, 197, 198, 200, 198, 201, 200, 199, 198, 202, 201, 203, 202, 200, 201, 204, 203, 205, 204, 202, 203, 206, 205, 207, 206, 204, 205, 208, 207, 209, 208, 209, 210, 208, 206, 207, 211, 208, 210, 212, 210, 213, 212, 213, 214, 212, 211, 210, 215, 212, 214, 216, 214, 217, 216, 215, 214, 218, 217, 219, 218, 219, 220, 218, 216, 217, 221, 220, 222, 221, 218, 220, 223, 221, 222, 224, 222, 225, 224, 225, 226, 224, 223, 222, 227, 224, 226, 228, 226, 229, 228, 227, 226, 230, 229, 231, 230, 228, 229, 232, 231, 233, 232, 230, 231, 234, 233, 235, 234, 232, 233, 236, 235, 237, 236, 234, 235, 238, 237, 239, 238, 239, 240, 238, 236, 237, 241, 238, 240, 242, 240, 243, 242, 243, 244, 242, 241, 240, 245, 242, 244, 246, 244, 247, 246, 247, 248, 246, 245, 244, 249, 246, 248, 250, 249, 248, 250, 248, 251, 252, 250, 251, 252, 251, 253, 254, 252, 253, 254, 253, 255, 256, 254, 255, 256, 255, 257, 258, 256, 257, 258, 257, 259, 260, 258, 259, 260, 259, 261, 262, 260, 261, 262, 261, 263, 264, 263, 265, 264, 262, 263, 264, 265, 266, 267, 264, 266, 268, 267, 266, 268, 266, 269, 270, 269, 271, 270, 271, 272, 270, 268, 269, 273, 272, 274, 273, 270, 272, 275, 273, 274, 276, 274, 277, 276, 277, 278, 276, 275, 274, 279, 278, 280, 279, 276, 278, 281, 279, 280, 282, 280, 283, 282, 281, 280, 284, 283, 285, 284, 285, 286, 284, 282, 283, 287, 284, 286, 288, 286, 289, 288, 287, 286, 290, 289, 291, 290, 288, 289, 292, 291, 293, 292, 290, 291, 294, 293, 295, 294, 292, 293, 296, 295, 297, 296, 294, 295, 298, 297, 299, 298, 296, 297, 300, 298, 299, 300, 299, 301, 302, 300, 301, 302, 301, 303, 304, 302, 303, 304, 303, 305, 304, 305, 306, 307, 304, 306, 307, 306, 308, 309, 307, 308, 310, 309, 308, 310, 308, 311, 310, 311, 312, 313, 310, 312, 314, 313, 312, 314, 312, 315, 314, 315, 316, 317, 314, 316, 318, 317, 316, 318, 316, 319, 318, 319, 320, 321, 318, 320, 322, 321, 320, 322, 320, 323, 322, 323, 324, 325, 322, 324, 326, 325, 324, 326, 324, 327, 326, 327, 328, 329, 326, 328, 330, 329, 328, 330, 328, 331, 332, 330, 331, 332, 331, 333, 334, 332, 333, 334, 333, 335, 336, 335, 337, 336, 334, 335, 338, 337, 339, 338, 339, 340, 338, 336, 337, 341, 338, 340, 342, 340, 343, 342, 341, 340, 344, 343, 345, 344, 342, 343, 346, 345, 347, 346, 344, 345, 348, 347, 349, 348, 346, 347, 350, 348, 349, 350, 349, 351, 352, 350, 351, 352, 351, 353, 354, 352, 353, 354, 353, 355, 354, 355, 356, 357, 354, 356, 358, 357, 356, 358, 356, 359, 360, 358, 359, 360, 359, 361, 360, 361, 362, 363, 360, 362, 364, 363, 362, 364, 362, 365, 366, 364, 365, 366, 365, 367, 368, 366, 367, 368, 367, 369, 370, 368, 369, 370, 369, 371, 372, 370, 371, 372, 371, 373, 374, 372, 373, 374, 373, 375, 376, 374, 375, 376, 375, 377, 378, 376, 377, 378, 377, 379, 380, 378, 379, 380, 379, 381, 382, 380, 381, 382, 381, 383, 382, 383, 195, 194, 382, 195, 288, 98, 96, 290, 98, 288, 287, 288, 96, 287, 96, 95, 292, 98, 290, 292, 100, 98, 284, 287, 95, 284, 95, 92, 294, 100, 292, 294, 102, 100, 282, 284, 92, 282, 90, 89, 282, 92, 90, 296, 102, 294, 296, 104, 102, 296, 106, 104, 281, 282, 89, 298, 106, 296, 298, 108, 106, 279, 89, 87, 279, 281, 89, 300, 108, 298, 276, 279, 87, 276, 84, 83, 276, 87, 84, 302, 110, 108, 302, 108, 300, 275, 83, 81, 275, 276, 83, 304, 110, 302, 304, 112, 110, 273, 275, 81, 307, 112, 304, 307, 115, 112, 270, 78, 76, 270, 81, 78, 270, 273, 81, 309, 117, 115, 309, 118, 117, 309, 115, 307, 268, 270, 76, 310, 121, 118, 310, 118, 309, 267, 76, 75, 267, 268, 76, 313, 121, 310, 264, 75, 72, 264, 267, 75, 314, 122, 121, 314, 121, 313, 262, 70, 68, 262, 72, 70, 262, 264, 72, 317, 125, 122, 317, 122, 314, 260, 262, 68, 318, 125, 317, 318, 126, 125, 258, 260, 68, 258, 68, 66, 321, 126, 318, 321, 129, 126, 321, 130, 129, 256, 258, 66, 256, 64, 62, 256, 66, 64, 322, 130, 321, 254, 256, 62, 325, 130, 322, 325, 133, 130, 252, 254, 62, 252, 60, 58, 252, 62, 60, 326, 133, 325, 326, 134, 133, 326, 137, 134, 250, 252, 58, 329, 137, 326, 249, 58, 57, 249, 250, 58, 330, 137, 329, 330, 138, 137, 246, 57, 54, 246, 249, 57, 332, 138, 330, 332, 140, 138, 245, 54, 53, 245, 246, 54, 334, 142, 140, 334, 140, 332, 242, 53, 50, 242, 245, 53, 336, 144, 142, 336, 142, 334, 241, 50, 49, 241, 242, 50, 338, 146, 144, 338, 144, 336, 46, 241, 49, 149, 146, 338, 238, 241, 46, 341, 149, 338, 236, 46, 44, 236, 238, 46, 342, 149, 341, 342, 150, 149, 42, 236, 44, 152, 150, 342, 234, 236, 42, 344, 152, 342, 232, 234, 42, 232, 42, 40, 346, 152, 344, 346, 154, 152, 38, 232, 40, 230, 232, 38, 348, 154, 346, 348, 156, 154, 228, 38, 36, 228, 230, 38, 350, 156, 348, 350, 158, 156, 35, 228, 36, 227, 228, 35, 352, 158, 350, 352, 160, 158, 224, 227, 35, 354, 160, 352, 32, 224, 35, 162, 160, 354, 223, 224, 32, 31, 223, 32, 165, 162, 354, 165, 354, 357, 29, 221, 223, 29, 223, 31, 166, 165, 357, 166, 357, 358, 360, 166, 358, 26, 218, 221, 26, 221, 29, 168, 166, 360, 24, 216, 218, 24, 218, 26, 171, 168, 360, 171, 360, 363, 23, 215, 216, 23, 216, 24, 172, 363, 364, 172, 171, 363, 212, 215, 23, 366, 172, 364, 20, 212, 23, 174, 172, 366, 19, 211, 212, 19, 212, 20, 176, 174, 366, 176, 366, 368, 370, 176, 368, 16, 208, 211, 16, 211, 19, 178, 176, 370, 14, 206, 208, 14, 208, 16, 180, 178, 370, 180, 370, 372, 374, 180, 372, 12, 204, 206, 12, 206, 14, 182, 180, 374, 10, 202, 204, 10, 204, 12, 184, 182, 374, 184, 374, 376, 8, 199, 200, 8, 200, 202, 8, 202, 10, 186, 184, 376, 186, 376, 378, 7, 199, 8, 188, 186, 378, 188, 378, 380, 188, 380, 382, 5, 197, 199, 5, 199, 7, 190, 188, 382, 193, 190, 382, 193, 382, 194, 1, 0, 197, 1, 197, 5, 99, 289, 97, 99, 291, 289, 289, 286, 97, 97, 286, 94, 99, 293, 291, 101, 293, 99, 286, 285, 94, 94, 285, 93, 101, 295, 293, 103, 295, 101, 285, 283, 93, 91, 283, 88, 93, 283, 91, 103, 297, 295, 105, 297, 103, 107, 297, 105, 283, 280, 88, 107, 299, 297, 109, 299, 107, 88, 278, 86, 280, 278, 88, 109, 301, 299, 278, 277, 86, 85, 277, 82, 86, 277, 85, 111, 303, 109, 109, 303, 301, 82, 274, 80, 277, 274, 82, 111, 305, 303, 113, 305, 111, 274, 272, 80, 113, 306, 305, 114, 306, 113, 79, 271, 77, 80, 271, 79, 272, 271, 80, 116, 308, 114, 119, 308, 116, 114, 308, 306, 271, 269, 77, 120, 311, 119, 119, 311, 308, 77, 266, 74, 269, 266, 77, 120, 312, 311, 74, 265, 73, 266, 265, 74, 123, 315, 120, 120, 315, 312, 71, 263, 69, 73, 263, 71, 265, 263, 73, 124, 316, 123, 123, 316, 315, 263, 261, 69, 124, 319, 316, 127, 319, 124, 261, 259, 69, 69, 259, 67, 127, 320, 319, 128, 320, 127, 131, 320, 128, 259, 257, 67, 65, 257, 63, 67, 257, 65, 131, 323, 320, 257, 255, 63, 131, 324, 323, 132, 324, 131, 255, 253, 63, 61, 253, 59, 63, 253, 61, 132, 327, 324, 135, 327, 132, 136, 327, 135, 253, 251, 59, 136, 328, 327, 59, 248, 56, 251, 248, 59, 136, 331, 328, 139, 331, 136, 56, 247, 55, 248, 247, 56, 139, 333, 331, 141, 333, 139, 55, 244, 52, 247, 244, 55, 143, 335, 141, 141, 335, 333, 52, 243, 51, 244, 243, 52, 145, 337, 143, 143, 337, 335, 51, 240, 48, 243, 240, 51, 147, 339, 145, 145, 339, 337, 240, 47, 48, 147, 148, 339, 240, 239, 47, 148, 340, 339, 47, 237, 45, 239, 237, 47, 148, 343, 340, 151, 343, 148, 237, 43, 45, 151, 153, 343, 237, 235, 43, 153, 345, 343, 235, 233, 43, 43, 233, 41, 153, 347, 345, 155, 347, 153, 233, 39, 41, 233, 231, 39, 155, 349, 347, 157, 349, 155, 39, 229, 37, 231, 229, 39, 157, 351, 349, 159, 351, 157, 229, 34, 37, 229, 226, 34, 159, 353, 351, 161, 353, 159, 226, 225, 34, 161, 355, 353, 225, 33, 34, 161, 163, 355, 225, 222, 33, 222, 30, 33, 163, 164, 355, 355, 164, 356, 220, 28, 222, 222, 28, 30, 164, 167, 356, 356, 167, 359, 167, 361, 359, 219, 27, 220, 220, 27, 28, 167, 169, 361, 217, 25, 219, 219, 25, 27, 169, 170, 361, 361, 170, 362, 214, 22, 217, 217, 22, 25, 362, 173, 365, 170, 173, 362, 214, 213, 22, 173, 367, 365, 213, 21, 22, 173, 175, 367, 210, 18, 213, 213, 18, 21, 175, 177, 367, 367, 177, 369, 177, 371, 369, 209, 17, 210, 210, 17, 18, 177, 179, 371, 207, 15, 209, 209, 15, 17, 179, 181, 371, 371, 181, 373, 181, 375, 373, 205, 13, 207, 207, 13, 15, 181, 183, 375, 203, 11, 205, 205, 11, 13, 183, 185, 375, 375, 185, 377, 198, 9, 201, 201, 9, 203, 203, 9, 11, 185, 187, 377, 377, 187, 379, 198, 6, 9, 187, 189, 379, 379, 189, 381, 381, 189, 383, 196, 4, 198, 198, 4, 6, 189, 191, 383, 191, 192, 383, 383, 192, 195, 2, 3, 196, 196, 3, 4]
        rel material:binding = </World/Looks/material>
        normal3f[] normals = [(0, 1, -2.220446e-16), (0, 1, -2.220446e-16), (0, -1, 0), (0, -1, 0), (0, 1, -2.220446e-16), (0, -1, 0), (0, -1, 0), (0, 1, -2.220446e-16), (0, -1, 0), (0, 1, -2.220446e-16), (0, 1, -2.220446e-16), (0, -1, 0), (0, -1, 0), (0, 1, -2.220446e-16), (0, -1, 0), (0, 1, -2.220446e-16), (0, 1, -2.220446e-16), (0, -1, 0), (0, -1, 0), (0, 1, -2.220446e-16), (0, -1, 0), (0, 1, -2.220446e-16), (0, 1, -2.220446e-16), (0, -1, 0), (0, -1, 0), (0, 1, -2.220446e-16), (0, -1, 0), (0, 1, -2.220446e-16), (0, 1, -2.220446e-16), (0, -1, 0), (0, -1, 0), (0, 1, -2.220446e-16), (0, -1, 0), (0, 1, -2.220446e-16), (0, 1, -2.220446e-16), (0, -1, 0), (0, -1, 0), (0, 1, -2.220446e-16), (0, -1, 0), (0, 1, -2.220446e-16), (0, 1, -2.220446e-16), (0, -1, 0), (0, -1, 0), (0, 1, -2.220446e-16), (0, -1, 0), (0, -1, 0), (0, 1, -2.220446e-16), (0, -1, 0), (0, 1, -2.220446e-16), (0, 1, -2.220446e-16), (0, -1, 0), (0, 1, -2.220446e-16), (0, 1, -2.220446e-16), (0, -1, 0), (0, -1, 0), (0, 1, -2.220446e-16), (0, -1, 0), (0, -1, 0), (0, 1, -2.220446e-16), (0, -1, 0), (0, 1, -2.220446e-16), (0, 1, -2.220446e-16), (0, -1, 0), (0, 1, -2.220446e-16), (0, 1, -2.220446e-16), (0, -1, 0), (0, -1, 0), (0, 1, -2.220446e-16), (0, -1, 0), (0, 1, -2.220446e-16), (0, 1, -2.220446e-16), (0, -1, 0), (0, -1, 0), (0, 1, -2.220446e-16), (0, -1, 0), (0, -1, 0), (0, 1, -2.220446e-16), (0, -1, 0), (0, 1, -2.220446e-16), (0, 1, -2.220446e-16), (0, -1, 0), (0, -1, 0), (0, 1, -2.220446e-16), (0, -1, 0), (0, 1, -2.220446e-16), (0, 1, -2.220446e-16), (0, -1, 0), (0, 1, -2.220446e-16), (0, 1, -2.220446e-16), (0, -1, 0), (0, -1, 0), (0, 1, -2.220446e-16), (0, -1, 0), (0, -1, 0), (0, 1, -2.220446e-16), (0, -1, 0), (0, 1, -2.220446e-16), (0, 1, -2.220446e-16), (0, -1, 0), (0, 1, -2.220446e-16), (0, 1, -2.220446e-16), (0, -1, 0), (0, -1, 0), (0, 1, -2.220446e-16), (0, -1, 0), (0, 1, -2.220446e-16), (0, 1, -2.220446e-16), (0, -1, 0), (0, -1, 0), (0, 1, -2.220446e-16), (0, -1, 0), (0, 1, -2.220446e-16), (0, 1, -2.220446e-16), (0, -1, 0), (0, -1, 0), (0, 1, -2.220446e-16), (0, -1, 0), (0, 1, -2.220446e-16), (0, 1, -2.220446e-16), (0, -1, 0), (0, -1, 0), (0, 1, -2.220446e-16), (0, -1, 0), (0, 1, -2.220446e-16), (0, 1, -2.220446e-16), (0, -1, 0), (0, -1, 0), (0, 1, -2.220446e-16), (0, -1, 0), (0, 1, -2.220446e-16), (0, 1, -2.220446e-16), (0, -1, 0), (0, -1, 0), (0, 1, -2.220446e-16), (0, -1, 0), (0, -1, 0), (0, 1, -2.220446e-16), (0, -1, 0), (0, 1, -2.220446e-16), (0, 1, -2.220446e-16), (0, -1, 0), (0, 1, -2.220446e-16), (0, 1, -2.220446e-16), (0, -1, 0), (0, -1, 0), (0, 1, -2.220446e-16), (0, -1, 0), (0, -1, 0), (0, 1, -2.220446e-16), (0, -1, 0), (0, 1, -2.220446e-16), (0, 1, -2.220446e-16), (0, -1, 0), (0, 1, -2.220446e-16), (0, 1, -2.220446e-16), (0, -1, 0), (0, -1, 0), (0, 1, -2.220446e-16), (0, -1, 0), (0, -1, 0), (0, 1, -2.220446e-16), (0, -1, 0), (0, 1, -2.220446e-16), (0, 1, -2.220446e-16), (0, -1, 0), (0, 1, -2.220446e-16), (0, 1, -2.220446e-16), (0, -1, 0), (0, 1, -2.220446e-16), (0, 1, -2.220446e-16), (0, -1, 0), (0, -1, 0), (0, 1, -2.220446e-16), (0, -1, 0), (0, 1, -2.220446e-16), (0, 1, -2.220446e-16), (0, -1, 0), (0, -1, 0), (0, 1, -2.220446e-16), (0, -1, 0), (0, 1, -2.220446e-16), (0, 1, -2.220446e-16), (0, -1, 0), (0, -1, 0), (0, 1, -2.220446e-16), (0, -1, 0), (0, 1, -2.220446e-16), (0, 1, -2.220446e-16), (0, -1, 0), (0, -1, 0), (0, 1, -2.220446e-16), (0, -1, 0), (0, 1, -2.220446e-16), (0, 1, -2.220446e-16), (0, -1, 0), (0, -1, 0), (0, 1, -2.220446e-16), (0, -1, 0), (0, 1, -2.220446e-16), (0, 1, -2.220446e-16), (0, -1, 0), (0, -1, 0), (0, 1, -2.220446e-16), (0, -1, 0), (0, 1, -2.220446e-16), (0, 1, -2.220446e-16), (0, -1, 0), (0, -1, 0), (0, 1, -2.220446e-16), (0, -1, 0), (0, -1, 0), (0, 1, -2.220446e-16), (0, -1, 0), (0, 1, -2.220446e-16), (0, 1, -2.220446e-16), (0, -1, 0), (0, -1, 0), (0, 1, -2.220446e-16), (0, -1, 0), (0, 1, -2.220446e-16), (0, 1, -2.220446e-16), (0, -1, 0), (0, 1, -2.220446e-16), (0, 1, -2.220446e-16), (0, -1, 0), (0, -1, 0), (0, 1, -2.220446e-16), (0, -1, 0), (0, -1, 0), (0, 1, -2.220446e-16), (0, -1, 0), (0, -1, 0), (0, 1, -2.220446e-16), (0, -1, 0), (0, 1, -2.220446e-16), (0, 1, -2.220446e-16), (0, -1, 0), (0, -1, 0), (0, 1, -2.220446e-16), (0, -1, 0), (0, 1, -2.220446e-16), (0, 1, -2.220446e-16), (0, -1, 0), (0, 1, -2.220446e-16), (0, 1, -2.220446e-16), (0, -1, 0), (0, -1, 0), (0, 1, -2.220446e-16), (0, -1, 0), (0, -1, 0), (0, 1, -2.220446e-16), (0, -1, 0), (0, 1, -2.220446e-16), (0, 1, -2.220446e-16), (0, -1, 0), (0, -1, 0), (0, 1, -2.220446e-16), (0, -1, 0), (0, 1, -2.220446e-16), (0, 1, -2.220446e-16), (0, -1, 0), (0, 1, -2.220446e-16), (0, 1, -2.220446e-16), (0, -1, 0), (0, -1, 0), (0, 1, -2.220446e-16), (0, -1, 0), (0, 1, -2.220446e-16), (0, 1, -2.220446e-16), (0, -1, 0), (0, -1, 0), (0, 1, -2.220446e-16), (0, -1, 0), (0, -1, 0), (0, 1, -2.220446e-16), (0, -1, 0), (0, 1, -2.220446e-16), (0, 1, -2.220446e-16), (0, -1, 0), (0, 1, -2.220446e-16), (0, 1, -2.220446e-16), (0, -1, 0), (0, -1, 0), (0, 1, -2.220446e-16), (0, -1, 0), (0, 1, -2.220446e-16), (0, 1, -2.220446e-16), (0, -1, 0), (0, -1, 0), (0, 1, -2.220446e-16), (0, -1, 0), (0, 1, -2.220446e-16), (0, 1, -2.220446e-16), (0, -1, 0), (0, -1, 0), (0, 1, -2.220446e-16), (0, -1, 0), (0, 1, -2.220446e-16), (0, 1, -2.220446e-16), (0, -1, 0), (0, -1, 0), (0, 1, -2.220446e-16), (0, -1, 0), (0, 1, -2.220446e-16), (0, 1, -2.220446e-16), (0, -1, 0), (0, -1, 0), (0, 1, -2.220446e-16), (0, -1, 0), (0, 1, -2.220446e-16), (0, 1, -2.220446e-16), (0, -1, 0), (0, -1, 0), (0, 1, -2.220446e-16), (0, -1, 0), (0, 1, -2.220446e-16), (0, 1, -2.220446e-16), (0, -1, 0), (0, 1, -2.220446e-16), (0, 1, -2.220446e-16), (0, -1, 0), (0, -1, 0), (0, 1, -2.220446e-16), (0, -1, 0), (0, 1, -2.220446e-16), (0, 1, -2.220446e-16), (0, -1, 0), (0, -1, 0), (0, 1, -2.220446e-16), (0, -1, 0), (0, 1, -2.220446e-16), (0, 1, -2.220446e-16), (0, -1, 0), (0, -1, 0), (0, 1, -2.220446e-16), (0, -1, 0), (0, -1, 0), (0, 1, -2.220446e-16), (0, -1, 0), (0, 1, -2.220446e-16), (0, 1, -2.220446e-16), (0, -1, 0), (0, -1, 0), (0, 1, -2.220446e-16), (0, -1, 0), (0, 1, -2.220446e-16), (0, 1, -2.220446e-16), (0, -1, 0), (0, 1, -2.220446e-16), (0, 1, -2.220446e-16), (0, -1, 0), (0, -1, 0), (0, 1, -2.220446e-16), (0, -1, 0), (0, -1, 0), (0, 1, -2.220446e-16), (0, -1, 0), (0, 1, -2.220446e-16), (0, 1, -2.220446e-16), (0, -1, 0), (0, 1, -2.220446e-16), (0, 1, -2.220446e-16), (0, -1, 0), (0, -1, 0), (0, 1, -2.220446e-16), (0, -1, 0), (0, -1, 0), (0, 1, -2.220446e-16), (0, -1, 0), (0, 1, -2.220446e-16), (0, 1, -2.220446e-16), (0, -1, 0), (0, 1, -2.220446e-16), (0, 1, -2.220446e-16), (0, -1, 0), (0, -1, 0), (0, 1, -2.220446e-16), (0, -1, 0), (0, -1, 0), (0, 1, -2.220446e-16), (0, -1, 0), (0, 1, -2.220446e-16), (0, 1, -2.220446e-16), (0, -1, 0), (0, 1, -2.220446e-16), (0, 1, -2.220446e-16), (0, -1, 0), (0, -1, 0), (0, 1, -2.220446e-16), (0, -1, 0), (0, -1, 0), (0, 1, -2.220446e-16), (0, -1, 0), (0, 1, -2.220446e-16), (0, 1, -2.220446e-16), (0, -1, 0), (0, 1, -2.220446e-16), (0, 1, -2.220446e-16), (0, -1, 0), (0, -1, 0), (0, 1, -2.220446e-16), (0, -1, 0), (0, -1, 0), (0, 1, -2.220446e-16), (0, -1, 0), (0, 1, -2.220446e-16), (0, 1, -2.220446e-16), (0, -1, 0), (0, 1, -2.220446e-16), (0, 1, -2.220446e-16), (0, -1, 0), (0, -1, 0), (0, 1, -2.220446e-16), (0, -1, 0), (0, 1, -2.220446e-16), (0, 1, -2.220446e-16), (0, -1, 0), (0, -1, 0), (0, 1, -2.220446e-16), (0, -1, 0), (0, 1, -2.220446e-16), (0, 1, -2.220446e-16), (0, -1, 0), (0, -1, 0), (0, 1, -2.220446e-16), (0, -1, 0), (0, -1, 0), (0, 1, -2.220446e-16), (0, -1, 0), (0, 1, -2.220446e-16), (0, 1, -2.220446e-16), (0, -1, 0), (0, -1, 0), (0, 1, -2.220446e-16), (0, -1, 0), (0, -1, 0), (0, 1, -2.220446e-16), (0, -1, 0), (0, 1, -2.220446e-16), (0, 1, -2.220446e-16), (0, -1, 0), (0, 1, -2.220446e-16), (0, 1, -2.220446e-16), (0, -1, 0), (0, -1, 0), (0, 1, -2.220446e-16), (0, -1, 0), (0, 1, -2.220446e-16), (0, 1, -2.220446e-16), (0, -1, 0), (0, -1, 0), (0, 1, -2.220446e-16), (0, -1, 0), (0, 1, -2.220446e-16), (0, 1, -2.220446e-16), (0, -1, 0), (0, -1, 0), (0, 1, -2.220446e-16), (0, -1, 0), (0, 1, -2.220446e-16), (0, 1, -2.220446e-16), (0, -1, 0), (0, -1, 0), (0, 1, -2.220446e-16), (0, -1, 0), (0, 1, -2.220446e-16), (0, 1, -2.220446e-16), (0, -1, 0), (0, 1, -2.220446e-16), (0, 1, -2.220446e-16), (0, -1, 0), (0, -1, 0), (0, 1, -2.220446e-16), (0, -1, 0), (0, 1, -2.220446e-16), (0, 1, -2.220446e-16), (0, -1, 0), (0, -1, 0), (0, 1, -2.220446e-16), (0, -1, 0), (0, 1, -2.220446e-16), (0, 1, -2.220446e-16), (0, -1, 0), (0, -1, 0), (0, 1, -2.220446e-16), (0, -1, 0), (0, -1, 0), (0, 1, -2.220446e-16), (0, -1, 0), (0, 1, -2.220446e-16), (0, 1, -2.220446e-16), (0, -1, 0), (0, 1, -2.220446e-16), (0, 1, -2.220446e-16), (0, -1, 0), (0, -1, 0), (0, 1, -2.220446e-16), (0, -1, 0), (0, 1, -2.220446e-16), (0, 1, -2.220446e-16), (0, -1, 0), (0, -1, 0), (0, 1, -2.220446e-16), (0, -1, 0), (0, -1, 0), (0, 1, -2.220446e-16), (0, -1, 0), (0, 1, -2.220446e-16), (0, 1, -2.220446e-16), (0, -1, 0), (0, 1, -2.220446e-16), (0, 1, -2.220446e-16), (0, -1, 0), (0, -1, 0), (0, 1, -2.220446e-16), (0, -1, 0), (0, 1, -2.220446e-16), (0, 1, -2.220446e-16), (0, -1, 0), (0, -1, 0), (0, 1, -2.220446e-16), (0, -1, 0), (0, 1, -2.220446e-16), (0, 1, -2.220446e-16), (0, -1, 0), (0, -1, 0), (0, 1, -2.220446e-16), (0, -1, 0), (0, 1, -2.220446e-16), (0, 1, -2.220446e-16), (0, -1, 0), (0, -1, 0), (0, 1, -2.220446e-16), (0, -1, 0), (0, 1, -2.220446e-16), (0, 1, -2.220446e-16), (0, -1, 0), (0, -1, 0), (0, 1, -2.220446e-16), (0, -1, 0), (0, 1, -2.220446e-16), (0, 1, -2.220446e-16), (0, -1, 0), (0, -1, 0), (0, 1, -2.220446e-16), (0, -1, 0), (0, 1, -2.220446e-16), (0, 1, -2.220446e-16), (0, -1, 0), (0, -1, 0), (0, 1, -2.220446e-16), (0, -1, 0), (0, 1, -2.220446e-16), (0, 1, -2.220446e-16), (0, -1, 0), (0, -1, 0), (0, 1, -2.220446e-16), (0, -1, 0), (0, 1, -2.220446e-16), (0, 1, -2.220446e-16), (0, -1, 0), (0, -1, 0), (0, 1, -2.220446e-16), (0, -1, 0), (0, 1, -2.220446e-16), (0, 1, -2.220446e-16), (0, -1, 0), (0, -1, 0), (0, 1, -2.220446e-16), (0, -1, 0), (0, -1, 0), (0, 1, -2.220446e-16), (0, -1, 0), (0, 1, -2.220446e-16), (0, 1, -2.220446e-16), (0, -1, 0), (0, 1, -2.220446e-16), (0, 1, -2.220446e-16), (0, -1, 0), (0, 1, -2.220446e-16), (0, -1, 0), (0, -1, 0), (0, 1, -2.220446e-16), (0, -1, 0), (0, -1, 0), (0, 1, -2.220446e-16), (0, 1, -2.220446e-16), (0, -1, 0), (0, 1, -2.220446e-16), (0, -1, 0), (0, -1, 0), (0, 1, -2.220446e-16), (0, 1, -2.220446e-16), (0, -1, 0), (0, 1, -2.220446e-16), (0, -1, 0), (0, -1, 0), (0, 1, -2.220446e-16), (0, 1, -2.220446e-16), (0, -1, 0), (0, 1, -2.220446e-16), (0, -1, 0), (0, -1, 0), (0, 1, -2.220446e-16), (0, 1, -2.220446e-16), (0, -1, 0), (0, 1, -2.220446e-16), (0, -1, 0), (0, -1, 0), (0, 1, -2.220446e-16), (0, 1, -2.220446e-16), (0, -1, 0), (0, 1, -2.220446e-16), (0, -1, 0), (0, -1, 0), (0, 1, -2.220446e-16), (0, 1, -2.220446e-16), (0, -1, 0), (0, 1, -2.220446e-16), (0, -1, 0), (0, -1, 0), (0, 1, -2.220446e-16), (0, -1, 0), (0, -1, 0), (0, 1, -2.220446e-16), (0, 1, -2.220446e-16), (0, -1, 0), (0, 1, -2.220446e-16), (0, 1, -2.220446e-16), (0, -1, 0), (0, 1, -2.220446e-16), (0, -1, 0), (0, -1, 0), (0, 1, -2.220446e-16), (0, -1, 0), (0, -1, 0), (0, 1, -2.220446e-16), (0, 1, -2.220446e-16), (0, -1, 0), (0, 1, -2.220446e-16), (0, 1, -2.220446e-16), (0, -1, 0), (0, 1, -2.220446e-16), (0, -1, 0), (0, -1, 0), (0, 1, -2.220446e-16), (0, 1, -2.220446e-16), (0, -1, 0), (0, 1, -2.220446e-16), (0, -1, 0), (0, -1, 0), (0, 1, -2.220446e-16), (0, -1, 0), (0, -1, 0), (0, 1, -2.220446e-16), (0, 1, -2.220446e-16), (0, -1, 0), (0, 1, -2.220446e-16), (0, -1, 0), (0, -1, 0), (0, 1, -2.220446e-16), (0, 1, -2.220446e-16), (0, -1, 0), (0, 1, -2.220446e-16), (0, 1, -2.220446e-16), (0, -1, 0), (0, 1, -2.220446e-16), (0, -1, 0), (0, -1, 0), (0, 1, -2.220446e-16), (0, -1, 0), (0, -1, 0), (0, 1, -2.220446e-16), (0, 1, -2.220446e-16), (0, -1, 0), (0, 1, -2.220446e-16), (0, 1, -2.220446e-16), (0, -1, 0), (0, 1, -2.220446e-16), (0, -1, 0), (0, -1, 0), (0, 1, -2.220446e-16), (0, 1, -2.220446e-16), (0, -1, 0), (0, 1, -2.220446e-16), (0, -1, 0), (0, -1, 0), (0, 1, -2.220446e-16), (0, 1, -2.220446e-16), (0, -1, 0), (0, 1, -2.220446e-16), (0, -1, 0), (0, -1, 0), (0, 1, -2.220446e-16), (0, 1, -2.220446e-16), (0, -1, 0), (0, 1, -2.220446e-16), (0, -1, 0), (0, -1, 0), (0, 1, -2.220446e-16), (0, 1, -2.220446e-16), (0, -1, 0), (0, 1, -2.220446e-16), (0, -1, 0), (0, -1, 0), (0, 1, -2.220446e-16), (0, 1, -2.220446e-16), (0, -1, 0), (0, 1, -2.220446e-16), (0, -1, 0), (0, -1, 0), (0, 1, -2.220446e-16), (0, -1, 0), (0, -1, 0), (0, 1, -2.220446e-16), (0, 1, -2.220446e-16), (0, -1, 0), (0, 1, -2.220446e-16), (0, 1, -2.220446e-16), (0, -1, 0), (0, 1, -2.220446e-16), (0, -1, 0), (0, -1, 0), (0, 1, -2.220446e-16), (0, -1, 0), (0, -1, 0), (0, 1, -2.220446e-16), (0, 1, -2.220446e-16), (0, -1, 0), (0, 1, -2.220446e-16), (0, 1, -2.220446e-16), (0, -1, 0), (0, 1, -2.220446e-16), (0, -1, 0), (0, -1, 0), (0, 1, -2.220446e-16), (0, -1, 0), (0, -1, 0), (0, 1, -2.220446e-16), (0, 1, -2.220446e-16), (0, -1, 0), (0, 1, -2.220446e-16), (0, 1, -2.220446e-16), (0, -1, 0), (0, 1, -2.220446e-16), (0, 1, -2.220446e-16), (0, -1, 0), (0, 1, -2.220446e-16), (0, -1, 0), (0, -1, 0), (0, 1, -2.220446e-16), (0, 1, -2.220446e-16), (0, -1, 0), (0, 1, -2.220446e-16), (0, -1, 0), (0, -1, 0), (0, 1, -2.220446e-16), (0, 1, -2.220446e-16), (0, -1, 0), (0, 1, -2.220446e-16), (0, -1, 0), (0, -1, 0), (0, 1, -2.220446e-16), (0, 1, -2.220446e-16), (0, -1, 0), (0, 1, -2.220446e-16), (0, -1, 0), (0, -1, 0), (0, 1, -2.220446e-16), (0, 1, -2.220446e-16), (0, -1, 0), (0, 1, -2.220446e-16), (0, -1, 0), (0, -1, 0), (0, 1, -2.220446e-16), (0, 1, -2.220446e-16), (0, -1, 0), (0, 1, -2.220446e-16), (0, -1, 0), (0, -1, 0), (0, 1, -2.220446e-16), (0, 1, -2.220446e-16), (0, -1, 0), (0, 1, -2.220446e-16), (0, -1, 0), (0, -1, 0), (0, 1, -2.220446e-16), (0, -1, 0), (0, -1, 0), (0, 1, -2.220446e-16), (0, 1, -2.220446e-16), (0, -1, 0), (0, 1, -2.220446e-16), (0, -1, 0), (0, -1, 0), (0, 1, -2.220446e-16), (0, 1, -2.220446e-16), (0, -1, 0), (0, 1, -2.220446e-16), (0, 1, -2.220446e-16), (0, -1, 0), (0, 1, -2.220446e-16), (0, -1, 0), (0, -1, 0), (0, 1, -2.220446e-16), (0, -1, 0), (0, -1, 0), (0, 1, -2.220446e-16), (0, -1, 0), (0, -1, 0), (0, 1, -2.220446e-16), (0, 1, -2.220446e-16), (0, -1, 0), (0, 1, -2.220446e-16), (0, -1, 0), (0, -1, 0), (0, 1, -2.220446e-16), (0, 1, -2.220446e-16), (0, -1, 0), (0, 1, -2.220446e-16), (0, 1, -2.220446e-16), (0, -1, 0), (0, 1, -2.220446e-16), (0, -1, 0), (0, -1, 0), (0, 1, -2.220446e-16), (0, -1, 0), (0, -1, 0), (0, 1, -2.220446e-16), (0, 1, -2.220446e-16), (0, -1, 0), (0, 1, -2.220446e-16), (0, -1, 0), (0, -1, 0), (0, 1, -2.220446e-16), (0, 1, -2.220446e-16), (0, -1, 0), (0, 1, -2.220446e-16), (0, 1, -2.220446e-16), (0, -1, 0), (0, 1, -2.220446e-16), (0, -1, 0), (0, -1, 0), (0, 1, -2.220446e-16), (0, 1, -2.220446e-16), (0, -1, 0), (0, 1, -2.220446e-16), (0, -1, 0), (0, -1, 0), (0, 1, -2.220446e-16), (0, -1, 0), (0, -1, 0), (0, 1, -2.220446e-16), (0, 1, -2.220446e-16), (0, -1, 0), (0, 1, -2.220446e-16), (0, 1, -2.220446e-16), (0, -1, 0), (0, 1, -2.220446e-16), (0, -1, 0), (0, -1, 0), (0, 1, -2.220446e-16), (0, 1, -2.220446e-16), (0, -1, 0), (0, 1, -2.220446e-16), (0, -1, 0), (0, -1, 0), (0, 1, -2.220446e-16), (0, 1, -2.220446e-16), (0, -1, 0), (0, 1, -2.220446e-16), (0, -1, 0), (0, -1, 0), (0, 1, -2.220446e-16), (0, 1, -2.220446e-16), (0, -1, 0), (0, 1, -2.220446e-16), (0, -1, 0), (0, -1, 0), (0, 1, -2.220446e-16), (0, 1, -2.220446e-16), (0, -1, 0), (0, 1, -2.220446e-16), (0, -1, 0), (0, -1, 0), (0, 1, -2.220446e-16), (0, 1, -2.220446e-16), (0, -1, 0), (0, 1, -2.220446e-16), (0, -1, 0), (0, -1, 0), (0, 1, -2.220446e-16), (0, 1, -2.220446e-16), (0, -1, 0), (0, 1, -2.220446e-16), (0, 1, -2.220446e-16), (0, -1, 0), (0, 1, -2.220446e-16), (0, -1, 0), (0, -1, 0), (0, 1, -2.220446e-16), (0, 1, -2.220446e-16), (0, -1, 0), (0, 1, -2.220446e-16), (0, -1, 0), (0, -1, 0), (0, 1, -2.220446e-16), (0, 1, -2.220446e-16), (0, -1, 0), (0, 1, -2.220446e-16), (0, -1, 0), (0, -1, 0), (0, 1, -2.220446e-16), (0, -1, 0), (0, -1, 0), (0, 1, -2.220446e-16), (0, 1, -2.220446e-16), (0, -1, 0), (0, 1, -2.220446e-16), (0, -1, 0), (0, -1, 0), (0, 1, -2.220446e-16), (0, 1, -2.220446e-16), (0, -1, 0), (0, 1, -2.220446e-16), (0, 1, -2.220446e-16), (0, -1, 0), (0, 1, -2.220446e-16), (0, -1, 0), (0, -1, 0), (0, 1, -2.220446e-16), (0, -1, 0), (0, -1, 0), (0, 1, -2.220446e-16), (0, 1, -2.220446e-16), (0, -1, 0), (0, 1, -2.220446e-16), (0, 1, -2.220446e-16), (0, -1, 0), (0, 1, -2.220446e-16), (0, -1, 0), (0, -1, 0), (0, 1, -2.220446e-16), (0, -1, 0), (0, -1, 0), (0, 1, -2.220446e-16), (0, 1, -2.220446e-16), (0, -1, 0), (0, 1, -2.220446e-16), (0, 1, -2.220446e-16), (0, -1, 0), (0, 1, -2.220446e-16), (0, -1, 0), (0, -1, 0), (0, 1, -2.220446e-16), (0, -1, 0), (0, -1, 0), (0, 1, -2.220446e-16), (0, 1, -2.220446e-16), (0, -1, 0), (0, 1, -2.220446e-16), (0, 1, -2.220446e-16), (0, -1, 0), (0, 1, -2.220446e-16), (0, -1, 0), (0, -1, 0), (0, 1, -2.220446e-16), (0, -1, 0), (0, -1, 0), (0, 1, -2.220446e-16), (0, 1, -2.220446e-16), (0, -1, 0), (0, 1, -2.220446e-16), (0, 1, -2.220446e-16), (0, -1, 0), (0, 1, -2.220446e-16), (0, -1, 0), (0, -1, 0), (0, 1, -2.220446e-16), (0, -1, 0), (0, -1, 0), (0, 1, -2.220446e-16), (0, 1, -2.220446e-16), (0, -1, 0), (0, 1, -2.220446e-16), (0, 1, -2.220446e-16), (0, -1, 0), (0, 1, -2.220446e-16), (0, -1, 0), (0, -1, 0), (0, 1, -2.220446e-16), (0, 1, -2.220446e-16), (0, -1, 0), (0, 1, -2.220446e-16), (0, -1, 0), (0, -1, 0), (0, 1, -2.220446e-16), (0, 1, -2.220446e-16), (0, -1, 0), (0, 1, -2.220446e-16), (0, -1, 0), (0, -1, 0), (0, 1, -2.220446e-16), (0, -1, 0), (0, -1, 0), (0, 1, -2.220446e-16), (0, 1, -2.220446e-16), (0, -1, 0), (0, 1, -2.220446e-16), (0, -1, 0), (0, -1, 0), (0, 1, -2.220446e-16), (0, -1, 0), (0, -1, 0), (0, 1, -2.220446e-16), (0, 1, -2.220446e-16), (0, -1, 0), (0, 1, -2.220446e-16), (0, 1, -2.220446e-16), (0, -1, 0), (0, 1, -2.220446e-16), (0, -1, 0), (0, -1, 0), (0, 1, -2.220446e-16), (0, 1, -2.220446e-16), (0, -1, 0), (0, 1, -2.220446e-16), (0, -1, 0), (0, -1, 0), (0, 1, -2.220446e-16), (0, 1, -2.220446e-16), (0, -1, 0), (0, 1, -2.220446e-16), (0, -1, 0), (0, -1, 0), (0, 1, -2.220446e-16), (0, 1, -2.220446e-16), (0, -1, 0), (0, 1, -2.220446e-16), (0, -1, 0), (0, -1, 0), (0, 1, -2.220446e-16), (0, 1, -2.220446e-16), (0, -1, 0), (0, 1, -2.220446e-16), (0, 1, -2.220446e-16), (0, -1, 0), (0, 1, -2.220446e-16), (0, -1, 0), (0, -1, 0), (0, 1, -2.220446e-16), (0, 1, -2.220446e-16), (0, -1, 0), (0, 1, -2.220446e-16), (0, -1, 0), (0, -1, 0), (0, 1, -2.220446e-16), (0, 1, -2.220446e-16), (0, -1, 0), (0, 1, -2.220446e-16), (0, -1, 0), (0, -1, 0), (0, 1, -2.220446e-16), (0, -1, 0), (0, -1, 0), (0, 1, -2.220446e-16), (0, 1, -2.220446e-16), (0, -1, 0), (0, 1, -2.220446e-16), (0, 1, -2.220446e-16), (0, -1, 0), (0, 1, -2.220446e-16), (0, -1, 0), (0, -1, 0), (0, 1, -2.220446e-16), (0, 1, -2.220446e-16), (0, -1, 0), (0, 1, -2.220446e-16), (0, -1, 0), (0, -1, 0), (0, 1, -2.220446e-16), (0, -1, 0), (0, -1, 0), (0, 1, -2.220446e-16), (0, 1, -2.220446e-16), (0, -1, 0), (0, 1, -2.220446e-16), (0, 1, -2.220446e-16), (0, -1, 0), (0, 1, -2.220446e-16), (0, -1, 0), (0, -1, 0), (0, 1, -2.220446e-16), (0, 1, -2.220446e-16), (0, -1, 0), (0, 1, -2.220446e-16), (0, -1, 0), (0, -1, 0), (0, 1, -2.220446e-16), (0, 1, -2.220446e-16), (0, -1, 0), (0, 1, -2.220446e-16), (0, -1, 0), (0, -1, 0), (0, 1, -2.220446e-16), (0, 1, -2.220446e-16), (0, -1, 0), (0, 1, -2.220446e-16), (0, -1, 0), (0, -1, 0), (0, 1, -2.220446e-16), (0, 1, -2.220446e-16), (0, -1, 0), (0, 1, -2.220446e-16), (0, -1, 0), (0, -1, 0), (0, 1, -2.220446e-16), (0, 1, -2.220446e-16), (0, -1, 0), (0, 1, -2.220446e-16), (0, -1, 0), (0, -1, 0), (0, 1, -2.220446e-16), (0, 1, -2.220446e-16), (0, -1, 0), (0, 1, -2.220446e-16), (0, -1, 0), (0, -1, 0), (0, 1, -2.220446e-16), (0, 1, -2.220446e-16), (0, -1, 0), (0, 1, -2.220446e-16), (0, -1, 0), (0, -1, 0), (0, 1, -2.220446e-16), (0, 1, -2.220446e-16), (0, -1, 0), (0, 1, -2.220446e-16), (0, -1, 0), (0, -1, 0), (0, 1, -2.220446e-16), (0, 1, -2.220446e-16), (0, -1, 0), (0, 1, -2.220446e-16), (0, -1, 0), (0, -1, 0), (0, 1, -2.220446e-16), (0, -1, 0), (0, -1, 0), (0, 1, -2.220446e-16), (0, 1, -2.220446e-16), (0, -1, 0), (0, 1, -2.220446e-16), (0, 1, -2.220446e-16), (0, 1, -2.220446e-16), (0, 1, -2.220446e-16), (0, 1, -2.220446e-16), (0, 1, -2.220446e-16), (0, 1, -2.220446e-16), (0, 1, -2.220446e-16), (0, 1, -2.220446e-16), (0, 1, -2.220446e-16), (0, 1, -2.220446e-16), (0, 1, -2.220446e-16), (0, 1, -2.220446e-16), (0, 1, -2.220446e-16), (0, 1, -2.220446e-16), (0, 1, -2.220446e-16), (0, 1, -2.220446e-16), (0, 1, -2.220446e-16), (0, 1, -2.220446e-16), (0, 1, -2.220446e-16), (0, 1, -2.220446e-16), (0, 1, -2.220446e-16), (0, 1, -2.220446e-16), (0, 1, -2.220446e-16), (0, 1, -2.220446e-16), (0, 1, -2.220446e-16), (0, 1, -2.220446e-16), (0, 1, -2.220446e-16), (0, 1, -2.220446e-16), (0, 1, -2.220446e-16), (0, 1, -2.220446e-16), (0, 1, -2.220446e-16), (0, 1, -2.220446e-16), (0, 1, -2.220446e-16), (0, 1, -2.220446e-16), (0, 1, -2.220446e-16), (0, 1, -2.220446e-16), (0, 1, -2.220446e-16), (0, 1, -2.220446e-16), (0, 1, -2.220446e-16), (0, 1, -2.220446e-16), (0, 1, -2.220446e-16), (0, 1, -2.220446e-16), (0, 1, -2.220446e-16), (0, 1, -2.220446e-16), (0, 1, -2.220446e-16), (0, 1, -2.220446e-16), (0, 1, -2.220446e-16), (0, 1, -2.220446e-16), (0, 1, -2.220446e-16), (0, 1, -2.220446e-16), (0, 1, -2.220446e-16), (0, 1, -2.220446e-16), (0, 1, -2.220446e-16), (0, 1, -2.220446e-16), (0, 1, -2.220446e-16), (0, 1, -2.220446e-16), (0, 1, -2.220446e-16), (0, 1, -2.220446e-16), (0, 1, -2.220446e-16), (0, 1, -2.220446e-16), (0, 1, -2.220446e-16), (0, 1, -2.220446e-16), (0, 1, -2.220446e-16), (0, 1, -2.220446e-16), (0, 1, -2.220446e-16), (0, 1, -2.220446e-16), (0, 1, -2.220446e-16), (0, 1, -2.220446e-16), (0, 1, -2.220446e-16), (0, 1, -2.220446e-16), (0, 1, -2.220446e-16), (0, 1, -2.220446e-16), (0, 1, -2.220446e-16), (0, 1, -2.220446e-16), (0, 1, -2.220446e-16), (0, 1, -2.220446e-16), (0, 1, -2.220446e-16), (0, 1, -2.220446e-16), (0, 1, -2.220446e-16), (0, 1, -2.220446e-16), (0, 1, -2.220446e-16), (0, 1, -2.220446e-16), (0, 1, -2.220446e-16), (0, 1, -2.220446e-16), (0, 1, -2.220446e-16), (0, 1, -2.220446e-16), (0, 1, -2.220446e-16), (0, 1, -2.220446e-16), (0, 1, -2.220446e-16), (0, 1, -2.220446e-16), (0, 1, -2.220446e-16), (0, 1, -2.220446e-16), (0, 1, -2.220446e-16), (0, 1, -2.220446e-16), (0, 1, -2.220446e-16), (0, 1, -2.220446e-16), (0, 1, -2.220446e-16), (0, 1, -2.220446e-16), (0, 1, -2.220446e-16), (0, 1, -2.220446e-16), (0, 1, -2.220446e-16), (0, 1, -2.220446e-16), (0, 1, -2.220446e-16), (0, 1, -2.220446e-16), (0, 1, -2.220446e-16), (0, 1, -2.220446e-16), (0, 1, -2.220446e-16), (0, 1, -2.220446e-16), (0, 1, -2.220446e-16), (0, 1, -2.220446e-16), (0, 1, -2.220446e-16), (0, 1, -2.220446e-16), (0, 1, -2.220446e-16), (0, 1, -2.220446e-16), (0, 1, -2.220446e-16), (0, 1, -2.220446e-16), (0, 1, -2.220446e-16), (0, 1, -2.220446e-16), (0, 1, -2.220446e-16), (0, 1, -2.220446e-16), (0, 1, -2.220446e-16), (0, 1, -2.220446e-16), (0, 1, -2.220446e-16), (0, 1, -2.220446e-16), (0, 1, -2.220446e-16), (0, 1, -2.220446e-16), (0, 1, -2.220446e-16), (0, 1, -2.220446e-16), (0, 1, -2.220446e-16), (0, 1, -2.220446e-16), (0, 1, -2.220446e-16), (0, 1, -2.220446e-16), (0, 1, -2.220446e-16), (0, 1, -2.220446e-16), (0, 1, -2.220446e-16), (0, 1, -2.220446e-16), (0, 1, -2.220446e-16), (0, 1, -2.220446e-16), (0, 1, -2.220446e-16), (0, 1, -2.220446e-16), (0, 1, -2.220446e-16), (0, 1, -2.220446e-16), (0, 1, -2.220446e-16), (0, 1, -2.220446e-16), (0, 1, -2.220446e-16), (0, 1, -2.220446e-16), (0, 1, -2.220446e-16), (0, 1, -2.220446e-16), (0, 1, -2.220446e-16), (0, 1, -2.220446e-16), (0, 1, -2.220446e-16), (0, 1, -2.220446e-16), (0, 1, -2.220446e-16), (0, 1, -2.220446e-16), (0, 1, -2.220446e-16), (0, 1, -2.220446e-16), (0, 1, -2.220446e-16), (0, 1, -2.220446e-16), (0, 1, -2.220446e-16), (0, 1, -2.220446e-16), (0, 1, -2.220446e-16), (0, 1, -2.220446e-16), (0, 1, -2.220446e-16), (0, 1, -2.220446e-16), (0, 1, -2.220446e-16), (0, 1, -2.220446e-16), (0, 1, -2.220446e-16), (0, 1, -2.220446e-16), (0, 1, -2.220446e-16), (0, 1, -2.220446e-16), (0, 1, -2.220446e-16), (0, 1, -2.220446e-16), (0, 1, -2.220446e-16), (0, 1, -2.220446e-16), (0, 1, -2.220446e-16), (0, 1, -2.220446e-16), (0, 1, -2.220446e-16), (0, 1, -2.220446e-16), (0, 1, -2.220446e-16), (0, 1, -2.220446e-16), (0, 1, -2.220446e-16), (0, 1, -2.220446e-16), (0, 1, -2.220446e-16), (0, 1, -2.220446e-16), (0, 1, -2.220446e-16), (0, 1, -2.220446e-16), (0, 1, -2.220446e-16), (0, 1, -2.220446e-16), (0, 1, -2.220446e-16), (0, 1, -2.220446e-16), (0, 1, -2.220446e-16), (0, 1, -2.220446e-16), (0, 1, -2.220446e-16), (0, 1, -2.220446e-16), (0, 1, -2.220446e-16), (0, 1, -2.220446e-16), (0, 1, -2.220446e-16), (0, 1, -2.220446e-16), (0, 1, -2.220446e-16), (0, 1, -2.220446e-16), (0, 1, -2.220446e-16), (0, 1, -2.220446e-16), (0, 1, -2.220446e-16), (0, 1, -2.220446e-16), (0, 1, -2.220446e-16), (0, 1, -2.220446e-16), (0, 1, -2.220446e-16), (0, 1, -2.220446e-16), (0, 1, -2.220446e-16), (0, 1, -2.220446e-16), (0, 1, -2.220446e-16), (0, 1, -2.220446e-16), (0, 1, -2.220446e-16), (0, 1, -2.220446e-16), (0, 1, -2.220446e-16), (0, 1, -2.220446e-16), (0, 1, -2.220446e-16), (0, 1, -2.220446e-16), (0, 1, -2.220446e-16), (0, 1, -2.220446e-16), (0, 1, -2.220446e-16), (0, 1, -2.220446e-16), (0, 1, -2.220446e-16), (0, 1, -2.220446e-16), (0, 1, -2.220446e-16), (0, 1, -2.220446e-16), (0, 1, -2.220446e-16), (0, 1, -2.220446e-16), (0, 1, -2.220446e-16), (0, 1, -2.220446e-16), (0, 1, -2.220446e-16), (0, 1, -2.220446e-16), (0, 1, -2.220446e-16), (0, 1, -2.220446e-16), (0, 1, -2.220446e-16), (0, 1, -2.220446e-16), (0, 1, -2.220446e-16), (0, 1, -2.220446e-16), (0, 1, -2.220446e-16), (0, 1, -2.220446e-16), (0, 1, -2.220446e-16), (0, 1, -2.220446e-16), (0, 1, -2.220446e-16), (0, 1, -2.220446e-16), (0, 1, -2.220446e-16), (0, 1, -2.220446e-16), (0, 1, -2.220446e-16), (0, 1, -2.220446e-16), (0, 1, -2.220446e-16), (0, 1, -2.220446e-16), (0, 1, -2.220446e-16), (0, 1, -2.220446e-16), (0, 1, -2.220446e-16), (0, 1, -2.220446e-16), (0, 1, -2.220446e-16), (0, 1, -2.220446e-16), (0, 1, -2.220446e-16), (0, 1, -2.220446e-16), (0, 1, -2.220446e-16), (0, 1, -2.220446e-16), (0, 1, -2.220446e-16), (0, 1, -2.220446e-16), (0, 1, -2.220446e-16), (0, 1, -2.220446e-16), (0, 1, -2.220446e-16), (0, 1, -2.220446e-16), (0, 1, -2.220446e-16), (0, 1, -2.220446e-16), (0, 1, -2.220446e-16), (0, 1, -2.220446e-16), (0, 1, -2.220446e-16), (0, 1, -2.220446e-16), (0, 1, -2.220446e-16), (0, 1, -2.220446e-16), (0, 1, -2.220446e-16), (0, 1, -2.220446e-16), (0, 1, -2.220446e-16), (0, 1, -2.220446e-16), (0, 1, -2.220446e-16), (0, 1, -2.220446e-16), (0, 1, -2.220446e-16), (0, 1, -2.220446e-16), (0, 1, -2.220446e-16), (0, 1, -2.220446e-16), (0, 1, -2.220446e-16), (0, 1, -2.220446e-16), (0, 1, -2.220446e-16), (0, 1, -2.220446e-16), (0, 1, -2.220446e-16), (0, 1, -2.220446e-16), (0, 1, -2.220446e-16), (0, 1, -2.220446e-16), (0, 1, -2.220446e-16), (0, 1, -2.220446e-16), (0, 1, -2.220446e-16), (0, 1, -2.220446e-16), (0, 1, -2.220446e-16), (0, 1, -2.220446e-16), (0, 1, -2.220446e-16), (0, 1, -2.220446e-16), (0, 1, -2.220446e-16), (0, 1, -2.220446e-16), (0, 1, -2.220446e-16), (0, 1, -2.220446e-16), (0, 1, -2.220446e-16), (0, 1, -2.220446e-16), (0, 1, -2.220446e-16), (0, 1, -2.220446e-16), (0, 1, -2.220446e-16), (0, 1, -2.220446e-16), (0, 1, -2.220446e-16), (0, 1, -2.220446e-16), (0, 1, -2.220446e-16), (0, 1, -2.220446e-16), (0, 1, -2.220446e-16), (0, 1, -2.220446e-16), (0, 1, -2.220446e-16), (0, 1, -2.220446e-16), (0, 1, -2.220446e-16), (0, 1, -2.220446e-16), (0, 1, -2.220446e-16), (0, 1, -2.220446e-16), (0, 1, -2.220446e-16), (0, 1, -2.220446e-16), (0, 1, -2.220446e-16), (0, 1, -2.220446e-16), (0, 1, -2.220446e-16), (0, 1, -2.220446e-16), (0, 1, -2.220446e-16), (0, 1, -2.220446e-16), (0, 1, -2.220446e-16), (0, 1, -2.220446e-16), (0, 1, -2.220446e-16), (0, 1, -2.220446e-16), (0, 1, -2.220446e-16), (0, 1, -2.220446e-16), (0, 1, -2.220446e-16), (0, 1, -2.220446e-16), (0, 1, -2.220446e-16), (0, 1, -2.220446e-16), (0, 1, -2.220446e-16), (0, 1, -2.220446e-16), (0, 1, -2.220446e-16), (0, 1, -2.220446e-16), (0, 1, -2.220446e-16), (0, 1, -2.220446e-16), (0, 1, -2.220446e-16), (0, 1, -2.220446e-16), (0, 1, -2.220446e-16), (0, 1, -2.220446e-16), (0, 1, -2.220446e-16), (0, 1, -2.220446e-16), (0, 1, -2.220446e-16), (0, 1, -2.220446e-16), (0, 1, -2.220446e-16), (0, 1, -2.220446e-16), (0, 1, -2.220446e-16), (0, 1, -2.220446e-16), (0, 1, -2.220446e-16), (0, 1, -2.220446e-16), (0, 1, -2.220446e-16), (0, 1, -2.220446e-16), (0, 1, -2.220446e-16), (0, 1, -2.220446e-16), (0, 1, -2.220446e-16), (0, 1, -2.220446e-16), (0, 1, -2.220446e-16), (0, 1, -2.220446e-16), (0, 1, -2.220446e-16), (0, 1, -2.220446e-16), (0, 1, -2.220446e-16), (0, 1, -2.220446e-16), (0, 1, -2.220446e-16), (0, 1, -2.220446e-16), (0, 1, -2.220446e-16), (0, 1, -2.220446e-16), (0, 1, -2.220446e-16), (0, 1, -2.220446e-16), (0, 1, -2.220446e-16), (0, 1, -2.220446e-16), (0, 1, -2.220446e-16), (0, 1, -2.220446e-16), (0, 1, -2.220446e-16), (0, 1, -2.220446e-16), (0, 1, -2.220446e-16), (0, 1, -2.220446e-16), (0, 1, -2.220446e-16), (0, 1, -2.220446e-16), (0, 1, -2.220446e-16), (0, 1, -2.220446e-16), (0, 1, -2.220446e-16), (0, 1, -2.220446e-16), (0, 1, -2.220446e-16), (0, 1, -2.220446e-16), (0, 1, -2.220446e-16), (0, 1, -2.220446e-16), (0, 1, -2.220446e-16), (0, 1, -2.220446e-16), (0, 1, -2.220446e-16), (0, 1, -2.220446e-16), (0, 1, -2.220446e-16), (0, 1, -2.220446e-16), (0, 1, -2.220446e-16), (0, 1, -2.220446e-16), (0, 1, -2.220446e-16), (0, 1, -2.220446e-16), (0, 1, -2.220446e-16), (0, 1, -2.220446e-16), (0, 1, -2.220446e-16), (0, 1, -2.220446e-16), (0, 1, -2.220446e-16), (0, 1, -2.220446e-16), (0, 1, -2.220446e-16), (0, 1, -2.220446e-16), (0, 1, -2.220446e-16), (0, 1, -2.220446e-16), (0, 1, -2.220446e-16), (0, 1, -2.220446e-16), (0, 1, -2.220446e-16), (0, 1, -2.220446e-16), (0, 1, -2.220446e-16), (0, 1, -2.220446e-16), (0, 1, -2.220446e-16), (0, 1, -2.220446e-16), (0, 1, -2.220446e-16), (0, 1, -2.220446e-16), (0, 1, -2.220446e-16), (0, 1, -2.220446e-16), (0, 1, -2.220446e-16), (0, 1, -2.220446e-16), (0, 1, -2.220446e-16), (0, 1, -2.220446e-16), (0, 1, -2.220446e-16), (0, 1, -2.220446e-16), (0, 1, -2.220446e-16), (0, 1, -2.220446e-16), (0, 1, -2.220446e-16), (0, 1, -2.220446e-16), (0, 1, -2.220446e-16), (0, 1, -2.220446e-16), (0, 1, -2.220446e-16), (0, 1, -2.220446e-16), (0, 1, -2.220446e-16), (0, 1, -2.220446e-16), (0, 1, -2.220446e-16), (0, 1, -2.220446e-16), (0, 1, -2.220446e-16), (0, 1, -2.220446e-16), (0, 1, -2.220446e-16), (0, 1, -2.220446e-16), (0, 1, -2.220446e-16), (0, 1, -2.220446e-16), (0, 1, -2.220446e-16), (0, 1, -2.220446e-16), (0, 1, -2.220446e-16), (0, 1, -2.220446e-16), (0, 1, -2.220446e-16), (0, 1, -2.220446e-16), (0, 1, -2.220446e-16), (0, 1, -2.220446e-16), (0, 1, -2.220446e-16), (0, 1, -2.220446e-16), (0, 1, -2.220446e-16), (0, 1, -2.220446e-16), (0, 1, -2.220446e-16), (0, 1, -2.220446e-16), (0, 1, -2.220446e-16), (0, 1, -2.220446e-16), (0, 1, -2.220446e-16), (0, 1, -2.220446e-16), (0, 1, -2.220446e-16), (0, 1, -2.220446e-16), (0, 1, -2.220446e-16), (0, 1, -2.220446e-16), (0, 1, -2.220446e-16), (0, 1, -2.220446e-16), (0, 1, -2.220446e-16), (0, 1, -2.220446e-16), (0, 1, -2.220446e-16), (0, 1, -2.220446e-16), (0, 1, -2.220446e-16), (0, 1, -2.220446e-16), (0, 1, -2.220446e-16), (0, 1, -2.220446e-16), (0, 1, -2.220446e-16), (0, 1, -2.220446e-16), (0, 1, -2.220446e-16), (0, 1, -2.220446e-16), (0, 1, -2.220446e-16), (0, 1, -2.220446e-16), (0, 1, -2.220446e-16), (0, 1, -2.220446e-16), (0, 1, -2.220446e-16), (0, 1, -2.220446e-16), (0, 1, -2.220446e-16), (0, 1, -2.220446e-16), (0, 1, -2.220446e-16), (0, 1, -2.220446e-16), (0, 1, -2.220446e-16), (0, 1, -2.220446e-16), (0, 1, -2.220446e-16), (0, 1, -2.220446e-16), (0, 1, -2.220446e-16), (0, 1, -2.220446e-16), (0, 1, -2.220446e-16), (0, 1, -2.220446e-16), (0, 1, -2.220446e-16), (0, 1, -2.220446e-16), (0, 1, -2.220446e-16), (0, 1, -2.220446e-16), (0, 1, -2.220446e-16), (0, 1, -2.220446e-16), (0, 1, -2.220446e-16), (0, 1, -2.220446e-16), (0, 1, -2.220446e-16), (0, 1, -2.220446e-16), (0, 1, -2.220446e-16), (0, 1, -2.220446e-16), (0, 1, -2.220446e-16), (0, 1, -2.220446e-16), (0, 1, -2.220446e-16), (0, 1, -2.220446e-16), (0, 1, -2.220446e-16), (0, 1, -2.220446e-16), (0, 1, -2.220446e-16), (0, 1, -2.220446e-16), (0, 1, -2.220446e-16), (0, 1, -2.220446e-16), (0, 1, -2.220446e-16), (0, 1, -2.220446e-16), (0, 1, -2.220446e-16), (0, 1, -2.220446e-16), (0, 1, -2.220446e-16), (0, 1, -2.220446e-16), (0, 1, -2.220446e-16), (0, 1, -2.220446e-16), (0, 1, -2.220446e-16), (0, 1, -2.220446e-16), (0, 1, -2.220446e-16), (0, 1, -2.220446e-16), (0, 1, -2.220446e-16), (0, 1, -2.220446e-16), (0, 1, -2.220446e-16), (0, 1, -2.220446e-16), (0, 1, -2.220446e-16), (0, 1, -2.220446e-16), (0, 1, -2.220446e-16), (0, 1, -2.220446e-16), (0, 1, -2.220446e-16), (0, 1, -2.220446e-16), (0, 1, -2.220446e-16), (0, 1, -2.220446e-16), (0, 1, -2.220446e-16), (0, 1, -2.220446e-16), (0, 1, -2.220446e-16), (0, 1, -2.220446e-16), (0, 1, -2.220446e-16), (0, 1, -2.220446e-16), (0, 1, -2.220446e-16), (0, 1, -2.220446e-16), (0, 1, -2.220446e-16), (0, 1, -2.220446e-16), (0, 1, -2.220446e-16), (0, 1, -2.220446e-16), (0, 1, -2.220446e-16), (0, 1, -2.220446e-16), (0, 1, -2.220446e-16), (0, 1, -2.220446e-16), (0, 1, -2.220446e-16), (0, -1, 0), (0, -1, 0), (0, -1, 0), (0, -1, 0), (0, -1, 0), (0, -1, 0), (0, -1, 0), (0, -1, 0), (0, -1, 0), (0, -1, 0), (0, -1, 0), (0, -1, 0), (0, -1, 0), (0, -1, 0), (0, -1, 0), (0, -1, 0), (0, -1, 0), (0, -1, 0), (0, -1, 0), (0, -1, 0), (0, -1, 0), (0, -1, 0), (0, -1, 0), (0, -1, 0), (0, -1, 0), (0, -1, 0), (0, -1, 0), (0, -1, 0), (0, -1, 0), (0, -1, 0), (0, -1, 0), (0, -1, 0), (0, -1, 0), (0, -1, 0), (0, -1, 0), (0, -1, 0), (0, -1, 0), (0, -1, 0), (0, -1, 0), (0, -1, 0), (0, -1, 0), (0, -1, 0), (0, -1, 0), (0, -1, 0), (0, -1, 0), (0, -1, 0), (0, -1, 0), (0, -1, 0), (0, -1, 0), (0, -1, 0), (0, -1, 0), (0, -1, 0), (0, -1, 0), (0, -1, 0), (0, -1, 0), (0, -1, 0), (0, -1, 0), (0, -1, 0), (0, -1, 0), (0, -1, 0), (0, -1, 0), (0, -1, 0), (0, -1, 0), (0, -1, 0), (0, -1, 0), (0, -1, 0), (0, -1, 0), (0, -1, 0), (0, -1, 0), (0, -1, 0), (0, -1, 0), (0, -1, 0), (0, -1, 0), (0, -1, 0), (0, -1, 0), (0, -1, 0), (0, -1, 0), (0, -1, 0), (0, -1, 0), (0, -1, 0), (0, -1, 0), (0, -1, 0), (0, -1, 0), (0, -1, 0), (0, -1, 0), (0, -1, 0), (0, -1, 0), (0, -1, 0), (0, -1, 0), (0, -1, 0), (0, -1, 0), (0, -1, 0), (0, -1, 0), (0, -1, 0), (0, -1, 0), (0, -1, 0), (0, -1, 0), (0, -1, 0), (0, -1, 0), (0, -1, 0), (0, -1, 0), (0, -1, 0), (0, -1, 0), (0, -1, 0), (0, -1, 0), (0, -1, 0), (0, -1, 0), (0, -1, 0), (0, -1, 0), (0, -1, 0), (0, -1, 0), (0, -1, 0), (0, -1, 0), (0, -1, 0), (0, -1, 0), (0, -1, 0), (0, -1, 0), (0, -1, 0), (0, -1, 0), (0, -1, 0), (0, -1, 0), (0, -1, 0), (0, -1, 0), (0, -1, 0), (0, -1, 0), (0, -1, 0), (0, -1, 0), (0, -1, 0), (0, -1, 0), (0, -1, 0), (0, -1, 0), (0, -1, 0), (0, -1, 0), (0, -1, 0), (0, -1, 0), (0, -1, 0), (0, -1, 0), (0, -1, 0), (0, -1, 0), (0, -1, 0), (0, -1, 0), (0, -1, 0), (0, -1, 0), (0, -1, 0), (0, -1, 0), (0, -1, 0), (0, -1, 0), (0, -1, 0), (0, -1, 0), (0, -1, 0), (0, -1, 0), (0, -1, 0), (0, -1, 0), (0, -1, 0), (0, -1, 0), (0, -1, 0), (0, -1, 0), (0, -1, 0), (0, -1, 0), (0, -1, 0), (0, -1, 0), (0, -1, 0), (0, -1, 0), (0, -1, 0), (0, -1, 0), (0, -1, 0), (0, -1, 0), (0, -1, 0), (0, -1, 0), (0, -1, 0), (0, -1, 0), (0, -1, 0), (0, -1, 0), (0, -1, 0), (0, -1, 0), (0, -1, 0), (0, -1, 0), (0, -1, 0), (0, -1, 0), (0, -1, 0), (0, -1, 0), (0, -1, 0), (0, -1, 0), (0, -1, 0), (0, -1, 0), (0, -1, 0), (0, -1, 0), (0, -1, 0), (0, -1, 0), (0, -1, 0), (0, -1, 0), (0, -1, 0), (0, -1, 0), (0, -1, 0), (0, -1, 0), (0, -1, 0), (0, -1, 0), (0, -1, 0), (0, -1, 0), (0, -1, 0), (0, -1, 0), (0, -1, 0), (0, -1, 0), (0, -1, 0), (0, -1, 0), (0, -1, 0), (0, -1, 0), (0, -1, 0), (0, -1, 0), (0, -1, 0), (0, -1, 0), (0, -1, 0), (0, -1, 0), (0, -1, 0), (0, -1, 0), (0, -1, 0), (0, -1, 0), (0, -1, 0), (0, -1, 0), (0, -1, 0), (0, -1, 0), (0, -1, 0), (0, -1, 0), (0, -1, 0), (0, -1, 0), (0, -1, 0), (0, -1, 0), (0, -1, 0), (0, -1, 0), (0, -1, 0), (0, -1, 0), (0, -1, 0), (0, -1, 0), (0, -1, 0), (0, -1, 0), (0, -1, 0), (0, -1, 0), (0, -1, 0), (0, -1, 0), (0, -1, 0), (0, -1, 0), (0, -1, 0), (0, -1, 0), (0, -1, 0), (0, -1, 0), (0, -1, 0), (0, -1, 0), (0, -1, 0), (0, -1, 0), (0, -1, 0), (0, -1, 0), (0, -1, 0), (0, -1, 0), (0, -1, 0), (0, -1, 0), (0, -1, 0), (0, -1, 0), (0, -1, 0), (0, -1, 0), (0, -1, 0), (0, -1, 0), (0, -1, 0), (0, -1, 0), (0, -1, 0), (0, -1, 0), (0, -1, 0), (0, -1, 0), (0, -1, 0), (0, -1, 0), (0, -1, 0), (0, -1, 0), (0, -1, 0), (0, -1, 0), (0, -1, 0), (0, -1, 0), (0, -1, 0), (0, -1, 0), (0, -1, 0), (0, -1, 0), (0, -1, 0), (0, -1, 0), (0, -1, 0), (0, -1, 0), (0, -1, 0), (0, -1, 0), (0, -1, 0), (0, -1, 0), (0, -1, 0), (0, -1, 0), (0, -1, 0), (0, -1, 0), (0, -1, 0), (0, -1, 0), (0, -1, 0), (0, -1, 0), (0, -1, 0), (0, -1, 0), (0, -1, 0), (0, -1, 0), (0, -1, 0), (0, -1, 0), (0, -1, 0), (0, -1, 0), (0, -1, 0), (0, -1, 0), (0, -1, 0), (0, -1, 0), (0, -1, 0), (0, -1, 0), (0, -1, 0), (0, -1, 0), (0, -1, 0), (0, -1, 0), (0, -1, 0), (0, -1, 0), (0, -1, 0), (0, -1, 0), (0, -1, 0), (0, -1, 0), (0, -1, 0), (0, -1, 0), (0, -1, 0), (0, -1, 0), (0, -1, 0), (0, -1, 0), (0, -1, 0), (0, -1, 0), (0, -1, 0), (0, -1, 0), (0, -1, 0), (0, -1, 0), (0, -1, 0), (0, -1, 0), (0, -1, 0), (0, -1, 0), (0, -1, 0), (0, -1, 0), (0, -1, 0), (0, -1, 0), (0, -1, 0), (0, -1, 0), (0, -1, 0), (0, -1, 0), (0, -1, 0), (0, -1, 0), (0, -1, 0), (0, -1, 0), (0, -1, 0), (0, -1, 0), (0, -1, 0), (0, -1, 0), (0, -1, 0), (0, -1, 0), (0, -1, 0), (0, -1, 0), (0, -1, 0), (0, -1, 0), (0, -1, 0), (0, -1, 0), (0, -1, 0), (0, -1, 0), (0, -1, 0), (0, -1, 0), (0, -1, 0), (0, -1, 0), (0, -1, 0), (0, -1, 0), (0, -1, 0), (0, -1, 0), (0, -1, 0), (0, -1, 0), (0, -1, 0), (0, -1, 0), (0, -1, 0), (0, -1, 0), (0, -1, 0), (0, -1, 0), (0, -1, 0), (0, -1, 0), (0, -1, 0), (0, -1, 0), (0, -1, 0), (0, -1, 0), (0, -1, 0), (0, -1, 0), (0, -1, 0), (0, -1, 0), (0, -1, 0), (0, -1, 0), (0, -1, 0), (0, -1, 0), (0, -1, 0), (0, -1, 0), (0, -1, 0), (0, -1, 0), (0, -1, 0), (0, -1, 0), (0, -1, 0), (0, -1, 0), (0, -1, 0), (0, -1, 0), (0, -1, 0), (0, -1, 0), (0, -1, 0), (0, -1, 0), (0, -1, 0), (0, -1, 0), (0, -1, 0), (0, -1, 0), (0, -1, 0), (0, -1, 0), (0, -1, 0), (0, -1, 0), (0, -1, 0), (0, -1, 0), (0, -1, 0), (0, -1, 0), (0, -1, 0), (0, -1, 0), (0, -1, 0), (0, -1, 0), (0, -1, 0), (0, -1, 0), (0, -1, 0), (0, -1, 0), (0, -1, 0), (0, -1, 0), (0, -1, 0), (0, -1, 0), (0, -1, 0), (0, -1, 0), (0, -1, 0), (0, -1, 0), (0, -1, 0), (0, -1, 0), (0, -1, 0), (0, -1, 0), (0, -1, 0), (0, -1, 0), (0, -1, 0), (0, -1, 0), (0, -1, 0), (0, -1, 0), (0, -1, 0), (0, -1, 0), (0, -1, 0), (0, -1, 0), (0, -1, 0), (0, -1, 0), (0, -1, 0), (0, -1, 0), (0, -1, 0), (0, -1, 0), (0, -1, 0), (0, -1, 0), (0, -1, 0), (0, -1, 0), (0, -1, 0), (0, -1, 0), (0, -1, 0), (0, -1, 0), (0, -1, 0), (0, -1, 0), (0, -1, 0), (0, -1, 0), (0, -1, 0), (0, -1, 0), (0, -1, 0), (0, -1, 0), (0, -1, 0), (0, -1, 0), (0, -1, 0), (0, -1, 0), (0, -1, 0), (0, -1, 0), (0, -1, 0), (0, -1, 0), (0, -1, 0), (0, -1, 0), (0, -1, 0), (0, -1, 0), (0, -1, 0), (0, -1, 0), (0, -1, 0), (0, -1, 0), (0, -1, 0), (0, -1, 0), (0, -1, 0), (0, -1, 0), (0, -1, 0), (0, -1, 0), (0, -1, 0), (0, -1, 0), (0, -1, 0), (0, -1, 0), (0, -1, 0), (0, -1, 0), (0, -1, 0), (0, -1, 0), (0, -1, 0), (0, -1, 0), (0, -1, 0), (0, -1, 0), (0, -1, 0), (0, -1, 0), (0, -1, 0), (0, -1, 0), (0, -1, 0), (0, -1, 0), (0, -1, 0), (0, -1, 0), (0, -1, 0), (0, -1, 0), (0, -1, 0), (0, -1, 0), (0, -1, 0), (0, -1, 0), (0, -1, 0), (0, -1, 0), (0, -1, 0), (0, -1, 0), (0, -1, 0), (0, -1, 0), (0, -1, 0), (0, -1, 0), (0, -1, 0), (0, -1, 0), (0, -1, 0), (0, -1, 0), (0, -1, 0), (0, -1, 0), (0, -1, 0), (0, -1, 0), (0, -1, 0), (0, -1, 0), (0, -1, 0), (0, -1, 0), (0, -1, 0), (0, -1, 0), (0, -1, 0), (0, -1, 0), (0, -1, 0), (0, -1, 0), (0, -1, 0), (0, -1, 0), (0, -1, 0), (0, -1, 0), (0, -1, 0), (0, -1, 0), (0, -1, 0), (0, -1, 0), (0, -1, 0), (0, -1, 0), (0, -1, 0), (0, -1, 0), (0, -1, 0), (0, -1, 0), (0, -1, 0), (0, -1, 0), (0, -1, 0), (0, -1, 0), (0, -1, 0), (0, -1, 0), (0, -1, 0), (0, -1, 0), (0, -1, 0), (0, -1, 0), (0, -1, 0), (0, -1, 0), (0, -1, 0)] (
            interpolation = "faceVarying"
        )
        point3f[] points = [(4.2862637e-15, 1.5543122e-14, 70), (4.5924254e-15, 1.6653345e-14, 75), (4.2862637e-15, -50, 70), (4.5924254e-15, -50, 75), (-3.7187817, -50, 74.907745), (-3.7187817, 1.663286e-14, 74.907745), (-7.428415, -50, 74.63122), (-7.428415, 1.657146e-14, 74.63122), (-11.119774, 1.646929e-14, 74.17109), (-11.119774, -50, 74.17109), (-14.783777, 1.6326606e-14, 73.528496), (-14.783777, -50, 73.528496), (-18.411411, 1.6143757e-14, 72.70502), (-18.411411, -50, 72.70502), (-21.993753, 1.5921194e-14, 71.70268), (-21.993753, -50, 71.70268), (-25.521988, 1.5659464e-14, 70.52396), (-25.521988, -50, 70.52396), (-28.987438, -50, 69.17173), (-28.987438, 1.535921e-14, 69.17173), (-32.381577, 1.5021172e-14, 67.649345), (-32.381577, -50, 67.649345), (-35.696056, -50, 65.96053), (-35.696056, 1.464618e-14, 65.96053), (-38.922718, 1.4235158e-14, 64.10945), (-38.922718, -50, 64.10945), (-42.05363, 1.3789117e-14, 62.100662), (-42.05363, -50, 62.100662), (-45.081085, -50, 59.9391), (-45.081085, 1.3309153e-14, 59.9391), (-47.99764, -50, 57.630085), (-47.99764, 1.27964495e-14, 57.630085), (-50.79612, 1.2252265e-14, 55.179295), (-50.79612, -50, 55.179295), (-53.469635, -50, 52.59276), (-53.469635, 1.1677938e-14, 52.59276), (-56.011612, 1.1074884e-14, 49.876842), (-56.011612, -50, 49.876842), (-58.415794, 1.04445845e-14, 47.038227), (-58.415794, -50, 47.038227), (-60.676273, 9.7885906e-15, 44.083893), (-60.676273, -50, 44.083893), (-62.787487, 9.108516e-15, 41.02111), (-62.787487, -50, 41.02111), (-64.74424, 8.406035e-15, 37.857414), (-64.74424, -50, 37.857414), (-66.54171, 7.6828734e-15, 34.600586), (-66.54171, -50, 34.600586), (-68.17549, -50, 31.25864), (-68.17549, 6.9408124e-15, 31.25864), (-69.641556, 6.181676e-15, 27.839794), (-69.641556, -50, 27.839794), (-70.936295, -50, 24.35246), (-70.936295, 5.4073326e-15, 24.35246), (-72.056526, 4.6196864e-15, 20.805218), (-72.056526, -50, 20.805218), (-72.9995, -50, 17.206795), (-72.9995, 3.820676e-15, 17.206795), (-73.76288, 3.012266e-15, 13.56604), (-73.76288, -50, 13.56604), (-74.3448, 2.1964458e-15, 9.891912), (-74.3448, -50, 9.891912), (-74.743835, 1.3752224e-15, 6.193451), (-74.743835, -50, 6.193451), (-74.95899, 5.506157e-16, 2.4797528), (-74.95899, -50, 2.4797528), (-74.989746, -2.753455e-16, -1.2400459), (-74.989746, -50, -1.2400459), (-74.83602, -1.1006293e-15, -4.956794), (-74.83602, -50, -4.956794), (-74.49819, -1.9232055e-15, -8.661347), (-74.49819, -50, -8.661347), (-73.9771, -2.7410505e-15, -12.344594), (-73.9771, -50, -12.344594), (-73.27401, -50, -15.997473), (-73.27401, -3.5521525e-15, -15.997473), (-72.39067, -4.354516e-15, -19.610996), (-72.39067, -50, -19.610996), (-71.32924, -5.146167e-15, -23.176275), (-71.32924, -50, -23.176275), (-70.09234, -50, -26.684538), (-70.09234, -5.9251577e-15, -26.684538), (-68.683, -50, -30.127157), (-68.683, -6.6895727e-15, -30.127157), (-67.1047, -7.43753e-15, -33.49566), (-67.1047, -50, -33.49566), (-65.36132, -50, -36.78176), (-65.36132, -8.167192e-15, -36.78176), (-63.457146, -50, -39.97738), (-63.457146, -8.876761e-15, -39.97738), (-61.396862, -9.564494e-15, -43.07465), (-61.396862, -50, -43.07465), (-59.18554, -1.0228696e-14, -46.065952), (-59.18554, -50, -46.065952), (-56.828617, -50, -48.94393), (-56.828617, -1.0867736e-14, -48.94393), (-54.33189, -1.1480041e-14, -51.701508), (-54.33189, -50, -51.701508), (-51.701508, -1.2064103e-14, -54.33189), (-51.701508, -50, -54.33189), (-48.94393, -1.2618488e-14, -56.828617), (-48.94393, -50, -56.828617), (-46.065952, -1.314183e-14, -59.18554), (-46.065952, -50, -59.18554), (-43.07465, -1.3632842e-14, -61.396862), (-43.07465, -50, -61.396862), (-39.97738, -1.4090317e-14, -63.457146), (-39.97738, -50, -63.457146), (-36.78176, -1.4513129e-14, -65.36132), (-36.78176, -50, -65.36132), (-33.49566, -1.4900236e-14, -67.1047), (-33.49566, -50, -67.1047), (-30.127157, -1.525069e-14, -68.683), (-30.127157, -50, -68.683), (-26.684538, -50, -70.09234), (-26.684538, -1.5563626e-14, -70.09234), (-23.176275, -50, -71.32924), (-23.176275, -1.5838273e-14, -71.32924), (-19.610996, -1.6073958e-14, -72.39067), (-19.610996, -50, -72.39067), (-15.997473, -50, -73.27401), (-15.997473, -1.6270099e-14, -73.27401), (-12.344594, -1.6426215e-14, -73.9771), (-12.344594, -50, -73.9771), (-8.661347, -50, -74.49819), (-8.661347, -1.6541922e-14, -74.49819), (-4.956794, -1.6616935e-14, -74.83602), (-4.956794, -50, -74.83602), (-1.2400459, -50, -74.989746), (-1.2400459, -1.6651069e-14, -74.989746), (2.4797528, -1.664424e-14, -74.95899), (2.4797528, -50, -74.95899), (6.193451, -50, -74.743835), (6.193451, -1.6596465e-14, -74.743835), (9.891912, -1.6507862e-14, -74.3448), (9.891912, -50, -74.3448), (13.56604, -50, -73.76288), (13.56604, -1.637865e-14, -73.76288), (17.206795, -1.6209144e-14, -72.9995), (17.206795, -50, -72.9995), (20.805218, -1.5999763e-14, -72.056526), (20.805218, -50, -72.056526), (24.35246, -1.5751021e-14, -70.936295), (24.35246, -50, -70.936295), (27.839794, -1.5463532e-14, -69.641556), (27.839794, -50, -69.641556), (31.25864, -1.5138e-14, -68.17549), (31.25864, -50, -68.17549), (34.600586, -50, -66.54171), (34.600586, -1.4775228e-14, -66.54171), (37.857414, -1.4376109e-14, -64.74424), (37.857414, -50, -64.74424), (41.02111, -1.3941623e-14, -62.787487), (41.02111, -50, -62.787487), (44.083893, -1.3472839e-14, -60.676273), (44.083893, -50, -60.676273), (47.038227, -1.2970912e-14, -58.415794), (47.038227, -50, -58.415794), (49.876842, -1.2437076e-14, -56.011612), (49.876842, -50, -56.011612), (52.59276, -1.1872644e-14, -53.469635), (52.59276, -50, -53.469635), (55.179295, -1.1279004e-14, -50.79612), (55.179295, -50, -50.79612), (57.630085, -50, -47.99764), (57.630085, -1.0657617e-14, -47.99764), (59.9391, -1.0010012e-14, -45.081085), (59.9391, -50, -45.081085), (62.100662, -9.337782e-15, -42.05363), (62.100662, -50, -42.05363), (64.10945, -50, -38.922718), (64.10945, -8.6425796e-15, -38.922718), (65.96053, -7.926117e-15, -35.696056), (65.96053, -50, -35.696056), (67.649345, -7.190154e-15, -32.381577), (67.649345, -50, -32.381577), (69.17173, -6.4365043e-15, -28.987438), (69.17173, -50, -28.987438), (70.52396, -5.6670197e-15, -25.521988), (70.52396, -50, -25.521988), (71.70268, -4.8835943e-15, -21.993753), (71.70268, -50, -21.993753), (72.70502, -4.0881545e-15, -18.411411), (72.70502, -50, -18.411411), (73.528496, -3.282658e-15, -14.783777), (73.528496, -50, -14.783777), (74.17109, -2.4690858e-15, -11.119774), (74.17109, -50, -11.119774), (74.63122, -1.6494394e-15, -7.428415), (74.63122, -50, -7.428415), (74.907745, -8.257354e-16, -3.7187817), (74.907745, -50, -3.7187817), (75, -50, -7.2674715e-15), (75, -4.078893e-30, -1.8369702e-14), (70, -3.806967e-30, -1.7145055e-14), (70, -50, -6.042825e-15), (-3.4708629, -50, 69.913895), (-3.4708629, 1.5524003e-14, 69.913895), (-6.933187, -50, 69.6558), (-6.933187, 1.5466695e-14, 69.6558), (-10.378455, 1.5371337e-14, 69.22635), (-10.378455, -50, 69.22635), (-13.798192, 1.5238165e-14, 68.626595), (-13.798192, -50, 68.626595), (-17.183985, 1.5067507e-14, 67.85802), (-17.183985, -50, 67.85802), (-20.527502, 1.4859782e-14, 66.92251), (-20.527502, -50, 66.92251), (-23.820522, 1.46155e-14, 65.82236), (-23.820522, -50, 65.82236), (-27.054941, -50, 64.56028), (-27.054941, 1.4335262e-14, 64.56028), (-30.222805, 1.401976e-14, 63.139385), (-30.222805, -50, 63.139385), (-33.31632, -50, 61.563164), (-33.31632, 1.3669768e-14, 61.563164), (-36.32787, 1.3286148e-14, 59.83549), (-36.32787, -50, 59.83549), (-39.250053, 1.2869842e-14, 57.960617), (-39.250053, -50, 57.960617), (-42.07568, -50, 55.94316), (-42.07568, 1.2421877e-14, 55.94316), (-44.7978, -50, 53.78808), (-44.7978, 1.1943353e-14, 53.78808), (-47.40971, 1.1435447e-14, 51.500675), (-47.40971, -50, 51.500675), (-49.90499, -50, 49.086575), (-49.90499, 1.0899409e-14, 49.086575), (-52.277504, 1.0336558e-14, 46.55172), (-52.277504, -50, 46.55172), (-54.521408, 9.7482786e-15, 43.902344), (-54.521408, -50, 43.902344), (-56.63119, 9.136018e-15, 41.144966), (-56.63119, -50, 41.144966), (-58.601654, 8.501282e-15, 38.28637), (-58.601654, -50, 38.28637), (-60.42795, 7.8456325e-15, 35.333588), (-60.42795, -50, 35.333588), (-62.1056, 7.170682e-15, 32.29388), (-62.1056, -50, 32.29388), (-63.63046, -50, 29.17473), (-63.63046, 6.4780915e-15, 29.17473), (-64.99878, 5.769564e-15, 25.983807), (-64.99878, -50, 25.983807), (-66.20721, -50, 22.728962), (-66.20721, 5.0468434e-15, 22.728962), (-67.252754, 4.3117073e-15, 19.418203), (-67.252754, -50, 19.418203), (-68.13286, -50, 16.059675), (-68.13286, 3.5659642e-15, 16.059675), (-68.84535, 2.8114483e-15, 12.661637), (-68.84535, -50, 12.661637), (-69.38848, 2.0500162e-15, 9.232452), (-69.38848, -50, 9.232452), (-69.76092, 1.2835409e-15, 5.7805543), (-69.76092, -50, 5.7805543), (-69.96173, 5.13908e-16, 2.314436), (-69.96173, -50, 2.314436), (-69.99043, -2.5698913e-16, -1.1573762), (-69.99043, -50, -1.1573762), (-69.846954, -1.027254e-15, -4.626341), (-69.846954, -50, -4.626341), (-69.53165, -1.7949918e-15, -8.083924), (-69.53165, -50, -8.083924), (-69.04529, -2.558314e-15, -11.521622), (-69.04529, -50, -11.521622), (-68.38908, -50, -14.930974), (-68.38908, -3.3153422e-15, -14.930974), (-67.56462, -4.064215e-15, -18.303596), (-67.56462, -50, -18.303596), (-66.57396, -4.803089e-15, -21.63119), (-66.57396, -50, -21.63119), (-65.41951, -50, -24.90557), (-65.41951, -5.5301472e-15, -24.90557), (-64.10413, -50, -28.11868), (-64.10413, -6.243601e-15, -28.11868), (-62.631054, -6.9416955e-15, -31.262617), (-62.631054, -50, -31.262617), (-61.0039, -50, -34.329647), (-61.0039, -7.622713e-15, -34.329647), (-59.22667, -50, -37.31222), (-59.22667, -8.2849775e-15, -37.31222), (-57.303738, -8.926861e-15, -40.203007), (-57.303738, -50, -40.203007), (-55.239834, -9.546783e-15, -42.99489), (-55.239834, -50, -42.99489), (-53.04004, -50, -45.681004), (-53.04004, -1.014322e-14, -45.681004), (-50.709763, -1.0714704e-14, -48.254738), (-50.709763, -50, -48.254738), (-48.254738, -1.1259829e-14, -50.709763), (-48.254738, -50, -50.709763), (-45.681004, -1.17772545e-14, -53.04004), (-45.681004, -50, -53.04004), (-42.99489, -1.2265707e-14, -55.239834), (-42.99489, -50, -55.239834), (-40.203007, -1.2723986e-14, -57.303738), (-40.203007, -50, -57.303738), (-37.31222, -1.3150962e-14, -59.22667), (-37.31222, -50, -59.22667), (-34.329647, -1.35455866e-14, -61.0039), (-34.329647, -50, -61.0039), (-31.262617, -1.3906888e-14, -62.631054), (-31.262617, -50, -62.631054), (-28.11868, -1.4233977e-14, -64.10413), (-28.11868, -50, -64.10413), (-24.90557, -50, -65.41951), (-24.90557, -1.452605e-14, -65.41951), (-21.63119, -50, -66.57396), (-21.63119, -1.4782389e-14, -66.57396), (-18.303596, -1.500236e-14, -67.56462), (-18.303596, -50, -67.56462), (-14.930974, -50, -68.38908), (-14.930974, -1.5185425e-14, -68.38908), (-11.521622, -1.5331134e-14, -69.04529), (-11.521622, -50, -69.04529), (-8.083924, -50, -69.53165), (-8.083924, -1.5439127e-14, -69.53165), (-4.626341, -1.550914e-14, -69.846954), (-4.626341, -50, -69.846954), (-1.1573762, -50, -69.99043), (-1.1573762, -1.5540998e-14, -69.99043), (2.314436, -1.5534625e-14, -69.96173), (2.314436, -50, -69.96173), (5.7805543, -50, -69.76092), (5.7805543, -1.5490035e-14, -69.76092), (9.232452, -1.5407338e-14, -69.38848), (9.232452, -50, -69.38848), (12.661637, -50, -68.84535), (12.661637, -1.5286739e-14, -68.84535), (16.059675, -1.5128534e-14, -68.13286), (16.059675, -50, -68.13286), (19.418203, -1.4933111e-14, -67.252754), (19.418203, -50, -67.252754), (22.728962, -1.4700953e-14, -66.20721), (22.728962, -50, -66.20721), (25.983807, -1.4432628e-14, -64.99878), (25.983807, -50, -64.99878), (29.17473, -1.41288e-14, -63.63046), (29.17473, -50, -63.63046), (32.29388, -50, -62.1056), (32.29388, -1.3790213e-14, -62.1056), (35.333588, -1.3417701e-14, -60.42795), (35.333588, -50, -60.42795), (38.28637, -1.3012181e-14, -58.601654), (38.28637, -50, -58.601654), (41.144966, -1.25746505e-14, -56.63119), (41.144966, -50, -56.63119), (43.902344, -1.21061845e-14, -54.521408), (43.902344, -50, -54.521408), (46.55172, -1.1607938e-14, -52.277504), (46.55172, -50, -52.277504), (49.086575, -1.1081134e-14, -49.90499), (49.086575, -50, -49.90499), (51.500675, -1.052707e-14, -47.40971), (51.500675, -50, -47.40971), (53.78808, -50, -44.7978), (53.78808, -9.947109e-15, -44.7978), (55.94316, -9.342678e-15, -42.07568), (55.94316, -50, -42.07568), (57.960617, -8.715263e-15, -39.250053), (57.960617, -50, -39.250053), (59.83549, -50, -36.32787), (59.83549, -8.066407e-15, -36.32787), (61.563164, -7.397709e-15, -33.31632), (61.563164, -50, -33.31632), (63.139385, -6.710811e-15, -30.222805), (63.139385, -50, -30.222805), (64.56028, -6.0074037e-15, -27.054941), (64.56028, -50, -27.054941), (65.82236, -5.2892185e-15, -23.820522), (65.82236, -50, -23.820522), (66.92251, -4.558021e-15, -20.527502), (66.92251, -50, -20.527502), (67.85802, -3.815611e-15, -17.183985), (67.85802, -50, -17.183985), (68.626595, -3.063814e-15, -13.798192), (68.626595, -50, -13.798192), (69.22635, -2.30448e-15, -10.378455), (69.22635, -50, -10.378455), (69.6558, -1.5394768e-15, -6.933187), (69.6558, -50, -6.933187), (69.913895, -7.706864e-16, -3.4708629), (69.913895, -50, -3.4708629)]
        uniform token subdivisionScheme = "none"
    }
}

