#usda 1.0
(
    customLayerData = {
        string creator = "omni.kit.converter.hoops_core 509.1.0 hoops_cad_converter 9.2.0+v9-2-0.2340.42272a51.gl"
    }
    defaultPrim = "robot_tablev1"
    metersPerUnit = 0.001
    upAxis = "Z"
)

def Xform "robot_tablev1" (
    kind = "assembly"
)
{
    class Scope "Prototypes" (
        kind = "group"
    )
    {
        def Xform "Body004" (
            kind = "component"
        )
        {
            def Mesh "Mesh" (
                prepend apiSchemas = ["MaterialBindingAPI"]
            )
            {
                float3[] extent = [(492000, 39507.766, 0), (1060000, 1405311.9, 3000)]
                int[] faceVertexCounts = [3, 3, 3, 3, 3, 3, 3, 3, 3, 3, 3, 3]
                int[] faceVertexIndices = [0, 1, 2, 2, 3, 0, 4, 5, 6, 6, 7, 4, 8, 9, 10, 10, 11, 8, 12, 13, 14, 14, 15, 12, 16, 17, 18, 17, 16, 19, 20, 21, 22, 23, 22, 21]
                rel material:binding = </robot_tablev1/Prototypes/Body004/Looks/Diffuse>
                uniform token orientation = "rightHanded"
                point3f[] points = [(492757.75, 39507.766, 0), (492757.75, 39507.766, 3000), (492000, 1404997.1, 3000), (492000, 1404997.1, 0), (1060000, 39822.547, 0), (1060000, 39822.547, 3000), (492757.75, 39507.766, 3000), (492757.75, 39507.766, 0), (1059242.2, 1405311.9, 0), (1059242.2, 1405311.9, 3000), (1060000, 39822.547, 3000), (1060000, 39822.547, 0), (492000, 1404997.1, 0), (492000, 1404997.1, 3000), (1059242.2, 1405311.9, 3000), (1059242.2, 1405311.9, 0), (1059242.2, 1405311.9, 0), (492757.75, 39507.766, 0), (492000, 1404997.1, 0), (1060000, 39822.547, 0), (492000, 1404997.1, 3000), (492757.75, 39507.766, 3000), (1059242.2, 1405311.9, 3000), (1060000, 39822.547, 3000)]
                normal3f[] primvars:normals = [(-0.9999998, -0.0005549327, -0), (0.0005549327, -0.9999998, -0), (0.9999998, 0.0005549327, -0), (-0.0005549327, 0.9999998, -0), (-0, -0, -1), (0, 0, 1)] (
                    interpolation = "vertex"
                )
                int[] primvars:normals:indices = [0, 0, 0, 0, 1, 1, 1, 1, 2, 2, 2, 2, 3, 3, 3, 3, 4, 4, 4, 4, 5, 5, 5, 5]
                texCoord2f[] primvars:st = [(0, 39.507767), (3, 39.507767), (3, 1404.9971), (0, 1404.9971), (1060, 0), (1060, 3), (492.75775, 3), (492.75775, 0), (-0, 1405.3119), (-3, 1405.3119), (-3, 39.822548), (-0, 39.822548), (-492, 0), (-492, 3), (-1059.2422, 3), (-1059.2422, 0), (-1059.2422, 1405.3119), (-492.75775, 39.507767), (-492, 1404.9971), (-1060, 39.822548), (492, 1404.9971), (492.75775, 39.507767), (1059.2422, 1405.3119), (1060, 39.822548)] (
                    interpolation = "faceVarying"
                )
                int[] primvars:st:indices = [0, 1, 2, 2, 3, 0, 4, 5, 6, 6, 7, 4, 8, 9, 10, 10, 11, 8, 12, 13, 14, 14, 15, 12, 16, 17, 18, 17, 16, 19, 20, 21, 22, 23, 22, 21]
                uniform token subdivisionScheme = "none"
            }

            def Scope "Looks"
            {
                over "Diffuse" (
                    prepend specializes = </robot_tablev1/Looks/Diffuse>
                )
                {
                }
            }
        }

        def Xform "Body003" (
            kind = "component"
        )
        {
            def Mesh "Mesh" (
                prepend apiSchemas = ["MaterialBindingAPI"]
            )
            {
                float3[] extent = [(577000, 677409.8, 22000), (667000, 767409.8, 122000)]
                int[] faceVertexCounts = [3, 3, 3, 3, 3, 3, 3, 3, 3, 3, 3, 3]
                int[] faceVertexIndices = [0, 1, 2, 2, 3, 0, 4, 5, 6, 6, 7, 4, 8, 9, 10, 10, 11, 8, 12, 13, 14, 14, 15, 12, 16, 17, 18, 18, 19, 16, 20, 21, 22, 22, 23, 20]
                rel material:binding = </robot_tablev1/Prototypes/Body003/Looks/Diffuse_1>
                uniform token orientation = "rightHanded"
                point3f[] points = [(577000, 677409.8, 22000), (577000, 677409.8, 122000), (577000, 767409.8, 122000), (577000, 767409.8, 22000), (667000, 677409.8, 22000), (667000, 677409.8, 122000), (577000, 677409.8, 122000), (577000, 677409.8, 22000), (667000, 767409.8, 22000), (667000, 767409.8, 122000), (667000, 677409.8, 122000), (667000, 677409.8, 22000), (577000, 767409.8, 22000), (577000, 767409.8, 122000), (667000, 767409.8, 122000), (667000, 767409.8, 22000), (667000, 767409.8, 22000), (667000, 677409.8, 22000), (577000, 677409.8, 22000), (577000, 767409.8, 22000), (577000, 677409.8, 122000), (667000, 677409.8, 122000), (667000, 767409.8, 122000), (577000, 767409.8, 122000)]
                normal3f[] primvars:normals = [(-1, -0, -0), (-0, -1, -0), (1, -0, -0), (-0, 1, -0), (-0, -0, -1), (0, 0, 1)] (
                    interpolation = "vertex"
                )
                int[] primvars:normals:indices = [0, 0, 0, 0, 1, 1, 1, 1, 2, 2, 2, 2, 3, 3, 3, 3, 4, 4, 4, 4, 5, 5, 5, 5]
                texCoord2f[] primvars:st = [(22, 677.4098), (122, 677.4098), (122, 767.4098), (22, 767.4098), (667, 22), (667, 122), (577, 122), (577, 22), (-22, 767.4098), (-122, 767.4098), (-122, 677.4098), (-22, 677.4098), (-577, 22), (-577, 122), (-667, 122), (-667, 22), (-667, 767.4098), (-667, 677.4098), (-577, 677.4098), (-577, 767.4098), (577, 677.4098), (667, 677.4098), (667, 767.4098), (577, 767.4098)] (
                    interpolation = "faceVarying"
                )
                int[] primvars:st:indices = [0, 1, 2, 2, 3, 0, 4, 5, 6, 6, 7, 4, 8, 9, 10, 10, 11, 8, 12, 13, 14, 14, 15, 12, 16, 17, 18, 18, 19, 16, 20, 21, 22, 22, 23, 20]
                uniform token subdivisionScheme = "none"
            }

            def Scope "Looks"
            {
                over "Diffuse_1" (
                    prepend specializes = </robot_tablev1/Looks/Diffuse_1>
                )
                {
                }
            }
        }

        def Xform "Body002" (
            kind = "component"
        )
        {
            def Mesh "Mesh" (
                prepend apiSchemas = ["MaterialBindingAPI"]
            )
            {
                float3[] extent = [(492000, 677409.8, 0), (1060000, 767409.8, 22000)]
                int[] faceVertexCounts = [3, 3, 3, 3, 3, 3, 3, 3, 3, 3, 3, 3, 3, 3, 3, 3, 3, 3, 3, 3]
                int[] faceVertexIndices = [0, 1, 2, 2, 3, 0, 4, 5, 6, 6, 7, 4, 8, 9, 10, 10, 11, 8, 9, 12, 13, 13, 10, 9, 14, 15, 16, 16, 17, 14, 18, 0, 3, 3, 19, 18, 20, 21, 22, 23, 20, 24, 22, 24, 20, 24, 25, 23, 26, 27, 28, 29, 28, 30, 28, 29, 26, 30, 31, 29]
                rel material:binding = </robot_tablev1/Prototypes/Body002/Looks/Diffuse_1>
                uniform token orientation = "rightHanded"
                point3f[] points = [(1060000, 722409.8, 22000), (1060000, 677409.8, 22000), (1060000, 677409.8, 0), (1060000, 722409.8, 0), (1060000, 677409.8, 22000), (492000, 677409.8, 22000), (492000, 677409.8, 0), (1060000, 677409.8, 0), (492000, 677409.8, 22000), (492000, 722409.8, 22000), (492000, 722409.8, 0), (492000, 677409.8, 0), (492000, 767409.8, 22000), (492000, 767409.8, 0), (492000, 767409.8, 22000), (1060000, 767409.8, 22000), (1060000, 767409.8, 0), (492000, 767409.8, 0), (1060000, 767409.8, 22000), (1060000, 767409.8, 0), (1060000, 722409.8, 0), (1060000, 677409.8, 0), (492000, 677409.8, 0), (1060000, 767409.8, 0), (492000, 722409.8, 0), (492000, 767409.8, 0), (492000, 677409.8, 22000), (1060000, 677409.8, 22000), (1060000, 722409.8, 22000), (492000, 722409.8, 22000), (1060000, 767409.8, 22000), (492000, 767409.8, 22000)]
                normal3f[] primvars:normals = [(1, 0, 0), (0, -1, 0), (-1, 0, 0), (0, 1, 0), (-0, -0, -1), (0, 0, 1)] (
                    interpolation = "vertex"
                )
                int[] primvars:normals:indices = [0, 0, 0, 0, 1, 1, 1, 1, 2, 2, 2, 2, 2, 2, 3, 3, 3, 3, 0, 0, 4, 4, 4, 4, 4, 4, 5, 5, 5, 5, 5, 5]
                texCoord2f[] primvars:st = [(-22, 722.4098), (-22, 677.4098), (-0, 677.4098), (-0, 722.4098), (1060, 22), (492, 22), (492, 0), (1060, 0), (22, 677.4098), (22, 722.4098), (0, 722.4098), (0, 677.4098), (22, 767.4098), (0, 767.4098), (-492, 22), (-1060, 22), (-1060, 0), (-492, 0), (-22, 767.4098), (-0, 767.4098), (-1060, 722.4098), (-1060, 677.4098), (-492, 677.4098), (-1060, 767.4098), (-492, 722.4098), (-492, 767.4098), (492, 677.4098), (1060, 677.4098), (1060, 722.4098), (492, 722.4098), (1060, 767.4098), (492, 767.4098)] (
                    interpolation = "faceVarying"
                )
                int[] primvars:st:indices = [0, 1, 2, 2, 3, 0, 4, 5, 6, 6, 7, 4, 8, 9, 10, 10, 11, 8, 9, 12, 13, 13, 10, 9, 14, 15, 16, 16, 17, 14, 18, 0, 3, 3, 19, 18, 20, 21, 22, 23, 20, 24, 22, 24, 20, 24, 25, 23, 26, 27, 28, 29, 28, 30, 28, 29, 26, 30, 31, 29]
                uniform token subdivisionScheme = "none"
            }

            def Scope "Looks"
            {
                over "Diffuse_1" (
                    prepend specializes = </robot_tablev1/Looks/Diffuse_1>
                )
                {
                }
            }
        }

        def Xform "Body001" (
            kind = "component"
        )
        {
            def Mesh "Mesh" (
                prepend apiSchemas = ["MaterialBindingAPI"]
            )
            {
                float3[] extent = [(552000, 652409.8, 122000), (692000, 792409.8, 137000)]
                int[] faceVertexCounts = [3, 3, 3, 3, 3, 3, 3, 3, 3, 3, 3, 3, 3, 3, 3, 3, 3, 3, 3, 3, 3, 3, 3, 3, 3, 3, 3, 3, 3, 3, 3, 3, 3, 3, 3, 3, 3, 3, 3, 3, 3, 3, 3, 3, 3, 3, 3, 3, 3, 3, 3, 3, 3, 3, 3, 3, 3, 3, 3, 3, 3, 3, 3, 3, 3, 3, 3, 3, 3, 3, 3, 3, 3, 3, 3, 3, 3, 3, 3, 3, 3, 3, 3, 3, 3, 3, 3, 3, 3, 3, 3, 3, 3, 3, 3, 3, 3, 3, 3, 3, 3, 3, 3, 3, 3, 3, 3, 3, 3, 3, 3, 3, 3, 3, 3, 3, 3, 3, 3, 3, 3, 3, 3, 3, 3, 3, 3, 3, 3, 3, 3, 3, 3, 3, 3, 3, 3, 3, 3, 3, 3, 3, 3, 3, 3, 3, 3, 3, 3, 3, 3, 3, 3, 3, 3, 3, 3, 3, 3, 3, 3, 3, 3, 3, 3, 3, 3, 3, 3, 3, 3, 3, 3, 3, 3, 3, 3, 3, 3, 3, 3, 3, 3, 3, 3, 3, 3, 3, 3, 3, 3, 3, 3, 3, 3, 3, 3, 3, 3, 3, 3, 3, 3, 3, 3, 3, 3, 3, 3, 3, 3, 3, 3, 3, 3, 3, 3, 3, 3, 3, 3, 3, 3, 3, 3, 3, 3, 3, 3, 3, 3, 3, 3, 3, 3, 3, 3, 3, 3, 3, 3, 3, 3, 3, 3, 3, 3, 3, 3, 3, 3, 3, 3, 3, 3, 3, 3, 3, 3, 3, 3, 3, 3, 3, 3, 3, 3, 3, 3, 3, 3, 3, 3, 3, 3, 3, 3, 3, 3, 3, 3, 3, 3, 3, 3, 3, 3, 3, 3, 3, 3, 3, 3, 3, 3, 3, 3, 3, 3, 3, 3, 3, 3, 3, 3, 3, 3, 3, 3, 3, 3, 3, 3, 3, 3, 3, 3, 3, 3, 3, 3, 3, 3, 3, 3, 3, 3, 3, 3, 3, 3, 3, 3, 3, 3, 3, 3, 3, 3, 3, 3, 3, 3, 3, 3, 3, 3, 3, 3, 3, 3, 3, 3, 3, 3, 3, 3, 3, 3, 3, 3, 3, 3, 3, 3, 3, 3, 3, 3, 3, 3, 3, 3, 3, 3, 3, 3, 3, 3, 3, 3, 3, 3, 3, 3, 3, 3, 3, 3, 3, 3, 3, 3, 3, 3, 3, 3, 3, 3, 3, 3, 3, 3, 3, 3, 3, 3, 3, 3, 3, 3, 3, 3, 3, 3, 3, 3, 3, 3, 3, 3, 3, 3, 3, 3, 3, 3, 3, 3, 3, 3, 3, 3, 3, 3, 3, 3, 3, 3, 3, 3, 3, 3, 3, 3, 3, 3, 3, 3, 3, 3, 3, 3, 3, 3, 3, 3, 3, 3, 3, 3, 3, 3, 3, 3, 3, 3, 3, 3, 3, 3, 3, 3, 3, 3, 3, 3, 3, 3, 3, 3, 3, 3, 3, 3, 3, 3, 3, 3, 3, 3, 3, 3, 3, 3, 3, 3, 3, 3, 3, 3, 3, 3, 3, 3, 3, 3, 3, 3, 3, 3, 3, 3, 3, 3, 3, 3, 3, 3, 3, 3, 3, 3, 3]
                int[] faceVertexIndices = [0, 1, 2, 3, 4, 5, 1, 3, 6, 7, 8, 9, 10, 11, 12, 8, 10, 13, 4, 7, 14, 15, 16, 17, 18, 19, 20, 16, 18, 21, 22, 23, 24, 25, 26, 27, 23, 25, 28, 19, 22, 29, 11, 15, 30, 31, 32, 33, 34, 35, 36, 32, 34, 37, 38, 39, 40, 41, 42, 43, 39, 41, 44, 35, 38, 45, 46, 47, 48, 49, 50, 51, 47, 49, 52, 53, 54, 55, 56, 57, 58, 54, 56, 59, 50, 53, 60, 42, 46, 61, 26, 31, 62, 2, 63, 0, 5, 6, 3, 2, 1, 6, 9, 14, 7, 12, 13, 10, 9, 8, 13, 5, 4, 14, 17, 30, 15, 20, 21, 18, 17, 16, 21, 24, 29, 22, 27, 28, 25, 24, 23, 28, 20, 19, 29, 12, 11, 30, 33, 62, 31, 36, 37, 34, 33, 32, 37, 40, 45, 38, 43, 44, 41, 40, 39, 44, 36, 35, 45, 48, 61, 46, 51, 52, 49, 48, 47, 52, 55, 60, 53, 58, 59, 56, 55, 54, 59, 51, 50, 60, 43, 42, 61, 27, 26, 62, 64, 65, 57, 0, 63, 66, 64, 67, 68, 69, 70, 71, 67, 69, 72, 73, 74, 75, 76, 77, 78, 74, 76, 79, 70, 73, 80, 81, 82, 83, 84, 85, 86, 82, 84, 87, 88, 89, 90, 91, 92, 93, 89, 91, 94, 85, 88, 95, 77, 81, 96, 97, 98, 99, 100, 101, 102, 98, 100, 103, 104, 105, 106, 107, 108, 109, 105, 107, 110, 101, 104, 111, 112, 113, 114, 115, 116, 117, 113, 115, 118, 119, 120, 121, 122, 123, 66, 120, 122, 124, 116, 119, 125, 108, 112, 126, 92, 97, 127, 68, 65, 64, 71, 72, 69, 68, 67, 72, 75, 80, 73, 78, 79, 76, 75, 74, 79, 71, 70, 80, 83, 96, 81, 86, 87, 84, 83, 82, 87, 90, 95, 88, 93, 94, 91, 90, 89, 94, 86, 85, 95, 78, 77, 96, 99, 127, 97, 102, 103, 100, 99, 98, 103, 106, 111, 104, 109, 110, 107, 106, 105, 110, 102, 101, 111, 114, 126, 112, 117, 118, 115, 114, 113, 118, 121, 125, 119, 66, 124, 122, 121, 120, 124, 117, 116, 125, 109, 108, 126, 93, 92, 127, 123, 0, 66, 65, 58, 57, 128, 129, 130, 128, 131, 132, 133, 130, 129, 134, 135, 136, 137, 138, 136, 137, 133, 138, 139, 135, 134, 140, 141, 131, 141, 132, 131, 140, 142, 141, 143, 142, 140, 133, 129, 138, 134, 144, 139, 134, 136, 138, 132, 129, 128, 145, 135, 139, 146, 147, 148, 149, 150, 146, 151, 148, 147, 152, 153, 154, 155, 156, 151, 156, 157, 153, 158, 159, 152, 154, 158, 152, 156, 155, 157, 146, 150, 147, 151, 147, 155, 144, 160, 161, 139, 144, 161, 154, 153, 157, 150, 145, 139, 150, 149, 145, 162, 160, 144, 163, 164, 143, 142, 143, 164, 165, 163, 143, 163, 165, 166, 167, 168, 169, 168, 170, 171, 172, 166, 173, 169, 172, 174, 173, 166, 165, 169, 174, 175, 173, 174, 172, 176, 168, 167, 170, 168, 176, 175, 167, 169, 177, 171, 170, 177, 178, 171, 178, 177, 179, 180, 178, 179, 181, 182, 183, 180, 184, 185, 183, 171, 178, 186, 185, 187, 162, 182, 181, 188, 186, 189, 180, 190, 184, 185, 184, 191, 190, 180, 179, 187, 189, 186, 185, 191, 187, 192, 188, 189, 192, 193, 194, 194, 188, 192, 183, 182, 171, 160, 162, 195, 196, 197, 159, 198, 199, 200, 196, 198, 197, 152, 159, 197, 201, 202, 203, 204, 205, 201, 200, 203, 202, 206, 205, 204, 199, 198, 196, 207, 208, 209, 204, 201, 203, 207, 209, 195, 203, 200, 199, 206, 204, 208, 207, 210, 208, 162, 181, 195, 211, 206, 208, 209, 160, 195, 212, 211, 210, 213, 214, 212, 213, 215, 214, 216, 217, 218, 219, 220, 216, 217, 215, 218, 221, 222, 220, 215, 213, 218, 218, 219, 216, 212, 210, 213, 223, 222, 221, 224, 225, 226, 223, 226, 225, 221, 220, 219, 225, 222, 223, 208, 210, 211, 227, 181, 228, 229, 230, 231, 232, 231, 233, 234, 235, 236, 235, 237, 233, 238, 229, 231, 239, 236, 240, 240, 193, 239, 239, 234, 236, 240, 241, 193, 194, 193, 241, 242, 233, 237, 234, 237, 235, 233, 242, 232, 232, 238, 231, 243, 228, 230, 243, 230, 244, 245, 246, 247, 248, 247, 243, 249, 224, 250, 251, 252, 246, 252, 253, 250, 249, 225, 224, 250, 253, 249, 247, 248, 254, 229, 244, 230, 248, 243, 244, 245, 255, 246, 254, 245, 247, 246, 255, 251, 251, 253, 252, 227, 228, 243, 227, 195, 181, 256, 257, 258, 259, 260, 258, 257, 256, 261, 262, 263, 264, 262, 265, 266, 265, 261, 266, 264, 263, 267, 260, 268, 269, 260, 259, 268, 268, 270, 269, 269, 270, 271, 265, 257, 261, 267, 272, 264, 265, 262, 264, 258, 257, 259, 267, 263, 273, 274, 275, 276, 276, 277, 278, 275, 274, 279, 280, 281, 282, 279, 283, 284, 281, 285, 283, 282, 286, 287, 282, 287, 280, 285, 284, 283, 275, 277, 276, 284, 275, 279, 288, 289, 272, 288, 272, 267, 285, 281, 280, 267, 273, 277, 273, 278, 277, 272, 289, 290, 271, 291, 292, 291, 271, 270, 271, 292, 293, 294, 293, 292, 295, 296, 297, 298, 299, 296, 300, 294, 301, 302, 301, 295, 293, 294, 300, 303, 302, 295, 301, 302, 300, 297, 296, 304, 304, 296, 299, 295, 297, 303, 299, 298, 305, 298, 306, 305, 307, 305, 306, 307, 306, 308, 309, 310, 311, 312, 313, 308, 306, 298, 309, 314, 312, 315, 311, 310, 290, 316, 315, 317, 313, 318, 308, 319, 313, 312, 307, 308, 318, 315, 316, 314, 314, 319, 312, 316, 317, 320, 321, 322, 320, 320, 317, 321, 298, 310, 309, 323, 290, 289, 286, 324, 325, 326, 327, 328, 324, 328, 325, 324, 286, 282, 329, 330, 331, 331, 332, 333, 330, 329, 326, 333, 332, 334, 325, 328, 327, 335, 336, 337, 329, 331, 333, 323, 335, 337, 327, 326, 329, 336, 333, 334, 336, 338, 337, 323, 311, 290, 336, 334, 339, 323, 289, 335, 338, 339, 340, 340, 341, 342, 341, 343, 342, 344, 345, 346, 346, 347, 348, 344, 343, 345, 347, 349, 350, 344, 342, 343, 346, 348, 344, 342, 338, 340, 350, 349, 351, 352, 353, 354, 353, 352, 351, 348, 347, 350, 351, 349, 353, 339, 338, 336, 355, 311, 356, 357, 358, 359, 360, 357, 361, 362, 363, 364, 360, 365, 363, 357, 359, 366, 367, 362, 368, 368, 322, 367, 362, 364, 368, 322, 369, 367, 369, 322, 321, 365, 360, 370, 363, 365, 364, 361, 370, 360, 357, 366, 361, 358, 355, 371, 372, 358, 371, 373, 374, 375, 371, 373, 376, 377, 354, 378, 374, 379, 380, 377, 381, 379, 354, 353, 378, 378, 381, 377, 382, 376, 373, 358, 372, 359, 372, 371, 376, 374, 383, 375, 373, 375, 382, 380, 383, 374, 379, 381, 380, 371, 355, 356, 311, 323, 356, 384, 385, 386, 387, 388, 389, 390, 389, 385, 391, 392, 393, 394, 395, 396, 397, 396, 392, 398, 393, 388, 386, 399, 384, 389, 390, 387, 390, 385, 384, 393, 398, 391, 396, 397, 394, 397, 392, 391, 398, 388, 387, 395, 400, 401, 402, 399, 386, 403, 404, 401, 405, 406, 407, 408, 407, 404, 409, 410, 411, 402, 412, 413, 414, 413, 410, 415, 411, 406, 401, 400, 403, 407, 408, 405, 408, 404, 403, 411, 415, 409, 413, 414, 402, 414, 410, 409, 415, 406, 405, 402, 386, 412, 395, 394, 400, 416, 417, 418, 419, 420, 421, 422, 421, 417, 423, 424, 425, 426, 427, 428, 429, 428, 424, 430, 425, 420, 418, 431, 416, 421, 422, 419, 422, 417, 416, 425, 430, 423, 428, 429, 426, 429, 424, 423, 430, 420, 419, 427, 432, 433, 434, 431, 418, 435, 436, 433, 437, 438, 439, 440, 439, 436, 441, 442, 443, 434, 444, 445, 446, 445, 442, 447, 443, 438, 433, 432, 435, 439, 440, 437, 440, 436, 435, 443, 447, 441, 445, 446, 434, 446, 442, 441, 447, 438, 437, 434, 418, 444, 427, 426, 432, 448, 449, 450, 451, 452, 453, 454, 453, 449, 455, 456, 457, 458, 459, 460, 461, 460, 456, 462, 457, 452, 450, 463, 448, 453, 454, 451, 454, 449, 448, 457, 462, 455, 460, 461, 458, 461, 456, 455, 462, 452, 451, 459, 464, 465, 466, 463, 450, 467, 468, 465, 469, 470, 471, 472, 471, 468, 473, 474, 475, 466, 476, 477, 478, 477, 474, 479, 475, 470, 465, 464, 467, 471, 472, 469, 472, 468, 467, 475, 479, 473, 477, 478, 466, 478, 474, 473, 479, 470, 469, 466, 450, 476, 459, 458, 464, 480, 481, 482, 483, 484, 485, 486, 485, 481, 487, 488, 489, 490, 491, 492, 493, 492, 488, 494, 489, 484, 482, 495, 480, 485, 486, 483, 486, 481, 480, 489, 494, 487, 492, 493, 490, 493, 488, 487, 494, 484, 483, 491, 496, 497, 498, 495, 482, 499, 500, 497, 501, 502, 503, 504, 503, 500, 505, 506, 507, 498, 508, 509, 510, 509, 506, 511, 507, 502, 497, 496, 499, 503, 504, 501, 504, 500, 499, 507, 511, 505, 509, 510, 498, 510, 506, 505, 511, 502, 501, 498, 482, 508, 491, 490, 496]
                rel material:binding = </robot_tablev1/Prototypes/Body001/Looks/Diffuse_1>
                uniform token orientation = "rightHanded"
                point3f[] points = [(692000, 722409.8, 137000), (691662.9, 715548.56, 137000), (691662.9, 715548.56, 122000), (690654.94, 708753.5, 137000), (688985.8, 702089.9, 137000), (688985.8, 702089.9, 122000), (690654.94, 708753.5, 122000), (686671.56, 695621.94, 137000), (683734.5, 689412.06, 137000), (683734.5, 689412.06, 122000), (680202.9, 683519.9, 137000), (676110.7, 678002.25, 137000), (676110.7, 678002.25, 122000), (680202.9, 683519.9, 122000), (686671.56, 695621.94, 122000), (671497.5, 672912.4, 137000), (666407.56, 668299.06, 137000), (666407.56, 668299.06, 122000), (660889.9, 664206.94, 137000), (654997.75, 660675.3, 137000), (654997.75, 660675.3, 122000), (660889.9, 664206.94, 122000), (648787.8, 657738.25, 137000), (642319.94, 655424, 137000), (642319.94, 655424, 122000), (635656.3, 653754.8, 137000), (628861.2, 652746.9, 137000), (628861.2, 652746.9, 122000), (635656.3, 653754.8, 122000), (648787.8, 657738.25, 122000), (671497.5, 672912.4, 122000), (622000, 652409.8, 137000), (615138.8, 652746.9, 137000), (615138.8, 652746.9, 122000), (608343.7, 653754.8, 137000), (601680.06, 655424, 137000), (601680.06, 655424, 122000), (608343.7, 653754.8, 122000), (595212.2, 657738.25, 137000), (589002.2, 660675.3, 137000), (589002.2, 660675.3, 122000), (583110.1, 664206.94, 137000), (577592.44, 668299.06, 137000), (577592.44, 668299.06, 122000), (583110.1, 664206.94, 122000), (595212.2, 657738.25, 122000), (572502.5, 672912.4, 137000), (567889.3, 678002.25, 137000), (567889.3, 678002.25, 122000), (563797.1, 683519.9, 137000), (560265.5, 689412.06, 137000), (560265.5, 689412.06, 122000), (563797.1, 683519.9, 122000), (557328.44, 695621.94, 137000), (555014.2, 702089.9, 137000), (555014.2, 702089.9, 122000), (553345.06, 708753.5, 137000), (552337.1, 715548.56, 137000), (552337.1, 715548.56, 122000), (553345.06, 708753.5, 122000), (557328.44, 695621.94, 122000), (572502.5, 672912.4, 122000), (622000, 652409.8, 122000), (692000, 722409.8, 122000), (552000, 722409.8, 137000), (552000, 722409.8, 122000), (691662.9, 729271, 122000), (552337.1, 729271, 137000), (552337.1, 729271, 122000), (553345.06, 736066.1, 137000), (555014.2, 742729.75, 137000), (555014.2, 742729.75, 122000), (553345.06, 736066.1, 122000), (557328.44, 749197.6, 137000), (560265.5, 755407.56, 137000), (560265.5, 755407.56, 122000), (563797.1, 761299.75, 137000), (567889.3, 766817.3, 137000), (567889.3, 766817.3, 122000), (563797.1, 761299.75, 122000), (557328.44, 749197.6, 122000), (572502.5, 771907.3, 137000), (577592.44, 776520.56, 137000), (577592.44, 776520.56, 122000), (583110.1, 780612.7, 137000), (589002.2, 784144.3, 137000), (589002.2, 784144.3, 122000), (583110.1, 780612.7, 122000), (595212.2, 787081.4, 137000), (601680.06, 789395.6, 137000), (601680.06, 789395.6, 122000), (608343.7, 791064.75, 137000), (615138.8, 792072.75, 137000), (615138.8, 792072.75, 122000), (608343.7, 791064.75, 122000), (595212.2, 787081.4, 122000), (572502.5, 771907.3, 122000), (622000, 792409.8, 137000), (628861.2, 792072.75, 137000), (628861.2, 792072.75, 122000), (635656.3, 791064.75, 137000), (642319.94, 789395.6, 137000), (642319.94, 789395.6, 122000), (635656.3, 791064.75, 122000), (648787.8, 787081.4, 137000), (654997.75, 784144.3, 137000), (654997.75, 784144.3, 122000), (660889.9, 780612.7, 137000), (666407.56, 776520.56, 137000), (666407.56, 776520.56, 122000), (660889.9, 780612.7, 122000), (648787.8, 787081.4, 122000), (671497.5, 771907.3, 137000), (676110.7, 766817.3, 137000), (676110.7, 766817.3, 122000), (680202.9, 761299.75, 137000), (683734.5, 755407.56, 137000), (683734.5, 755407.56, 122000), (680202.9, 761299.75, 122000), (686671.56, 749197.6, 137000), (688985.8, 742729.75, 137000), (688985.8, 742729.75, 122000), (690654.94, 736066.1, 137000), (691662.9, 729271, 137000), (690654.94, 736066.1, 122000), (686671.56, 749197.6, 122000), (671497.5, 771907.3, 122000), (622000, 792409.8, 122000), (555014.2, 702089.9, 122000), (573420.4, 719409.8, 122000), (557328.44, 695621.94, 122000), (553345.06, 708753.5, 122000), (572272.25, 719638.2, 122000), (560265.5, 689412.06, 122000), (575541.6, 720288.5, 122000), (572502.5, 672912.4, 122000), (567889.3, 678002.25, 122000), (563797.1, 683519.9, 122000), (574568.4, 719638.2, 122000), (619878.7, 675951.5, 122000), (552337.1, 715548.56, 122000), (571299, 720288.5, 122000), (570648.7, 721261.75, 122000), (552000, 722409.8, 122000), (576191.94, 721261.75, 122000), (577592.44, 668299.06, 122000), (589002.2, 660675.3, 122000), (619000, 673830.1, 122000), (595212.2, 657738.25, 122000), (583110.1, 664206.94, 122000), (619228.3, 674978.2, 122000), (601680.06, 655424, 122000), (622000, 652409.8, 122000), (615138.8, 652746.9, 122000), (620851.94, 671058.5, 122000), (619228.3, 672682.06, 122000), (608343.7, 653754.8, 122000), (619878.7, 671708.8, 122000), (622000, 670830.1, 122000), (623148.06, 671058.5, 122000), (622000, 676830.1, 122000), (620851.94, 676601.75, 122000), (576420.4, 722409.8, 122000), (570648.7, 723557.9, 122000), (570420.4, 722409.8, 122000), (552337.1, 729271, 122000), (571299, 724531.1, 122000), (560265.5, 755407.56, 122000), (574568.4, 725181.44, 122000), (573420.4, 725409.8, 122000), (567889.3, 766817.3, 122000), (575541.6, 724531.1, 122000), (572272.25, 725181.44, 122000), (553345.06, 736066.1, 122000), (555014.2, 742729.75, 122000), (557328.44, 749197.6, 122000), (563797.1, 761299.75, 122000), (572502.5, 771907.3, 122000), (619878.7, 768868.2, 122000), (577592.44, 776520.56, 122000), (619228.3, 769841.44, 122000), (622000, 767989.5, 122000), (576191.94, 723557.9, 122000), (620851.94, 768217.8, 122000), (589002.2, 784144.3, 122000), (619000, 770989.5, 122000), (619228.3, 772137.5, 122000), (601680.06, 789395.6, 122000), (619878.7, 773110.75, 122000), (608343.7, 791064.75, 122000), (583110.1, 780612.7, 122000), (595212.2, 787081.4, 122000), (615138.8, 792072.75, 122000), (622000, 792409.8, 122000), (620851.94, 773761.1, 122000), (667579.6, 722409.8, 122000), (624121.3, 671708.8, 122000), (628861.2, 652746.9, 122000), (635656.3, 653754.8, 122000), (624771.7, 672682.06, 122000), (642319.94, 655424, 122000), (654997.75, 660675.3, 122000), (648787.8, 657738.25, 122000), (625000, 673830.1, 122000), (624771.7, 674978.2, 122000), (660889.9, 664206.94, 122000), (666407.56, 668299.06, 122000), (667808.06, 721261.75, 122000), (624121.3, 675951.5, 122000), (623148.06, 676601.75, 122000), (668458.4, 720288.5, 122000), (671497.5, 672912.4, 122000), (676110.7, 678002.25, 122000), (669431.6, 719638.2, 122000), (680202.9, 683519.9, 122000), (683734.5, 689412.06, 122000), (688985.8, 702089.9, 122000), (686671.56, 695621.94, 122000), (670579.6, 719409.8, 122000), (671727.75, 719638.2, 122000), (690654.94, 708753.5, 122000), (672701, 720288.5, 122000), (691662.9, 715548.56, 122000), (673351.3, 721261.75, 122000), (673351.3, 723557.9, 122000), (692000, 722409.8, 122000), (673579.6, 722409.8, 122000), (667808.06, 723557.9, 122000), (623148.06, 768217.8, 122000), (666407.56, 776520.56, 122000), (624121.3, 768868.2, 122000), (624771.7, 769841.44, 122000), (654997.75, 784144.3, 122000), (625000, 770989.5, 122000), (635656.3, 791064.75, 122000), (624771.7, 772137.5, 122000), (624121.3, 773110.75, 122000), (642319.94, 789395.6, 122000), (660889.9, 780612.7, 122000), (628861.2, 792072.75, 122000), (623148.06, 773761.1, 122000), (622000, 773989.5, 122000), (648787.8, 787081.4, 122000), (668458.4, 724531.1, 122000), (671497.5, 771907.3, 122000), (683734.5, 755407.56, 122000), (670579.6, 725409.8, 122000), (669431.6, 725181.44, 122000), (676110.7, 766817.3, 122000), (691662.9, 729271, 122000), (672701, 724531.1, 122000), (688985.8, 742729.75, 122000), (671727.75, 725181.44, 122000), (690654.94, 736066.1, 122000), (680202.9, 761299.75, 122000), (686671.56, 749197.6, 122000), (557328.44, 695621.94, 137000), (573420.4, 719409.8, 137000), (555014.2, 702089.9, 137000), (572272.25, 719638.2, 137000), (553345.06, 708753.5, 137000), (560265.5, 689412.06, 137000), (567889.3, 678002.25, 137000), (572502.5, 672912.4, 137000), (575541.6, 720288.5, 137000), (574568.4, 719638.2, 137000), (563797.1, 683519.9, 137000), (619878.7, 675951.5, 137000), (571299, 720288.5, 137000), (552337.1, 715548.56, 137000), (570648.7, 721261.75, 137000), (552000, 722409.8, 137000), (576191.94, 721261.75, 137000), (577592.44, 668299.06, 137000), (595212.2, 657738.25, 137000), (619000, 673830.1, 137000), (589002.2, 660675.3, 137000), (619228.3, 674978.2, 137000), (583110.1, 664206.94, 137000), (601680.06, 655424, 137000), (620851.94, 671058.5, 137000), (615138.8, 652746.9, 137000), (622000, 652409.8, 137000), (608343.7, 653754.8, 137000), (619228.3, 672682.06, 137000), (619878.7, 671708.8, 137000), (623148.06, 671058.5, 137000), (622000, 670830.1, 137000), (620851.94, 676601.75, 137000), (622000, 676830.1, 137000), (576420.4, 722409.8, 137000), (570420.4, 722409.8, 137000), (570648.7, 723557.9, 137000), (552337.1, 729271, 137000), (571299, 724531.1, 137000), (573420.4, 725409.8, 137000), (574568.4, 725181.44, 137000), (560265.5, 755407.56, 137000), (575541.6, 724531.1, 137000), (567889.3, 766817.3, 137000), (553345.06, 736066.1, 137000), (572272.25, 725181.44, 137000), (555014.2, 742729.75, 137000), (557328.44, 749197.6, 137000), (563797.1, 761299.75, 137000), (572502.5, 771907.3, 137000), (619878.7, 768868.2, 137000), (577592.44, 776520.56, 137000), (619228.3, 769841.44, 137000), (620851.94, 768217.8, 137000), (576191.94, 723557.9, 137000), (622000, 767989.5, 137000), (619000, 770989.5, 137000), (589002.2, 784144.3, 137000), (601680.06, 789395.6, 137000), (619228.3, 772137.5, 137000), (608343.7, 791064.75, 137000), (619878.7, 773110.75, 137000), (583110.1, 780612.7, 137000), (595212.2, 787081.4, 137000), (615138.8, 792072.75, 137000), (620851.94, 773761.1, 137000), (622000, 792409.8, 137000), (667579.6, 722409.8, 137000), (628861.2, 652746.9, 137000), (624121.3, 671708.8, 137000), (642319.94, 655424, 137000), (624771.7, 672682.06, 137000), (635656.3, 653754.8, 137000), (625000, 673830.1, 137000), (648787.8, 657738.25, 137000), (654997.75, 660675.3, 137000), (660889.9, 664206.94, 137000), (624771.7, 674978.2, 137000), (666407.56, 668299.06, 137000), (623148.06, 676601.75, 137000), (624121.3, 675951.5, 137000), (667808.06, 721261.75, 137000), (668458.4, 720288.5, 137000), (671497.5, 672912.4, 137000), (676110.7, 678002.25, 137000), (680202.9, 683519.9, 137000), (669431.6, 719638.2, 137000), (683734.5, 689412.06, 137000), (670579.6, 719409.8, 137000), (686671.56, 695621.94, 137000), (688985.8, 702089.9, 137000), (690654.94, 708753.5, 137000), (671727.75, 719638.2, 137000), (691662.9, 715548.56, 137000), (672701, 720288.5, 137000), (673351.3, 721261.75, 137000), (673579.6, 722409.8, 137000), (692000, 722409.8, 137000), (673351.3, 723557.9, 137000), (623148.06, 768217.8, 137000), (667808.06, 723557.9, 137000), (624771.7, 769841.44, 137000), (624121.3, 768868.2, 137000), (666407.56, 776520.56, 137000), (625000, 770989.5, 137000), (654997.75, 784144.3, 137000), (624121.3, 773110.75, 137000), (624771.7, 772137.5, 137000), (635656.3, 791064.75, 137000), (642319.94, 789395.6, 137000), (660889.9, 780612.7, 137000), (623148.06, 773761.1, 137000), (628861.2, 792072.75, 137000), (622000, 773989.5, 137000), (648787.8, 787081.4, 137000), (668458.4, 724531.1, 137000), (671497.5, 771907.3, 137000), (669431.6, 725181.44, 137000), (670579.6, 725409.8, 137000), (683734.5, 755407.56, 137000), (676110.7, 766817.3, 137000), (672701, 724531.1, 137000), (691662.9, 729271, 137000), (671727.75, 725181.44, 137000), (688985.8, 742729.75, 137000), (690654.94, 736066.1, 137000), (680202.9, 761299.75, 137000), (686671.56, 749197.6, 137000), (576191.94, 721261.75, 122000), (576191.94, 721261.75, 137000), (576420.4, 722409.8, 137000), (574568.4, 719638.2, 122000), (574568.4, 719638.2, 137000), (575541.6, 720288.5, 137000), (575541.6, 720288.5, 122000), (572272.25, 719638.2, 122000), (572272.25, 719638.2, 137000), (573420.4, 719409.8, 137000), (570648.7, 721261.75, 122000), (570648.7, 721261.75, 137000), (571299, 720288.5, 137000), (571299, 720288.5, 122000), (573420.4, 719409.8, 122000), (576420.4, 722409.8, 122000), (570420.4, 722409.8, 122000), (570420.4, 722409.8, 137000), (576191.94, 723557.9, 122000), (570648.7, 723557.9, 122000), (570648.7, 723557.9, 137000), (572272.25, 725181.44, 122000), (572272.25, 725181.44, 137000), (571299, 724531.1, 137000), (571299, 724531.1, 122000), (574568.4, 725181.44, 122000), (574568.4, 725181.44, 137000), (573420.4, 725409.8, 137000), (576191.94, 723557.9, 137000), (575541.6, 724531.1, 137000), (575541.6, 724531.1, 122000), (573420.4, 725409.8, 122000), (624771.7, 672682.06, 122000), (624771.7, 672682.06, 137000), (625000, 673830.1, 137000), (623148.06, 671058.5, 122000), (623148.06, 671058.5, 137000), (624121.3, 671708.8, 137000), (624121.3, 671708.8, 122000), (620851.94, 671058.5, 122000), (620851.94, 671058.5, 137000), (622000, 670830.1, 137000), (619228.3, 672682.06, 122000), (619228.3, 672682.06, 137000), (619878.7, 671708.8, 137000), (619878.7, 671708.8, 122000), (622000, 670830.1, 122000), (625000, 673830.1, 122000), (619000, 673830.1, 122000), (619000, 673830.1, 137000), (624771.7, 674978.2, 122000), (619228.3, 674978.2, 122000), (619228.3, 674978.2, 137000), (620851.94, 676601.75, 122000), (620851.94, 676601.75, 137000), (619878.7, 675951.5, 137000), (619878.7, 675951.5, 122000), (623148.06, 676601.75, 122000), (623148.06, 676601.75, 137000), (622000, 676830.1, 137000), (624771.7, 674978.2, 137000), (624121.3, 675951.5, 137000), (624121.3, 675951.5, 122000), (622000, 676830.1, 122000), (673351.3, 721261.75, 122000), (673351.3, 721261.75, 137000), (673579.6, 722409.8, 137000), (671727.75, 719638.2, 122000), (671727.75, 719638.2, 137000), (672701, 720288.5, 137000), (672701, 720288.5, 122000), (669431.6, 719638.2, 122000), (669431.6, 719638.2, 137000), (670579.6, 719409.8, 137000), (667808.06, 721261.75, 122000), (667808.06, 721261.75, 137000), (668458.4, 720288.5, 137000), (668458.4, 720288.5, 122000), (670579.6, 719409.8, 122000), (673579.6, 722409.8, 122000), (667579.6, 722409.8, 122000), (667579.6, 722409.8, 137000), (673351.3, 723557.9, 122000), (667808.06, 723557.9, 122000), (667808.06, 723557.9, 137000), (669431.6, 725181.44, 122000), (669431.6, 725181.44, 137000), (668458.4, 724531.1, 137000), (668458.4, 724531.1, 122000), (671727.75, 725181.44, 122000), (671727.75, 725181.44, 137000), (670579.6, 725409.8, 137000), (673351.3, 723557.9, 137000), (672701, 724531.1, 137000), (672701, 724531.1, 122000), (670579.6, 725409.8, 122000), (624771.7, 769841.44, 122000), (624771.7, 769841.44, 137000), (625000, 770989.5, 137000), (623148.06, 768217.8, 122000), (623148.06, 768217.8, 137000), (624121.3, 768868.2, 137000), (624121.3, 768868.2, 122000), (620851.94, 768217.8, 122000), (620851.94, 768217.8, 137000), (622000, 767989.5, 137000), (619228.3, 769841.44, 122000), (619228.3, 769841.44, 137000), (619878.7, 768868.2, 137000), (619878.7, 768868.2, 122000), (622000, 767989.5, 122000), (625000, 770989.5, 122000), (619000, 770989.5, 122000), (619000, 770989.5, 137000), (624771.7, 772137.5, 122000), (619228.3, 772137.5, 122000), (619228.3, 772137.5, 137000), (620851.94, 773761.1, 122000), (620851.94, 773761.1, 137000), (619878.7, 773110.75, 137000), (619878.7, 773110.75, 122000), (623148.06, 773761.1, 122000), (623148.06, 773761.1, 137000), (622000, 773989.5, 137000), (624771.7, 772137.5, 137000), (624121.3, 773110.75, 137000), (624121.3, 773110.75, 122000), (622000, 773989.5, 122000)]
                normal3f[] primvars:normals = [(1, 0, 0), (0.9951847, -0.09801714, 0), (0.98078525, -0.19509032, 0), (0.95694035, -0.29028466, 0), (0.9238795, -0.38268343, 0), (0.8819213, -0.47139674, 0), (0.8314696, -0.55557024, 0), (0.77301043, -0.6343933, 0), (0.70710677, -0.70710677, 0), (0.6343933, -0.77301043, 0), (0.55557024, -0.8314696, 0), (0.47139674, -0.8819213, 0), (0.38268343, -0.9238795, 0), (0.29028466, -0.95694035, 0), (0.19509032, -0.98078525, 0), (0.09801714, -0.9951847, 0), (6.123234e-17, -1, 0), (-0.09801714, -0.9951847, 0), (-0.19509032, -0.98078525, 0), (-0.29028466, -0.95694035, 0), (-0.38268343, -0.9238795, 0), (-0.47139674, -0.8819213, 0), (-0.55557024, -0.8314696, 0), (-0.6343933, -0.77301043, 0), (-0.70710677, -0.70710677, 0), (-0.77301043, -0.6343933, 0), (-0.8314696, -0.55557024, 0), (-0.8819213, -0.47139674, 0), (-0.9238795, -0.38268343, 0), (-0.95694035, -0.29028466, 0), (-0.98078525, -0.19509032, 0), (-0.9951847, -0.09801714, 0), (-1, -1.2246469e-16, 0), (0.9951847, 0.09801714, 0), (-0.9951847, 0.09801714, -0), (-0.98078525, 0.19509032, -0), (-0.95694035, 0.29028466, -0), (-0.9238795, 0.38268343, -0), (-0.8819213, 0.47139674, -0), (-0.8314696, 0.55557024, -0), (-0.77301043, 0.6343933, -0), (-0.70710677, 0.70710677, -0), (-0.6343933, 0.77301043, -0), (-0.55557024, 0.8314696, -0), (-0.47139674, 0.8819213, -0), (-0.38268343, 0.9238795, -0), (-0.29028466, 0.95694035, -0), (-0.19509032, 0.98078525, -0), (-0.09801714, 0.9951847, -0), (-1.8369701e-16, 1, -0), (0.09801714, 0.9951847, 0), (0.19509032, 0.98078525, 0), (0.29028466, 0.95694035, 0), (0.38268343, 0.9238795, 0), (0.47139674, 0.8819213, 0), (0.55557024, 0.8314696, 0), (0.6343933, 0.77301043, 0), (0.70710677, 0.70710677, 0), (0.77301043, 0.6343933, 0), (0.8314696, 0.55557024, 0), (0.8819213, 0.47139674, 0), (0.9238795, 0.38268343, 0), (0.95694035, 0.29028466, 0), (0.98078525, 0.19509032, 0), (-0, -0, -1), (0, 0, 1), (-1, -0, -0), (-6.123234e-17, 1, -0), (1, 1.2246469e-16, -0), (1.8369701e-16, -1, 0)] (
                    interpolation = "vertex"
                )
                int[] primvars:normals:indices = [0, 1, 1, 2, 3, 3, 2, 4, 5, 5, 6, 7, 7, 6, 4, 8, 9, 9, 10, 11, 11, 10, 12, 13, 13, 14, 15, 15, 14, 12, 8, 16, 17, 17, 18, 19, 19, 18, 20, 21, 21, 22, 23, 23, 22, 20, 24, 25, 25, 26, 27, 27, 26, 28, 29, 29, 30, 31, 31, 30, 28, 24, 16, 0, 32, 32, 33, 34, 34, 35, 36, 36, 35, 37, 38, 38, 39, 40, 40, 39, 37, 41, 42, 42, 43, 44, 44, 43, 45, 46, 46, 47, 48, 48, 47, 45, 41, 49, 50, 50, 51, 52, 52, 51, 53, 54, 54, 55, 56, 56, 55, 53, 57, 58, 58, 59, 60, 60, 59, 61, 62, 62, 63, 33, 63, 61, 57, 49, 64, 64, 64, 64, 64, 64, 64, 64, 64, 64, 64, 64, 64, 64, 64, 64, 64, 64, 64, 64, 64, 64, 64, 64, 64, 64, 64, 64, 64, 64, 64, 64, 64, 64, 64, 64, 64, 64, 64, 64, 64, 64, 64, 64, 64, 64, 64, 64, 64, 64, 64, 64, 64, 64, 64, 64, 64, 64, 64, 64, 64, 64, 64, 64, 64, 64, 64, 64, 64, 64, 64, 64, 64, 64, 64, 64, 64, 64, 64, 64, 64, 64, 64, 64, 64, 64, 64, 64, 64, 64, 64, 64, 64, 64, 64, 64, 64, 64, 64, 64, 64, 64, 64, 64, 64, 64, 64, 64, 64, 64, 64, 64, 64, 64, 64, 64, 64, 64, 64, 64, 64, 64, 64, 64, 64, 64, 64, 64, 65, 65, 65, 65, 65, 65, 65, 65, 65, 65, 65, 65, 65, 65, 65, 65, 65, 65, 65, 65, 65, 65, 65, 65, 65, 65, 65, 65, 65, 65, 65, 65, 65, 65, 65, 65, 65, 65, 65, 65, 65, 65, 65, 65, 65, 65, 65, 65, 65, 65, 65, 65, 65, 65, 65, 65, 65, 65, 65, 65, 65, 65, 65, 65, 65, 65, 65, 65, 65, 65, 65, 65, 65, 65, 65, 65, 65, 65, 65, 65, 65, 65, 65, 65, 65, 65, 65, 65, 65, 65, 65, 65, 65, 65, 65, 65, 65, 65, 65, 65, 65, 65, 65, 65, 65, 65, 65, 65, 65, 65, 65, 65, 65, 65, 65, 65, 65, 65, 65, 65, 65, 65, 65, 65, 65, 65, 65, 65, 37, 37, 66, 45, 45, 41, 41, 53, 53, 67, 61, 61, 57, 57, 67, 66, 68, 68, 28, 4, 4, 12, 12, 8, 8, 20, 20, 69, 28, 24, 24, 69, 37, 37, 66, 45, 45, 41, 41, 53, 53, 67, 61, 61, 57, 57, 67, 66, 68, 68, 28, 4, 4, 12, 12, 8, 8, 20, 20, 69, 28, 24, 24, 69, 37, 37, 66, 45, 45, 41, 41, 53, 53, 67, 61, 61, 57, 57, 67, 66, 68, 68, 28, 4, 4, 12, 12, 8, 8, 20, 20, 69, 28, 24, 24, 69, 37, 37, 66, 45, 45, 41, 41, 53, 53, 67, 61, 61, 57, 57, 67, 66, 68, 68, 28, 4, 4, 12, 12, 8, 8, 20, 20, 69, 28, 24, 24, 69]
                texCoord2f[] primvars:st = [(-137, 722.4098), (-137, 715.5486), (-122, 715.5486), (-137, 708.7535), (-137, 702.0899), (-122, 702.0899), (-122, 708.7535), (-137, 695.62195), (-137, 689.41205), (-122, 689.41205), (-137, 683.5199), (-137, 678.00226), (-122, 678.00226), (-122, 683.5199), (-122, 695.62195), (-137, 672.91235), (671.4975, 137), (666.40753, 137), (666.40753, 122), (660.8899, 137), (654.99774, 137), (654.99774, 122), (660.8899, 122), (648.78784, 137), (642.31995, 137), (642.31995, 122), (635.6563, 137), (628.8612, 137), (628.8612, 122), (635.6563, 122), (648.78784, 122), (-122, 672.91235), (671.4975, 122), (622, 137), (615.1388, 137), (615.1388, 122), (608.3437, 137), (601.68005, 137), (601.68005, 122), (608.3437, 122), (595.21216, 137), (589.0022, 137), (589.0022, 122), (583.1101, 137), (577.59247, 137), (577.59247, 122), (583.1101, 122), (595.21216, 122), (137, 672.91235), (572.5025, 137), (137, 678.00226), (122, 678.00226), (137, 683.5199), (137, 689.41205), (122, 689.41205), (122, 683.5199), (137, 695.62195), (137, 702.0899), (122, 702.0899), (137, 708.7535), (137, 715.5486), (122, 715.5486), (122, 708.7535), (122, 695.62195), (122, 672.91235), (572.5025, 122), (622, 122), (-122, 722.4098), (137, 722.4098), (122, 722.4098), (-122, 729.271), (137, 729.271), (122, 729.271), (137, 736.0661), (137, 742.72974), (122, 742.72974), (122, 736.0661), (137, 749.19763), (137, 755.4076), (122, 755.4076), (137, 761.29974), (137, 766.8173), (122, 766.8173), (122, 761.29974), (122, 749.19763), (-572.5025, 137), (137, 771.9073), (-577.59247, 137), (-577.59247, 122), (-583.1101, 137), (-589.0022, 137), (-589.0022, 122), (-583.1101, 122), (-595.21216, 137), (-601.68005, 137), (-601.68005, 122), (-608.3437, 137), (-615.1388, 137), (-615.1388, 122), (-608.3437, 122), (-595.21216, 122), (-572.5025, 122), (122, 771.9073), (-622, 137), (-628.8612, 137), (-628.8612, 122), (-635.6563, 137), (-642.31995, 137), (-642.31995, 122), (-635.6563, 122), (-648.78784, 137), (-654.99774, 137), (-654.99774, 122), (-660.8899, 137), (-666.40753, 137), (-666.40753, 122), (-660.8899, 122), (-648.78784, 122), (-671.4975, 137), (-137, 771.9073), (-137, 766.8173), (-122, 766.8173), (-137, 761.29974), (-137, 755.4076), (-122, 755.4076), (-122, 761.29974), (-137, 749.19763), (-137, 742.72974), (-122, 742.72974), (-137, 736.0661), (-137, 729.271), (-122, 736.0661), (-122, 749.19763), (-671.4975, 122), (-122, 771.9073), (-622, 122), (-555.01416, 702.0899), (-573.42035, 719.4098), (-557.3284, 695.62195), (-553.34503, 708.7535), (-572.2723, 719.6382), (-560.2655, 689.41205), (-575.5416, 720.2885), (-572.5025, 672.91235), (-567.8893, 678.00226), (-563.7971, 683.5199), (-574.56836, 719.6382), (-619.87866, 675.9515), (-552.3371, 715.5486), (-571.299, 720.2885), (-570.6487, 721.2618), (-552, 722.4098), (-576.19196, 721.2618), (-577.59247, 668.2991), (-589.0022, 660.6753), (-619, 673.83014), (-595.21216, 657.7382), (-583.1101, 664.2069), (-619.22833, 674.9782), (-601.68005, 655.424), (-622, 652.4098), (-615.1388, 652.7469), (-620.8519, 671.0585), (-619.22833, 672.68207), (-608.3437, 653.7548), (-619.87866, 671.7088), (-622, 670.83014), (-623.1481, 671.0585), (-622, 676.83014), (-620.8519, 676.60175), (-576.42035, 722.4098), (-570.6487, 723.55786), (-570.42035, 722.4098), (-552.3371, 729.271), (-571.299, 724.5311), (-560.2655, 755.4076), (-574.56836, 725.18146), (-573.42035, 725.4098), (-567.8893, 766.8173), (-575.5416, 724.5311), (-572.2723, 725.18146), (-553.34503, 736.0661), (-555.01416, 742.72974), (-557.3284, 749.19763), (-563.7971, 761.29974), (-572.5025, 771.9073), (-619.87866, 768.86816), (-577.59247, 776.52057), (-619.22833, 769.84143), (-622, 767.9895), (-576.19196, 723.55786), (-620.8519, 768.21783), (-589.0022, 784.1443), (-619, 770.9895), (-619.22833, 772.1375), (-601.68005, 789.3956), (-619.87866, 773.1108), (-608.3437, 791.06476), (-583.1101, 780.6127), (-595.21216, 787.08136), (-615.1388, 792.07275), (-622, 792.4098), (-620.8519, 773.7611), (-667.57965, 722.4098), (-624.12134, 671.7088), (-628.8612, 652.7469), (-635.6563, 653.7548), (-624.77167, 672.68207), (-642.31995, 655.424), (-654.99774, 660.6753), (-648.78784, 657.7382), (-625, 673.83014), (-624.77167, 674.9782), (-660.8899, 664.2069), (-666.40753, 668.2991), (-667.80804, 721.2618), (-624.12134, 675.9515), (-623.1481, 676.60175), (-668.4584, 720.2885), (-671.4975, 672.91235), (-676.1107, 678.00226), (-669.43164, 719.6382), (-680.2029, 683.5199), (-683.7345, 689.41205), (-688.98584, 702.0899), (-686.6716, 695.62195), (-670.57965, 719.4098), (-671.7277, 719.6382), (-690.65497, 708.7535), (-672.701, 720.2885), (-691.6629, 715.5486), (-673.3513, 721.2618), (-673.3513, 723.55786), (-692, 722.4098), (-673.57965, 722.4098), (-667.80804, 723.55786), (-623.1481, 768.21783), (-666.40753, 776.52057), (-624.12134, 768.86816), (-624.77167, 769.84143), (-654.99774, 784.1443), (-625, 770.9895), (-635.6563, 791.06476), (-624.77167, 772.1375), (-624.12134, 773.1108), (-642.31995, 789.3956), (-660.8899, 780.6127), (-628.8612, 792.07275), (-623.1481, 773.7611), (-622, 773.9895), (-648.78784, 787.08136), (-668.4584, 724.5311), (-671.4975, 771.9073), (-683.7345, 755.4076), (-670.57965, 725.4098), (-669.43164, 725.18146), (-676.1107, 766.8173), (-691.6629, 729.271), (-672.701, 724.5311), (-688.98584, 742.72974), (-671.7277, 725.18146), (-690.65497, 736.0661), (-680.2029, 761.29974), (-686.6716, 749.19763), (557.3284, 695.62195), (573.42035, 719.4098), (555.01416, 702.0899), (572.2723, 719.6382), (553.34503, 708.7535), (560.2655, 689.41205), (567.8893, 678.00226), (572.5025, 672.91235), (575.5416, 720.2885), (574.56836, 719.6382), (563.7971, 683.5199), (619.87866, 675.9515), (571.299, 720.2885), (552.3371, 715.5486), (570.6487, 721.2618), (552, 722.4098), (576.19196, 721.2618), (577.59247, 668.2991), (595.21216, 657.7382), (619, 673.83014), (589.0022, 660.6753), (619.22833, 674.9782), (583.1101, 664.2069), (601.68005, 655.424), (620.8519, 671.0585), (615.1388, 652.7469), (622, 652.4098), (608.3437, 653.7548), (619.22833, 672.68207), (619.87866, 671.7088), (623.1481, 671.0585), (622, 670.83014), (620.8519, 676.60175), (622, 676.83014), (576.42035, 722.4098), (570.42035, 722.4098), (570.6487, 723.55786), (552.3371, 729.271), (571.299, 724.5311), (573.42035, 725.4098), (574.56836, 725.18146), (560.2655, 755.4076), (575.5416, 724.5311), (567.8893, 766.8173), (553.34503, 736.0661), (572.2723, 725.18146), (555.01416, 742.72974), (557.3284, 749.19763), (563.7971, 761.29974), (572.5025, 771.9073), (619.87866, 768.86816), (577.59247, 776.52057), (619.22833, 769.84143), (620.8519, 768.21783), (576.19196, 723.55786), (622, 767.9895), (619, 770.9895), (589.0022, 784.1443), (601.68005, 789.3956), (619.22833, 772.1375), (608.3437, 791.06476), (619.87866, 773.1108), (583.1101, 780.6127), (595.21216, 787.08136), (615.1388, 792.07275), (620.8519, 773.7611), (622, 792.4098), (667.57965, 722.4098), (628.8612, 652.7469), (624.12134, 671.7088), (642.31995, 655.424), (624.77167, 672.68207), (635.6563, 653.7548), (625, 673.83014), (648.78784, 657.7382), (654.99774, 660.6753), (660.8899, 664.2069), (624.77167, 674.9782), (666.40753, 668.2991), (623.1481, 676.60175), (624.12134, 675.9515), (667.80804, 721.2618), (668.4584, 720.2885), (671.4975, 672.91235), (676.1107, 678.00226), (680.2029, 683.5199), (669.43164, 719.6382), (683.7345, 689.41205), (670.57965, 719.4098), (686.6716, 695.62195), (688.98584, 702.0899), (690.65497, 708.7535), (671.7277, 719.6382), (691.6629, 715.5486), (672.701, 720.2885), (673.3513, 721.2618), (673.57965, 722.4098), (692, 722.4098), (673.3513, 723.55786), (623.1481, 768.21783), (667.80804, 723.55786), (624.77167, 769.84143), (624.12134, 768.86816), (666.40753, 776.52057), (625, 770.9895), (654.99774, 784.1443), (624.12134, 773.1108), (624.77167, 772.1375), (635.6563, 791.06476), (642.31995, 789.3956), (660.8899, 780.6127), (623.1481, 773.7611), (628.8612, 792.07275), (622, 773.9895), (648.78784, 787.08136), (668.4584, 724.5311), (671.4975, 771.9073), (669.43164, 725.18146), (670.57965, 725.4098), (683.7345, 755.4076), (676.1107, 766.8173), (672.701, 724.5311), (691.6629, 729.271), (671.7277, 725.18146), (688.98584, 742.72974), (690.65497, 736.0661), (680.2029, 761.29974), (686.6716, 749.19763), (122, 721.2618), (137, 721.2618), (137, 722.4098), (-574.56836, 122), (-574.56836, 137), (-575.5416, 137), (137, 720.2885), (-575.5416, 122), (122, 720.2885), (-572.2723, 122), (-572.2723, 137), (-573.42035, 137), (-122, 721.2618), (-137, 721.2618), (-571.299, 137), (-137, 720.2885), (-571.299, 122), (-122, 720.2885), (-573.42035, 122), (122, 722.4098), (-122, 722.4098), (-137, 722.4098), (122, 723.55786), (-122, 723.55786), (-137, 723.55786), (572.2723, 122), (572.2723, 137), (-137, 724.5311), (571.299, 137), (-122, 724.5311), (571.299, 122), (574.56836, 122), (574.56836, 137), (573.42035, 137), (137, 723.55786), (137, 724.5311), (575.5416, 137), (122, 724.5311), (575.5416, 122), (573.42035, 122), (122, 672.68207), (137, 672.68207), (137, 673.83014), (-623.1481, 122), (-623.1481, 137), (-624.12134, 137), (137, 671.7088), (-624.12134, 122), (122, 671.7088), (-620.8519, 122), (-620.8519, 137), (-622, 137), (-122, 672.68207), (-137, 672.68207), (-619.87866, 137), (-137, 671.7088), (-619.87866, 122), (-122, 671.7088), (-622, 122), (122, 673.83014), (-122, 673.83014), (-137, 673.83014), (122, 674.9782), (-122, 674.9782), (-137, 674.9782), (620.8519, 122), (620.8519, 137), (-137, 675.9515), (619.87866, 137), (-122, 675.9515), (619.87866, 122), (623.1481, 122), (623.1481, 137), (622, 137), (137, 674.9782), (137, 675.9515), (624.12134, 137), (122, 675.9515), (624.12134, 122), (622, 122), (122, 721.2618), (137, 721.2618), (137, 722.4098), (-671.7277, 122), (-671.7277, 137), (-672.701, 137), (137, 720.2885), (-672.701, 122), (122, 720.2885), (-669.43164, 122), (-669.43164, 137), (-670.57965, 137), (-122, 721.2618), (-137, 721.2618), (-668.4584, 137), (-137, 720.2885), (-668.4584, 122), (-122, 720.2885), (-670.57965, 122), (122, 722.4098), (-122, 722.4098), (-137, 722.4098), (122, 723.55786), (-122, 723.55786), (-137, 723.55786), (669.43164, 122), (669.43164, 137), (-137, 724.5311), (668.4584, 137), (-122, 724.5311), (668.4584, 122), (671.7277, 122), (671.7277, 137), (670.57965, 137), (137, 723.55786), (137, 724.5311), (672.701, 137), (122, 724.5311), (672.701, 122), (670.57965, 122), (122, 769.84143), (137, 769.84143), (137, 770.9895), (-623.1481, 122), (-623.1481, 137), (-624.12134, 137), (137, 768.86816), (-624.12134, 122), (122, 768.86816), (-620.8519, 122), (-620.8519, 137), (-622, 137), (-122, 769.84143), (-137, 769.84143), (-619.87866, 137), (-137, 768.86816), (-619.87866, 122), (-122, 768.86816), (-622, 122), (122, 770.9895), (-122, 770.9895), (-137, 770.9895), (122, 772.1375), (-122, 772.1375), (-137, 772.1375), (620.8519, 122), (620.8519, 137), (-137, 773.1108), (619.87866, 137), (-122, 773.1108), (619.87866, 122), (623.1481, 122), (623.1481, 137), (622, 137), (137, 772.1375), (137, 773.1108), (624.12134, 137), (122, 773.1108), (624.12134, 122), (622, 122)] (
                    interpolation = "faceVarying"
                )
                int[] primvars:st:indices = [0, 1, 2, 3, 4, 5, 1, 3, 6, 7, 8, 9, 10, 11, 12, 8, 10, 13, 4, 7, 14, 16, 17, 18, 19, 20, 21, 17, 19, 22, 23, 24, 25, 26, 27, 28, 24, 26, 29, 20, 23, 30, 11, 15, 31, 33, 34, 35, 36, 37, 38, 34, 36, 39, 40, 41, 42, 43, 44, 45, 41, 43, 46, 37, 40, 47, 48, 50, 51, 52, 53, 54, 50, 52, 55, 56, 57, 58, 59, 60, 61, 57, 59, 62, 53, 56, 63, 44, 49, 65, 27, 33, 66, 2, 67, 0, 5, 6, 3, 2, 1, 6, 9, 14, 7, 12, 13, 10, 9, 8, 13, 5, 4, 14, 18, 32, 16, 21, 22, 19, 18, 17, 22, 25, 30, 23, 28, 29, 26, 25, 24, 29, 21, 20, 30, 12, 11, 31, 35, 66, 33, 38, 39, 36, 35, 34, 39, 42, 47, 40, 45, 46, 43, 42, 41, 46, 38, 37, 47, 51, 64, 48, 54, 55, 52, 51, 50, 55, 58, 63, 56, 61, 62, 59, 58, 57, 62, 54, 53, 63, 45, 44, 65, 28, 27, 66, 68, 69, 60, 0, 67, 70, 68, 71, 72, 73, 74, 75, 71, 73, 76, 77, 78, 79, 80, 81, 82, 78, 80, 83, 74, 77, 84, 85, 87, 88, 89, 90, 91, 87, 89, 92, 93, 94, 95, 96, 97, 98, 94, 96, 99, 90, 93, 100, 81, 86, 102, 103, 104, 105, 106, 107, 108, 104, 106, 109, 110, 111, 112, 113, 114, 115, 111, 113, 116, 107, 110, 117, 119, 120, 121, 122, 123, 124, 120, 122, 125, 126, 127, 128, 129, 130, 70, 127, 129, 131, 123, 126, 132, 114, 118, 133, 97, 103, 135, 72, 69, 68, 75, 76, 73, 72, 71, 76, 79, 84, 77, 82, 83, 80, 79, 78, 83, 75, 74, 84, 88, 101, 85, 91, 92, 89, 88, 87, 92, 95, 100, 93, 98, 99, 96, 95, 94, 99, 91, 90, 100, 82, 81, 102, 105, 135, 103, 108, 109, 106, 105, 104, 109, 112, 117, 110, 115, 116, 113, 112, 111, 116, 108, 107, 117, 121, 134, 119, 124, 125, 122, 121, 120, 125, 128, 132, 126, 70, 131, 129, 128, 127, 131, 124, 123, 132, 115, 114, 133, 98, 97, 135, 130, 0, 70, 69, 61, 60, 136, 137, 138, 136, 139, 140, 141, 138, 137, 142, 143, 144, 145, 146, 144, 145, 141, 146, 147, 143, 142, 148, 149, 139, 149, 140, 139, 148, 150, 149, 151, 150, 148, 141, 137, 146, 142, 152, 147, 142, 144, 146, 140, 137, 136, 153, 143, 147, 154, 155, 156, 157, 158, 154, 159, 156, 155, 160, 161, 162, 163, 164, 159, 164, 165, 161, 166, 167, 160, 162, 166, 160, 164, 163, 165, 154, 158, 155, 159, 155, 163, 152, 168, 169, 147, 152, 169, 162, 161, 165, 158, 153, 147, 158, 157, 153, 170, 168, 152, 171, 172, 151, 150, 151, 172, 173, 171, 151, 171, 173, 174, 175, 176, 177, 176, 178, 179, 180, 174, 181, 177, 180, 182, 181, 174, 173, 177, 182, 183, 181, 182, 180, 184, 176, 175, 178, 176, 184, 183, 175, 177, 185, 179, 178, 185, 186, 179, 186, 185, 187, 188, 186, 187, 189, 190, 191, 188, 192, 193, 191, 179, 186, 194, 193, 195, 170, 190, 189, 196, 194, 197, 188, 198, 192, 193, 192, 199, 198, 188, 187, 195, 197, 194, 193, 199, 195, 200, 196, 197, 200, 201, 202, 202, 196, 200, 191, 190, 179, 168, 170, 203, 204, 205, 167, 206, 207, 208, 204, 206, 205, 160, 167, 205, 209, 210, 211, 212, 213, 209, 208, 211, 210, 214, 213, 212, 207, 206, 204, 215, 216, 217, 212, 209, 211, 215, 217, 203, 211, 208, 207, 214, 212, 216, 215, 218, 216, 170, 189, 203, 219, 214, 216, 217, 168, 203, 220, 219, 218, 221, 222, 220, 221, 223, 222, 224, 225, 226, 227, 228, 224, 225, 223, 226, 229, 230, 228, 223, 221, 226, 226, 227, 224, 220, 218, 221, 231, 230, 229, 232, 233, 234, 231, 234, 233, 229, 228, 227, 233, 230, 231, 216, 218, 219, 235, 189, 236, 237, 238, 239, 240, 239, 241, 242, 243, 244, 243, 245, 241, 246, 237, 239, 247, 244, 248, 248, 201, 247, 247, 242, 244, 248, 249, 201, 202, 201, 249, 250, 241, 245, 242, 245, 243, 241, 250, 240, 240, 246, 239, 251, 236, 238, 251, 238, 252, 253, 254, 255, 256, 255, 251, 257, 232, 258, 259, 260, 254, 260, 261, 258, 257, 233, 232, 258, 261, 257, 255, 256, 262, 237, 252, 238, 256, 251, 252, 253, 263, 254, 262, 253, 255, 254, 263, 259, 259, 261, 260, 235, 236, 251, 235, 203, 189, 264, 265, 266, 267, 268, 266, 265, 264, 269, 270, 271, 272, 270, 273, 274, 273, 269, 274, 272, 271, 275, 268, 276, 277, 268, 267, 276, 276, 278, 277, 277, 278, 279, 273, 265, 269, 275, 280, 272, 273, 270, 272, 266, 265, 267, 275, 271, 281, 282, 283, 284, 284, 285, 286, 283, 282, 287, 288, 289, 290, 287, 291, 292, 289, 293, 291, 290, 294, 295, 290, 295, 288, 293, 292, 291, 283, 285, 284, 292, 283, 287, 296, 297, 280, 296, 280, 275, 293, 289, 288, 275, 281, 285, 281, 286, 285, 280, 297, 298, 279, 299, 300, 299, 279, 278, 279, 300, 301, 302, 301, 300, 303, 304, 305, 306, 307, 304, 308, 302, 309, 310, 309, 303, 301, 302, 308, 311, 310, 303, 309, 310, 308, 305, 304, 312, 312, 304, 307, 303, 305, 311, 307, 306, 313, 306, 314, 313, 315, 313, 314, 315, 314, 316, 317, 318, 319, 320, 321, 316, 314, 306, 317, 322, 320, 323, 319, 318, 298, 324, 323, 325, 321, 326, 316, 327, 321, 320, 315, 316, 326, 323, 324, 322, 322, 327, 320, 324, 325, 328, 329, 330, 328, 328, 325, 329, 306, 318, 317, 331, 298, 297, 294, 332, 333, 334, 335, 336, 332, 336, 333, 332, 294, 290, 337, 338, 339, 339, 340, 341, 338, 337, 334, 341, 340, 342, 333, 336, 335, 343, 344, 345, 337, 339, 341, 331, 343, 345, 335, 334, 337, 344, 341, 342, 344, 346, 345, 331, 319, 298, 344, 342, 347, 331, 297, 343, 346, 347, 348, 348, 349, 350, 349, 351, 350, 352, 353, 354, 354, 355, 356, 352, 351, 353, 355, 357, 358, 352, 350, 351, 354, 356, 352, 350, 346, 348, 358, 357, 359, 360, 361, 362, 361, 360, 359, 356, 355, 358, 359, 357, 361, 347, 346, 344, 363, 319, 364, 365, 366, 367, 368, 365, 369, 370, 371, 372, 368, 373, 371, 365, 367, 374, 375, 370, 376, 376, 330, 375, 370, 372, 376, 330, 377, 375, 377, 330, 329, 373, 368, 378, 371, 373, 372, 369, 378, 368, 365, 374, 369, 366, 363, 379, 380, 366, 379, 381, 382, 383, 379, 381, 384, 385, 362, 386, 382, 387, 388, 385, 389, 387, 362, 361, 386, 386, 389, 385, 390, 384, 381, 366, 380, 367, 380, 379, 384, 382, 391, 383, 381, 383, 390, 388, 391, 382, 387, 389, 388, 379, 363, 364, 319, 331, 364, 392, 393, 394, 395, 396, 397, 400, 398, 393, 401, 402, 403, 404, 405, 407, 408, 406, 402, 410, 403, 396, 394, 411, 392, 397, 399, 395, 400, 393, 392, 403, 410, 401, 407, 409, 404, 408, 402, 401, 410, 396, 395, 405, 412, 413, 414, 411, 394, 415, 416, 413, 417, 418, 420, 421, 419, 416, 423, 424, 425, 414, 426, 427, 430, 428, 424, 431, 425, 418, 413, 412, 415, 420, 422, 417, 421, 416, 415, 425, 431, 423, 427, 429, 414, 430, 424, 423, 431, 418, 417, 414, 394, 426, 405, 404, 412, 432, 433, 434, 435, 436, 437, 440, 438, 433, 441, 442, 443, 444, 445, 447, 448, 446, 442, 450, 443, 436, 434, 451, 432, 437, 439, 435, 440, 433, 432, 443, 450, 441, 447, 449, 444, 448, 442, 441, 450, 436, 435, 445, 452, 453, 454, 451, 434, 455, 456, 453, 457, 458, 460, 461, 459, 456, 463, 464, 465, 454, 466, 467, 470, 468, 464, 471, 465, 458, 453, 452, 455, 460, 462, 457, 461, 456, 455, 465, 471, 463, 467, 469, 454, 470, 464, 463, 471, 458, 457, 454, 434, 466, 445, 444, 452, 472, 473, 474, 475, 476, 477, 480, 478, 473, 481, 482, 483, 484, 485, 487, 488, 486, 482, 490, 483, 476, 474, 491, 472, 477, 479, 475, 480, 473, 472, 483, 490, 481, 487, 489, 484, 488, 482, 481, 490, 476, 475, 485, 492, 493, 494, 491, 474, 495, 496, 493, 497, 498, 500, 501, 499, 496, 503, 504, 505, 494, 506, 507, 510, 508, 504, 511, 505, 498, 493, 492, 495, 500, 502, 497, 501, 496, 495, 505, 511, 503, 507, 509, 494, 510, 504, 503, 511, 498, 497, 494, 474, 506, 485, 484, 492, 512, 513, 514, 515, 516, 517, 520, 518, 513, 521, 522, 523, 524, 525, 527, 528, 526, 522, 530, 523, 516, 514, 531, 512, 517, 519, 515, 520, 513, 512, 523, 530, 521, 527, 529, 524, 528, 522, 521, 530, 516, 515, 525, 532, 533, 534, 531, 514, 535, 536, 533, 537, 538, 540, 541, 539, 536, 543, 544, 545, 534, 546, 547, 550, 548, 544, 551, 545, 538, 533, 532, 535, 540, 542, 537, 541, 536, 535, 545, 551, 543, 547, 549, 534, 550, 544, 543, 551, 538, 537, 534, 514, 546, 525, 524, 532]
                uniform token subdivisionScheme = "none"
            }

            def Scope "Looks"
            {
                over "Diffuse_1" (
                    prepend specializes = </robot_tablev1/Looks/Diffuse_1>
                )
                {
                }
            }
        }

        def Xform "Body" (
            kind = "component"
        )
        {
            def Mesh "Mesh" (
                prepend apiSchemas = ["MaterialBindingAPI"]
            )
            {
                float3[] extent = [(0, 0, 0), (1100000, 1444997.1, 90000)]
                int[] faceVertexCounts = [3, 3, 3, 3, 3, 3, 3, 3, 3, 3, 3, 3, 3, 3, 3, 3, 3, 3, 3, 3, 3, 3, 3, 3, 3, 3, 3, 3, 3, 3, 3, 3, 3, 3, 3, 3, 3, 3, 3, 3, 3, 3, 3, 3, 3, 3, 3, 3]
                int[] faceVertexIndices = [0, 1, 2, 2, 3, 0, 4, 5, 6, 6, 7, 4, 8, 9, 10, 10, 11, 8, 12, 13, 14, 14, 15, 12, 16, 17, 18, 18, 19, 16, 20, 21, 22, 22, 23, 20, 24, 25, 26, 26, 27, 24, 28, 29, 30, 30, 31, 28, 32, 33, 34, 34, 35, 32, 36, 37, 38, 38, 39, 36, 40, 41, 42, 42, 43, 40, 44, 45, 46, 46, 47, 44, 48, 49, 50, 51, 50, 49, 52, 53, 54, 55, 53, 52, 49, 55, 51, 56, 57, 51, 50, 51, 57, 58, 57, 56, 59, 58, 55, 57, 58, 59, 52, 59, 55, 49, 53, 55, 60, 61, 62, 61, 60, 63, 64, 65, 66, 66, 65, 67, 63, 67, 61, 63, 68, 69, 68, 63, 60, 69, 68, 70, 67, 70, 71, 71, 70, 68, 67, 71, 66, 67, 65, 61]
                rel material:binding = </robot_tablev1/Prototypes/Body/Looks/Diffuse_1>
                uniform token orientation = "rightHanded"
                point3f[] points = [(0.0007532618, 0, 0), (0.0007532618, 0, 90000), (0.0007532618, 39822.547, 90000), (0.0007532618, 39822.547, 0), (1100000, 0, 0), (1100000, 0, 90000), (0.0007532618, 0, 90000), (0.0007532618, 0, 0), (1100000, 1444997.1, 0), (1100000, 1444997.1, 90000), (1100000, 0, 90000), (1100000, 0, 0), (0, 1444997.1, 0), (0, 1444997.1, 90000), (1100000, 1444997.1, 90000), (1100000, 1444997.1, 0), (0, 1404997.1, 0), (0, 1404997.1, 90000), (0, 1444997.1, 90000), (0, 1444997.1, 0), (452000, 1404997.1, 0), (452000, 1404997.1, 90000), (0, 1404997.1, 90000), (0, 1404997.1, 0), (452000, 39822.547, 90000), (452000, 1404997.1, 90000), (452000, 1404997.1, 0), (452000, 39822.547, 0), (0.0007532618, 39822.547, 90000), (452000, 39822.547, 90000), (452000, 39822.547, 0), (0.0007532618, 39822.547, 0), (1060000, 39822.547, 90000), (1060000, 1404997.1, 90000), (1060000, 1404997.1, 0), (1060000, 39822.547, 0), (1060000, 1404997.1, 0), (1060000, 1404997.1, 90000), (492000, 1404997.1, 90000), (492000, 1404997.1, 0), (492000, 1404997.1, 90000), (492000, 39822.547, 90000), (492000, 39822.547, 0), (492000, 1404997.1, 0), (492000, 39822.547, 90000), (1060000, 39822.547, 90000), (1060000, 39822.547, 0), (492000, 39822.547, 0), (0.0007532618, 39822.547, 0), (452000, 39822.547, 0), (0.0007532618, 0, 0), (492000, 39822.547, 0), (0, 1444997.1, 0), (452000, 1404997.1, 0), (0, 1404997.1, 0), (492000, 1404997.1, 0), (1060000, 39822.547, 0), (1100000, 0, 0), (1060000, 1404997.1, 0), (1100000, 1444997.1, 0), (0.0007532618, 0, 90000), (452000, 39822.547, 90000), (0.0007532618, 39822.547, 90000), (492000, 39822.547, 90000), (0, 1404997.1, 90000), (452000, 1404997.1, 90000), (0, 1444997.1, 90000), (492000, 1404997.1, 90000), (1100000, 0, 90000), (1060000, 39822.547, 90000), (1060000, 1404997.1, 90000), (1100000, 1444997.1, 90000)]
                normal3f[] primvars:normals = [(-1, -0, -0), (-0, -1, -0), (1, -0, -0), (-2.2961455e-10, 1, -0), (3.1439944e-17, 1, 0), (0, 1, 0), (-0, -0, -1), (0, 0, 1)] (
                    interpolation = "vertex"
                )
                int[] primvars:normals:indices = [0, 0, 0, 0, 1, 1, 1, 1, 2, 2, 2, 2, 3, 3, 3, 3, 0, 0, 0, 0, 1, 1, 1, 1, 0, 0, 0, 0, 4, 4, 4, 4, 0, 0, 0, 0, 1, 1, 1, 1, 2, 2, 2, 2, 5, 5, 5, 5, 6, 6, 6, 6, 6, 6, 6, 6, 6, 6, 6, 6, 7, 7, 7, 7, 7, 7, 7, 7, 7, 7, 7, 7]
                texCoord2f[] primvars:st = [(0, 0), (90, 0), (90, 39.822548), (0, 39.822548), (1100, 0), (1100, 90), (7.532618e-7, 90), (7.532618e-7, 0), (-0, 1444.9971), (-90, 1444.9971), (-90, 0), (-0, 0), (-0, 0), (-0, 90), (-1100, 90), (-1100, 0), (0, 1404.9971), (90, 1404.9971), (90, 1444.9971), (0, 1444.9971), (452, 0), (452, 90), (0, 90), (0, 0), (90, 39.822548), (90, 1404.9971), (0, 1404.9971), (0, 39.822548), (-7.532618e-7, 90), (-452, 90), (-452, 0), (-7.532618e-7, 0), (90, 39.822548), (90, 1404.9971), (0, 1404.9971), (0, 39.822548), (1060, 0), (1060, 90), (492, 90), (492, 0), (-90, 1404.9971), (-90, 39.822548), (-0, 39.822548), (-0, 1404.9971), (-492, 90), (-1060, 90), (-1060, 0), (-492, 0), (-7.532618e-7, 39.822548), (-452, 39.822548), (-7.532618e-7, 0), (-492, 39.822548), (-0, 1444.9971), (-452, 1404.9971), (-0, 1404.9971), (-492, 1404.9971), (-1060, 39.822548), (-1100, 0), (-1060, 1404.9971), (-1100, 1444.9971), (7.532618e-7, 0), (452, 39.822548), (7.532618e-7, 39.822548), (492, 39.822548), (0, 1404.9971), (452, 1404.9971), (0, 1444.9971), (492, 1404.9971), (1100, 0), (1060, 39.822548), (1060, 1404.9971), (1100, 1444.9971)] (
                    interpolation = "faceVarying"
                )
                int[] primvars:st:indices = [0, 1, 2, 2, 3, 0, 4, 5, 6, 6, 7, 4, 8, 9, 10, 10, 11, 8, 12, 13, 14, 14, 15, 12, 16, 17, 18, 18, 19, 16, 20, 21, 22, 22, 23, 20, 24, 25, 26, 26, 27, 24, 28, 29, 30, 30, 31, 28, 32, 33, 34, 34, 35, 32, 36, 37, 38, 38, 39, 36, 40, 41, 42, 42, 43, 40, 44, 45, 46, 46, 47, 44, 48, 49, 50, 51, 50, 49, 52, 53, 54, 55, 53, 52, 49, 55, 51, 56, 57, 51, 50, 51, 57, 58, 57, 56, 59, 58, 55, 57, 58, 59, 52, 59, 55, 49, 53, 55, 60, 61, 62, 61, 60, 63, 64, 65, 66, 66, 65, 67, 63, 67, 61, 63, 68, 69, 68, 63, 60, 69, 68, 70, 67, 70, 71, 71, 70, 68, 67, 71, 66, 67, 65, 61]
                uniform token subdivisionScheme = "none"
            }

            def Scope "Looks"
            {
                over "Diffuse_1" (
                    prepend specializes = </robot_tablev1/Looks/Diffuse_1>
                )
                {
                }
            }
        }
    }

    def Scope "Looks"
    {
        def Material "Diffuse" (
            displayName = "Diffuse"
        )
        {
            token outputs:displacement.connect = </robot_tablev1/Looks/Diffuse/PreviewSurface.outputs:displacement>
            token outputs:surface.connect = </robot_tablev1/Looks/Diffuse/PreviewSurface.outputs:surface>

            def Shader "PreviewSurface"
            {
                uniform token info:id = "UsdPreviewSurface"
                color3f inputs:diffuseColor = (0.8, 0.8, 0.9)
                float inputs:metallic = 0.5
                float inputs:opacity = 1
                float inputs:roughness = 0.5
                token outputs:displacement
                token outputs:surface
            }
        }

        def Material "Diffuse_1" (
            displayName = "Diffuse"
        )
        {
            token outputs:displacement.connect = </robot_tablev1/Looks/Diffuse_1/PreviewSurface.outputs:displacement>
            token outputs:surface.connect = </robot_tablev1/Looks/Diffuse_1/PreviewSurface.outputs:surface>

            def Shader "PreviewSurface"
            {
                uniform token info:id = "UsdPreviewSurface"
                color3f inputs:diffuseColor = (0.3, 0.3, 0.3)
                float inputs:metallic = 0.5
                float inputs:opacity = 1
                float inputs:roughness = 0.5
                token outputs:displacement
                token outputs:surface
            }
        }
    }

    def Xform "robot_tablev1" (
        kind = "group"
    )
    {
        matrix4d xformOp:transform = ( (1, 0, 0, 0), (0, 1, 0, 0), (0, 0, 1, 0), (0, 0, 0, 1) )
        uniform token[] xformOpOrder = ["xformOp:transform"]

        def Xform "Body004" (
            instanceable = true
            prepend references = </robot_tablev1/Prototypes/Body004>
        )
        {
            matrix4d xformOp:transform = ( (1, 0, 0, 0), (0, 1, 0, 0), (0, 0, 1, 0), (0, 0, 0, 1) )
            uniform token[] xformOpOrder = ["xformOp:transform"]
        }

        def Xform "Body003" (
            instanceable = true
            prepend references = </robot_tablev1/Prototypes/Body003>
        )
        {
            matrix4d xformOp:transform = ( (1, 0, 0, 0), (0, 1, 0, 0), (0, 0, 1, 0), (0, 0, 0, 1) )
            uniform token[] xformOpOrder = ["xformOp:transform"]
        }

        def Xform "Body002" (
            instanceable = true
            prepend references = </robot_tablev1/Prototypes/Body002>
        )
        {
            matrix4d xformOp:transform = ( (1, 0, 0, 0), (0, 1, 0, 0), (0, 0, 1, 0), (0, 0, 0, 1) )
            uniform token[] xformOpOrder = ["xformOp:transform"]
        }

        def Xform "Body001" (
            instanceable = true
            prepend references = </robot_tablev1/Prototypes/Body001>
        )
        {
            matrix4d xformOp:transform = ( (1, 0, 0, 0), (0, 1, 0, 0), (0, 0, 1, 0), (0, 0, 0, 1) )
            uniform token[] xformOpOrder = ["xformOp:transform"]
        }

        def Xform "Body" (
            instanceable = true
            prepend references = </robot_tablev1/Prototypes/Body>
        )
        {
            matrix4d xformOp:transform = ( (1, 0, 0, 0), (0, 1, 0, 0), (0, 0, 1, 0), (0, 0, 0, 1) )
            uniform token[] xformOpOrder = ["xformOp:transform"]
        }
    }
}

