ISO-10303-21;
HEADER;
FILE_DESCRIPTION(('FreeCAD Model'),'2;1');
FILE_NAME('Open CASCADE Shape Model','2026-02-09T21:27:55',('Author'),(
    ''),'Open CASCADE STEP processor 7.8','FreeCAD','Unknown');
FILE_SCHEMA(('AUTOMOTIVE_DESIGN { 1 0 10303 214 1 1 1 1 }'));
ENDSEC;
DATA;
#1 = APPLICATION_PROTOCOL_DEFINITION('international standard',
  'automotive_design',2000,#2);
#2 = APPLICATION_CONTEXT(
  'core data for automotive mechanical design processes');
#3 = SHAPE_DEFINITION_REPRESENTATION(#4,#10);
#4 = PRODUCT_DEFINITION_SHAPE('','',#5);
#5 = PRODUCT_DEFINITION('design','',#6,#9);
#6 = PRODUCT_DEFINITION_FORMATION('','',#7);
#7 = PRODUCT('Unnamed','Unnamed','',(#8));
#8 = PRODUCT_CONTEXT('',#2,'mechanical');
#9 = PRODUCT_DEFINITION_CONTEXT('part definition',#2,'design');
#10 = SHAPE_REPRESENTATION('',(#11,#15,#19,#23,#27,#31),#35);
#11 = AXIS2_PLACEMENT_3D('',#12,#13,#14);
#12 = CARTESIAN_POINT('',(0.,0.,0.));
#13 = DIRECTION('',(0.,0.,1.));
#14 = DIRECTION('',(1.,0.,-0.));
#15 = AXIS2_PLACEMENT_3D('',#16,#17,#18);
#16 = CARTESIAN_POINT('',(0.,0.,0.));
#17 = DIRECTION('',(0.,0.,1.));
#18 = DIRECTION('',(1.,0.,0.));
#19 = AXIS2_PLACEMENT_3D('',#20,#21,#22);
#20 = CARTESIAN_POINT('',(0.,0.,0.));
#21 = DIRECTION('',(0.,0.,1.));
#22 = DIRECTION('',(1.,0.,0.));
#23 = AXIS2_PLACEMENT_3D('',#24,#25,#26);
#24 = CARTESIAN_POINT('',(0.,0.,0.));
#25 = DIRECTION('',(0.,0.,1.));
#26 = DIRECTION('',(1.,0.,0.));
#27 = AXIS2_PLACEMENT_3D('',#28,#29,#30);
#28 = CARTESIAN_POINT('',(0.,0.,0.));
#29 = DIRECTION('',(0.,0.,1.));
#30 = DIRECTION('',(1.,0.,0.));
#31 = AXIS2_PLACEMENT_3D('',#32,#33,#34);
#32 = CARTESIAN_POINT('',(0.,0.,0.));
#33 = DIRECTION('',(0.,0.,1.));
#34 = DIRECTION('',(1.,0.,0.));
#35 = ( GEOMETRIC_REPRESENTATION_CONTEXT(3) 
GLOBAL_UNCERTAINTY_ASSIGNED_CONTEXT((#39)) GLOBAL_UNIT_ASSIGNED_CONTEXT(
(#36,#37,#38)) REPRESENTATION_CONTEXT('Context #1',
  '3D Context with UNIT and UNCERTAINTY') );
#36 = ( LENGTH_UNIT() NAMED_UNIT(*) SI_UNIT($,.METRE.) );
#37 = ( NAMED_UNIT(*) PLANE_ANGLE_UNIT() SI_UNIT($,.RADIAN.) );
#38 = ( NAMED_UNIT(*) SI_UNIT($,.STERADIAN.) SOLID_ANGLE_UNIT() );
#39 = UNCERTAINTY_MEASURE_WITH_UNIT(LENGTH_MEASURE(1.E-07),#36,
  'distance_accuracy_value','confusion accuracy');
#40 = PRODUCT_RELATED_PRODUCT_CATEGORY('part',$,(#7));
#41 = SHAPE_DEFINITION_REPRESENTATION(#42,#48);
#42 = PRODUCT_DEFINITION_SHAPE('','',#43);
#43 = PRODUCT_DEFINITION('design','',#44,#47);
#44 = PRODUCT_DEFINITION_FORMATION('','',#45);
#45 = PRODUCT('Body004','Body004','',(#46));
#46 = PRODUCT_CONTEXT('',#2,'mechanical');
#47 = PRODUCT_DEFINITION_CONTEXT('part definition',#2,'design');
#48 = ADVANCED_BREP_SHAPE_REPRESENTATION('',(#11,#49),#199);
#49 = MANIFOLD_SOLID_BREP('',#50);
#50 = CLOSED_SHELL('',(#51,#91,#122,#153,#175,#187));
#51 = ADVANCED_FACE('',(#52),#86,.F.);
#52 = FACE_BOUND('',#53,.F.);
#53 = EDGE_LOOP('',(#54,#64,#72,#80));
#54 = ORIENTED_EDGE('',*,*,#55,.T.);
#55 = EDGE_CURVE('',#56,#58,#60,.T.);
#56 = VERTEX_POINT('',#57);
#57 = CARTESIAN_POINT('',(491.99999863205,1.404997072747E+03,0.));
#58 = VERTEX_POINT('',#59);
#59 = CARTESIAN_POINT('',(491.99999863205,1.404997072747E+03,3.));
#60 = LINE('',#61,#62);
#61 = CARTESIAN_POINT('',(491.99999863205,1.404997072747E+03,0.));
#62 = VECTOR('',#63,1.);
#63 = DIRECTION('',(0.,0.,1.));
#64 = ORIENTED_EDGE('',*,*,#65,.T.);
#65 = EDGE_CURVE('',#58,#66,#68,.T.);
#66 = VERTEX_POINT('',#67);
#67 = CARTESIAN_POINT('',(492.75775339428,39.507764934557,3.));
#68 = LINE('',#69,#70);
#69 = CARTESIAN_POINT('',(491.99999863205,1.404997072747E+03,3.));
#70 = VECTOR('',#71,1.);
#71 = DIRECTION('',(5.549326832652E-04,-0.999999846025,0.));
#72 = ORIENTED_EDGE('',*,*,#73,.F.);
#73 = EDGE_CURVE('',#74,#66,#76,.T.);
#74 = VERTEX_POINT('',#75);
#75 = CARTESIAN_POINT('',(492.75775339428,39.507764934557,0.));
#76 = LINE('',#77,#78);
#77 = CARTESIAN_POINT('',(492.75775339428,39.507764934557,0.));
#78 = VECTOR('',#79,1.);
#79 = DIRECTION('',(0.,0.,1.));
#80 = ORIENTED_EDGE('',*,*,#81,.F.);
#81 = EDGE_CURVE('',#56,#74,#82,.T.);
#82 = LINE('',#83,#84);
#83 = CARTESIAN_POINT('',(491.99999863205,1.404997072747E+03,0.));
#84 = VECTOR('',#85,1.);
#85 = DIRECTION('',(5.549326832652E-04,-0.999999846025,0.));
#86 = PLANE('',#87);
#87 = AXIS2_PLACEMENT_3D('',#88,#89,#90);
#88 = CARTESIAN_POINT('',(491.99999863205,1.404997072747E+03,0.));
#89 = DIRECTION('',(0.999999846025,5.549326832652E-04,0.));
#90 = DIRECTION('',(5.549326832652E-04,-0.999999846025,0.));
#91 = ADVANCED_FACE('',(#92),#117,.F.);
#92 = FACE_BOUND('',#93,.F.);
#93 = EDGE_LOOP('',(#94,#95,#103,#111));
#94 = ORIENTED_EDGE('',*,*,#73,.T.);
#95 = ORIENTED_EDGE('',*,*,#96,.T.);
#96 = EDGE_CURVE('',#66,#97,#99,.T.);
#97 = VERTEX_POINT('',#98);
#98 = CARTESIAN_POINT('',(1.060000000005E+03,39.822546244998,3.));
#99 = LINE('',#100,#101);
#100 = CARTESIAN_POINT('',(492.75775339428,39.507764934556,3.));
#101 = VECTOR('',#102,1.);
#102 = DIRECTION('',(0.999999846025,5.549326832652E-04,0.));
#103 = ORIENTED_EDGE('',*,*,#104,.F.);
#104 = EDGE_CURVE('',#105,#97,#107,.T.);
#105 = VERTEX_POINT('',#106);
#106 = CARTESIAN_POINT('',(1.060000000005E+03,39.822546244998,0.));
#107 = LINE('',#108,#109);
#108 = CARTESIAN_POINT('',(1.060000000005E+03,39.822546244998,0.));
#109 = VECTOR('',#110,1.);
#110 = DIRECTION('',(0.,0.,1.));
#111 = ORIENTED_EDGE('',*,*,#112,.F.);
#112 = EDGE_CURVE('',#74,#105,#113,.T.);
#113 = LINE('',#114,#115);
#114 = CARTESIAN_POINT('',(492.75775339428,39.507764934556,0.));
#115 = VECTOR('',#116,1.);
#116 = DIRECTION('',(0.999999846025,5.549326832652E-04,0.));
#117 = PLANE('',#118);
#118 = AXIS2_PLACEMENT_3D('',#119,#120,#121);
#119 = CARTESIAN_POINT('',(492.75775339428,39.507764934557,0.));
#120 = DIRECTION('',(-5.549326832652E-04,0.999999846025,0.));
#121 = DIRECTION('',(0.999999846025,5.549326832652E-04,0.));
#122 = ADVANCED_FACE('',(#123),#148,.F.);
#123 = FACE_BOUND('',#124,.F.);
#124 = EDGE_LOOP('',(#125,#126,#134,#142));
#125 = ORIENTED_EDGE('',*,*,#104,.T.);
#126 = ORIENTED_EDGE('',*,*,#127,.T.);
#127 = EDGE_CURVE('',#97,#128,#130,.T.);
#128 = VERTEX_POINT('',#129);
#129 = CARTESIAN_POINT('',(1.059242245243E+03,1.405311854058E+03,3.));
#130 = LINE('',#131,#132);
#131 = CARTESIAN_POINT('',(1.060000000005E+03,39.822546244998,3.));
#132 = VECTOR('',#133,1.);
#133 = DIRECTION('',(-5.549326832652E-04,0.999999846025,0.));
#134 = ORIENTED_EDGE('',*,*,#135,.F.);
#135 = EDGE_CURVE('',#136,#128,#138,.T.);
#136 = VERTEX_POINT('',#137);
#137 = CARTESIAN_POINT('',(1.059242245243E+03,1.405311854058E+03,0.));
#138 = LINE('',#139,#140);
#139 = CARTESIAN_POINT('',(1.059242245243E+03,1.405311854058E+03,0.));
#140 = VECTOR('',#141,1.);
#141 = DIRECTION('',(0.,0.,1.));
#142 = ORIENTED_EDGE('',*,*,#143,.F.);
#143 = EDGE_CURVE('',#105,#136,#144,.T.);
#144 = LINE('',#145,#146);
#145 = CARTESIAN_POINT('',(1.060000000005E+03,39.822546244998,0.));
#146 = VECTOR('',#147,1.);
#147 = DIRECTION('',(-5.549326832652E-04,0.999999846025,0.));
#148 = PLANE('',#149);
#149 = AXIS2_PLACEMENT_3D('',#150,#151,#152);
#150 = CARTESIAN_POINT('',(1.060000000005E+03,39.822546244998,0.));
#151 = DIRECTION('',(-0.999999846025,-5.549326832652E-04,0.));
#152 = DIRECTION('',(-5.549326832652E-04,0.999999846025,0.));
#153 = ADVANCED_FACE('',(#154),#170,.F.);
#154 = FACE_BOUND('',#155,.F.);
#155 = EDGE_LOOP('',(#156,#157,#163,#164));
#156 = ORIENTED_EDGE('',*,*,#135,.T.);
#157 = ORIENTED_EDGE('',*,*,#158,.T.);
#158 = EDGE_CURVE('',#128,#58,#159,.T.);
#159 = LINE('',#160,#161);
#160 = CARTESIAN_POINT('',(1.059242245243E+03,1.405311854058E+03,3.));
#161 = VECTOR('',#162,1.);
#162 = DIRECTION('',(-0.999999846025,-5.549326832652E-04,0.));
#163 = ORIENTED_EDGE('',*,*,#55,.F.);
#164 = ORIENTED_EDGE('',*,*,#165,.F.);
#165 = EDGE_CURVE('',#136,#56,#166,.T.);
#166 = LINE('',#167,#168);
#167 = CARTESIAN_POINT('',(1.059242245243E+03,1.405311854058E+03,0.));
#168 = VECTOR('',#169,1.);
#169 = DIRECTION('',(-0.999999846025,-5.549326832652E-04,0.));
#170 = PLANE('',#171);
#171 = AXIS2_PLACEMENT_3D('',#172,#173,#174);
#172 = CARTESIAN_POINT('',(1.059242245243E+03,1.405311854058E+03,0.));
#173 = DIRECTION('',(5.549326832652E-04,-0.999999846025,0.));
#174 = DIRECTION('',(-0.999999846025,-5.549326832652E-04,0.));
#175 = ADVANCED_FACE('',(#176),#182,.F.);
#176 = FACE_BOUND('',#177,.F.);
#177 = EDGE_LOOP('',(#178,#179,#180,#181));
#178 = ORIENTED_EDGE('',*,*,#81,.T.);
#179 = ORIENTED_EDGE('',*,*,#112,.T.);
#180 = ORIENTED_EDGE('',*,*,#143,.T.);
#181 = ORIENTED_EDGE('',*,*,#165,.T.);
#182 = PLANE('',#183);
#183 = AXIS2_PLACEMENT_3D('',#184,#185,#186);
#184 = CARTESIAN_POINT('',(775.99999931844,722.40980949621,0.));
#185 = DIRECTION('',(0.,0.,1.));
#186 = DIRECTION('',(1.,0.,0.));
#187 = ADVANCED_FACE('',(#188),#194,.T.);
#188 = FACE_BOUND('',#189,.T.);
#189 = EDGE_LOOP('',(#190,#191,#192,#193));
#190 = ORIENTED_EDGE('',*,*,#65,.T.);
#191 = ORIENTED_EDGE('',*,*,#96,.T.);
#192 = ORIENTED_EDGE('',*,*,#127,.T.);
#193 = ORIENTED_EDGE('',*,*,#158,.T.);
#194 = PLANE('',#195);
#195 = AXIS2_PLACEMENT_3D('',#196,#197,#198);
#196 = CARTESIAN_POINT('',(775.99999931844,722.40980949621,3.));
#197 = DIRECTION('',(0.,0.,1.));
#198 = DIRECTION('',(1.,0.,0.));
#199 = ( GEOMETRIC_REPRESENTATION_CONTEXT(3) 
GLOBAL_UNCERTAINTY_ASSIGNED_CONTEXT((#203)) GLOBAL_UNIT_ASSIGNED_CONTEXT
((#200,#201,#202)) REPRESENTATION_CONTEXT('Context #1',
  '3D Context with UNIT and UNCERTAINTY') );
#200 = ( LENGTH_UNIT() NAMED_UNIT(*) SI_UNIT($,.METRE.) );
#201 = ( NAMED_UNIT(*) PLANE_ANGLE_UNIT() SI_UNIT($,.RADIAN.) );
#202 = ( NAMED_UNIT(*) SI_UNIT($,.STERADIAN.) SOLID_ANGLE_UNIT() );
#203 = UNCERTAINTY_MEASURE_WITH_UNIT(LENGTH_MEASURE(1.E-07),#200,
  'distance_accuracy_value','confusion accuracy');
#204 = CONTEXT_DEPENDENT_SHAPE_REPRESENTATION(#205,#207);
#205 = ( REPRESENTATION_RELATIONSHIP('','',#48,#10) 
REPRESENTATION_RELATIONSHIP_WITH_TRANSFORMATION(#206) 
SHAPE_REPRESENTATION_RELATIONSHIP() );
#206 = ITEM_DEFINED_TRANSFORMATION('','',#11,#15);
#207 = PRODUCT_DEFINITION_SHAPE('Placement','Placement of an item',#208
  );
#208 = NEXT_ASSEMBLY_USAGE_OCCURRENCE('5','Body004','',#5,#43,$);
#209 = PRODUCT_RELATED_PRODUCT_CATEGORY('part',$,(#45));
#210 = SHAPE_DEFINITION_REPRESENTATION(#211,#217);
#211 = PRODUCT_DEFINITION_SHAPE('','',#212);
#212 = PRODUCT_DEFINITION('design','',#213,#216);
#213 = PRODUCT_DEFINITION_FORMATION('','',#214);
#214 = PRODUCT('Body003','Body003','',(#215));
#215 = PRODUCT_CONTEXT('',#2,'mechanical');
#216 = PRODUCT_DEFINITION_CONTEXT('part definition',#2,'design');
#217 = ADVANCED_BREP_SHAPE_REPRESENTATION('',(#11,#218),#368);
#218 = MANIFOLD_SOLID_BREP('',#219);
#219 = CLOSED_SHELL('',(#220,#260,#291,#322,#344,#356));
#220 = ADVANCED_FACE('',(#221),#255,.F.);
#221 = FACE_BOUND('',#222,.F.);
#222 = EDGE_LOOP('',(#223,#233,#241,#249));
#223 = ORIENTED_EDGE('',*,*,#224,.T.);
#224 = EDGE_CURVE('',#225,#227,#229,.T.);
#225 = VERTEX_POINT('',#226);
#226 = CARTESIAN_POINT('',(576.999999,767.409809,22.));
#227 = VERTEX_POINT('',#228);
#228 = CARTESIAN_POINT('',(576.999999,767.409809,122.));
#229 = LINE('',#230,#231);
#230 = CARTESIAN_POINT('',(576.999999,767.409809,22.));
#231 = VECTOR('',#232,1.);
#232 = DIRECTION('',(0.,0.,1.));
#233 = ORIENTED_EDGE('',*,*,#234,.T.);
#234 = EDGE_CURVE('',#227,#235,#237,.T.);
#235 = VERTEX_POINT('',#236);
#236 = CARTESIAN_POINT('',(576.999999,677.40980949621,122.));
#237 = LINE('',#238,#239);
#238 = CARTESIAN_POINT('',(576.999999,767.409809,122.));
#239 = VECTOR('',#240,1.);
#240 = DIRECTION('',(0.,-1.,0.));
#241 = ORIENTED_EDGE('',*,*,#242,.F.);
#242 = EDGE_CURVE('',#243,#235,#245,.T.);
#243 = VERTEX_POINT('',#244);
#244 = CARTESIAN_POINT('',(576.999999,677.40980949621,22.));
#245 = LINE('',#246,#247);
#246 = CARTESIAN_POINT('',(576.999999,677.40980949621,22.));
#247 = VECTOR('',#248,1.);
#248 = DIRECTION('',(0.,0.,1.));
#249 = ORIENTED_EDGE('',*,*,#250,.F.);
#250 = EDGE_CURVE('',#225,#243,#251,.T.);
#251 = LINE('',#252,#253);
#252 = CARTESIAN_POINT('',(576.999999,767.409809,22.));
#253 = VECTOR('',#254,1.);
#254 = DIRECTION('',(0.,-1.,0.));
#255 = PLANE('',#256);
#256 = AXIS2_PLACEMENT_3D('',#257,#258,#259);
#257 = CARTESIAN_POINT('',(576.999999,767.409809,22.));
#258 = DIRECTION('',(1.,0.,0.));
#259 = DIRECTION('',(0.,-1.,0.));
#260 = ADVANCED_FACE('',(#261),#286,.F.);
#261 = FACE_BOUND('',#262,.F.);
#262 = EDGE_LOOP('',(#263,#264,#272,#280));
#263 = ORIENTED_EDGE('',*,*,#242,.T.);
#264 = ORIENTED_EDGE('',*,*,#265,.T.);
#265 = EDGE_CURVE('',#235,#266,#268,.T.);
#266 = VERTEX_POINT('',#267);
#267 = CARTESIAN_POINT('',(666.999999,677.40980949621,122.));
#268 = LINE('',#269,#270);
#269 = CARTESIAN_POINT('',(576.999999,677.40980949621,122.));
#270 = VECTOR('',#271,1.);
#271 = DIRECTION('',(1.,0.,0.));
#272 = ORIENTED_EDGE('',*,*,#273,.F.);
#273 = EDGE_CURVE('',#274,#266,#276,.T.);
#274 = VERTEX_POINT('',#275);
#275 = CARTESIAN_POINT('',(666.999999,677.40980949621,22.));
#276 = LINE('',#277,#278);
#277 = CARTESIAN_POINT('',(666.999999,677.40980949621,22.));
#278 = VECTOR('',#279,1.);
#279 = DIRECTION('',(0.,0.,1.));
#280 = ORIENTED_EDGE('',*,*,#281,.F.);
#281 = EDGE_CURVE('',#243,#274,#282,.T.);
#282 = LINE('',#283,#284);
#283 = CARTESIAN_POINT('',(576.999999,677.40980949621,22.));
#284 = VECTOR('',#285,1.);
#285 = DIRECTION('',(1.,0.,0.));
#286 = PLANE('',#287);
#287 = AXIS2_PLACEMENT_3D('',#288,#289,#290);
#288 = CARTESIAN_POINT('',(576.999999,677.40980949621,22.));
#289 = DIRECTION('',(0.,1.,0.));
#290 = DIRECTION('',(1.,0.,0.));
#291 = ADVANCED_FACE('',(#292),#317,.F.);
#292 = FACE_BOUND('',#293,.F.);
#293 = EDGE_LOOP('',(#294,#295,#303,#311));
#294 = ORIENTED_EDGE('',*,*,#273,.T.);
#295 = ORIENTED_EDGE('',*,*,#296,.T.);
#296 = EDGE_CURVE('',#266,#297,#299,.T.);
#297 = VERTEX_POINT('',#298);
#298 = CARTESIAN_POINT('',(666.999999,767.409809,122.));
#299 = LINE('',#300,#301);
#300 = CARTESIAN_POINT('',(666.999999,677.40980949621,122.));
#301 = VECTOR('',#302,1.);
#302 = DIRECTION('',(0.,1.,0.));
#303 = ORIENTED_EDGE('',*,*,#304,.F.);
#304 = EDGE_CURVE('',#305,#297,#307,.T.);
#305 = VERTEX_POINT('',#306);
#306 = CARTESIAN_POINT('',(666.999999,767.409809,22.));
#307 = LINE('',#308,#309);
#308 = CARTESIAN_POINT('',(666.999999,767.409809,22.));
#309 = VECTOR('',#310,1.);
#310 = DIRECTION('',(0.,0.,1.));
#311 = ORIENTED_EDGE('',*,*,#312,.F.);
#312 = EDGE_CURVE('',#274,#305,#313,.T.);
#313 = LINE('',#314,#315);
#314 = CARTESIAN_POINT('',(666.999999,677.40980949621,22.));
#315 = VECTOR('',#316,1.);
#316 = DIRECTION('',(0.,1.,0.));
#317 = PLANE('',#318);
#318 = AXIS2_PLACEMENT_3D('',#319,#320,#321);
#319 = CARTESIAN_POINT('',(666.999999,677.40980949621,22.));
#320 = DIRECTION('',(-1.,0.,0.));
#321 = DIRECTION('',(0.,1.,0.));
#322 = ADVANCED_FACE('',(#323),#339,.F.);
#323 = FACE_BOUND('',#324,.F.);
#324 = EDGE_LOOP('',(#325,#326,#332,#333));
#325 = ORIENTED_EDGE('',*,*,#304,.T.);
#326 = ORIENTED_EDGE('',*,*,#327,.T.);
#327 = EDGE_CURVE('',#297,#227,#328,.T.);
#328 = LINE('',#329,#330);
#329 = CARTESIAN_POINT('',(666.999999,767.409809,122.));
#330 = VECTOR('',#331,1.);
#331 = DIRECTION('',(-1.,0.,0.));
#332 = ORIENTED_EDGE('',*,*,#224,.F.);
#333 = ORIENTED_EDGE('',*,*,#334,.F.);
#334 = EDGE_CURVE('',#305,#225,#335,.T.);
#335 = LINE('',#336,#337);
#336 = CARTESIAN_POINT('',(666.999999,767.409809,22.));
#337 = VECTOR('',#338,1.);
#338 = DIRECTION('',(-1.,0.,0.));
#339 = PLANE('',#340);
#340 = AXIS2_PLACEMENT_3D('',#341,#342,#343);
#341 = CARTESIAN_POINT('',(666.999999,767.409809,22.));
#342 = DIRECTION('',(0.,-1.,0.));
#343 = DIRECTION('',(-1.,0.,0.));
#344 = ADVANCED_FACE('',(#345),#351,.F.);
#345 = FACE_BOUND('',#346,.F.);
#346 = EDGE_LOOP('',(#347,#348,#349,#350));
#347 = ORIENTED_EDGE('',*,*,#250,.T.);
#348 = ORIENTED_EDGE('',*,*,#281,.T.);
#349 = ORIENTED_EDGE('',*,*,#312,.T.);
#350 = ORIENTED_EDGE('',*,*,#334,.T.);
#351 = PLANE('',#352);
#352 = AXIS2_PLACEMENT_3D('',#353,#354,#355);
#353 = CARTESIAN_POINT('',(621.999999,722.4098092481,22.));
#354 = DIRECTION('',(0.,0.,1.));
#355 = DIRECTION('',(1.,0.,0.));
#356 = ADVANCED_FACE('',(#357),#363,.T.);
#357 = FACE_BOUND('',#358,.T.);
#358 = EDGE_LOOP('',(#359,#360,#361,#362));
#359 = ORIENTED_EDGE('',*,*,#234,.T.);
#360 = ORIENTED_EDGE('',*,*,#265,.T.);
#361 = ORIENTED_EDGE('',*,*,#296,.T.);
#362 = ORIENTED_EDGE('',*,*,#327,.T.);
#363 = PLANE('',#364);
#364 = AXIS2_PLACEMENT_3D('',#365,#366,#367);
#365 = CARTESIAN_POINT('',(621.999999,722.4098092481,122.));
#366 = DIRECTION('',(0.,0.,1.));
#367 = DIRECTION('',(1.,0.,0.));
#368 = ( GEOMETRIC_REPRESENTATION_CONTEXT(3) 
GLOBAL_UNCERTAINTY_ASSIGNED_CONTEXT((#372)) GLOBAL_UNIT_ASSIGNED_CONTEXT
((#369,#370,#371)) REPRESENTATION_CONTEXT('Context #1',
  '3D Context with UNIT and UNCERTAINTY') );
#369 = ( LENGTH_UNIT() NAMED_UNIT(*) SI_UNIT($,.METRE.) );
#370 = ( NAMED_UNIT(*) PLANE_ANGLE_UNIT() SI_UNIT($,.RADIAN.) );
#371 = ( NAMED_UNIT(*) SI_UNIT($,.STERADIAN.) SOLID_ANGLE_UNIT() );
#372 = UNCERTAINTY_MEASURE_WITH_UNIT(LENGTH_MEASURE(1.E-07),#369,
  'distance_accuracy_value','confusion accuracy');
#373 = CONTEXT_DEPENDENT_SHAPE_REPRESENTATION(#374,#376);
#374 = ( REPRESENTATION_RELATIONSHIP('','',#217,#10) 
REPRESENTATION_RELATIONSHIP_WITH_TRANSFORMATION(#375) 
SHAPE_REPRESENTATION_RELATIONSHIP() );
#375 = ITEM_DEFINED_TRANSFORMATION('','',#11,#19);
#376 = PRODUCT_DEFINITION_SHAPE('Placement','Placement of an item',#377
  );
#377 = NEXT_ASSEMBLY_USAGE_OCCURRENCE('6','Body003','',#5,#212,$);
#378 = PRODUCT_RELATED_PRODUCT_CATEGORY('part',$,(#214));
#379 = SHAPE_DEFINITION_REPRESENTATION(#380,#386);
#380 = PRODUCT_DEFINITION_SHAPE('','',#381);
#381 = PRODUCT_DEFINITION('design','',#382,#385);
#382 = PRODUCT_DEFINITION_FORMATION('','',#383);
#383 = PRODUCT('Body002','Body002','',(#384));
#384 = PRODUCT_CONTEXT('',#2,'mechanical');
#385 = PRODUCT_DEFINITION_CONTEXT('part definition',#2,'design');
#386 = ADVANCED_BREP_SHAPE_REPRESENTATION('',(#11,#387),#603);
#387 = MANIFOLD_SOLID_BREP('',#388);
#388 = CLOSED_SHELL('',(#389,#429,#460,#491,#522,#553,#575,#589));
#389 = ADVANCED_FACE('',(#390),#424,.T.);
#390 = FACE_BOUND('',#391,.T.);
#391 = EDGE_LOOP('',(#392,#402,#410,#418));
#392 = ORIENTED_EDGE('',*,*,#393,.T.);
#393 = EDGE_CURVE('',#394,#396,#398,.T.);
#394 = VERTEX_POINT('',#395);
#395 = CARTESIAN_POINT('',(1.060000000005E+03,722.40980949621,0.));
#396 = VERTEX_POINT('',#397);
#397 = CARTESIAN_POINT('',(1.060000000005E+03,722.40980949621,22.));
#398 = LINE('',#399,#400);
#399 = CARTESIAN_POINT('',(1.060000000005E+03,722.40980949621,0.));
#400 = VECTOR('',#401,1.);
#401 = DIRECTION('',(0.,0.,1.));
#402 = ORIENTED_EDGE('',*,*,#403,.T.);
#403 = EDGE_CURVE('',#396,#404,#406,.T.);
#404 = VERTEX_POINT('',#405);
#405 = CARTESIAN_POINT('',(1.060000000005E+03,677.40980949621,22.));
#406 = LINE('',#407,#408);
#407 = CARTESIAN_POINT('',(1.060000000005E+03,722.40980949621,22.));
#408 = VECTOR('',#409,1.);
#409 = DIRECTION('',(0.,-1.,0.));
#410 = ORIENTED_EDGE('',*,*,#411,.F.);
#411 = EDGE_CURVE('',#412,#404,#414,.T.);
#412 = VERTEX_POINT('',#413);
#413 = CARTESIAN_POINT('',(1.060000000005E+03,677.40980949621,0.));
#414 = LINE('',#415,#416);
#415 = CARTESIAN_POINT('',(1.060000000005E+03,677.40980949621,0.));
#416 = VECTOR('',#417,1.);
#417 = DIRECTION('',(0.,0.,1.));
#418 = ORIENTED_EDGE('',*,*,#419,.F.);
#419 = EDGE_CURVE('',#394,#412,#420,.T.);
#420 = LINE('',#421,#422);
#421 = CARTESIAN_POINT('',(1.060000000005E+03,722.40980949621,0.));
#422 = VECTOR('',#423,1.);
#423 = DIRECTION('',(0.,-1.,0.));
#424 = PLANE('',#425);
#425 = AXIS2_PLACEMENT_3D('',#426,#427,#428);
#426 = CARTESIAN_POINT('',(1.060000000005E+03,722.40980949621,0.));
#427 = DIRECTION('',(1.,0.,0.));
#428 = DIRECTION('',(0.,-1.,0.));
#429 = ADVANCED_FACE('',(#430),#455,.T.);
#430 = FACE_BOUND('',#431,.T.);
#431 = EDGE_LOOP('',(#432,#433,#441,#449));
#432 = ORIENTED_EDGE('',*,*,#411,.T.);
#433 = ORIENTED_EDGE('',*,*,#434,.T.);
#434 = EDGE_CURVE('',#404,#435,#437,.T.);
#435 = VERTEX_POINT('',#436);
#436 = CARTESIAN_POINT('',(491.99999863205,677.40980949621,22.));
#437 = LINE('',#438,#439);
#438 = CARTESIAN_POINT('',(1.060000000005E+03,677.40980949621,22.));
#439 = VECTOR('',#440,1.);
#440 = DIRECTION('',(-1.,0.,0.));
#441 = ORIENTED_EDGE('',*,*,#442,.F.);
#442 = EDGE_CURVE('',#443,#435,#445,.T.);
#443 = VERTEX_POINT('',#444);
#444 = CARTESIAN_POINT('',(491.99999863205,677.40980949621,0.));
#445 = LINE('',#446,#447);
#446 = CARTESIAN_POINT('',(491.99999863205,677.40980949621,0.));
#447 = VECTOR('',#448,1.);
#448 = DIRECTION('',(0.,0.,1.));
#449 = ORIENTED_EDGE('',*,*,#450,.F.);
#450 = EDGE_CURVE('',#412,#443,#451,.T.);
#451 = LINE('',#452,#453);
#452 = CARTESIAN_POINT('',(1.060000000005E+03,677.40980949621,0.));
#453 = VECTOR('',#454,1.);
#454 = DIRECTION('',(-1.,0.,0.));
#455 = PLANE('',#456);
#456 = AXIS2_PLACEMENT_3D('',#457,#458,#459);
#457 = CARTESIAN_POINT('',(1.060000000005E+03,677.40980949621,0.));
#458 = DIRECTION('',(-0.,-1.,-0.));
#459 = DIRECTION('',(-1.,0.,0.));
#460 = ADVANCED_FACE('',(#461),#486,.T.);
#461 = FACE_BOUND('',#462,.T.);
#462 = EDGE_LOOP('',(#463,#464,#472,#480));
#463 = ORIENTED_EDGE('',*,*,#442,.T.);
#464 = ORIENTED_EDGE('',*,*,#465,.T.);
#465 = EDGE_CURVE('',#435,#466,#468,.T.);
#466 = VERTEX_POINT('',#467);
#467 = CARTESIAN_POINT('',(491.99999863205,722.40980949621,22.));
#468 = LINE('',#469,#470);
#469 = CARTESIAN_POINT('',(491.99999863205,677.40980949621,22.));
#470 = VECTOR('',#471,1.);
#471 = DIRECTION('',(0.,1.,0.));
#472 = ORIENTED_EDGE('',*,*,#473,.F.);
#473 = EDGE_CURVE('',#474,#466,#476,.T.);
#474 = VERTEX_POINT('',#475);
#475 = CARTESIAN_POINT('',(491.99999863205,722.40980949621,0.));
#476 = LINE('',#477,#478);
#477 = CARTESIAN_POINT('',(491.99999863205,722.40980949621,0.));
#478 = VECTOR('',#479,1.);
#479 = DIRECTION('',(0.,0.,1.));
#480 = ORIENTED_EDGE('',*,*,#481,.F.);
#481 = EDGE_CURVE('',#443,#474,#482,.T.);
#482 = LINE('',#483,#484);
#483 = CARTESIAN_POINT('',(491.99999863205,677.40980949621,0.));
#484 = VECTOR('',#485,1.);
#485 = DIRECTION('',(0.,1.,0.));
#486 = PLANE('',#487);
#487 = AXIS2_PLACEMENT_3D('',#488,#489,#490);
#488 = CARTESIAN_POINT('',(491.99999863205,677.40980949621,0.));
#489 = DIRECTION('',(-1.,0.,0.));
#490 = DIRECTION('',(0.,1.,0.));
#491 = ADVANCED_FACE('',(#492),#517,.T.);
#492 = FACE_BOUND('',#493,.T.);
#493 = EDGE_LOOP('',(#494,#495,#503,#511));
#494 = ORIENTED_EDGE('',*,*,#473,.T.);
#495 = ORIENTED_EDGE('',*,*,#496,.T.);
#496 = EDGE_CURVE('',#466,#497,#499,.T.);
#497 = VERTEX_POINT('',#498);
#498 = CARTESIAN_POINT('',(491.99999863205,767.40980949621,22.));
#499 = LINE('',#500,#501);
#500 = CARTESIAN_POINT('',(491.99999863205,722.40980949621,22.));
#501 = VECTOR('',#502,1.);
#502 = DIRECTION('',(0.,1.,0.));
#503 = ORIENTED_EDGE('',*,*,#504,.F.);
#504 = EDGE_CURVE('',#505,#497,#507,.T.);
#505 = VERTEX_POINT('',#506);
#506 = CARTESIAN_POINT('',(491.99999863205,767.40980949621,0.));
#507 = LINE('',#508,#509);
#508 = CARTESIAN_POINT('',(491.99999863205,767.40980949621,0.));
#509 = VECTOR('',#510,1.);
#510 = DIRECTION('',(0.,0.,1.));
#511 = ORIENTED_EDGE('',*,*,#512,.F.);
#512 = EDGE_CURVE('',#474,#505,#513,.T.);
#513 = LINE('',#514,#515);
#514 = CARTESIAN_POINT('',(491.99999863205,722.40980949621,0.));
#515 = VECTOR('',#516,1.);
#516 = DIRECTION('',(0.,1.,0.));
#517 = PLANE('',#518);
#518 = AXIS2_PLACEMENT_3D('',#519,#520,#521);
#519 = CARTESIAN_POINT('',(491.99999863205,722.40980949621,0.));
#520 = DIRECTION('',(-1.,0.,0.));
#521 = DIRECTION('',(0.,1.,0.));
#522 = ADVANCED_FACE('',(#523),#548,.T.);
#523 = FACE_BOUND('',#524,.T.);
#524 = EDGE_LOOP('',(#525,#526,#534,#542));
#525 = ORIENTED_EDGE('',*,*,#504,.T.);
#526 = ORIENTED_EDGE('',*,*,#527,.T.);
#527 = EDGE_CURVE('',#497,#528,#530,.T.);
#528 = VERTEX_POINT('',#529);
#529 = CARTESIAN_POINT('',(1.060000000005E+03,767.40980949621,22.));
#530 = LINE('',#531,#532);
#531 = CARTESIAN_POINT('',(491.99999863205,767.40980949621,22.));
#532 = VECTOR('',#533,1.);
#533 = DIRECTION('',(1.,0.,0.));
#534 = ORIENTED_EDGE('',*,*,#535,.F.);
#535 = EDGE_CURVE('',#536,#528,#538,.T.);
#536 = VERTEX_POINT('',#537);
#537 = CARTESIAN_POINT('',(1.060000000005E+03,767.40980949621,0.));
#538 = LINE('',#539,#540);
#539 = CARTESIAN_POINT('',(1.060000000005E+03,767.40980949621,0.));
#540 = VECTOR('',#541,1.);
#541 = DIRECTION('',(0.,0.,1.));
#542 = ORIENTED_EDGE('',*,*,#543,.F.);
#543 = EDGE_CURVE('',#505,#536,#544,.T.);
#544 = LINE('',#545,#546);
#545 = CARTESIAN_POINT('',(491.99999863205,767.40980949621,0.));
#546 = VECTOR('',#547,1.);
#547 = DIRECTION('',(1.,0.,0.));
#548 = PLANE('',#549);
#549 = AXIS2_PLACEMENT_3D('',#550,#551,#552);
#550 = CARTESIAN_POINT('',(491.99999863205,767.40980949621,0.));
#551 = DIRECTION('',(0.,1.,0.));
#552 = DIRECTION('',(1.,0.,0.));
#553 = ADVANCED_FACE('',(#554),#570,.T.);
#554 = FACE_BOUND('',#555,.T.);
#555 = EDGE_LOOP('',(#556,#557,#563,#564));
#556 = ORIENTED_EDGE('',*,*,#535,.T.);
#557 = ORIENTED_EDGE('',*,*,#558,.T.);
#558 = EDGE_CURVE('',#528,#396,#559,.T.);
#559 = LINE('',#560,#561);
#560 = CARTESIAN_POINT('',(1.060000000005E+03,767.40980949621,22.));
#561 = VECTOR('',#562,1.);
#562 = DIRECTION('',(0.,-1.,0.));
#563 = ORIENTED_EDGE('',*,*,#393,.F.);
#564 = ORIENTED_EDGE('',*,*,#565,.F.);
#565 = EDGE_CURVE('',#536,#394,#566,.T.);
#566 = LINE('',#567,#568);
#567 = CARTESIAN_POINT('',(1.060000000005E+03,767.40980949621,0.));
#568 = VECTOR('',#569,1.);
#569 = DIRECTION('',(0.,-1.,0.));
#570 = PLANE('',#571);
#571 = AXIS2_PLACEMENT_3D('',#572,#573,#574);
#572 = CARTESIAN_POINT('',(1.060000000005E+03,767.40980949621,0.));
#573 = DIRECTION('',(1.,0.,0.));
#574 = DIRECTION('',(0.,-1.,0.));
#575 = ADVANCED_FACE('',(#576),#584,.F.);
#576 = FACE_BOUND('',#577,.T.);
#577 = EDGE_LOOP('',(#578,#579,#580,#581,#582,#583));
#578 = ORIENTED_EDGE('',*,*,#419,.T.);
#579 = ORIENTED_EDGE('',*,*,#450,.T.);
#580 = ORIENTED_EDGE('',*,*,#481,.T.);
#581 = ORIENTED_EDGE('',*,*,#512,.T.);
#582 = ORIENTED_EDGE('',*,*,#543,.T.);
#583 = ORIENTED_EDGE('',*,*,#565,.T.);
#584 = PLANE('',#585);
#585 = AXIS2_PLACEMENT_3D('',#586,#587,#588);
#586 = CARTESIAN_POINT('',(775.99999931844,722.40980949621,0.));
#587 = DIRECTION('',(0.,0.,1.));
#588 = DIRECTION('',(1.,0.,0.));
#589 = ADVANCED_FACE('',(#590),#598,.T.);
#590 = FACE_BOUND('',#591,.F.);
#591 = EDGE_LOOP('',(#592,#593,#594,#595,#596,#597));
#592 = ORIENTED_EDGE('',*,*,#403,.T.);
#593 = ORIENTED_EDGE('',*,*,#434,.T.);
#594 = ORIENTED_EDGE('',*,*,#465,.T.);
#595 = ORIENTED_EDGE('',*,*,#496,.T.);
#596 = ORIENTED_EDGE('',*,*,#527,.T.);
#597 = ORIENTED_EDGE('',*,*,#558,.T.);
#598 = PLANE('',#599);
#599 = AXIS2_PLACEMENT_3D('',#600,#601,#602);
#600 = CARTESIAN_POINT('',(775.99999931844,722.40980949621,22.));
#601 = DIRECTION('',(0.,0.,1.));
#602 = DIRECTION('',(1.,0.,0.));
#603 = ( GEOMETRIC_REPRESENTATION_CONTEXT(3) 
GLOBAL_UNCERTAINTY_ASSIGNED_CONTEXT((#607)) GLOBAL_UNIT_ASSIGNED_CONTEXT
((#604,#605,#606)) REPRESENTATION_CONTEXT('Context #1',
  '3D Context with UNIT and UNCERTAINTY') );
#604 = ( LENGTH_UNIT() NAMED_UNIT(*) SI_UNIT($,.METRE.) );
#605 = ( NAMED_UNIT(*) PLANE_ANGLE_UNIT() SI_UNIT($,.RADIAN.) );
#606 = ( NAMED_UNIT(*) SI_UNIT($,.STERADIAN.) SOLID_ANGLE_UNIT() );
#607 = UNCERTAINTY_MEASURE_WITH_UNIT(LENGTH_MEASURE(1.E-07),#604,
  'distance_accuracy_value','confusion accuracy');
#608 = CONTEXT_DEPENDENT_SHAPE_REPRESENTATION(#609,#611);
#609 = ( REPRESENTATION_RELATIONSHIP('','',#386,#10) 
REPRESENTATION_RELATIONSHIP_WITH_TRANSFORMATION(#610) 
SHAPE_REPRESENTATION_RELATIONSHIP() );
#610 = ITEM_DEFINED_TRANSFORMATION('','',#11,#23);
#611 = PRODUCT_DEFINITION_SHAPE('Placement','Placement of an item',#612
  );
#612 = NEXT_ASSEMBLY_USAGE_OCCURRENCE('7','Body002','',#5,#381,$);
#613 = PRODUCT_RELATED_PRODUCT_CATEGORY('part',$,(#383));
#614 = SHAPE_DEFINITION_REPRESENTATION(#615,#621);
#615 = PRODUCT_DEFINITION_SHAPE('','',#616);
#616 = PRODUCT_DEFINITION('design','',#617,#620);
#617 = PRODUCT_DEFINITION_FORMATION('','',#618);
#618 = PRODUCT('Body001','Body001','',(#619));
#619 = PRODUCT_CONTEXT('',#2,'mechanical');
#620 = PRODUCT_DEFINITION_CONTEXT('part definition',#2,'design');
#621 = ADVANCED_BREP_SHAPE_REPRESENTATION('',(#11,#622),#831);
#622 = MANIFOLD_SOLID_BREP('',#623);
#623 = CLOSED_SHELL('',(#624,#657,#710,#763,#780,#797,#814));
#624 = ADVANCED_FACE('',(#625),#652,.T.);
#625 = FACE_BOUND('',#626,.F.);
#626 = EDGE_LOOP('',(#627,#637,#644,#645));
#627 = ORIENTED_EDGE('',*,*,#628,.T.);
#628 = EDGE_CURVE('',#629,#631,#633,.T.);
#629 = VERTEX_POINT('',#630);
#630 = CARTESIAN_POINT('',(691.999999,722.409809,122.));
#631 = VERTEX_POINT('',#632);
#632 = CARTESIAN_POINT('',(691.999999,722.409809,137.));
#633 = LINE('',#634,#635);
#634 = CARTESIAN_POINT('',(691.999999,722.409809,122.));
#635 = VECTOR('',#636,1.);
#636 = DIRECTION('',(0.,0.,1.));
#637 = ORIENTED_EDGE('',*,*,#638,.T.);
#638 = EDGE_CURVE('',#631,#631,#639,.T.);
#639 = CIRCLE('',#640,70.);
#640 = AXIS2_PLACEMENT_3D('',#641,#642,#643);
#641 = CARTESIAN_POINT('',(621.999999,722.409809,137.));
#642 = DIRECTION('',(0.,0.,1.));
#643 = DIRECTION('',(1.,0.,0.));
#644 = ORIENTED_EDGE('',*,*,#628,.F.);
#645 = ORIENTED_EDGE('',*,*,#646,.F.);
#646 = EDGE_CURVE('',#629,#629,#647,.T.);
#647 = CIRCLE('',#648,70.);
#648 = AXIS2_PLACEMENT_3D('',#649,#650,#651);
#649 = CARTESIAN_POINT('',(621.999999,722.409809,122.));
#650 = DIRECTION('',(0.,0.,1.));
#651 = DIRECTION('',(1.,0.,0.));
#652 = CYLINDRICAL_SURFACE('',#653,70.);
#653 = AXIS2_PLACEMENT_3D('',#654,#655,#656);
#654 = CARTESIAN_POINT('',(621.999999,722.409809,122.));
#655 = DIRECTION('',(-0.,-0.,-1.));
#656 = DIRECTION('',(1.,0.,0.));
#657 = ADVANCED_FACE('',(#658,#661,#672,#683,#694),#705,.F.);
#658 = FACE_BOUND('',#659,.F.);
#659 = EDGE_LOOP('',(#660));
#660 = ORIENTED_EDGE('',*,*,#646,.T.);
#661 = FACE_BOUND('',#662,.F.);
#662 = EDGE_LOOP('',(#663));
#663 = ORIENTED_EDGE('',*,*,#664,.T.);
#664 = EDGE_CURVE('',#665,#665,#667,.T.);
#665 = VERTEX_POINT('',#666);
#666 = CARTESIAN_POINT('',(576.420322,722.409809,122.));
#667 = CIRCLE('',#668,3.);
#668 = AXIS2_PLACEMENT_3D('',#669,#670,#671);
#669 = CARTESIAN_POINT('',(573.420322,722.409809,122.));
#670 = DIRECTION('',(0.,0.,-1.));
#671 = DIRECTION('',(1.,0.,0.));
#672 = FACE_BOUND('',#673,.F.);
#673 = EDGE_LOOP('',(#674));
#674 = ORIENTED_EDGE('',*,*,#675,.T.);
#675 = EDGE_CURVE('',#676,#676,#678,.T.);
#676 = VERTEX_POINT('',#677);
#677 = CARTESIAN_POINT('',(624.999999,673.830132,122.));
#678 = CIRCLE('',#679,3.);
#679 = AXIS2_PLACEMENT_3D('',#680,#681,#682);
#680 = CARTESIAN_POINT('',(621.999999,673.830132,122.));
#681 = DIRECTION('',(0.,0.,-1.));
#682 = DIRECTION('',(1.,0.,0.));
#683 = FACE_BOUND('',#684,.F.);
#684 = EDGE_LOOP('',(#685));
#685 = ORIENTED_EDGE('',*,*,#686,.T.);
#686 = EDGE_CURVE('',#687,#687,#689,.T.);
#687 = VERTEX_POINT('',#688);
#688 = CARTESIAN_POINT('',(673.579676,722.409809,122.));
#689 = CIRCLE('',#690,3.);
#690 = AXIS2_PLACEMENT_3D('',#691,#692,#693);
#691 = CARTESIAN_POINT('',(670.579676,722.409809,122.));
#692 = DIRECTION('',(0.,0.,-1.));
#693 = DIRECTION('',(1.,0.,0.));
#694 = FACE_BOUND('',#695,.F.);
#695 = EDGE_LOOP('',(#696));
#696 = ORIENTED_EDGE('',*,*,#697,.T.);
#697 = EDGE_CURVE('',#698,#698,#700,.T.);
#698 = VERTEX_POINT('',#699);
#699 = CARTESIAN_POINT('',(624.999999,770.989486,122.));
#700 = CIRCLE('',#701,3.);
#701 = AXIS2_PLACEMENT_3D('',#702,#703,#704);
#702 = CARTESIAN_POINT('',(621.999999,770.989486,122.));
#703 = DIRECTION('',(0.,0.,-1.));
#704 = DIRECTION('',(1.,0.,0.));
#705 = PLANE('',#706);
#706 = AXIS2_PLACEMENT_3D('',#707,#708,#709);
#707 = CARTESIAN_POINT('',(621.999999,722.409809,122.));
#708 = DIRECTION('',(0.,0.,1.));
#709 = DIRECTION('',(1.,0.,0.));
#710 = ADVANCED_FACE('',(#711,#714,#725,#736,#747),#758,.T.);
#711 = FACE_BOUND('',#712,.T.);
#712 = EDGE_LOOP('',(#713));
#713 = ORIENTED_EDGE('',*,*,#638,.T.);
#714 = FACE_BOUND('',#715,.T.);
#715 = EDGE_LOOP('',(#716));
#716 = ORIENTED_EDGE('',*,*,#717,.F.);
#717 = EDGE_CURVE('',#718,#718,#720,.T.);
#718 = VERTEX_POINT('',#719);
#719 = CARTESIAN_POINT('',(576.420322,722.409809,137.));
#720 = CIRCLE('',#721,3.);
#721 = AXIS2_PLACEMENT_3D('',#722,#723,#724);
#722 = CARTESIAN_POINT('',(573.420322,722.409809,137.));
#723 = DIRECTION('',(0.,0.,1.));
#724 = DIRECTION('',(1.,0.,0.));
#725 = FACE_BOUND('',#726,.T.);
#726 = EDGE_LOOP('',(#727));
#727 = ORIENTED_EDGE('',*,*,#728,.F.);
#728 = EDGE_CURVE('',#729,#729,#731,.T.);
#729 = VERTEX_POINT('',#730);
#730 = CARTESIAN_POINT('',(624.999999,673.830132,137.));
#731 = CIRCLE('',#732,3.);
#732 = AXIS2_PLACEMENT_3D('',#733,#734,#735);
#733 = CARTESIAN_POINT('',(621.999999,673.830132,137.));
#734 = DIRECTION('',(0.,0.,1.));
#735 = DIRECTION('',(1.,0.,0.));
#736 = FACE_BOUND('',#737,.T.);
#737 = EDGE_LOOP('',(#738));
#738 = ORIENTED_EDGE('',*,*,#739,.F.);
#739 = EDGE_CURVE('',#740,#740,#742,.T.);
#740 = VERTEX_POINT('',#741);
#741 = CARTESIAN_POINT('',(673.579676,722.409809,137.));
#742 = CIRCLE('',#743,3.);
#743 = AXIS2_PLACEMENT_3D('',#744,#745,#746);
#744 = CARTESIAN_POINT('',(670.579676,722.409809,137.));
#745 = DIRECTION('',(0.,0.,1.));
#746 = DIRECTION('',(1.,0.,0.));
#747 = FACE_BOUND('',#748,.T.);
#748 = EDGE_LOOP('',(#749));
#749 = ORIENTED_EDGE('',*,*,#750,.F.);
#750 = EDGE_CURVE('',#751,#751,#753,.T.);
#751 = VERTEX_POINT('',#752);
#752 = CARTESIAN_POINT('',(624.999999,770.989486,137.));
#753 = CIRCLE('',#754,3.);
#754 = AXIS2_PLACEMENT_3D('',#755,#756,#757);
#755 = CARTESIAN_POINT('',(621.999999,770.989486,137.));
#756 = DIRECTION('',(0.,0.,1.));
#757 = DIRECTION('',(1.,0.,0.));
#758 = PLANE('',#759);
#759 = AXIS2_PLACEMENT_3D('',#760,#761,#762);
#760 = CARTESIAN_POINT('',(621.999999,722.409809,137.));
#761 = DIRECTION('',(0.,0.,1.));
#762 = DIRECTION('',(1.,0.,0.));
#763 = ADVANCED_FACE('',(#764),#775,.F.);
#764 = FACE_BOUND('',#765,.T.);
#765 = EDGE_LOOP('',(#766,#772,#773,#774));
#766 = ORIENTED_EDGE('',*,*,#767,.F.);
#767 = EDGE_CURVE('',#718,#665,#768,.T.);
#768 = LINE('',#769,#770);
#769 = CARTESIAN_POINT('',(576.420322,722.409809,137.));
#770 = VECTOR('',#771,1.);
#771 = DIRECTION('',(-5.329070518201E-17,0.,-1.));
#772 = ORIENTED_EDGE('',*,*,#717,.T.);
#773 = ORIENTED_EDGE('',*,*,#767,.T.);
#774 = ORIENTED_EDGE('',*,*,#664,.T.);
#775 = CYLINDRICAL_SURFACE('',#776,3.);
#776 = AXIS2_PLACEMENT_3D('',#777,#778,#779);
#777 = CARTESIAN_POINT('',(573.420322,722.409809,137.));
#778 = DIRECTION('',(-0.,-0.,-1.));
#779 = DIRECTION('',(1.,0.,0.));
#780 = ADVANCED_FACE('',(#781),#792,.F.);
#781 = FACE_BOUND('',#782,.T.);
#782 = EDGE_LOOP('',(#783,#789,#790,#791));
#783 = ORIENTED_EDGE('',*,*,#784,.F.);
#784 = EDGE_CURVE('',#729,#676,#785,.T.);
#785 = LINE('',#786,#787);
#786 = CARTESIAN_POINT('',(624.999999,673.830132,137.));
#787 = VECTOR('',#788,1.);
#788 = DIRECTION('',(-5.329070518201E-17,0.,-1.));
#789 = ORIENTED_EDGE('',*,*,#728,.T.);
#790 = ORIENTED_EDGE('',*,*,#784,.T.);
#791 = ORIENTED_EDGE('',*,*,#675,.T.);
#792 = CYLINDRICAL_SURFACE('',#793,3.);
#793 = AXIS2_PLACEMENT_3D('',#794,#795,#796);
#794 = CARTESIAN_POINT('',(621.999999,673.830132,137.));
#795 = DIRECTION('',(-0.,-0.,-1.));
#796 = DIRECTION('',(1.,0.,0.));
#797 = ADVANCED_FACE('',(#798),#809,.F.);
#798 = FACE_BOUND('',#799,.T.);
#799 = EDGE_LOOP('',(#800,#806,#807,#808));
#800 = ORIENTED_EDGE('',*,*,#801,.F.);
#801 = EDGE_CURVE('',#740,#687,#802,.T.);
#802 = LINE('',#803,#804);
#803 = CARTESIAN_POINT('',(673.579676,722.409809,137.));
#804 = VECTOR('',#805,1.);
#805 = DIRECTION('',(-5.329070518201E-17,0.,-1.));
#806 = ORIENTED_EDGE('',*,*,#739,.T.);
#807 = ORIENTED_EDGE('',*,*,#801,.T.);
#808 = ORIENTED_EDGE('',*,*,#686,.T.);
#809 = CYLINDRICAL_SURFACE('',#810,3.);
#810 = AXIS2_PLACEMENT_3D('',#811,#812,#813);
#811 = CARTESIAN_POINT('',(670.579676,722.409809,137.));
#812 = DIRECTION('',(-0.,-0.,-1.));
#813 = DIRECTION('',(1.,0.,0.));
#814 = ADVANCED_FACE('',(#815),#826,.F.);
#815 = FACE_BOUND('',#816,.T.);
#816 = EDGE_LOOP('',(#817,#823,#824,#825));
#817 = ORIENTED_EDGE('',*,*,#818,.F.);
#818 = EDGE_CURVE('',#751,#698,#819,.T.);
#819 = LINE('',#820,#821);
#820 = CARTESIAN_POINT('',(624.999999,770.989486,137.));
#821 = VECTOR('',#822,1.);
#822 = DIRECTION('',(-5.329070518201E-17,0.,-1.));
#823 = ORIENTED_EDGE('',*,*,#750,.T.);
#824 = ORIENTED_EDGE('',*,*,#818,.T.);
#825 = ORIENTED_EDGE('',*,*,#697,.T.);
#826 = CYLINDRICAL_SURFACE('',#827,3.);
#827 = AXIS2_PLACEMENT_3D('',#828,#829,#830);
#828 = CARTESIAN_POINT('',(621.999999,770.989486,137.));
#829 = DIRECTION('',(-0.,-0.,-1.));
#830 = DIRECTION('',(1.,0.,0.));
#831 = ( GEOMETRIC_REPRESENTATION_CONTEXT(3) 
GLOBAL_UNCERTAINTY_ASSIGNED_CONTEXT((#835)) GLOBAL_UNIT_ASSIGNED_CONTEXT
((#832,#833,#834)) REPRESENTATION_CONTEXT('Context #1',
  '3D Context with UNIT and UNCERTAINTY') );
#832 = ( LENGTH_UNIT() NAMED_UNIT(*) SI_UNIT($,.METRE.) );
#833 = ( NAMED_UNIT(*) PLANE_ANGLE_UNIT() SI_UNIT($,.RADIAN.) );
#834 = ( NAMED_UNIT(*) SI_UNIT($,.STERADIAN.) SOLID_ANGLE_UNIT() );
#835 = UNCERTAINTY_MEASURE_WITH_UNIT(LENGTH_MEASURE(1.E-07),#832,
  'distance_accuracy_value','confusion accuracy');
#836 = CONTEXT_DEPENDENT_SHAPE_REPRESENTATION(#837,#839);
#837 = ( REPRESENTATION_RELATIONSHIP('','',#621,#10) 
REPRESENTATION_RELATIONSHIP_WITH_TRANSFORMATION(#838) 
SHAPE_REPRESENTATION_RELATIONSHIP() );
#838 = ITEM_DEFINED_TRANSFORMATION('','',#11,#27);
#839 = PRODUCT_DEFINITION_SHAPE('Placement','Placement of an item',#840
  );
#840 = NEXT_ASSEMBLY_USAGE_OCCURRENCE('8','Body001','',#5,#616,$);
#841 = PRODUCT_RELATED_PRODUCT_CATEGORY('part',$,(#618));
#842 = SHAPE_DEFINITION_REPRESENTATION(#843,#849);
#843 = PRODUCT_DEFINITION_SHAPE('','',#844);
#844 = PRODUCT_DEFINITION('design','',#845,#848);
#845 = PRODUCT_DEFINITION_FORMATION('','',#846);
#846 = PRODUCT('Body','Body','',(#847));
#847 = PRODUCT_CONTEXT('',#2,'mechanical');
#848 = PRODUCT_DEFINITION_CONTEXT('part definition',#2,'design');
#849 = ADVANCED_BREP_SHAPE_REPRESENTATION('',(#11,#850),#1268);
#850 = MANIFOLD_SOLID_BREP('',#851);
#851 = CLOSED_SHELL('',(#852,#892,#923,#954,#985,#1016,#1047,#1078,#1100
    ,#1140,#1171,#1202,#1224,#1246));
#852 = ADVANCED_FACE('',(#853),#887,.F.);
#853 = FACE_BOUND('',#854,.F.);
#854 = EDGE_LOOP('',(#855,#865,#873,#881));
#855 = ORIENTED_EDGE('',*,*,#856,.T.);
#856 = EDGE_CURVE('',#857,#859,#861,.T.);
#857 = VERTEX_POINT('',#858);
#858 = CARTESIAN_POINT('',(7.53261819486E-07,39.822546244998,0.));
#859 = VERTEX_POINT('',#860);
#860 = CARTESIAN_POINT('',(7.53261819486E-07,39.822546244998,90.));
#861 = LINE('',#862,#863);
#862 = CARTESIAN_POINT('',(7.53261819486E-07,39.822546244998,0.));
#863 = VECTOR('',#864,1.);
#864 = DIRECTION('',(0.,0.,1.));
#865 = ORIENTED_EDGE('',*,*,#866,.T.);
#866 = EDGE_CURVE('',#859,#867,#869,.T.);
#867 = VERTEX_POINT('',#868);
#868 = CARTESIAN_POINT('',(7.53261819486E-07,0.,90.));
#869 = LINE('',#870,#871);
#870 = CARTESIAN_POINT('',(7.53261819486E-07,39.822546244998,90.));
#871 = VECTOR('',#872,1.);
#872 = DIRECTION('',(0.,-1.,0.));
#873 = ORIENTED_EDGE('',*,*,#874,.F.);
#874 = EDGE_CURVE('',#875,#867,#877,.T.);
#875 = VERTEX_POINT('',#876);
#876 = CARTESIAN_POINT('',(7.53261819486E-07,0.,0.));
#877 = LINE('',#878,#879);
#878 = CARTESIAN_POINT('',(7.53261819486E-07,0.,0.));
#879 = VECTOR('',#880,1.);
#880 = DIRECTION('',(0.,0.,1.));
#881 = ORIENTED_EDGE('',*,*,#882,.F.);
#882 = EDGE_CURVE('',#857,#875,#883,.T.);
#883 = LINE('',#884,#885);
#884 = CARTESIAN_POINT('',(7.53261819486E-07,39.822546244998,0.));
#885 = VECTOR('',#886,1.);
#886 = DIRECTION('',(0.,-1.,0.));
#887 = PLANE('',#888);
#888 = AXIS2_PLACEMENT_3D('',#889,#890,#891);
#889 = CARTESIAN_POINT('',(7.53261819486E-07,39.822546244998,0.));
#890 = DIRECTION('',(1.,0.,0.));
#891 = DIRECTION('',(0.,-1.,0.));
#892 = ADVANCED_FACE('',(#893),#918,.F.);
#893 = FACE_BOUND('',#894,.F.);
#894 = EDGE_LOOP('',(#895,#896,#904,#912));
#895 = ORIENTED_EDGE('',*,*,#874,.T.);
#896 = ORIENTED_EDGE('',*,*,#897,.T.);
#897 = EDGE_CURVE('',#867,#898,#900,.T.);
#898 = VERTEX_POINT('',#899);
#899 = CARTESIAN_POINT('',(1.1E+03,0.,90.));
#900 = LINE('',#901,#902);
#901 = CARTESIAN_POINT('',(7.53261819486E-07,0.,90.));
#902 = VECTOR('',#903,1.);
#903 = DIRECTION('',(1.,0.,0.));
#904 = ORIENTED_EDGE('',*,*,#905,.F.);
#905 = EDGE_CURVE('',#906,#898,#908,.T.);
#906 = VERTEX_POINT('',#907);
#907 = CARTESIAN_POINT('',(1.1E+03,0.,0.));
#908 = LINE('',#909,#910);
#909 = CARTESIAN_POINT('',(1.1E+03,0.,0.));
#910 = VECTOR('',#911,1.);
#911 = DIRECTION('',(0.,0.,1.));
#912 = ORIENTED_EDGE('',*,*,#913,.F.);
#913 = EDGE_CURVE('',#875,#906,#914,.T.);
#914 = LINE('',#915,#916);
#915 = CARTESIAN_POINT('',(7.53261819486E-07,0.,0.));
#916 = VECTOR('',#917,1.);
#917 = DIRECTION('',(1.,0.,0.));
#918 = PLANE('',#919);
#919 = AXIS2_PLACEMENT_3D('',#920,#921,#922);
#920 = CARTESIAN_POINT('',(7.53261819486E-07,0.,0.));
#921 = DIRECTION('',(0.,1.,0.));
#922 = DIRECTION('',(1.,0.,0.));
#923 = ADVANCED_FACE('',(#924),#949,.F.);
#924 = FACE_BOUND('',#925,.F.);
#925 = EDGE_LOOP('',(#926,#927,#935,#943));
#926 = ORIENTED_EDGE('',*,*,#905,.T.);
#927 = ORIENTED_EDGE('',*,*,#928,.T.);
#928 = EDGE_CURVE('',#898,#929,#931,.T.);
#929 = VERTEX_POINT('',#930);
#930 = CARTESIAN_POINT('',(1.1E+03,1.444997073E+03,90.));
#931 = LINE('',#932,#933);
#932 = CARTESIAN_POINT('',(1.1E+03,0.,90.));
#933 = VECTOR('',#934,1.);
#934 = DIRECTION('',(0.,1.,0.));
#935 = ORIENTED_EDGE('',*,*,#936,.F.);
#936 = EDGE_CURVE('',#937,#929,#939,.T.);
#937 = VERTEX_POINT('',#938);
#938 = CARTESIAN_POINT('',(1.1E+03,1.444997073E+03,0.));
#939 = LINE('',#940,#941);
#940 = CARTESIAN_POINT('',(1.1E+03,1.444997073E+03,0.));
#941 = VECTOR('',#942,1.);
#942 = DIRECTION('',(0.,0.,1.));
#943 = ORIENTED_EDGE('',*,*,#944,.F.);
#944 = EDGE_CURVE('',#906,#937,#945,.T.);
#945 = LINE('',#946,#947);
#946 = CARTESIAN_POINT('',(1.1E+03,0.,0.));
#947 = VECTOR('',#948,1.);
#948 = DIRECTION('',(0.,1.,0.));
#949 = PLANE('',#950);
#950 = AXIS2_PLACEMENT_3D('',#951,#952,#953);
#951 = CARTESIAN_POINT('',(1.1E+03,0.,0.));
#952 = DIRECTION('',(-1.,0.,0.));
#953 = DIRECTION('',(0.,1.,0.));
#954 = ADVANCED_FACE('',(#955),#980,.F.);
#955 = FACE_BOUND('',#956,.F.);
#956 = EDGE_LOOP('',(#957,#958,#966,#974));
#957 = ORIENTED_EDGE('',*,*,#936,.T.);
#958 = ORIENTED_EDGE('',*,*,#959,.T.);
#959 = EDGE_CURVE('',#929,#960,#962,.T.);
#960 = VERTEX_POINT('',#961);
#961 = CARTESIAN_POINT('',(0.,1.444997072747E+03,90.));
#962 = LINE('',#963,#964);
#963 = CARTESIAN_POINT('',(1.1E+03,1.444997073E+03,90.));
#964 = VECTOR('',#965,1.);
#965 = DIRECTION('',(-1.,-2.296145463664E-10,0.));
#966 = ORIENTED_EDGE('',*,*,#967,.F.);
#967 = EDGE_CURVE('',#968,#960,#970,.T.);
#968 = VERTEX_POINT('',#969);
#969 = CARTESIAN_POINT('',(0.,1.444997072747E+03,0.));
#970 = LINE('',#971,#972);
#971 = CARTESIAN_POINT('',(0.,1.444997072747E+03,0.));
#972 = VECTOR('',#973,1.);
#973 = DIRECTION('',(0.,0.,1.));
#974 = ORIENTED_EDGE('',*,*,#975,.F.);
#975 = EDGE_CURVE('',#937,#968,#976,.T.);
#976 = LINE('',#977,#978);
#977 = CARTESIAN_POINT('',(1.1E+03,1.444997073E+03,0.));
#978 = VECTOR('',#979,1.);
#979 = DIRECTION('',(-1.,-2.296145463664E-10,0.));
#980 = PLANE('',#981);
#981 = AXIS2_PLACEMENT_3D('',#982,#983,#984);
#982 = CARTESIAN_POINT('',(1.1E+03,1.444997073E+03,0.));
#983 = DIRECTION('',(2.296145463664E-10,-1.,0.));
#984 = DIRECTION('',(-1.,-2.296145463664E-10,0.));
#985 = ADVANCED_FACE('',(#986),#1011,.F.);
#986 = FACE_BOUND('',#987,.F.);
#987 = EDGE_LOOP('',(#988,#989,#997,#1005));
#988 = ORIENTED_EDGE('',*,*,#967,.T.);
#989 = ORIENTED_EDGE('',*,*,#990,.T.);
#990 = EDGE_CURVE('',#960,#991,#993,.T.);
#991 = VERTEX_POINT('',#992);
#992 = CARTESIAN_POINT('',(0.,1.404997072747E+03,90.));
#993 = LINE('',#994,#995);
#994 = CARTESIAN_POINT('',(0.,1.444997072747E+03,90.));
#995 = VECTOR('',#996,1.);
#996 = DIRECTION('',(0.,-1.,0.));
#997 = ORIENTED_EDGE('',*,*,#998,.F.);
#998 = EDGE_CURVE('',#999,#991,#1001,.T.);
#999 = VERTEX_POINT('',#1000);
#1000 = CARTESIAN_POINT('',(0.,1.404997072747E+03,0.));
#1001 = LINE('',#1002,#1003);
#1002 = CARTESIAN_POINT('',(0.,1.404997072747E+03,0.));
#1003 = VECTOR('',#1004,1.);
#1004 = DIRECTION('',(0.,0.,1.));
#1005 = ORIENTED_EDGE('',*,*,#1006,.F.);
#1006 = EDGE_CURVE('',#968,#999,#1007,.T.);
#1007 = LINE('',#1008,#1009);
#1008 = CARTESIAN_POINT('',(0.,1.444997072747E+03,0.));
#1009 = VECTOR('',#1010,1.);
#1010 = DIRECTION('',(0.,-1.,0.));
#1011 = PLANE('',#1012);
#1012 = AXIS2_PLACEMENT_3D('',#1013,#1014,#1015);
#1013 = CARTESIAN_POINT('',(0.,1.444997072747E+03,0.));
#1014 = DIRECTION('',(1.,0.,0.));
#1015 = DIRECTION('',(0.,-1.,0.));
#1016 = ADVANCED_FACE('',(#1017),#1042,.F.);
#1017 = FACE_BOUND('',#1018,.F.);
#1018 = EDGE_LOOP('',(#1019,#1020,#1028,#1036));
#1019 = ORIENTED_EDGE('',*,*,#998,.T.);
#1020 = ORIENTED_EDGE('',*,*,#1021,.T.);
#1021 = EDGE_CURVE('',#991,#1022,#1024,.T.);
#1022 = VERTEX_POINT('',#1023);
#1023 = CARTESIAN_POINT('',(452.00000000546,1.404997072747E+03,90.));
#1024 = LINE('',#1025,#1026);
#1025 = CARTESIAN_POINT('',(0.,1.404997072747E+03,90.));
#1026 = VECTOR('',#1027,1.);
#1027 = DIRECTION('',(1.,0.,0.));
#1028 = ORIENTED_EDGE('',*,*,#1029,.F.);
#1029 = EDGE_CURVE('',#1030,#1022,#1032,.T.);
#1030 = VERTEX_POINT('',#1031);
#1031 = CARTESIAN_POINT('',(452.00000000546,1.404997072747E+03,0.));
#1032 = LINE('',#1033,#1034);
#1033 = CARTESIAN_POINT('',(452.00000000546,1.404997072747E+03,0.));
#1034 = VECTOR('',#1035,1.);
#1035 = DIRECTION('',(0.,0.,1.));
#1036 = ORIENTED_EDGE('',*,*,#1037,.F.);
#1037 = EDGE_CURVE('',#999,#1030,#1038,.T.);
#1038 = LINE('',#1039,#1040);
#1039 = CARTESIAN_POINT('',(0.,1.404997072747E+03,0.));
#1040 = VECTOR('',#1041,1.);
#1041 = DIRECTION('',(1.,0.,0.));
#1042 = PLANE('',#1043);
#1043 = AXIS2_PLACEMENT_3D('',#1044,#1045,#1046);
#1044 = CARTESIAN_POINT('',(0.,1.404997072747E+03,0.));
#1045 = DIRECTION('',(0.,1.,0.));
#1046 = DIRECTION('',(1.,0.,0.));
#1047 = ADVANCED_FACE('',(#1048),#1073,.T.);
#1048 = FACE_BOUND('',#1049,.T.);
#1049 = EDGE_LOOP('',(#1050,#1060,#1066,#1067));
#1050 = ORIENTED_EDGE('',*,*,#1051,.T.);
#1051 = EDGE_CURVE('',#1052,#1054,#1056,.T.);
#1052 = VERTEX_POINT('',#1053);
#1053 = CARTESIAN_POINT('',(452.00000000546,39.822546244998,0.));
#1054 = VERTEX_POINT('',#1055);
#1055 = CARTESIAN_POINT('',(452.00000000546,39.822546244998,90.));
#1056 = LINE('',#1057,#1058);
#1057 = CARTESIAN_POINT('',(452.00000000546,39.822546244998,0.));
#1058 = VECTOR('',#1059,1.);
#1059 = DIRECTION('',(0.,0.,1.));
#1060 = ORIENTED_EDGE('',*,*,#1061,.T.);
#1061 = EDGE_CURVE('',#1054,#1022,#1062,.T.);
#1062 = LINE('',#1063,#1064);
#1063 = CARTESIAN_POINT('',(452.00000000546,39.822546244998,90.));
#1064 = VECTOR('',#1065,1.);
#1065 = DIRECTION('',(0.,1.,0.));
#1066 = ORIENTED_EDGE('',*,*,#1029,.F.);
#1067 = ORIENTED_EDGE('',*,*,#1068,.F.);
#1068 = EDGE_CURVE('',#1052,#1030,#1069,.T.);
#1069 = LINE('',#1070,#1071);
#1070 = CARTESIAN_POINT('',(452.00000000546,39.822546244998,0.));
#1071 = VECTOR('',#1072,1.);
#1072 = DIRECTION('',(0.,1.,0.));
#1073 = PLANE('',#1074);
#1074 = AXIS2_PLACEMENT_3D('',#1075,#1076,#1077);
#1075 = CARTESIAN_POINT('',(452.00000000546,39.822546244998,0.));
#1076 = DIRECTION('',(-1.,0.,0.));
#1077 = DIRECTION('',(0.,1.,0.));
#1078 = ADVANCED_FACE('',(#1079),#1095,.T.);
#1079 = FACE_BOUND('',#1080,.T.);
#1080 = EDGE_LOOP('',(#1081,#1082,#1088,#1089));
#1081 = ORIENTED_EDGE('',*,*,#856,.T.);
#1082 = ORIENTED_EDGE('',*,*,#1083,.T.);
#1083 = EDGE_CURVE('',#859,#1054,#1084,.T.);
#1084 = LINE('',#1085,#1086);
#1085 = CARTESIAN_POINT('',(7.53261819486E-07,39.822546244998,90.));
#1086 = VECTOR('',#1087,1.);
#1087 = DIRECTION('',(1.,-3.14399441122E-17,0.));
#1088 = ORIENTED_EDGE('',*,*,#1051,.F.);
#1089 = ORIENTED_EDGE('',*,*,#1090,.F.);
#1090 = EDGE_CURVE('',#857,#1052,#1091,.T.);
#1091 = LINE('',#1092,#1093);
#1092 = CARTESIAN_POINT('',(7.53261819486E-07,39.822546244998,0.));
#1093 = VECTOR('',#1094,1.);
#1094 = DIRECTION('',(1.,-3.14399441122E-17,0.));
#1095 = PLANE('',#1096);
#1096 = AXIS2_PLACEMENT_3D('',#1097,#1098,#1099);
#1097 = CARTESIAN_POINT('',(7.53261819486E-07,39.822546244998,0.));
#1098 = DIRECTION('',(3.14399441122E-17,1.,0.));
#1099 = DIRECTION('',(1.,-3.14399441122E-17,0.));
#1100 = ADVANCED_FACE('',(#1101),#1135,.T.);
#1101 = FACE_BOUND('',#1102,.T.);
#1102 = EDGE_LOOP('',(#1103,#1113,#1121,#1129));
#1103 = ORIENTED_EDGE('',*,*,#1104,.T.);
#1104 = EDGE_CURVE('',#1105,#1107,#1109,.T.);
#1105 = VERTEX_POINT('',#1106);
#1106 = CARTESIAN_POINT('',(1.060000000005E+03,39.822546244998,0.));
#1107 = VERTEX_POINT('',#1108);
#1108 = CARTESIAN_POINT('',(1.060000000005E+03,39.822546244998,90.));
#1109 = LINE('',#1110,#1111);
#1110 = CARTESIAN_POINT('',(1.060000000005E+03,39.822546244998,0.));
#1111 = VECTOR('',#1112,1.);
#1112 = DIRECTION('',(0.,0.,1.));
#1113 = ORIENTED_EDGE('',*,*,#1114,.T.);
#1114 = EDGE_CURVE('',#1107,#1115,#1117,.T.);
#1115 = VERTEX_POINT('',#1116);
#1116 = CARTESIAN_POINT('',(1.060000000005E+03,1.404997072747E+03,90.));
#1117 = LINE('',#1118,#1119);
#1118 = CARTESIAN_POINT('',(1.060000000005E+03,39.822546244998,90.));
#1119 = VECTOR('',#1120,1.);
#1120 = DIRECTION('',(0.,1.,0.));
#1121 = ORIENTED_EDGE('',*,*,#1122,.F.);
#1122 = EDGE_CURVE('',#1123,#1115,#1125,.T.);
#1123 = VERTEX_POINT('',#1124);
#1124 = CARTESIAN_POINT('',(1.060000000005E+03,1.404997072747E+03,0.));
#1125 = LINE('',#1126,#1127);
#1126 = CARTESIAN_POINT('',(1.060000000005E+03,1.404997072747E+03,0.));
#1127 = VECTOR('',#1128,1.);
#1128 = DIRECTION('',(0.,0.,1.));
#1129 = ORIENTED_EDGE('',*,*,#1130,.F.);
#1130 = EDGE_CURVE('',#1105,#1123,#1131,.T.);
#1131 = LINE('',#1132,#1133);
#1132 = CARTESIAN_POINT('',(1.060000000005E+03,39.822546244998,0.));
#1133 = VECTOR('',#1134,1.);
#1134 = DIRECTION('',(0.,1.,0.));
#1135 = PLANE('',#1136);
#1136 = AXIS2_PLACEMENT_3D('',#1137,#1138,#1139);
#1137 = CARTESIAN_POINT('',(1.060000000005E+03,39.822546244998,0.));
#1138 = DIRECTION('',(-1.,0.,0.));
#1139 = DIRECTION('',(0.,1.,0.));
#1140 = ADVANCED_FACE('',(#1141),#1166,.F.);
#1141 = FACE_BOUND('',#1142,.F.);
#1142 = EDGE_LOOP('',(#1143,#1153,#1159,#1160));
#1143 = ORIENTED_EDGE('',*,*,#1144,.T.);
#1144 = EDGE_CURVE('',#1145,#1147,#1149,.T.);
#1145 = VERTEX_POINT('',#1146);
#1146 = CARTESIAN_POINT('',(491.99999863205,1.404997072747E+03,0.));
#1147 = VERTEX_POINT('',#1148);
#1148 = CARTESIAN_POINT('',(491.99999863205,1.404997072747E+03,90.));
#1149 = LINE('',#1150,#1151);
#1150 = CARTESIAN_POINT('',(491.99999863205,1.404997072747E+03,0.));
#1151 = VECTOR('',#1152,1.);
#1152 = DIRECTION('',(0.,0.,1.));
#1153 = ORIENTED_EDGE('',*,*,#1154,.T.);
#1154 = EDGE_CURVE('',#1147,#1115,#1155,.T.);
#1155 = LINE('',#1156,#1157);
#1156 = CARTESIAN_POINT('',(491.99999863205,1.404997072747E+03,90.));
#1157 = VECTOR('',#1158,1.);
#1158 = DIRECTION('',(1.,0.,0.));
#1159 = ORIENTED_EDGE('',*,*,#1122,.F.);
#1160 = ORIENTED_EDGE('',*,*,#1161,.F.);
#1161 = EDGE_CURVE('',#1145,#1123,#1162,.T.);
#1162 = LINE('',#1163,#1164);
#1163 = CARTESIAN_POINT('',(491.99999863205,1.404997072747E+03,0.));
#1164 = VECTOR('',#1165,1.);
#1165 = DIRECTION('',(1.,0.,0.));
#1166 = PLANE('',#1167);
#1167 = AXIS2_PLACEMENT_3D('',#1168,#1169,#1170);
#1168 = CARTESIAN_POINT('',(491.99999863205,1.404997072747E+03,0.));
#1169 = DIRECTION('',(0.,1.,0.));
#1170 = DIRECTION('',(1.,0.,0.));
#1171 = ADVANCED_FACE('',(#1172),#1197,.T.);
#1172 = FACE_BOUND('',#1173,.T.);
#1173 = EDGE_LOOP('',(#1174,#1175,#1183,#1191));
#1174 = ORIENTED_EDGE('',*,*,#1144,.T.);
#1175 = ORIENTED_EDGE('',*,*,#1176,.T.);
#1176 = EDGE_CURVE('',#1147,#1177,#1179,.T.);
#1177 = VERTEX_POINT('',#1178);
#1178 = CARTESIAN_POINT('',(491.99999863205,39.822546244998,90.));
#1179 = LINE('',#1180,#1181);
#1180 = CARTESIAN_POINT('',(491.99999863205,1.404997072747E+03,90.));
#1181 = VECTOR('',#1182,1.);
#1182 = DIRECTION('',(0.,-1.,0.));
#1183 = ORIENTED_EDGE('',*,*,#1184,.F.);
#1184 = EDGE_CURVE('',#1185,#1177,#1187,.T.);
#1185 = VERTEX_POINT('',#1186);
#1186 = CARTESIAN_POINT('',(491.99999863205,39.822546244998,0.));
#1187 = LINE('',#1188,#1189);
#1188 = CARTESIAN_POINT('',(491.99999863205,39.822546244998,0.));
#1189 = VECTOR('',#1190,1.);
#1190 = DIRECTION('',(0.,0.,1.));
#1191 = ORIENTED_EDGE('',*,*,#1192,.F.);
#1192 = EDGE_CURVE('',#1145,#1185,#1193,.T.);
#1193 = LINE('',#1194,#1195);
#1194 = CARTESIAN_POINT('',(491.99999863205,1.404997072747E+03,0.));
#1195 = VECTOR('',#1196,1.);
#1196 = DIRECTION('',(0.,-1.,0.));
#1197 = PLANE('',#1198);
#1198 = AXIS2_PLACEMENT_3D('',#1199,#1200,#1201);
#1199 = CARTESIAN_POINT('',(491.99999863205,1.404997072747E+03,0.));
#1200 = DIRECTION('',(1.,0.,0.));
#1201 = DIRECTION('',(0.,-1.,0.));
#1202 = ADVANCED_FACE('',(#1203),#1219,.T.);
#1203 = FACE_BOUND('',#1204,.T.);
#1204 = EDGE_LOOP('',(#1205,#1206,#1212,#1213));
#1205 = ORIENTED_EDGE('',*,*,#1184,.T.);
#1206 = ORIENTED_EDGE('',*,*,#1207,.T.);
#1207 = EDGE_CURVE('',#1177,#1107,#1208,.T.);
#1208 = LINE('',#1209,#1210);
#1209 = CARTESIAN_POINT('',(491.99999863205,39.822546244998,90.));
#1210 = VECTOR('',#1211,1.);
#1211 = DIRECTION('',(1.,0.,0.));
#1212 = ORIENTED_EDGE('',*,*,#1104,.F.);
#1213 = ORIENTED_EDGE('',*,*,#1214,.F.);
#1214 = EDGE_CURVE('',#1185,#1105,#1215,.T.);
#1215 = LINE('',#1216,#1217);
#1216 = CARTESIAN_POINT('',(491.99999863205,39.822546244998,0.));
#1217 = VECTOR('',#1218,1.);
#1218 = DIRECTION('',(1.,0.,0.));
#1219 = PLANE('',#1220);
#1220 = AXIS2_PLACEMENT_3D('',#1221,#1222,#1223);
#1221 = CARTESIAN_POINT('',(491.99999863205,39.822546244998,0.));
#1222 = DIRECTION('',(0.,1.,0.));
#1223 = DIRECTION('',(1.,0.,0.));
#1224 = ADVANCED_FACE('',(#1225,#1235),#1241,.F.);
#1225 = FACE_BOUND('',#1226,.F.);
#1226 = EDGE_LOOP('',(#1227,#1228,#1229,#1230,#1231,#1232,#1233,#1234));
#1227 = ORIENTED_EDGE('',*,*,#882,.T.);
#1228 = ORIENTED_EDGE('',*,*,#913,.T.);
#1229 = ORIENTED_EDGE('',*,*,#944,.T.);
#1230 = ORIENTED_EDGE('',*,*,#975,.T.);
#1231 = ORIENTED_EDGE('',*,*,#1006,.T.);
#1232 = ORIENTED_EDGE('',*,*,#1037,.T.);
#1233 = ORIENTED_EDGE('',*,*,#1068,.F.);
#1234 = ORIENTED_EDGE('',*,*,#1090,.F.);
#1235 = FACE_BOUND('',#1236,.T.);
#1236 = EDGE_LOOP('',(#1237,#1238,#1239,#1240));
#1237 = ORIENTED_EDGE('',*,*,#1130,.T.);
#1238 = ORIENTED_EDGE('',*,*,#1161,.F.);
#1239 = ORIENTED_EDGE('',*,*,#1192,.T.);
#1240 = ORIENTED_EDGE('',*,*,#1214,.T.);
#1241 = PLANE('',#1242);
#1242 = AXIS2_PLACEMENT_3D('',#1243,#1244,#1245);
#1243 = CARTESIAN_POINT('',(671.49250250713,722.45561121503,0.));
#1244 = DIRECTION('',(0.,0.,1.));
#1245 = DIRECTION('',(1.,0.,0.));
#1246 = ADVANCED_FACE('',(#1247,#1257),#1263,.T.);
#1247 = FACE_BOUND('',#1248,.T.);
#1248 = EDGE_LOOP('',(#1249,#1250,#1251,#1252,#1253,#1254,#1255,#1256));
#1249 = ORIENTED_EDGE('',*,*,#866,.T.);
#1250 = ORIENTED_EDGE('',*,*,#897,.T.);
#1251 = ORIENTED_EDGE('',*,*,#928,.T.);
#1252 = ORIENTED_EDGE('',*,*,#959,.T.);
#1253 = ORIENTED_EDGE('',*,*,#990,.T.);
#1254 = ORIENTED_EDGE('',*,*,#1021,.T.);
#1255 = ORIENTED_EDGE('',*,*,#1061,.F.);
#1256 = ORIENTED_EDGE('',*,*,#1083,.F.);
#1257 = FACE_BOUND('',#1258,.F.);
#1258 = EDGE_LOOP('',(#1259,#1260,#1261,#1262));
#1259 = ORIENTED_EDGE('',*,*,#1114,.T.);
#1260 = ORIENTED_EDGE('',*,*,#1154,.F.);
#1261 = ORIENTED_EDGE('',*,*,#1176,.T.);
#1262 = ORIENTED_EDGE('',*,*,#1207,.T.);
#1263 = PLANE('',#1264);
#1264 = AXIS2_PLACEMENT_3D('',#1265,#1266,#1267);
#1265 = CARTESIAN_POINT('',(671.49250250713,722.45561121503,90.));
#1266 = DIRECTION('',(0.,0.,1.));
#1267 = DIRECTION('',(1.,0.,0.));
#1268 = ( GEOMETRIC_REPRESENTATION_CONTEXT(3) 
GLOBAL_UNCERTAINTY_ASSIGNED_CONTEXT((#1272)) 
GLOBAL_UNIT_ASSIGNED_CONTEXT((#1269,#1270,#1271)) REPRESENTATION_CONTEXT
('Context #1','3D Context with UNIT and UNCERTAINTY') );
#1269 = ( LENGTH_UNIT() NAMED_UNIT(*) SI_UNIT($,.METRE.) );
#1270 = ( NAMED_UNIT(*) PLANE_ANGLE_UNIT() SI_UNIT($,.RADIAN.) );
#1271 = ( NAMED_UNIT(*) SI_UNIT($,.STERADIAN.) SOLID_ANGLE_UNIT() );
#1272 = UNCERTAINTY_MEASURE_WITH_UNIT(LENGTH_MEASURE(1.E-07),#1269,
  'distance_accuracy_value','confusion accuracy');
#1273 = CONTEXT_DEPENDENT_SHAPE_REPRESENTATION(#1274,#1276);
#1274 = ( REPRESENTATION_RELATIONSHIP('','',#849,#10) 
REPRESENTATION_RELATIONSHIP_WITH_TRANSFORMATION(#1275) 
SHAPE_REPRESENTATION_RELATIONSHIP() );
#1275 = ITEM_DEFINED_TRANSFORMATION('','',#11,#31);
#1276 = PRODUCT_DEFINITION_SHAPE('Placement','Placement of an item',
  #1277);
#1277 = NEXT_ASSEMBLY_USAGE_OCCURRENCE('9','Body','',#5,#844,$);
#1278 = PRODUCT_RELATED_PRODUCT_CATEGORY('part',$,(#846));
#1279 = MECHANICAL_DESIGN_GEOMETRIC_PRESENTATION_REPRESENTATION('',(
    #1280),#603);
#1280 = STYLED_ITEM('color',(#1281),#387);
#1281 = PRESENTATION_STYLE_ASSIGNMENT((#1282,#1288));
#1282 = SURFACE_STYLE_USAGE(.BOTH.,#1283);
#1283 = SURFACE_SIDE_STYLE('',(#1284));
#1284 = SURFACE_STYLE_FILL_AREA(#1285);
#1285 = FILL_AREA_STYLE('',(#1286));
#1286 = FILL_AREA_STYLE_COLOUR('',#1287);
#1287 = COLOUR_RGB('',0.300000011149,0.300000011149,0.300000011149);
#1288 = CURVE_STYLE('',#1289,POSITIVE_LENGTH_MEASURE(0.1),#1290);
#1289 = DRAUGHTING_PRE_DEFINED_CURVE_FONT('continuous');
#1290 = COLOUR_RGB('',9.803921802644E-02,9.803921802644E-02,
  9.803921802644E-02);
#1291 = MECHANICAL_DESIGN_GEOMETRIC_PRESENTATION_REPRESENTATION('',(
    #1292),#199);
#1292 = STYLED_ITEM('color',(#1293),#49);
#1293 = PRESENTATION_STYLE_ASSIGNMENT((#1294,#1300));
#1294 = SURFACE_STYLE_USAGE(.BOTH.,#1295);
#1295 = SURFACE_SIDE_STYLE('',(#1296));
#1296 = SURFACE_STYLE_FILL_AREA(#1297);
#1297 = FILL_AREA_STYLE('',(#1298));
#1298 = FILL_AREA_STYLE_COLOUR('',#1299);
#1299 = COLOUR_RGB('',0.800000010877,0.800000010877,0.899999968064);
#1300 = CURVE_STYLE('',#1301,POSITIVE_LENGTH_MEASURE(0.1),#1290);
#1301 = DRAUGHTING_PRE_DEFINED_CURVE_FONT('continuous');
#1302 = MECHANICAL_DESIGN_GEOMETRIC_PRESENTATION_REPRESENTATION('',(
    #1303),#1268);
#1303 = STYLED_ITEM('color',(#1304),#850);
#1304 = PRESENTATION_STYLE_ASSIGNMENT((#1305,#1310));
#1305 = SURFACE_STYLE_USAGE(.BOTH.,#1306);
#1306 = SURFACE_SIDE_STYLE('',(#1307));
#1307 = SURFACE_STYLE_FILL_AREA(#1308);
#1308 = FILL_AREA_STYLE('',(#1309));
#1309 = FILL_AREA_STYLE_COLOUR('',#1287);
#1310 = CURVE_STYLE('',#1311,POSITIVE_LENGTH_MEASURE(0.1),#1290);
#1311 = DRAUGHTING_PRE_DEFINED_CURVE_FONT('continuous');
#1312 = MECHANICAL_DESIGN_GEOMETRIC_PRESENTATION_REPRESENTATION('',(
    #1313),#831);
#1313 = STYLED_ITEM('color',(#1314),#622);
#1314 = PRESENTATION_STYLE_ASSIGNMENT((#1315,#1320));
#1315 = SURFACE_STYLE_USAGE(.BOTH.,#1316);
#1316 = SURFACE_SIDE_STYLE('',(#1317));
#1317 = SURFACE_STYLE_FILL_AREA(#1318);
#1318 = FILL_AREA_STYLE('',(#1319));
#1319 = FILL_AREA_STYLE_COLOUR('',#1287);
#1320 = CURVE_STYLE('',#1321,POSITIVE_LENGTH_MEASURE(0.1),#1290);
#1321 = DRAUGHTING_PRE_DEFINED_CURVE_FONT('continuous');
#1322 = MECHANICAL_DESIGN_GEOMETRIC_PRESENTATION_REPRESENTATION('',(
    #1323),#368);
#1323 = STYLED_ITEM('color',(#1324),#218);
#1324 = PRESENTATION_STYLE_ASSIGNMENT((#1325,#1330));
#1325 = SURFACE_STYLE_USAGE(.BOTH.,#1326);
#1326 = SURFACE_SIDE_STYLE('',(#1327));
#1327 = SURFACE_STYLE_FILL_AREA(#1328);
#1328 = FILL_AREA_STYLE('',(#1329));
#1329 = FILL_AREA_STYLE_COLOUR('',#1287);
#1330 = CURVE_STYLE('',#1331,POSITIVE_LENGTH_MEASURE(0.1),#1290);
#1331 = DRAUGHTING_PRE_DEFINED_CURVE_FONT('continuous');
ENDSEC;
END-ISO-10303-21;
