ply
format ascii 1.0
element vertex 251
property float x
property float y
property float z
end_header
-0.624757 0.048274 -0.086402
-0.623757 0.048236 -0.086411
-0.622756 0.048197 -0.086420
-0.621756 0.048159 -0.086429
-0.620756 0.048121 -0.086438
-0.619755 0.048082 -0.086447
-0.618755 0.048044 -0.086456
-0.617754 0.048006 -0.086465
-0.616754 0.047968 -0.086474
-0.615753 0.047929 -0.086483
-0.614753 0.047891 -0.086492
-0.613752 0.047853 -0.086501
-0.612752 0.047814 -0.086510
-0.611751 0.047776 -0.086519
-0.610751 0.047738 -0.086528
-0.609751 0.047700 -0.086538
-0.608750 0.047661 -0.086547
-0.607750 0.047623 -0.086556
-0.606749 0.047585 -0.086565
-0.605749 0.047546 -0.086574
-0.604748 0.047508 -0.086583
-0.603748 0.047470 -0.086592
-0.602747 0.047432 -0.086601
-0.601747 0.047393 -0.086610
-0.600746 0.047355 -0.086619
-0.599746 0.047317 -0.086628
-0.598746 0.047278 -0.086637
-0.597745 0.047240 -0.086646
-0.596745 0.047202 -0.086655
-0.595744 0.047164 -0.086664
-0.594744 0.047125 -0.086674
-0.593743 0.047087 -0.086683
-0.592743 0.047049 -0.086692
-0.591742 0.047010 -0.086701
-0.590742 0.046972 -0.086710
-0.589742 0.046934 -0.086719
-0.588741 0.046896 -0.086728
-0.587741 0.046857 -0.086737
-0.586740 0.046819 -0.086746
-0.585740 0.046781 -0.086755
-0.584739 0.046743 -0.086764
-0.583739 0.046704 -0.086773
-0.582738 0.046666 -0.086782
-0.581738 0.046628 -0.086791
-0.580737 0.046589 -0.086800
-0.579737 0.046551 -0.086809
-0.578737 0.046513 -0.086819
-0.577736 0.046475 -0.086828
-0.576736 0.046436 -0.086837
-0.575735 0.046398 -0.086846
-0.574735 0.046360 -0.086855
-0.573734 0.046321 -0.086864
-0.572734 0.046283 -0.086873
-0.571733 0.046245 -0.086882
-0.570733 0.046207 -0.086891
-0.569732 0.046168 -0.086900
-0.568732 0.046130 -0.086909
-0.567732 0.046092 -0.086918
-0.566731 0.046053 -0.086927
-0.565731 0.046015 -0.086936
-0.564730 0.045977 -0.086945
-0.563730 0.045939 -0.086954
-0.562729 0.045900 -0.086964
-0.561729 0.045862 -0.086973
-0.560728 0.045824 -0.086982
-0.559728 0.045785 -0.086991
-0.558728 0.045747 -0.087000
-0.557727 0.045709 -0.087009
-0.556727 0.045671 -0.087018
-0.555726 0.045632 -0.087027
-0.554726 0.045594 -0.087036
-0.553725 0.045556 -0.087045
-0.552725 0.045517 -0.087054
-0.551724 0.045479 -0.087063
-0.550724 0.045441 -0.087072
-0.549723 0.045403 -0.087081
-0.548723 0.045364 -0.087090
-0.547723 0.045326 -0.087100
-0.546722 0.045288 -0.087109
-0.545722 0.045249 -0.087118
-0.544721 0.045211 -0.087127
-0.543721 0.045173 -0.087136
-0.542720 0.045135 -0.087145
-0.541720 0.045096 -0.087154
-0.540719 0.045058 -0.087163
-0.539719 0.045020 -0.087172
-0.538718 0.044981 -0.087181
-0.537718 0.044943 -0.087190
-0.536718 0.044905 -0.087199
-0.535717 0.044867 -0.087208
-0.534717 0.044828 -0.087217
-0.533716 0.044790 -0.087226
-0.532716 0.044752 -0.087235
-0.531715 0.044714 -0.087245
-0.530715 0.044675 -0.087254
-0.529714 0.044637 -0.087263
-0.528714 0.044599 -0.087272
-0.527714 0.044560 -0.087281
-0.526713 0.044522 -0.087290
-0.525713 0.044484 -0.087299
-0.524712 0.044446 -0.087308
-0.523712 0.044407 -0.087317
-0.522711 0.044369 -0.087326
-0.521711 0.044331 -0.087335
-0.520710 0.044292 -0.087344
-0.519710 0.044254 -0.087353
-0.518709 0.044216 -0.087362
-0.517709 0.044178 -0.087371
-0.516709 0.044139 -0.087380
-0.515708 0.044101 -0.087390
-0.514708 0.044063 -0.087399
-0.513707 0.044024 -0.087408
-0.512707 0.043986 -0.087417
-0.511706 0.043948 -0.087426
-0.510706 0.043910 -0.087435
-0.509705 0.043871 -0.087444
-0.508705 0.043833 -0.087453
-0.507704 0.043795 -0.087462
-0.506704 0.043756 -0.087471
-0.505704 0.043718 -0.087480
-0.504703 0.043680 -0.087489
-0.503703 0.043642 -0.087498
-0.502702 0.043603 -0.087507
-0.501702 0.043565 -0.087516
-0.500701 0.043527 -0.087526
-0.499701 0.043488 -0.087535
-0.498700 0.043450 -0.087544
-0.497700 0.043412 -0.087553
-0.496699 0.043374 -0.087562
-0.495699 0.043335 -0.087571
-0.494699 0.043297 -0.087580
-0.493698 0.043259 -0.087589
-0.492698 0.043220 -0.087598
-0.491697 0.043182 -0.087607
-0.490697 0.043144 -0.087616
-0.489696 0.043106 -0.087625
-0.488696 0.043067 -0.087634
-0.487695 0.043029 -0.087643
-0.486695 0.042991 -0.087652
-0.485695 0.042952 -0.087661
-0.484694 0.042914 -0.087671
-0.483694 0.042876 -0.087680
-0.482693 0.042838 -0.087689
-0.481693 0.042799 -0.087698
-0.480692 0.042761 -0.087707
-0.479692 0.042723 -0.087716
-0.478691 0.042685 -0.087725
-0.477691 0.042646 -0.087734
-0.476690 0.042608 -0.087743
-0.475690 0.042570 -0.087752
-0.474690 0.042531 -0.087761
-0.473689 0.042493 -0.087770
-0.472689 0.042455 -0.087779
-0.471688 0.042417 -0.087788
-0.470688 0.042378 -0.087797
-0.469687 0.042340 -0.087807
-0.468687 0.042302 -0.087816
-0.467686 0.042263 -0.087825
-0.466686 0.042225 -0.087834
-0.465685 0.042187 -0.087843
-0.464685 0.042149 -0.087852
-0.463685 0.042110 -0.087861
-0.462684 0.042072 -0.087870
-0.461684 0.042034 -0.087879
-0.460683 0.041995 -0.087888
-0.459683 0.041957 -0.087897
-0.458682 0.041919 -0.087906
-0.457682 0.041881 -0.087915
-0.456681 0.041842 -0.087924
-0.455681 0.041804 -0.087933
-0.454681 0.041766 -0.087942
-0.453680 0.041727 -0.087952
-0.452680 0.041689 -0.087961
-0.451679 0.041651 -0.087970
-0.450679 0.041613 -0.087979
-0.449678 0.041574 -0.087988
-0.448678 0.041536 -0.087997
-0.447677 0.041498 -0.088006
-0.446677 0.041459 -0.088015
-0.445676 0.041421 -0.088024
-0.444676 0.041383 -0.088033
-0.443676 0.041345 -0.088042
-0.442675 0.041306 -0.088051
-0.441675 0.041268 -0.088060
-0.440674 0.041230 -0.088069
-0.439674 0.041191 -0.088078
-0.438673 0.041153 -0.088087
-0.437673 0.041115 -0.088097
-0.436672 0.041077 -0.088106
-0.435672 0.041038 -0.088115
-0.434671 0.041000 -0.088124
-0.433671 0.040962 -0.088133
-0.432671 0.040924 -0.088142
-0.431670 0.040885 -0.088151
-0.430670 0.040847 -0.088160
-0.429669 0.040809 -0.088169
-0.428669 0.040770 -0.088178
-0.427668 0.040732 -0.088187
-0.426668 0.040694 -0.088196
-0.425667 0.040656 -0.088205
-0.424667 0.040617 -0.088214
-0.423667 0.040579 -0.088223
-0.422666 0.040541 -0.088233
-0.421666 0.040502 -0.088242
-0.420665 0.040464 -0.088251
-0.419665 0.040426 -0.088260
-0.418664 0.040388 -0.088269
-0.417664 0.040349 -0.088278
-0.416663 0.040311 -0.088287
-0.415663 0.040273 -0.088296
-0.414662 0.040234 -0.088305
-0.413662 0.040196 -0.088314
-0.412662 0.040158 -0.088323
-0.411661 0.040120 -0.088332
-0.410661 0.040081 -0.088341
-0.409660 0.040043 -0.088350
-0.408660 0.040005 -0.088359
-0.407659 0.039966 -0.088368
-0.406659 0.039928 -0.088378
-0.405658 0.039890 -0.088387
-0.404658 0.039852 -0.088396
-0.403657 0.039813 -0.088405
-0.402657 0.039775 -0.088414
-0.401657 0.039737 -0.088423
-0.400656 0.039698 -0.088432
-0.399656 0.039660 -0.088441
-0.398655 0.039622 -0.088450
-0.397655 0.039584 -0.088459
-0.396654 0.039545 -0.088468
-0.395654 0.039507 -0.088477
-0.394653 0.039469 -0.088486
-0.393653 0.039430 -0.088495
-0.392653 0.039392 -0.088504
-0.391652 0.039354 -0.088514
-0.390652 0.039316 -0.088523
-0.389651 0.039277 -0.088532
-0.388651 0.039239 -0.088541
-0.387650 0.039201 -0.088550
-0.386650 0.039162 -0.088559
-0.385649 0.039124 -0.088568
-0.384649 0.039086 -0.088577
-0.383648 0.039048 -0.088586
-0.382648 0.039009 -0.088595
-0.381648 0.038971 -0.088604
-0.380647 0.038933 -0.088613
-0.379647 0.038895 -0.088622
-0.378646 0.038856 -0.088631
-0.377646 0.038818 -0.088640
-0.376645 0.038780 -0.088649
-0.375645 0.038741 -0.088659
-0.374644 0.038703 -0.088668
