ply
format ascii 1.0
element vertex 502
property float x
property float y
property float z
end_header
-0.638370 0.162289 -0.035929
-0.637612 0.161637 -0.035950
-0.636854 0.160984 -0.035970
-0.636096 0.160332 -0.035991
-0.635338 0.159679 -0.036011
-0.634580 0.159027 -0.036032
-0.633822 0.158375 -0.036053
-0.633064 0.157722 -0.036073
-0.632307 0.157070 -0.036094
-0.631549 0.156418 -0.036114
-0.630791 0.155765 -0.036135
-0.630033 0.155113 -0.036155
-0.629275 0.154460 -0.036176
-0.628517 0.153808 -0.036197
-0.627759 0.153156 -0.036217
-0.627001 0.152503 -0.036238
-0.626244 0.151851 -0.036258
-0.625486 0.151198 -0.036279
-0.624728 0.150546 -0.036300
-0.623970 0.149894 -0.036320
-0.623212 0.149241 -0.036341
-0.622454 0.148589 -0.036361
-0.621696 0.147937 -0.036382
-0.620938 0.147284 -0.036402
-0.620181 0.146632 -0.036423
-0.619423 0.145979 -0.036444
-0.618665 0.145327 -0.036464
-0.617907 0.144675 -0.036485
-0.617149 0.144022 -0.036505
-0.616391 0.143370 -0.036526
-0.615633 0.142718 -0.036546
-0.614875 0.142065 -0.036567
-0.614118 0.141413 -0.036588
-0.613360 0.140760 -0.036608
-0.612602 0.140108 -0.036629
-0.611844 0.139456 -0.036649
-0.611086 0.138803 -0.036670
-0.610328 0.138151 -0.036690
-0.609570 0.137499 -0.036711
-0.608812 0.136846 -0.036732
-0.608055 0.136194 -0.036752
-0.607297 0.135541 -0.036773
-0.606539 0.134889 -0.036793
-0.605781 0.134237 -0.036814
-0.605023 0.133584 -0.036834
-0.604265 0.132932 -0.036855
-0.603507 0.132280 -0.036876
-0.602749 0.131627 -0.036896
-0.601992 0.130975 -0.036917
-0.601234 0.130322 -0.036937
-0.600476 0.129670 -0.036958
-0.599718 0.129018 -0.036978
-0.598960 0.128365 -0.036999
-0.598202 0.127713 -0.037020
-0.597444 0.127061 -0.037040
-0.596686 0.126408 -0.037061
-0.595929 0.125756 -0.037081
-0.595171 0.125103 -0.037102
-0.594413 0.124451 -0.037122
-0.593655 0.123799 -0.037143
-0.592897 0.123146 -0.037164
-0.592139 0.122494 -0.037184
-0.591381 0.121842 -0.037205
-0.590623 0.121189 -0.037225
-0.589866 0.120537 -0.037246
-0.589108 0.119884 -0.037267
-0.588350 0.119232 -0.037287
-0.587592 0.118580 -0.037308
-0.586834 0.117927 -0.037328
-0.586076 0.117275 -0.037349
-0.585318 0.116623 -0.037369
-0.584561 0.115970 -0.037390
-0.583803 0.115318 -0.037411
-0.583045 0.114665 -0.037431
-0.582287 0.114013 -0.037452
-0.581529 0.113361 -0.037472
-0.580771 0.112708 -0.037493
-0.580013 0.112056 -0.037513
-0.579255 0.111404 -0.037534
-0.578498 0.110751 -0.037555
-0.577740 0.110099 -0.037575
-0.576982 0.109446 -0.037596
-0.576224 0.108794 -0.037616
-0.575466 0.108142 -0.037637
-0.574708 0.107489 -0.037657
-0.573950 0.106837 -0.037678
-0.573192 0.106185 -0.037699
-0.572435 0.105532 -0.037719
-0.571677 0.104880 -0.037740
-0.570919 0.104227 -0.037760
-0.570161 0.103575 -0.037781
-0.569403 0.102923 -0.037801
-0.568645 0.102270 -0.037822
-0.567887 0.101618 -0.037843
-0.567129 0.100966 -0.037863
-0.566372 0.100313 -0.037884
-0.565614 0.099661 -0.037904
-0.564856 0.099008 -0.037925
-0.564098 0.098356 -0.037945
-0.563340 0.097704 -0.037966
-0.562582 0.097051 -0.037987
-0.561824 0.096399 -0.038007
-0.561066 0.095747 -0.038028
-0.560309 0.095094 -0.038048
-0.559551 0.094442 -0.038069
-0.558793 0.093789 -0.038089
-0.558035 0.093137 -0.038110
-0.557277 0.092485 -0.038131
-0.556519 0.091832 -0.038151
-0.555761 0.091180 -0.038172
-0.555003 0.090527 -0.038192
-0.554246 0.089875 -0.038213
-0.553488 0.089223 -0.038234
-0.552730 0.088570 -0.038254
-0.551972 0.087918 -0.038275
-0.551214 0.087266 -0.038295
-0.550456 0.086613 -0.038316
-0.549698 0.085961 -0.038336
-0.548940 0.085308 -0.038357
-0.548183 0.084656 -0.038378
-0.547425 0.084004 -0.038398
-0.546667 0.083351 -0.038419
-0.545909 0.082699 -0.038439
-0.545151 0.082047 -0.038460
-0.544393 0.081394 -0.038480
-0.543635 0.080742 -0.038501
-0.542877 0.080089 -0.038522
-0.542120 0.079437 -0.038542
-0.541362 0.078785 -0.038563
-0.540604 0.078132 -0.038583
-0.539846 0.077480 -0.038604
-0.539088 0.076828 -0.038624
-0.538330 0.076175 -0.038645
-0.537572 0.075523 -0.038666
-0.536814 0.074870 -0.038686
-0.536057 0.074218 -0.038707
-0.535299 0.073566 -0.038727
-0.534541 0.072913 -0.038748
-0.533783 0.072261 -0.038768
-0.533025 0.071609 -0.038789
-0.532267 0.070956 -0.038810
-0.531509 0.070304 -0.038830
-0.530751 0.069651 -0.038851
-0.529994 0.068999 -0.038871
-0.529236 0.068347 -0.038892
-0.528478 0.067694 -0.038912
-0.527720 0.067042 -0.038933
-0.526962 0.066390 -0.038954
-0.526204 0.065737 -0.038974
-0.525446 0.065085 -0.038995
-0.524688 0.064432 -0.039015
-0.523931 0.063780 -0.039036
-0.523173 0.063128 -0.039057
-0.522415 0.062475 -0.039077
-0.521657 0.061823 -0.039098
-0.520899 0.061171 -0.039118
-0.520141 0.060518 -0.039139
-0.519383 0.059866 -0.039159
-0.518625 0.059213 -0.039180
-0.517868 0.058561 -0.039201
-0.517110 0.057909 -0.039221
-0.516352 0.057256 -0.039242
-0.515594 0.056604 -0.039262
-0.514836 0.055952 -0.039283
-0.514078 0.055299 -0.039303
-0.513320 0.054647 -0.039324
-0.512562 0.053994 -0.039345
-0.511805 0.053342 -0.039365
-0.511047 0.052690 -0.039386
-0.510289 0.052037 -0.039406
-0.509531 0.051385 -0.039427
-0.508773 0.050733 -0.039447
-0.508015 0.050080 -0.039468
-0.507257 0.049428 -0.039489
-0.506499 0.048775 -0.039509
-0.505742 0.048123 -0.039530
-0.504984 0.047471 -0.039550
-0.504226 0.046818 -0.039571
-0.503468 0.046166 -0.039591
-0.502710 0.045514 -0.039612
-0.501952 0.044861 -0.039633
-0.501194 0.044209 -0.039653
-0.500437 0.043556 -0.039674
-0.499679 0.042904 -0.039694
-0.498921 0.042252 -0.039715
-0.498163 0.041599 -0.039735
-0.497405 0.040947 -0.039756
-0.496647 0.040295 -0.039777
-0.495889 0.039642 -0.039797
-0.495131 0.038990 -0.039818
-0.494374 0.038337 -0.039838
-0.493616 0.037685 -0.039859
-0.492858 0.037033 -0.039879
-0.492100 0.036380 -0.039900
-0.491342 0.035728 -0.039921
-0.490584 0.035076 -0.039941
-0.489826 0.034423 -0.039962
-0.489068 0.033771 -0.039982
-0.488311 0.033118 -0.040003
-0.487553 0.032466 -0.040024
-0.486795 0.031814 -0.040044
-0.486037 0.031161 -0.040065
-0.485279 0.030509 -0.040085
-0.484521 0.029856 -0.040106
-0.483763 0.029204 -0.040126
-0.483005 0.028552 -0.040147
-0.482248 0.027899 -0.040168
-0.481490 0.027247 -0.040188
-0.480732 0.026595 -0.040209
-0.479974 0.025942 -0.040229
-0.479216 0.025290 -0.040250
-0.478458 0.024637 -0.040270
-0.477700 0.023985 -0.040291
-0.476942 0.023333 -0.040312
-0.476185 0.022680 -0.040332
-0.475427 0.022028 -0.040353
-0.474669 0.021376 -0.040373
-0.473911 0.020723 -0.040394
-0.473153 0.020071 -0.040414
-0.472395 0.019418 -0.040435
-0.471637 0.018766 -0.040456
-0.470879 0.018114 -0.040476
-0.470122 0.017461 -0.040497
-0.469364 0.016809 -0.040517
-0.468606 0.016157 -0.040538
-0.467848 0.015504 -0.040558
-0.467090 0.014852 -0.040579
-0.466332 0.014199 -0.040600
-0.465574 0.013547 -0.040620
-0.464816 0.012895 -0.040641
-0.464059 0.012242 -0.040661
-0.463301 0.011590 -0.040682
-0.462543 0.010938 -0.040702
-0.461785 0.010285 -0.040723
-0.461027 0.009633 -0.040744
-0.460269 0.008980 -0.040764
-0.459511 0.008328 -0.040785
-0.458753 0.007676 -0.040805
-0.457996 0.007023 -0.040826
-0.457238 0.006371 -0.040846
-0.456480 0.005719 -0.040867
-0.455722 0.005066 -0.040888
-0.454964 0.004414 -0.040908
-0.454206 0.003761 -0.040929
-0.453448 0.003109 -0.040949
-0.452690 0.002457 -0.040970
-0.451933 0.001804 -0.040991
-0.451175 0.001152 -0.041011
-0.450417 0.000500 -0.041032
-0.449659 -0.000153 -0.041052
-0.448901 -0.000805 -0.041073
-0.633150 0.168352 -0.035785
-0.632393 0.167700 -0.035806
-0.631635 0.167047 -0.035826
-0.630877 0.166395 -0.035847
-0.630119 0.165743 -0.035868
-0.629361 0.165090 -0.035888
-0.628603 0.164438 -0.035909
-0.627845 0.163786 -0.035929
-0.627087 0.163133 -0.035950
-0.626330 0.162481 -0.035970
-0.625572 0.161828 -0.035991
-0.624814 0.161176 -0.036012
-0.624056 0.160524 -0.036032
-0.623298 0.159871 -0.036053
-0.622540 0.159219 -0.036073
-0.621782 0.158567 -0.036094
-0.621024 0.157914 -0.036114
-0.620267 0.157262 -0.036135
-0.619509 0.156609 -0.036156
-0.618751 0.155957 -0.036176
-0.617993 0.155305 -0.036197
-0.617235 0.154652 -0.036217
-0.616477 0.154000 -0.036238
-0.615719 0.153348 -0.036258
-0.614961 0.152695 -0.036279
-0.614204 0.152043 -0.036300
-0.613446 0.151390 -0.036320
-0.612688 0.150738 -0.036341
-0.611930 0.150086 -0.036361
-0.611172 0.149433 -0.036382
-0.610414 0.148781 -0.036403
-0.609656 0.148129 -0.036423
-0.608898 0.147476 -0.036444
-0.608141 0.146824 -0.036464
-0.607383 0.146171 -0.036485
-0.606625 0.145519 -0.036505
-0.605867 0.144867 -0.036526
-0.605109 0.144214 -0.036547
-0.604351 0.143562 -0.036567
-0.603593 0.142910 -0.036588
-0.602835 0.142257 -0.036608
-0.602078 0.141605 -0.036629
-0.601320 0.140952 -0.036649
-0.600562 0.140300 -0.036670
-0.599804 0.139648 -0.036691
-0.599046 0.138995 -0.036711
-0.598288 0.138343 -0.036732
-0.597530 0.137691 -0.036752
-0.596772 0.137038 -0.036773
-0.596015 0.136386 -0.036793
-0.595257 0.135733 -0.036814
-0.594499 0.135081 -0.036835
-0.593741 0.134429 -0.036855
-0.592983 0.133776 -0.036876
-0.592225 0.133124 -0.036896
-0.591467 0.132472 -0.036917
-0.590709 0.131819 -0.036937
-0.589952 0.131167 -0.036958
-0.589194 0.130514 -0.036979
-0.588436 0.129862 -0.036999
-0.587678 0.129210 -0.037020
-0.586920 0.128557 -0.037040
-0.586162 0.127905 -0.037061
-0.585404 0.127253 -0.037081
-0.584646 0.126600 -0.037102
-0.583889 0.125948 -0.037123
-0.583131 0.125295 -0.037143
-0.582373 0.124643 -0.037164
-0.581615 0.123991 -0.037184
-0.580857 0.123338 -0.037205
-0.580099 0.122686 -0.037225
-0.579341 0.122034 -0.037246
-0.578583 0.121381 -0.037267
-0.577826 0.120729 -0.037287
-0.577068 0.120076 -0.037308
-0.576310 0.119424 -0.037328
-0.575552 0.118772 -0.037349
-0.574794 0.118119 -0.037370
-0.574036 0.117467 -0.037390
-0.573278 0.116814 -0.037411
-0.572520 0.116162 -0.037431
-0.571763 0.115510 -0.037452
-0.571005 0.114857 -0.037472
-0.570247 0.114205 -0.037493
-0.569489 0.113553 -0.037514
-0.568731 0.112900 -0.037534
-0.567973 0.112248 -0.037555
-0.567215 0.111595 -0.037575
-0.566457 0.110943 -0.037596
-0.565700 0.110291 -0.037616
-0.564942 0.109638 -0.037637
-0.564184 0.108986 -0.037658
-0.563426 0.108334 -0.037678
-0.562668 0.107681 -0.037699
-0.561910 0.107029 -0.037719
-0.561152 0.106376 -0.037740
-0.560395 0.105724 -0.037760
-0.559637 0.105072 -0.037781
-0.558879 0.104419 -0.037802
-0.558121 0.103767 -0.037822
-0.557363 0.103115 -0.037843
-0.556605 0.102462 -0.037863
-0.555847 0.101810 -0.037884
-0.555089 0.101157 -0.037904
-0.554332 0.100505 -0.037925
-0.553574 0.099853 -0.037946
-0.552816 0.099200 -0.037966
-0.552058 0.098548 -0.037987
-0.551300 0.097896 -0.038007
-0.550542 0.097243 -0.038028
-0.549784 0.096591 -0.038048
-0.549026 0.095938 -0.038069
-0.548269 0.095286 -0.038090
-0.547511 0.094634 -0.038110
-0.546753 0.093981 -0.038131
-0.545995 0.093329 -0.038151
-0.545237 0.092677 -0.038172
-0.544479 0.092024 -0.038192
-0.543721 0.091372 -0.038213
-0.542963 0.090719 -0.038234
-0.542206 0.090067 -0.038254
-0.541448 0.089415 -0.038275
-0.540690 0.088762 -0.038295
-0.539932 0.088110 -0.038316
-0.539174 0.087458 -0.038337
-0.538416 0.086805 -0.038357
-0.537658 0.086153 -0.038378
-0.536900 0.085500 -0.038398
-0.536143 0.084848 -0.038419
-0.535385 0.084196 -0.038439
-0.534627 0.083543 -0.038460
-0.533869 0.082891 -0.038481
-0.533111 0.082239 -0.038501
-0.532353 0.081586 -0.038522
-0.531595 0.080934 -0.038542
-0.530837 0.080281 -0.038563
-0.530080 0.079629 -0.038583
-0.529322 0.078977 -0.038604
-0.528564 0.078324 -0.038625
-0.527806 0.077672 -0.038645
-0.527048 0.077020 -0.038666
-0.526290 0.076367 -0.038686
-0.525532 0.075715 -0.038707
-0.524774 0.075062 -0.038727
-0.524017 0.074410 -0.038748
-0.523259 0.073758 -0.038769
-0.522501 0.073105 -0.038789
-0.521743 0.072453 -0.038810
-0.520985 0.071801 -0.038830
-0.520227 0.071148 -0.038851
-0.519469 0.070496 -0.038871
-0.518711 0.069843 -0.038892
-0.517954 0.069191 -0.038913
-0.517196 0.068539 -0.038933
-0.516438 0.067886 -0.038954
-0.515680 0.067234 -0.038974
-0.514922 0.066582 -0.038995
-0.514164 0.065929 -0.039015
-0.513406 0.065277 -0.039036
-0.512648 0.064624 -0.039057
-0.511891 0.063972 -0.039077
-0.511133 0.063320 -0.039098
-0.510375 0.062667 -0.039118
-0.509617 0.062015 -0.039139
-0.508859 0.061362 -0.039159
-0.508101 0.060710 -0.039180
-0.507343 0.060058 -0.039201
-0.506585 0.059405 -0.039221
-0.505828 0.058753 -0.039242
-0.505070 0.058101 -0.039262
-0.504312 0.057448 -0.039283
-0.503554 0.056796 -0.039304
-0.502796 0.056143 -0.039324
-0.502038 0.055491 -0.039345
-0.501280 0.054839 -0.039365
-0.500522 0.054186 -0.039386
-0.499765 0.053534 -0.039406
-0.499007 0.052882 -0.039427
-0.498249 0.052229 -0.039448
-0.497491 0.051577 -0.039468
-0.496733 0.050924 -0.039489
-0.495975 0.050272 -0.039509
-0.495217 0.049620 -0.039530
-0.494459 0.048967 -0.039550
-0.493702 0.048315 -0.039571
-0.492944 0.047663 -0.039592
-0.492186 0.047010 -0.039612
-0.491428 0.046358 -0.039633
-0.490670 0.045705 -0.039653
-0.489912 0.045053 -0.039674
-0.489154 0.044401 -0.039694
-0.488396 0.043748 -0.039715
-0.487639 0.043096 -0.039736
-0.486881 0.042444 -0.039756
-0.486123 0.041791 -0.039777
-0.485365 0.041139 -0.039797
-0.484607 0.040486 -0.039818
-0.483849 0.039834 -0.039838
-0.483091 0.039182 -0.039859
-0.482334 0.038529 -0.039880
-0.481576 0.037877 -0.039900
-0.480818 0.037225 -0.039921
-0.480060 0.036572 -0.039941
-0.479302 0.035920 -0.039962
-0.478544 0.035267 -0.039982
-0.477786 0.034615 -0.040003
-0.477028 0.033963 -0.040024
-0.476271 0.033310 -0.040044
-0.475513 0.032658 -0.040065
-0.474755 0.032006 -0.040085
-0.473997 0.031353 -0.040106
-0.473239 0.030701 -0.040126
-0.472481 0.030048 -0.040147
-0.471723 0.029396 -0.040168
-0.470965 0.028744 -0.040188
-0.470208 0.028091 -0.040209
-0.469450 0.027439 -0.040229
-0.468692 0.026787 -0.040250
-0.467934 0.026134 -0.040271
-0.467176 0.025482 -0.040291
-0.466418 0.024829 -0.040312
-0.465660 0.024177 -0.040332
-0.464902 0.023525 -0.040353
-0.464145 0.022872 -0.040373
-0.463387 0.022220 -0.040394
-0.462629 0.021568 -0.040415
-0.461871 0.020915 -0.040435
-0.461113 0.020263 -0.040456
-0.460355 0.019610 -0.040476
-0.459597 0.018958 -0.040497
-0.458839 0.018306 -0.040517
-0.458082 0.017653 -0.040538
-0.457324 0.017001 -0.040559
-0.456566 0.016349 -0.040579
-0.455808 0.015696 -0.040600
-0.455050 0.015044 -0.040620
-0.454292 0.014391 -0.040641
-0.453534 0.013739 -0.040661
-0.452776 0.013087 -0.040682
-0.452019 0.012434 -0.040703
-0.451261 0.011782 -0.040723
-0.450503 0.011130 -0.040744
-0.449745 0.010477 -0.040764
-0.448987 0.009825 -0.040785
-0.448229 0.009172 -0.040805
-0.447471 0.008520 -0.040826
-0.446713 0.007868 -0.040847
-0.445956 0.007215 -0.040867
-0.445198 0.006563 -0.040888
-0.444440 0.005911 -0.040908
-0.443682 0.005258 -0.040929
