ply
format ascii 1.0
element vertex 869
property float x
property float y
property float z
end_header
-0.532080 0.037164 -0.037697
-0.532514 0.041820 -0.053582
-0.532059 0.044791 -0.007289
-0.528361 0.028951 -0.057315
-0.528422 0.028881 -0.020359
-0.529796 0.032702 -0.060226
-0.529735 0.034801 -0.033551
-0.529609 0.041202 -0.057910
-0.531110 0.040350 -0.053964
-0.531026 0.045752 -0.061214
-0.528580 0.048978 -0.097379
-0.529604 0.048618 -0.089370
-0.531515 0.049867 -0.073731
-0.530806 0.051110 -0.066272
-0.529976 0.054886 -0.077592
-0.528810 0.052476 -0.007847
-0.524455 0.025012 -0.089764
-0.526025 0.025560 -0.056363
-0.524219 0.027770 -0.039045
-0.525265 0.029264 -0.062779
-0.525901 0.031530 -0.048604
-0.525980 0.031231 -0.042897
-0.525986 0.030580 -0.032444
-0.524704 0.031773 -0.026472
-0.525856 0.028296 -0.016766
-0.524379 0.031687 -0.008877
-0.524417 0.031668 -0.004585
-0.524268 0.033414 -0.087920
-0.524669 0.034047 -0.074439
-0.525043 0.033283 -0.065814
-0.525569 0.034073 -0.053295
-0.525124 0.034517 -0.051562
-0.524582 0.033079 -0.046965
-0.525221 0.034430 -0.040056
-0.525510 0.034894 -0.029974
-0.525623 0.035083 -0.025815
-0.524568 0.033276 -0.021630
-0.525452 0.033890 -0.001102
-0.525697 0.037977 -0.092935
-0.525314 0.036436 -0.090865
-0.525881 0.038282 -0.084279
-0.525883 0.037511 -0.068437
-0.525789 0.036845 -0.060141
-0.527035 0.037276 -0.054723
-0.525771 0.036009 -0.040357
-0.526649 0.039278 -0.037980
-0.526484 0.038262 -0.032422
-0.526322 0.037315 -0.025266
-0.526437 0.037646 -0.022744
-0.526508 0.037498 -0.013950
-0.526580 0.037678 -0.010093
-0.526140 0.038326 -0.005809
-0.525290 0.038387 -0.003554
-0.526346 0.036340 0.000257
-0.524644 0.041076 -0.097537
-0.525878 0.042443 -0.094606
-0.526499 0.042204 -0.088286
-0.526387 0.041272 -0.087951
-0.526698 0.043529 -0.080543
-0.526748 0.042954 -0.072493
-0.526792 0.043294 -0.071154
-0.526812 0.042161 -0.061850
-0.526927 0.042749 -0.056200
-0.526757 0.041061 -0.053911
-0.527011 0.043029 -0.051025
-0.525336 0.042577 -0.018484
-0.525773 0.041425 -0.014557
-0.527420 0.042292 -0.009401
-0.525989 0.042322 -0.004942
-0.526700 0.041856 -0.002457
-0.525204 0.041563 0.001484
-0.526591 0.045655 -0.093410
-0.526615 0.046626 -0.088853
-0.526733 0.045595 -0.081354
-0.525667 0.046586 -0.076724
-0.526761 0.047481 -0.073416
-0.526898 0.045584 -0.068179
-0.526937 0.045579 -0.064955
-0.526964 0.045344 -0.063095
-0.527018 0.045731 -0.057636
-0.527053 0.044764 -0.054676
-0.524462 0.044188 -0.019179
-0.524551 0.045566 -0.013709
-0.525691 0.047736 -0.009950
-0.526141 0.045953 -0.006235
-0.524754 0.046009 0.003234
-0.525472 0.049181 -0.097413
-0.526336 0.049520 -0.091513
-0.526411 0.049277 -0.087768
-0.526354 0.050756 -0.074155
-0.525754 0.049611 -0.069714
-0.526706 0.049198 -0.013959
-0.526362 0.050872 -0.010220
-0.527305 0.049971 -0.005275
-0.524373 0.049724 -0.002399
-0.527342 0.050477 0.002022
-0.525402 0.050361 0.005155
-0.524815 0.055072 -0.089337
-0.525749 0.052965 -0.085266
-0.525558 0.055521 -0.080478
-0.526443 0.053423 -0.078080
-0.525808 0.053143 -0.075106
-0.525506 0.054429 -0.070934
-0.526154 0.052375 -0.063687
-0.526358 0.054340 -0.006262
-0.526055 0.055441 -0.001992
-0.526285 0.054919 0.002575
-0.526090 0.055593 0.004802
-0.524838 0.059467 -0.089275
-0.525698 0.057743 -0.081523
-0.525600 0.057850 -0.073122
-0.524187 0.057974 -0.071066
-0.525192 0.057680 -0.002712
-0.527793 0.057686 0.003376
-0.524635 0.058487 0.005391
-0.525421 0.062550 -0.089225
-0.524855 0.060106 -0.075409
-0.527252 0.061491 -0.001885
-0.527275 0.076289 -0.089009
-0.522525 0.022491 -0.058243
-0.520273 0.023137 -0.036699
-0.520849 0.027306 -0.088741
-0.521022 0.027315 -0.073517
-0.520298 0.026280 -0.069109
-0.520915 0.027046 -0.065509
-0.520868 0.026958 -0.062048
-0.520162 0.025499 -0.049988
-0.521243 0.026389 -0.046379
-0.521364 0.025971 -0.042271
-0.522417 0.025619 -0.039098
-0.521803 0.027775 -0.032796
-0.520842 0.025927 -0.029560
-0.521376 0.026865 -0.026328
-0.521546 0.027237 -0.020539
-0.521066 0.027307 -0.010561
-0.521691 0.028619 -0.093272
-0.521554 0.028345 -0.089435
-0.523052 0.030418 -0.068117
-0.520143 0.031335 -0.065515
-0.522745 0.029676 -0.056790
-0.522187 0.028977 -0.053179
-0.521816 0.028069 -0.049392
-0.522683 0.030277 -0.041237
-0.522151 0.028366 -0.036600
-0.523757 0.031021 -0.033392
-0.522827 0.029376 -0.031248
-0.522266 0.028364 -0.026183
-0.521137 0.030328 -0.021643
-0.523549 0.030341 -0.019553
-0.523186 0.029530 -0.009604
-0.523600 0.030173 -0.006175
-0.521628 0.035000 -0.090055
-0.521538 0.034622 -0.086422
-0.521712 0.034774 -0.076527
-0.521182 0.033615 -0.071078
-0.521695 0.034428 -0.065935
-0.521086 0.034576 -0.062406
-0.521962 0.034849 -0.057353
-0.522187 0.035261 -0.052047
-0.522331 0.035574 -0.050340
-0.521934 0.034513 -0.046840
-0.521411 0.033239 -0.043345
-0.522131 0.034479 -0.029658
-0.521925 0.033942 -0.026350
-0.522896 0.034504 -0.021777
-0.521305 0.032509 -0.019560
-0.521714 0.033148 -0.012792
-0.522167 0.034100 -0.009639
-0.522246 0.034136 -0.005962
-0.522090 0.033726 -0.001357
-0.522421 0.034353 0.000746
-0.522031 0.036131 -0.093439
-0.523578 0.038566 -0.089584
-0.522389 0.036916 -0.085625
-0.522409 0.036338 -0.066767
-0.522532 0.036405 -0.058158
-0.523353 0.039036 -0.052244
-0.522999 0.036299 -0.014546
-0.520299 0.037190 -0.011949
-0.522599 0.037362 -0.004664
-0.523271 0.038921 -0.002765
-0.523379 0.042275 -0.094167
-0.523475 0.041872 -0.085056
-0.523768 0.043811 -0.075840
-0.523712 0.042202 -0.068721
-0.523815 0.041892 -0.056599
-0.523811 0.047712 -0.097454
-0.523557 0.047368 -0.090244
-0.523632 0.047022 -0.086127
-0.523646 0.045558 -0.077894
-0.523785 0.046698 -0.074932
-0.522227 0.045866 -0.069939
-0.523920 0.044665 -0.065470
-0.522008 0.050980 -0.097430
-0.523083 0.050742 -0.092820
-0.523452 0.049570 -0.078366
-0.523066 0.050349 -0.071464
-0.522569 0.051139 0.003106
-0.521195 0.054826 -0.089525
-0.522726 0.052556 -0.087076
-0.521429 0.055179 -0.074819
-0.522720 0.053210 -0.071660
-0.523708 0.052532 -0.009236
-0.522856 0.055384 -0.004661
-0.520676 0.055889 -0.001080
-0.523444 0.053848 0.001416
-0.521455 0.058173 -0.093544
-0.520407 0.058415 -0.089411
-0.521697 0.059228 -0.082492
-0.520952 0.057595 -0.079522
-0.520880 0.057840 -0.075499
-0.523883 0.058639 -0.071736
-0.521861 0.057667 -0.006109
-0.521849 0.057765 -0.003127
-0.521437 0.058719 0.002303
-0.523206 0.056321 0.005412
-0.520658 0.063591 -0.093168
-0.521456 0.060287 -0.090182
-0.521227 0.062851 -0.087508
-0.522242 0.061433 -0.077243
-0.521190 0.063190 -0.074449
-0.523227 0.060000 -0.069365
-0.523619 0.060768 -0.005729
-0.521206 0.060987 -0.001596
-0.521045 0.061309 0.001726
-0.520583 0.071784 0.003794
-0.517481 0.019746 -0.040245
-0.517610 0.023277 -0.069669
-0.517574 0.022569 -0.064612
-0.516661 0.022272 -0.057413
-0.517299 0.022840 -0.055661
-0.516923 0.022432 -0.049125
-0.518194 0.023560 -0.040663
-0.517723 0.023076 -0.038121
-0.517962 0.022877 -0.034669
-0.518140 0.022167 -0.029363
-0.517302 0.022567 -0.024539
-0.517402 0.023478 -0.021264
-0.518555 0.023646 -0.014444
-0.517938 0.023002 -0.008819
-0.516846 0.027125 -0.094137
-0.516543 0.026733 -0.089840
-0.516371 0.026488 -0.085450
-0.517930 0.025831 -0.072779
-0.519462 0.025283 -0.070457
-0.517906 0.025731 -0.065414
-0.517387 0.026232 -0.061575
-0.518739 0.025650 -0.056439
-0.518178 0.025573 -0.054212
-0.518826 0.025808 -0.049682
-0.519296 0.024812 -0.047949
-0.519621 0.025087 -0.040475
-0.518525 0.026088 -0.037071
-0.517053 0.026566 -0.028127
-0.519672 0.025496 -0.026113
-0.518118 0.027736 -0.023032
-0.518262 0.027821 -0.016062
-0.518066 0.025995 -0.010391
-0.518435 0.025595 -0.005867
-0.517756 0.027036 -0.001592
-0.518714 0.029557 -0.089980
-0.517891 0.028169 -0.076230
-0.518692 0.030120 -0.072749
-0.518652 0.029065 -0.067602
-0.518803 0.030959 -0.063157
-0.518501 0.028621 -0.051860
-0.518892 0.028985 -0.040298
-0.519881 0.030407 -0.038507
-0.518581 0.028476 -0.034902
-0.519179 0.029196 -0.027081
-0.519628 0.059742 -0.092375
-0.519694 0.059662 -0.090781
-0.519718 0.059696 -0.087465
-0.518046 0.063128 -0.093304
-0.518816 0.062025 -0.089312
-0.518735 0.061298 -0.081123
-0.518731 0.062854 0.003447
-0.519202 0.065423 -0.094251
-0.517638 0.065795 -0.089543
-0.517746 0.067140 -0.085347
-0.516007 0.065832 0.003359
-0.517829 0.066448 0.005461
-0.517408 0.069938 -0.097219
-0.516241 0.068599 -0.083024
-0.516873 0.072301 -0.081184
-0.514256 0.015255 -0.090024
-0.512151 0.014317 -0.046401
-0.512067 0.013184 -0.015427
-0.512533 0.019393 -0.094094
-0.513095 0.019750 -0.090821
-0.512062 0.018980 -0.074915
-0.513503 0.018704 -0.065146
-0.514727 0.017219 -0.063659
-0.513442 0.019395 -0.054662
-0.513885 0.018502 -0.046033
-0.513751 0.019847 -0.038314
-0.513736 0.019698 -0.017134
-0.513766 0.019705 -0.015205
-0.512421 0.018802 -0.006080
-0.513413 0.019390 -0.003472
-0.512287 0.022380 -0.097950
-0.513616 0.021436 -0.094425
-0.515197 0.021305 -0.089470
-0.512748 0.023110 -0.078806
-0.515780 0.021637 -0.071456
-0.514286 0.021649 -0.065802
-0.512799 0.023037 -0.062722
-0.515337 0.021157 -0.057278
-0.513597 0.023576 -0.054045
-0.514050 0.022002 -0.049491
-0.513860 0.023734 -0.046936
-0.515072 0.020791 -0.037005
-0.513274 0.023156 -0.032229
-0.512032 0.022248 -0.029682
-0.512246 0.022362 -0.025076
-0.513318 0.022190 -0.021327
-0.515745 0.021167 -0.018625
-0.513524 0.021317 -0.009314
-0.513590 0.021341 -0.006356
-0.515646 0.024641 -0.094455
-0.513657 0.024445 -0.089903
-0.514241 0.024268 -0.072722
-0.514452 0.024441 -0.070775
-0.514936 0.024796 -0.061416
-0.515349 0.025261 -0.058803
-0.514700 0.024513 -0.054415
-0.515279 0.025014 -0.051146
-0.515594 0.025173 -0.037522
-0.515883 0.025403 -0.032783
-0.515864 0.025317 -0.026557
-0.515710 0.027187 -0.016435
-0.514856 0.026376 -0.006055
-0.513806 0.029659 -0.074755
-0.514548 0.030309 -0.012107
-0.513399 0.063159 -0.097363
-0.515347 0.062441 -0.089348
-0.515044 0.061420 -0.086019
-0.515418 0.067740 -0.097274
-0.513780 0.066615 -0.088722
-0.513441 0.066962 -0.086538
-0.512221 0.067984 -0.083319
-0.515259 0.066537 0.004837
-0.514207 0.068563 -0.094385
-0.513849 0.070491 -0.081487
-0.515004 0.069682 -0.078568
-0.513863 0.070129 0.002136
-0.513090 0.070102 0.005101
-0.508501 0.011435 -0.027495
-0.511928 0.013276 -0.042332
-0.511514 0.013468 -0.032018
-0.509311 0.014693 -0.023032
-0.510766 0.013729 -0.013076
-0.509700 0.017773 -0.092679
-0.509972 0.017926 -0.089972
-0.509930 0.017802 -0.073679
-0.509409 0.017959 -0.071167
-0.510160 0.017854 -0.065825
-0.509874 0.017693 -0.060795
-0.508111 0.016204 -0.059323
-0.509356 0.017425 -0.053609
-0.511049 0.018251 -0.049389
-0.510720 0.018056 -0.041951
-0.509195 0.017272 -0.039614
-0.509283 0.017311 -0.034247
-0.509777 0.017496 -0.026958
-0.510217 0.016033 -0.022596
-0.510695 0.017889 -0.014471
-0.509800 0.017435 -0.009791
-0.509389 0.019078 -0.005554
-0.510821 0.021849 -0.093077
-0.510193 0.021459 -0.090524
-0.508854 0.020630 -0.076660
-0.508623 0.020468 -0.072980
-0.510352 0.021428 -0.070906
-0.509068 0.021354 -0.064753
-0.510755 0.021614 -0.060886
-0.511550 0.022101 -0.056686
-0.509512 0.020855 -0.054443
-0.509275 0.020593 -0.024566
-0.508711 0.020295 -0.023494
-0.508913 0.020369 -0.018066
-0.510610 0.021691 -0.014377
-0.510984 0.021482 -0.010238
-0.511363 0.021794 -0.006617
-0.510286 0.021055 -0.002219
-0.508493 0.020085 0.002040
-0.509181 0.024986 -0.075382
-0.510656 0.026217 -0.066097
-0.511516 0.024608 -0.004534
-0.511365 0.066486 -0.087556
-0.509032 0.069908 -0.093062
-0.509316 0.069907 -0.090135
-0.511460 0.071352 -0.087402
-0.511080 0.068773 -0.083416
-0.510401 0.070306 0.005088
-0.510196 0.073951 -0.097250
-0.511137 0.072217 -0.087557
-0.510844 0.076140 -0.088222
-0.510451 0.090104 -0.089019
-0.509386 0.089055 -0.087563
-0.505609 0.011612 -0.090180
-0.505850 0.010614 -0.023035
-0.505000 0.015807 -0.090250
-0.504657 0.015572 -0.027344
-0.504086 0.015422 -0.022903
-0.506059 0.015969 -0.014068
-0.504321 0.015458 -0.007329
-0.505885 0.015894 -0.003712
-0.505356 0.015725 0.000895
-0.506908 0.016871 -0.093567
-0.506703 0.018213 -0.090669
-0.507170 0.018162 -0.076490
-0.507058 0.016470 -0.065645
-0.505798 0.019175 -0.059746
-0.507025 0.016350 -0.029124
-0.506958 0.016295 -0.020191
-0.507335 0.016431 -0.017574
-0.505656 0.018119 -0.013756
-0.506162 0.017574 -0.009741
-0.507604 0.017821 -0.006164
-0.504942 0.019595 -0.002843
-0.507163 0.016313 0.000177
-0.507816 0.020101 -0.078749
-0.506439 0.020857 -0.074939
-0.505223 0.023095 -0.000973
-0.505176 0.024375 -0.000254
-0.504789 0.057275 -0.087555
-0.506405 0.061612 -0.089468
-0.507493 0.071286 -0.097320
-0.507709 0.071993 -0.094433
-0.506024 0.071931 -0.088381
-0.506160 0.071302 -0.086369
-0.504777 0.070696 -0.082412
-0.507500 0.070786 -0.079965
-0.505905 0.074577 -0.093495
-0.506307 0.074747 -0.089670
-0.505939 0.074584 -0.086180
-0.504716 0.075018 -0.083977
-0.504219 0.072057 -0.078912
-0.505582 0.075203 0.001349
-0.507503 0.073231 0.005575
-0.507871 0.079330 -0.089201
-0.507610 0.077830 0.005671
-0.504416 0.091450 -0.086687
-0.504270 0.094540 -0.085368
-0.501291 0.010439 -0.090249
-0.500670 0.011447 -0.073477
-0.501943 0.015388 -0.093277
-0.503507 0.015377 -0.091166
-0.502311 0.015098 -0.080319
-0.500944 0.014813 -0.078616
-0.502207 0.015125 -0.074325
-0.501005 0.014823 -0.070094
-0.500803 0.014787 -0.066960
-0.502065 0.012342 -0.063141
-0.502283 0.015020 -0.021637
-0.501793 0.014920 -0.017968
-0.501908 0.014996 -0.014441
-0.501607 0.014888 -0.009182
-0.502921 0.015225 -0.005447
-0.500076 0.014682 0.002193
-0.501561 0.017808 -0.093900
-0.501532 0.018745 -0.090344
-0.503797 0.018568 -0.086095
-0.501007 0.017879 -0.081964
-0.503188 0.018368 -0.077291
-0.501953 0.016626 -0.075729
-0.501464 0.017960 -0.069527
-0.503541 0.019007 -0.067119
-0.502438 0.018115 -0.017410
-0.500624 0.017777 -0.014747
-0.500566 0.017768 -0.010364
-0.502314 0.018066 -0.001908
-0.502639 0.018167 0.001484
-0.500463 0.020064 -0.070610
-0.501658 0.021865 0.000548
-0.503277 0.062094 -0.088649
-0.503338 0.071071 -0.082438
-0.502417 0.074749 -0.089046
-0.503050 0.074438 -0.084690
-0.501714 0.074737 -0.080975
-0.501538 0.077456 -0.088669
-0.501665 0.076101 0.003797
-0.500754 0.077213 0.004658
-0.501881 0.080614 -0.081773
-0.502837 0.086416 -0.089163
-0.500015 0.084600 -0.087068
-0.500575 0.088470 -0.089161
-0.500378 0.094894 -0.089073
-0.498754 0.011222 -0.065787
-0.496314 0.014357 -0.094202
-0.498205 0.014712 -0.091103
-0.496095 0.014367 -0.085488
-0.497210 0.014418 -0.082059
-0.499953 0.014661 -0.076985
-0.496365 0.013466 -0.069030
-0.498941 0.014552 -0.062274
-0.499374 0.014090 -0.002979
-0.497034 0.014532 0.002492
-0.498436 0.014553 0.004634
-0.498390 0.016976 -0.094235
-0.497497 0.017425 -0.088979
-0.497940 0.017495 -0.086082
-0.498018 0.017464 -0.082699
-0.498548 0.017517 -0.076700
-0.497420 0.017109 -0.071011
-0.499483 0.017621 -0.065661
-0.499802 0.017664 -0.010557
-0.496988 0.017497 -0.002043
-0.497982 0.017546 0.004316
-0.496879 0.021582 -0.081213
-0.496073 0.040376 -0.086817
-0.499125 0.069776 -0.088449
-0.498081 0.074085 -0.088092
-0.496338 0.073346 -0.086601
-0.498688 0.074092 -0.082132
-0.497535 0.073306 -0.079397
-0.497539 0.073468 0.003397
-0.496855 0.073908 0.005506
-0.496835 0.076324 -0.089887
-0.498185 0.076850 -0.085761
-0.496509 0.077699 -0.081439
-0.497712 0.076300 -0.079061
-0.497894 0.076478 0.005108
-0.497108 0.076959 0.010849
-0.499206 0.088614 -0.086183
-0.497343 0.094908 -0.084151
-0.497141 0.097030 -0.083436
-0.495663 0.013443 -0.098276
-0.493702 0.014413 -0.094150
-0.494428 0.014028 -0.090602
-0.494355 0.014397 -0.084920
-0.493617 0.014443 -0.082545
-0.494203 0.014440 -0.073871
-0.493637 0.014482 -0.064640
-0.494469 0.014587 -0.003010
-0.494570 0.015072 0.000739
-0.493679 0.014664 0.004175
-0.494011 0.017083 -0.094182
-0.495162 0.017593 -0.089984
-0.494033 0.017418 -0.085324
-0.494431 0.017900 -0.081168
-0.493729 0.017460 -0.078486
-0.494151 0.017437 -0.073645
-0.493900 0.017459 -0.070266
-0.494584 0.017636 0.001541
-0.492441 0.020081 -0.090220
-0.493914 0.022266 -0.075856
-0.492372 0.035689 -0.090002
-0.492627 0.033613 -0.086394
-0.492387 0.071295 -0.087855
-0.493076 0.075038 -0.097442
-0.492792 0.073190 -0.093612
-0.494065 0.074148 -0.087166
-0.494055 0.074246 -0.081617
-0.494335 0.073326 -0.077696
-0.493994 0.073290 0.001653
-0.494534 0.072974 0.004884
-0.495464 0.076341 -0.092101
-0.494112 0.077918 -0.087158
-0.495099 0.076351 -0.077720
-0.492740 0.076230 0.001556
-0.492482 0.077891 0.009925
-0.495393 0.081594 -0.089320
-0.495406 0.081604 -0.086764
-0.490542 0.011211 -0.090368
-0.490550 0.011069 -0.080131
-0.490239 0.011623 0.001879
-0.488732 0.015134 -0.090290
-0.490921 0.014744 -0.084029
-0.490496 0.014845 -0.078285
-0.490164 0.013606 -0.074062
-0.491458 0.014921 -0.008487
-0.490347 0.012129 -0.005447
-0.488466 0.013687 0.003571
-0.489530 0.018053 -0.089460
-0.490439 0.017862 -0.085493
-0.490962 0.017085 -0.082357
-0.490436 0.017903 -0.077597
-0.489908 0.018048 -0.074167
-0.491707 0.017699 -0.071808
-0.491222 0.018050 0.000671
-0.488273 0.018833 0.004572
-0.490944 0.031589 -0.090077
-0.490090 0.039455 -0.089085
-0.490964 0.038506 -0.087628
-0.489810 0.067966 -0.089579
-0.488591 0.067015 -0.087918
-0.488615 0.070615 -0.081250
-0.489583 0.071443 0.004115
-0.488453 0.074564 -0.093660
-0.490453 0.075903 -0.089166
-0.488110 0.075410 -0.087058
-0.489674 0.073684 -0.080999
-0.489452 0.072640 -0.077342
-0.489711 0.075664 0.001120
-0.491306 0.074416 0.005769
-0.489130 0.076333 -0.089470
-0.491539 0.076071 -0.084070
-0.491548 0.076072 -0.078573
-0.491181 0.077119 0.003524
-0.491648 0.076070 0.004717
-0.490295 0.076696 0.009644
-0.491819 0.085822 -0.089304
-0.485831 0.011922 -0.090415
-0.486347 0.015777 -0.092071
-0.486692 0.015697 -0.086721
-0.486196 0.015883 -0.081063
-0.486102 0.015964 -0.071529
-0.487445 0.015879 -0.008486
-0.486529 0.015241 -0.001904
-0.487895 0.015791 0.001311
-0.484375 0.016482 -0.089054
-0.485844 0.016016 -0.076844
-0.486402 0.017441 -0.075223
-0.485561 0.016547 -0.005509
-0.485549 0.019806 -0.003414
-0.484644 0.016964 0.001369
-0.486698 0.018556 0.005718
-0.485453 0.020786 0.000527
-0.487891 0.031696 -0.087213
-0.486176 0.032307 -0.087679
-0.487504 0.036600 -0.090048
-0.486660 0.065425 -0.089653
-0.485421 0.071426 -0.092666
-0.484853 0.071187 -0.091488
-0.484468 0.071005 -0.085045
-0.486296 0.071717 -0.081999
-0.484797 0.071120 -0.078674
-0.486436 0.071135 0.001552
-0.485411 0.071060 0.004430
-0.486569 0.074004 -0.093240
-0.486947 0.074533 -0.089605
-0.487627 0.072166 -0.086793
-0.487167 0.074091 -0.081386
-0.484868 0.074958 -0.079380
-0.486527 0.074759 -0.000142
-0.487473 0.073172 0.003336
-0.486023 0.073415 0.005834
-0.486363 0.076153 0.008775
-0.487358 0.080564 -0.089432
-0.486965 0.084023 -0.089388
-0.481478 0.013976 -0.000248
-0.481987 0.019638 -0.094041
-0.481996 0.017144 -0.089926
-0.482380 0.017378 -0.085609
-0.482298 0.017212 -0.078512
-0.482482 0.017928 -0.004290
-0.482887 0.017746 -0.002254
-0.481101 0.021377 -0.094033
-0.481987 0.020483 -0.090512
-0.480626 0.021778 -0.084664
-0.482311 0.020819 -0.079932
-0.482431 0.023347 0.002163
-0.481307 0.020413 0.008114
-0.480081 0.029815 0.003889
-0.480043 0.067989 -0.002547
-0.481290 0.069385 -0.093578
-0.482849 0.069570 -0.086050
-0.483167 0.070372 -0.082538
-0.482610 0.070069 -0.078045
-0.483211 0.069994 0.001812
-0.481177 0.072780 -0.093537
-0.480451 0.072366 -0.088659
-0.482397 0.074081 -0.085972
-0.481077 0.072655 -0.082688
-0.481283 0.072753 -0.076501
-0.483501 0.073518 0.000456
-0.479507 0.018904 -0.088462
-0.478021 0.019885 -0.087062
-0.479665 0.018859 -0.082741
-0.479031 0.019504 0.002128
-0.479293 0.019929 0.005997
-0.477882 0.022175 -0.093739
-0.479424 0.020697 -0.090369
-0.477410 0.021264 -0.086554
-0.477339 0.021342 0.003378
-0.478907 0.022585 0.005999
-0.477216 0.021987 0.009271
-0.478466 0.024738 -0.088093
-0.476992 0.025577 -0.082890
-0.477486 0.025187 -0.001035
-0.477854 0.024870 0.003331
-0.477625 0.025058 0.006011
-0.476431 0.031127 -0.082920
-0.478448 0.061988 0.003183
-0.477419 0.066621 -0.091615
-0.479837 0.065183 -0.086741
-0.476844 0.065993 -0.080915
-0.477514 0.066576 -0.076988
-0.477887 0.066489 0.001260
-0.476325 0.064648 0.005965
-0.477815 0.067237 0.008279
-0.479028 0.068597 -0.093170
-0.478139 0.070356 -0.089472
-0.477823 0.070852 -0.085147
-0.476862 0.069895 -0.074835
-0.478244 0.070376 -0.000850
-0.477693 0.069930 0.001905
-0.478621 0.068961 0.008125
-0.479440 0.074587 -0.084299
-0.475051 0.016560 -0.087574
-0.474794 0.022488 -0.084244
-0.474393 0.022918 -0.080042
-0.474419 0.023962 -0.001154
-0.473474 0.023857 0.004777
-0.474055 0.025615 -0.081565
-0.472377 0.025075 -0.076883
-0.473655 0.024813 0.001121
-0.474296 0.025932 0.005204
-0.473180 0.028721 -0.086260
-0.473818 0.030198 -0.083116
-0.472893 0.030851 0.002296
-0.473361 0.029358 0.005124
-0.473822 0.033238 -0.089207
-0.472654 0.033583 0.004734
-0.473034 0.041307 -0.088979
-0.472777 0.046718 0.004252
-0.474922 0.049686 -0.090016
-0.473409 0.059181 0.003013
-0.472426 0.059312 0.004096
-0.474177 0.061993 -0.090619
-0.473019 0.062582 -0.085669
-0.473189 0.061930 -0.080379
-0.472559 0.061027 -0.079497
-0.472935 0.061485 -0.074056
-0.475018 0.063214 -0.003573
-0.474610 0.062625 0.001831
-0.475594 0.063794 0.005031
-0.475130 0.064438 -0.092159
-0.473715 0.067238 -0.089066
-0.472651 0.066087 -0.086656
-0.474200 0.065495 -0.081657
-0.473006 0.066349 -0.078422
-0.474638 0.067275 -0.004064
-0.473311 0.066080 0.000855
-0.474849 0.065994 0.007676
-0.472791 0.068400 -0.083921
-0.474453 0.069725 -0.077671
-0.474905 0.068241 -0.074551
-0.475649 0.068200 0.001432
-0.475963 0.073050 -0.083570
-0.469754 -0.002291 -0.090809
-0.468530 0.001275 -0.086220
-0.470173 0.022612 -0.089568
-0.468031 0.023850 -0.083280
-0.471008 0.026561 -0.088581
-0.471279 0.026273 -0.085832
-0.471451 0.027585 0.001447
-0.470737 0.026368 0.004466
-0.469803 0.029352 -0.090377
-0.469177 0.029344 -0.086596
-0.470526 0.030645 -0.082762
-0.469008 0.029770 -0.077704
-0.469860 0.030398 0.005177
-0.470048 0.033931 -0.092855
-0.469368 0.034180 -0.082432
-0.469473 0.034316 0.002530
-0.469843 0.034632 0.005197
-0.468440 0.038684 -0.090396
-0.468786 0.037611 -0.086042
-0.468570 0.038693 -0.080639
-0.468904 0.037454 -0.079989
-0.469764 0.038089 0.002740
-0.468144 0.040125 -0.089146
-0.469140 0.041103 0.005016
-0.470682 0.045951 -0.089200
-0.469341 0.046079 0.002632
-0.468831 0.046886 0.005657
-0.468269 0.044324 0.009928
-0.471317 0.048368 -0.090078
-0.468159 0.049798 -0.076140
-0.469285 0.051144 -0.002292
-0.469260 0.050804 0.001008
-0.468911 0.048088 0.004984
-0.470523 0.049491 0.009677
-0.469549 0.055341 -0.084484
-0.469425 0.054156 -0.081907
-0.469460 0.054954 -0.079479
-0.469324 0.054395 -0.074685
-0.469797 0.053281 -0.003535
-0.470296 0.055008 0.002400
-0.470711 0.057682 -0.097956
-0.470094 0.056790 -0.089553
-0.469833 0.058458 -0.085535
-0.470227 0.056857 -0.081561
-0.470254 0.057224 -0.078996
-0.469998 0.056222 -0.075930
-0.468663 0.058747 -0.004034
-0.469777 0.057539 -0.002473
-0.470626 0.057696 0.001582
-0.468920 0.059057 0.004459
-0.468274 0.061927 -0.097926
-0.470764 0.061644 -0.093344
-0.470530 0.060752 -0.085869
-0.470581 0.062223 -0.005036
-0.469332 0.063641 -0.000309
-0.470575 0.062829 0.002023
-0.471704 0.064847 -0.075524
-0.464021 0.004356 -0.088010
-0.466962 0.026882 -0.089375
-0.467900 0.031671 -0.084392
-0.466608 0.033949 -0.089875
-0.466412 0.035386 -0.080473
-0.467011 0.033841 -0.079616
-0.466808 0.039071 -0.093668
-0.465653 0.037982 -0.090116
-0.465789 0.037435 -0.080770
-0.465589 0.038402 -0.077643
-0.466894 0.037248 0.003485
-0.466907 0.037296 0.005542
-0.464966 0.040639 -0.092986
-0.466241 0.042326 -0.089579
-0.467897 0.041793 -0.087998
-0.464971 0.041955 -0.082549
-0.465218 0.040226 -0.078342
-0.466132 0.044266 -0.092498
-0.466155 0.045737 -0.089718
-0.467406 0.047230 -0.086851
-0.465721 0.046439 -0.080589
-0.464811 0.045877 -0.076514
-0.465764 0.047492 -0.002589
-0.467756 0.047910 0.009362
-0.466491 0.051665 -0.098092
-0.464702 0.051510 -0.089159
-0.466250 0.051286 -0.002459
-0.467283 0.050333 0.002572
-0.466221 0.049003 0.006111
-0.466314 0.052397 -0.098084
-0.465778 0.053661 -0.090239
-0.465640 0.052918 -0.085331
-0.465663 0.052886 -0.082282
-0.465661 0.052751 -0.079672
-0.466618 0.052892 -0.000848
-0.467445 0.056600 -0.098011
-0.467260 0.058344 -0.084977
-0.466085 0.056177 0.001275
-0.465457 0.061191 -0.001169
-0.460967 0.005913 -0.088801
-0.462009 0.009776 -0.089028
-0.460013 0.026648 -0.089251
-0.460388 0.031532 -0.090447
-0.463132 0.037772 -0.089267
-0.463194 0.043386 -0.090247
-0.463197 0.040378 -0.081882
-0.463151 0.045741 -0.090214
-0.460795 0.045271 -0.086629
-0.461652 0.049951 -0.079194
-0.460965 0.051460 0.000184
-0.463125 0.053539 -0.085168
-0.462049 0.056207 -0.000934
-0.458485 0.030017 -0.089557
-0.456773 0.036691 -0.090418
-0.455663 0.028173 -0.089623
-0.453613 0.035140 -0.090478
-0.454776 0.038635 -0.086652
-0.451127 0.036949 -0.090483
-0.444868 0.018003 -0.090825
-0.446765 0.038646 -0.090512
-0.442477 -0.031122 -0.091544
-0.441966 -0.028737 -0.087294
-0.442923 0.021393 -0.090801
-0.437695 -0.034857 -0.091655
-0.436576 -0.030062 -0.091601
-0.438378 -0.027694 -0.089949
-0.439141 -0.022292 -0.090302
-0.434028 -0.033749 -0.088404
-0.435933 -0.023504 -0.089501
-0.430760 -0.006113 -0.089822
