ply
format ascii 1.0
element vertex 502
property float x
property float y
property float z
end_header
-0.451947 -0.025973 -0.041949
-0.452564 -0.025187 -0.041928
-0.453181 -0.024400 -0.041907
-0.453798 -0.023613 -0.041886
-0.454416 -0.022827 -0.041865
-0.455033 -0.022040 -0.041844
-0.455650 -0.021254 -0.041822
-0.456267 -0.020467 -0.041801
-0.456885 -0.019681 -0.041780
-0.457502 -0.018894 -0.041759
-0.458119 -0.018108 -0.041738
-0.458736 -0.017321 -0.041717
-0.459353 -0.016535 -0.041696
-0.459971 -0.015748 -0.041674
-0.460588 -0.014962 -0.041653
-0.461205 -0.014175 -0.041632
-0.461822 -0.013389 -0.041611
-0.462439 -0.012602 -0.041590
-0.463057 -0.011816 -0.041569
-0.463674 -0.011029 -0.041548
-0.464291 -0.010243 -0.041527
-0.464908 -0.009456 -0.041505
-0.465525 -0.008670 -0.041484
-0.466143 -0.007883 -0.041463
-0.466760 -0.007097 -0.041442
-0.467377 -0.006310 -0.041421
-0.467994 -0.005523 -0.041400
-0.468611 -0.004737 -0.041379
-0.469229 -0.003950 -0.041357
-0.469846 -0.003164 -0.041336
-0.470463 -0.002377 -0.041315
-0.471080 -0.001591 -0.041294
-0.471698 -0.000804 -0.041273
-0.472315 -0.000018 -0.041252
-0.472932 0.000769 -0.041231
-0.473549 0.001555 -0.041210
-0.474166 0.002342 -0.041188
-0.474784 0.003128 -0.041167
-0.475401 0.003915 -0.041146
-0.476018 0.004701 -0.041125
-0.476635 0.005488 -0.041104
-0.477252 0.006274 -0.041083
-0.477870 0.007061 -0.041062
-0.478487 0.007847 -0.041040
-0.479104 0.008634 -0.041019
-0.479721 0.009420 -0.040998
-0.480338 0.010207 -0.040977
-0.480956 0.010993 -0.040956
-0.481573 0.011780 -0.040935
-0.482190 0.012567 -0.040914
-0.482807 0.013353 -0.040893
-0.483425 0.014140 -0.040871
-0.484042 0.014926 -0.040850
-0.484659 0.015713 -0.040829
-0.485276 0.016499 -0.040808
-0.485893 0.017286 -0.040787
-0.486511 0.018072 -0.040766
-0.487128 0.018859 -0.040745
-0.487745 0.019645 -0.040723
-0.488362 0.020432 -0.040702
-0.488979 0.021218 -0.040681
-0.489597 0.022005 -0.040660
-0.490214 0.022791 -0.040639
-0.490831 0.023578 -0.040618
-0.491448 0.024364 -0.040597
-0.492065 0.025151 -0.040576
-0.492683 0.025937 -0.040554
-0.493300 0.026724 -0.040533
-0.493917 0.027510 -0.040512
-0.494534 0.028297 -0.040491
-0.495151 0.029084 -0.040470
-0.495769 0.029870 -0.040449
-0.496386 0.030657 -0.040428
-0.497003 0.031443 -0.040406
-0.497620 0.032230 -0.040385
-0.498238 0.033016 -0.040364
-0.498855 0.033803 -0.040343
-0.499472 0.034589 -0.040322
-0.500089 0.035376 -0.040301
-0.500706 0.036162 -0.040280
-0.501324 0.036949 -0.040259
-0.501941 0.037735 -0.040237
-0.502558 0.038522 -0.040216
-0.503175 0.039308 -0.040195
-0.503792 0.040095 -0.040174
-0.504410 0.040881 -0.040153
-0.505027 0.041668 -0.040132
-0.505644 0.042454 -0.040111
-0.506261 0.043241 -0.040089
-0.506878 0.044027 -0.040068
-0.507496 0.044814 -0.040047
-0.508113 0.045600 -0.040026
-0.508730 0.046387 -0.040005
-0.509347 0.047174 -0.039984
-0.509965 0.047960 -0.039963
-0.510582 0.048747 -0.039942
-0.511199 0.049533 -0.039920
-0.511816 0.050320 -0.039899
-0.512433 0.051106 -0.039878
-0.513051 0.051893 -0.039857
-0.513668 0.052679 -0.039836
-0.514285 0.053466 -0.039815
-0.514902 0.054252 -0.039794
-0.515519 0.055039 -0.039772
-0.516137 0.055825 -0.039751
-0.516754 0.056612 -0.039730
-0.517371 0.057398 -0.039709
-0.517988 0.058185 -0.039688
-0.518605 0.058971 -0.039667
-0.519223 0.059758 -0.039646
-0.519840 0.060544 -0.039624
-0.520457 0.061331 -0.039603
-0.521074 0.062117 -0.039582
-0.521691 0.062904 -0.039561
-0.522309 0.063690 -0.039540
-0.522926 0.064477 -0.039519
-0.523543 0.065264 -0.039498
-0.524160 0.066050 -0.039477
-0.524778 0.066837 -0.039455
-0.525395 0.067623 -0.039434
-0.526012 0.068410 -0.039413
-0.526629 0.069196 -0.039392
-0.527246 0.069983 -0.039371
-0.527864 0.070769 -0.039350
-0.528481 0.071556 -0.039329
-0.529098 0.072342 -0.039307
-0.529715 0.073129 -0.039286
-0.530332 0.073915 -0.039265
-0.530950 0.074702 -0.039244
-0.531567 0.075488 -0.039223
-0.532184 0.076275 -0.039202
-0.532801 0.077061 -0.039181
-0.533418 0.077848 -0.039160
-0.534036 0.078634 -0.039138
-0.534653 0.079421 -0.039117
-0.535270 0.080207 -0.039096
-0.535887 0.080994 -0.039075
-0.536505 0.081780 -0.039054
-0.537122 0.082567 -0.039033
-0.537739 0.083354 -0.039012
-0.538356 0.084140 -0.038990
-0.538973 0.084927 -0.038969
-0.539591 0.085713 -0.038948
-0.540208 0.086500 -0.038927
-0.540825 0.087286 -0.038906
-0.541442 0.088073 -0.038885
-0.542059 0.088859 -0.038864
-0.542677 0.089646 -0.038843
-0.543294 0.090432 -0.038821
-0.543911 0.091219 -0.038800
-0.544528 0.092005 -0.038779
-0.545145 0.092792 -0.038758
-0.545763 0.093578 -0.038737
-0.546380 0.094365 -0.038716
-0.546997 0.095151 -0.038695
-0.547614 0.095938 -0.038673
-0.548231 0.096724 -0.038652
-0.548849 0.097511 -0.038631
-0.549466 0.098297 -0.038610
-0.550083 0.099084 -0.038589
-0.550700 0.099871 -0.038568
-0.551318 0.100657 -0.038547
-0.551935 0.101444 -0.038526
-0.552552 0.102230 -0.038504
-0.553169 0.103017 -0.038483
-0.553786 0.103803 -0.038462
-0.554404 0.104590 -0.038441
-0.555021 0.105376 -0.038420
-0.555638 0.106163 -0.038399
-0.556255 0.106949 -0.038378
-0.556872 0.107736 -0.038356
-0.557490 0.108522 -0.038335
-0.558107 0.109309 -0.038314
-0.558724 0.110095 -0.038293
-0.559341 0.110882 -0.038272
-0.559958 0.111668 -0.038251
-0.560576 0.112455 -0.038230
-0.561193 0.113241 -0.038209
-0.561810 0.114028 -0.038187
-0.562427 0.114814 -0.038166
-0.563044 0.115601 -0.038145
-0.563662 0.116387 -0.038124
-0.564279 0.117174 -0.038103
-0.564896 0.117961 -0.038082
-0.565513 0.118747 -0.038061
-0.566131 0.119534 -0.038039
-0.566748 0.120320 -0.038018
-0.567365 0.121107 -0.037997
-0.567982 0.121893 -0.037976
-0.568599 0.122680 -0.037955
-0.569217 0.123466 -0.037934
-0.569834 0.124253 -0.037913
-0.570451 0.125039 -0.037892
-0.571068 0.125826 -0.037870
-0.571685 0.126612 -0.037849
-0.572303 0.127399 -0.037828
-0.572920 0.128185 -0.037807
-0.573537 0.128972 -0.037786
-0.574154 0.129758 -0.037765
-0.574771 0.130545 -0.037744
-0.575389 0.131331 -0.037722
-0.576006 0.132118 -0.037701
-0.576623 0.132904 -0.037680
-0.577240 0.133691 -0.037659
-0.577858 0.134477 -0.037638
-0.578475 0.135264 -0.037617
-0.579092 0.136051 -0.037596
-0.579709 0.136837 -0.037575
-0.580326 0.137624 -0.037553
-0.580944 0.138410 -0.037532
-0.581561 0.139197 -0.037511
-0.582178 0.139983 -0.037490
-0.582795 0.140770 -0.037469
-0.583412 0.141556 -0.037448
-0.584030 0.142343 -0.037427
-0.584647 0.143129 -0.037405
-0.585264 0.143916 -0.037384
-0.585881 0.144702 -0.037363
-0.586498 0.145489 -0.037342
-0.587116 0.146275 -0.037321
-0.587733 0.147062 -0.037300
-0.588350 0.147848 -0.037279
-0.588967 0.148635 -0.037258
-0.589584 0.149421 -0.037236
-0.590202 0.150208 -0.037215
-0.590819 0.150994 -0.037194
-0.591436 0.151781 -0.037173
-0.592053 0.152567 -0.037152
-0.592671 0.153354 -0.037131
-0.593288 0.154141 -0.037110
-0.593905 0.154927 -0.037088
-0.594522 0.155714 -0.037067
-0.595139 0.156500 -0.037046
-0.595757 0.157287 -0.037025
-0.596374 0.158073 -0.037004
-0.596991 0.158860 -0.036983
-0.597608 0.159646 -0.036962
-0.598225 0.160433 -0.036941
-0.598843 0.161219 -0.036919
-0.599460 0.162006 -0.036898
-0.600077 0.162792 -0.036877
-0.600694 0.163579 -0.036856
-0.601311 0.164365 -0.036835
-0.601929 0.165152 -0.036814
-0.602546 0.165938 -0.036793
-0.603163 0.166725 -0.036771
-0.603780 0.167511 -0.036750
-0.604398 0.168298 -0.036729
-0.605015 0.169084 -0.036708
-0.605632 0.169871 -0.036687
-0.606249 0.170658 -0.036666
-0.445654 -0.021033 -0.042020
-0.446271 -0.020247 -0.041999
-0.446889 -0.019460 -0.041978
-0.447506 -0.018674 -0.041957
-0.448123 -0.017887 -0.041936
-0.448740 -0.017101 -0.041915
-0.449358 -0.016314 -0.041893
-0.449975 -0.015528 -0.041872
-0.450592 -0.014741 -0.041851
-0.451209 -0.013955 -0.041830
-0.451826 -0.013168 -0.041809
-0.452444 -0.012382 -0.041788
-0.453061 -0.011595 -0.041767
-0.453678 -0.010809 -0.041745
-0.454295 -0.010022 -0.041724
-0.454912 -0.009236 -0.041703
-0.455530 -0.008449 -0.041682
-0.456147 -0.007662 -0.041661
-0.456764 -0.006876 -0.041640
-0.457381 -0.006089 -0.041619
-0.457998 -0.005303 -0.041598
-0.458616 -0.004516 -0.041576
-0.459233 -0.003730 -0.041555
-0.459850 -0.002943 -0.041534
-0.460467 -0.002157 -0.041513
-0.461085 -0.001370 -0.041492
-0.461702 -0.000584 -0.041471
-0.462319 0.000203 -0.041450
-0.462936 0.000989 -0.041428
-0.463553 0.001776 -0.041407
-0.464171 0.002562 -0.041386
-0.464788 0.003349 -0.041365
-0.465405 0.004135 -0.041344
-0.466022 0.004922 -0.041323
-0.466639 0.005708 -0.041302
-0.467257 0.006495 -0.041281
-0.467874 0.007281 -0.041259
-0.468491 0.008068 -0.041238
-0.469108 0.008854 -0.041217
-0.469725 0.009641 -0.041196
-0.470343 0.010428 -0.041175
-0.470960 0.011214 -0.041154
-0.471577 0.012001 -0.041133
-0.472194 0.012787 -0.041111
-0.472811 0.013574 -0.041090
-0.473429 0.014360 -0.041069
-0.474046 0.015147 -0.041048
-0.474663 0.015933 -0.041027
-0.475280 0.016720 -0.041006
-0.475898 0.017506 -0.040985
-0.476515 0.018293 -0.040964
-0.477132 0.019079 -0.040942
-0.477749 0.019866 -0.040921
-0.478366 0.020652 -0.040900
-0.478984 0.021439 -0.040879
-0.479601 0.022225 -0.040858
-0.480218 0.023012 -0.040837
-0.480835 0.023798 -0.040816
-0.481452 0.024585 -0.040794
-0.482070 0.025371 -0.040773
-0.482687 0.026158 -0.040752
-0.483304 0.026945 -0.040731
-0.483921 0.027731 -0.040710
-0.484538 0.028518 -0.040689
-0.485156 0.029304 -0.040668
-0.485773 0.030091 -0.040647
-0.486390 0.030877 -0.040625
-0.487007 0.031664 -0.040604
-0.487625 0.032450 -0.040583
-0.488242 0.033237 -0.040562
-0.488859 0.034023 -0.040541
-0.489476 0.034810 -0.040520
-0.490093 0.035596 -0.040499
-0.490711 0.036383 -0.040477
-0.491328 0.037169 -0.040456
-0.491945 0.037956 -0.040435
-0.492562 0.038742 -0.040414
-0.493179 0.039529 -0.040393
-0.493797 0.040315 -0.040372
-0.494414 0.041102 -0.040351
-0.495031 0.041888 -0.040330
-0.495648 0.042675 -0.040308
-0.496265 0.043461 -0.040287
-0.496883 0.044248 -0.040266
-0.497500 0.045035 -0.040245
-0.498117 0.045821 -0.040224
-0.498734 0.046608 -0.040203
-0.499351 0.047394 -0.040182
-0.499969 0.048181 -0.040160
-0.500586 0.048967 -0.040139
-0.501203 0.049754 -0.040118
-0.501820 0.050540 -0.040097
-0.502438 0.051327 -0.040076
-0.503055 0.052113 -0.040055
-0.503672 0.052900 -0.040034
-0.504289 0.053686 -0.040013
-0.504906 0.054473 -0.039991
-0.505524 0.055259 -0.039970
-0.506141 0.056046 -0.039949
-0.506758 0.056832 -0.039928
-0.507375 0.057619 -0.039907
-0.507992 0.058405 -0.039886
-0.508610 0.059192 -0.039865
-0.509227 0.059978 -0.039843
-0.509844 0.060765 -0.039822
-0.510461 0.061551 -0.039801
-0.511078 0.062338 -0.039780
-0.511696 0.063125 -0.039759
-0.512313 0.063911 -0.039738
-0.512930 0.064698 -0.039717
-0.513547 0.065484 -0.039696
-0.514165 0.066271 -0.039674
-0.514782 0.067057 -0.039653
-0.515399 0.067844 -0.039632
-0.516016 0.068630 -0.039611
-0.516633 0.069417 -0.039590
-0.517251 0.070203 -0.039569
-0.517868 0.070990 -0.039548
-0.518485 0.071776 -0.039526
-0.519102 0.072563 -0.039505
-0.519719 0.073349 -0.039484
-0.520337 0.074136 -0.039463
-0.520954 0.074922 -0.039442
-0.521571 0.075709 -0.039421
-0.522188 0.076495 -0.039400
-0.522805 0.077282 -0.039379
-0.523423 0.078068 -0.039357
-0.524040 0.078855 -0.039336
-0.524657 0.079641 -0.039315
-0.525274 0.080428 -0.039294
-0.525891 0.081215 -0.039273
-0.526509 0.082001 -0.039252
-0.527126 0.082788 -0.039231
-0.527743 0.083574 -0.039209
-0.528360 0.084361 -0.039188
-0.528978 0.085147 -0.039167
-0.529595 0.085934 -0.039146
-0.530212 0.086720 -0.039125
-0.530829 0.087507 -0.039104
-0.531446 0.088293 -0.039083
-0.532064 0.089080 -0.039062
-0.532681 0.089866 -0.039040
-0.533298 0.090653 -0.039019
-0.533915 0.091439 -0.038998
-0.534532 0.092226 -0.038977
-0.535150 0.093012 -0.038956
-0.535767 0.093799 -0.038935
-0.536384 0.094585 -0.038914
-0.537001 0.095372 -0.038892
-0.537618 0.096158 -0.038871
-0.538236 0.096945 -0.038850
-0.538853 0.097732 -0.038829
-0.539470 0.098518 -0.038808
-0.540087 0.099305 -0.038787
-0.540704 0.100091 -0.038766
-0.541322 0.100878 -0.038744
-0.541939 0.101664 -0.038723
-0.542556 0.102451 -0.038702
-0.543173 0.103237 -0.038681
-0.543791 0.104024 -0.038660
-0.544408 0.104810 -0.038639
-0.545025 0.105597 -0.038618
-0.545642 0.106383 -0.038597
-0.546259 0.107170 -0.038575
-0.546877 0.107956 -0.038554
-0.547494 0.108743 -0.038533
-0.548111 0.109529 -0.038512
-0.548728 0.110316 -0.038491
-0.549345 0.111102 -0.038470
-0.549963 0.111889 -0.038449
-0.550580 0.112675 -0.038427
-0.551197 0.113462 -0.038406
-0.551814 0.114248 -0.038385
-0.552431 0.115035 -0.038364
-0.553049 0.115822 -0.038343
-0.553666 0.116608 -0.038322
-0.554283 0.117395 -0.038301
-0.554900 0.118181 -0.038280
-0.555518 0.118968 -0.038258
-0.556135 0.119754 -0.038237
-0.556752 0.120541 -0.038216
-0.557369 0.121327 -0.038195
-0.557986 0.122114 -0.038174
-0.558604 0.122900 -0.038153
-0.559221 0.123687 -0.038132
-0.559838 0.124473 -0.038110
-0.560455 0.125260 -0.038089
-0.561072 0.126046 -0.038068
-0.561690 0.126833 -0.038047
-0.562307 0.127619 -0.038026
-0.562924 0.128406 -0.038005
-0.563541 0.129192 -0.037984
-0.564158 0.129979 -0.037963
-0.564776 0.130765 -0.037941
-0.565393 0.131552 -0.037920
-0.566010 0.132338 -0.037899
-0.566627 0.133125 -0.037878
-0.567244 0.133912 -0.037857
-0.567862 0.134698 -0.037836
-0.568479 0.135485 -0.037815
-0.569096 0.136271 -0.037793
-0.569713 0.137058 -0.037772
-0.570331 0.137844 -0.037751
-0.570948 0.138631 -0.037730
-0.571565 0.139417 -0.037709
-0.572182 0.140204 -0.037688
-0.572799 0.140990 -0.037667
-0.573417 0.141777 -0.037646
-0.574034 0.142563 -0.037624
-0.574651 0.143350 -0.037603
-0.575268 0.144136 -0.037582
-0.575885 0.144923 -0.037561
-0.576503 0.145709 -0.037540
-0.577120 0.146496 -0.037519
-0.577737 0.147282 -0.037498
-0.578354 0.148069 -0.037476
-0.578971 0.148855 -0.037455
-0.579589 0.149642 -0.037434
-0.580206 0.150428 -0.037413
-0.580823 0.151215 -0.037392
-0.581440 0.152002 -0.037371
-0.582058 0.152788 -0.037350
-0.582675 0.153575 -0.037329
-0.583292 0.154361 -0.037307
-0.583909 0.155148 -0.037286
-0.584526 0.155934 -0.037265
-0.585144 0.156721 -0.037244
-0.585761 0.157507 -0.037223
-0.586378 0.158294 -0.037202
-0.586995 0.159080 -0.037181
-0.587612 0.159867 -0.037159
-0.588230 0.160653 -0.037138
-0.588847 0.161440 -0.037117
-0.589464 0.162226 -0.037096
-0.590081 0.163013 -0.037075
-0.590698 0.163799 -0.037054
-0.591316 0.164586 -0.037033
-0.591933 0.165372 -0.037012
-0.592550 0.166159 -0.036990
-0.593167 0.166945 -0.036969
-0.593784 0.167732 -0.036948
-0.594402 0.168518 -0.036927
-0.595019 0.169305 -0.036906
-0.595636 0.170092 -0.036885
-0.596253 0.170878 -0.036864
-0.596871 0.171665 -0.036842
-0.597488 0.172451 -0.036821
-0.598105 0.173238 -0.036800
-0.598722 0.174024 -0.036779
-0.599339 0.174811 -0.036758
-0.599957 0.175597 -0.036737
