ply
format ascii 1.0
element vertex 502
property float x
property float y
property float z
end_header
-0.688654 0.181314 -0.029487
-0.687675 0.181108 -0.029475
-0.686696 0.180903 -0.029463
-0.685717 0.180697 -0.029450
-0.684738 0.180492 -0.029438
-0.683759 0.180286 -0.029426
-0.682780 0.180081 -0.029414
-0.681801 0.179876 -0.029402
-0.680821 0.179670 -0.029390
-0.679842 0.179465 -0.029377
-0.678863 0.179259 -0.029365
-0.677884 0.179054 -0.029353
-0.676905 0.178848 -0.029341
-0.675926 0.178643 -0.029329
-0.674947 0.178437 -0.029317
-0.673968 0.178232 -0.029305
-0.672989 0.178027 -0.029292
-0.672010 0.177821 -0.029280
-0.671031 0.177616 -0.029268
-0.670052 0.177410 -0.029256
-0.669073 0.177205 -0.029244
-0.668094 0.176999 -0.029232
-0.667115 0.176794 -0.029220
-0.666136 0.176589 -0.029207
-0.665156 0.176383 -0.029195
-0.664177 0.176178 -0.029183
-0.663198 0.175972 -0.029171
-0.662219 0.175767 -0.029159
-0.661240 0.175561 -0.029147
-0.660261 0.175356 -0.029134
-0.659282 0.175151 -0.029122
-0.658303 0.174945 -0.029110
-0.657324 0.174740 -0.029098
-0.656345 0.174534 -0.029086
-0.655366 0.174329 -0.029074
-0.654387 0.174123 -0.029062
-0.653408 0.173918 -0.029049
-0.652429 0.173713 -0.029037
-0.651450 0.173507 -0.029025
-0.650471 0.173302 -0.029013
-0.649492 0.173096 -0.029001
-0.648512 0.172891 -0.028989
-0.647533 0.172685 -0.028977
-0.646554 0.172480 -0.028964
-0.645575 0.172275 -0.028952
-0.644596 0.172069 -0.028940
-0.643617 0.171864 -0.028928
-0.642638 0.171658 -0.028916
-0.641659 0.171453 -0.028904
-0.640680 0.171247 -0.028892
-0.639701 0.171042 -0.028879
-0.638722 0.170837 -0.028867
-0.637743 0.170631 -0.028855
-0.636764 0.170426 -0.028843
-0.635785 0.170220 -0.028831
-0.634806 0.170015 -0.028819
-0.633827 0.169809 -0.028806
-0.632847 0.169604 -0.028794
-0.631868 0.169399 -0.028782
-0.630889 0.169193 -0.028770
-0.629910 0.168988 -0.028758
-0.628931 0.168782 -0.028746
-0.627952 0.168577 -0.028734
-0.626973 0.168371 -0.028721
-0.625994 0.168166 -0.028709
-0.625015 0.167961 -0.028697
-0.624036 0.167755 -0.028685
-0.623057 0.167550 -0.028673
-0.622078 0.167344 -0.028661
-0.621099 0.167139 -0.028649
-0.620120 0.166933 -0.028636
-0.619141 0.166728 -0.028624
-0.618162 0.166523 -0.028612
-0.617183 0.166317 -0.028600
-0.616203 0.166112 -0.028588
-0.615224 0.165906 -0.028576
-0.614245 0.165701 -0.028563
-0.613266 0.165495 -0.028551
-0.612287 0.165290 -0.028539
-0.611308 0.165085 -0.028527
-0.610329 0.164879 -0.028515
-0.609350 0.164674 -0.028503
-0.608371 0.164468 -0.028491
-0.607392 0.164263 -0.028478
-0.606413 0.164057 -0.028466
-0.605434 0.163852 -0.028454
-0.604455 0.163647 -0.028442
-0.603476 0.163441 -0.028430
-0.602497 0.163236 -0.028418
-0.601518 0.163030 -0.028406
-0.600538 0.162825 -0.028393
-0.599559 0.162619 -0.028381
-0.598580 0.162414 -0.028369
-0.597601 0.162209 -0.028357
-0.596622 0.162003 -0.028345
-0.595643 0.161798 -0.028333
-0.594664 0.161592 -0.028321
-0.593685 0.161387 -0.028308
-0.592706 0.161181 -0.028296
-0.591727 0.160976 -0.028284
-0.590748 0.160771 -0.028272
-0.589769 0.160565 -0.028260
-0.588790 0.160360 -0.028248
-0.587811 0.160154 -0.028235
-0.586832 0.159949 -0.028223
-0.585853 0.159743 -0.028211
-0.584874 0.159538 -0.028199
-0.583894 0.159333 -0.028187
-0.582915 0.159127 -0.028175
-0.581936 0.158922 -0.028163
-0.580957 0.158716 -0.028150
-0.579978 0.158511 -0.028138
-0.578999 0.158305 -0.028126
-0.578020 0.158100 -0.028114
-0.577041 0.157895 -0.028102
-0.576062 0.157689 -0.028090
-0.575083 0.157484 -0.028078
-0.574104 0.157278 -0.028065
-0.573125 0.157073 -0.028053
-0.572146 0.156867 -0.028041
-0.571167 0.156662 -0.028029
-0.570188 0.156457 -0.028017
-0.569209 0.156251 -0.028005
-0.568229 0.156046 -0.027993
-0.567250 0.155840 -0.027980
-0.566271 0.155635 -0.027968
-0.565292 0.155429 -0.027956
-0.564313 0.155224 -0.027944
-0.563334 0.155019 -0.027932
-0.562355 0.154813 -0.027920
-0.561376 0.154608 -0.027907
-0.560397 0.154402 -0.027895
-0.559418 0.154197 -0.027883
-0.558439 0.153991 -0.027871
-0.557460 0.153786 -0.027859
-0.556481 0.153580 -0.027847
-0.555502 0.153375 -0.027835
-0.554523 0.153170 -0.027822
-0.553544 0.152964 -0.027810
-0.552565 0.152759 -0.027798
-0.551585 0.152553 -0.027786
-0.550606 0.152348 -0.027774
-0.549627 0.152142 -0.027762
-0.548648 0.151937 -0.027750
-0.547669 0.151732 -0.027737
-0.546690 0.151526 -0.027725
-0.545711 0.151321 -0.027713
-0.544732 0.151115 -0.027701
-0.543753 0.150910 -0.027689
-0.542774 0.150704 -0.027677
-0.541795 0.150499 -0.027664
-0.540816 0.150294 -0.027652
-0.539837 0.150088 -0.027640
-0.538858 0.149883 -0.027628
-0.537879 0.149677 -0.027616
-0.536900 0.149472 -0.027604
-0.535920 0.149266 -0.027592
-0.534941 0.149061 -0.027579
-0.533962 0.148856 -0.027567
-0.532983 0.148650 -0.027555
-0.532004 0.148445 -0.027543
-0.531025 0.148239 -0.027531
-0.530046 0.148034 -0.027519
-0.529067 0.147828 -0.027507
-0.528088 0.147623 -0.027494
-0.527109 0.147418 -0.027482
-0.526130 0.147212 -0.027470
-0.525151 0.147007 -0.027458
-0.524172 0.146801 -0.027446
-0.523193 0.146596 -0.027434
-0.522214 0.146390 -0.027422
-0.521235 0.146185 -0.027409
-0.520256 0.145980 -0.027397
-0.519276 0.145774 -0.027385
-0.518297 0.145569 -0.027373
-0.517318 0.145363 -0.027361
-0.516339 0.145158 -0.027349
-0.515360 0.144952 -0.027336
-0.514381 0.144747 -0.027324
-0.513402 0.144542 -0.027312
-0.512423 0.144336 -0.027300
-0.511444 0.144131 -0.027288
-0.510465 0.143925 -0.027276
-0.509486 0.143720 -0.027264
-0.508507 0.143514 -0.027251
-0.507528 0.143309 -0.027239
-0.506549 0.143104 -0.027227
-0.505570 0.142898 -0.027215
-0.504591 0.142693 -0.027203
-0.503611 0.142487 -0.027191
-0.502632 0.142282 -0.027179
-0.501653 0.142076 -0.027166
-0.500674 0.141871 -0.027154
-0.499695 0.141666 -0.027142
-0.498716 0.141460 -0.027130
-0.497737 0.141255 -0.027118
-0.496758 0.141049 -0.027106
-0.495779 0.140844 -0.027093
-0.494800 0.140638 -0.027081
-0.493821 0.140433 -0.027069
-0.492842 0.140228 -0.027057
-0.491863 0.140022 -0.027045
-0.490884 0.139817 -0.027033
-0.489905 0.139611 -0.027021
-0.488926 0.139406 -0.027008
-0.487947 0.139200 -0.026996
-0.486967 0.138995 -0.026984
-0.485988 0.138790 -0.026972
-0.485009 0.138584 -0.026960
-0.484030 0.138379 -0.026948
-0.483051 0.138173 -0.026936
-0.482072 0.137968 -0.026923
-0.481093 0.137762 -0.026911
-0.480114 0.137557 -0.026899
-0.479135 0.137352 -0.026887
-0.478156 0.137146 -0.026875
-0.477177 0.136941 -0.026863
-0.476198 0.136735 -0.026851
-0.475219 0.136530 -0.026838
-0.474240 0.136324 -0.026826
-0.473261 0.136119 -0.026814
-0.472282 0.135914 -0.026802
-0.471302 0.135708 -0.026790
-0.470323 0.135503 -0.026778
-0.469344 0.135297 -0.026765
-0.468365 0.135092 -0.026753
-0.467386 0.134886 -0.026741
-0.466407 0.134681 -0.026729
-0.465428 0.134476 -0.026717
-0.464449 0.134270 -0.026705
-0.463470 0.134065 -0.026693
-0.462491 0.133859 -0.026680
-0.461512 0.133654 -0.026668
-0.460533 0.133448 -0.026656
-0.459554 0.133243 -0.026644
-0.458575 0.133038 -0.026632
-0.457596 0.132832 -0.026620
-0.456617 0.132627 -0.026608
-0.455638 0.132421 -0.026595
-0.454658 0.132216 -0.026583
-0.453679 0.132010 -0.026571
-0.452700 0.131805 -0.026559
-0.451721 0.131600 -0.026547
-0.450742 0.131394 -0.026535
-0.449763 0.131189 -0.026522
-0.448784 0.130983 -0.026510
-0.447805 0.130778 -0.026498
-0.446826 0.130572 -0.026486
-0.445847 0.130367 -0.026474
-0.444868 0.130162 -0.026462
-0.443889 0.129956 -0.026450
-0.686968 0.189193 -0.029681
-0.685989 0.188987 -0.029669
-0.685010 0.188782 -0.029657
-0.684031 0.188576 -0.029645
-0.683052 0.188371 -0.029633
-0.682073 0.188166 -0.029620
-0.681094 0.187960 -0.029608
-0.680115 0.187755 -0.029596
-0.679136 0.187549 -0.029584
-0.678157 0.187344 -0.029572
-0.677178 0.187138 -0.029560
-0.676198 0.186933 -0.029548
-0.675219 0.186728 -0.029535
-0.674240 0.186522 -0.029523
-0.673261 0.186317 -0.029511
-0.672282 0.186111 -0.029499
-0.671303 0.185906 -0.029487
-0.670324 0.185700 -0.029475
-0.669345 0.185495 -0.029462
-0.668366 0.185289 -0.029450
-0.667387 0.185084 -0.029438
-0.666408 0.184879 -0.029426
-0.665429 0.184673 -0.029414
-0.664450 0.184468 -0.029402
-0.663471 0.184262 -0.029390
-0.662492 0.184057 -0.029377
-0.661513 0.183851 -0.029365
-0.660533 0.183646 -0.029353
-0.659554 0.183441 -0.029341
-0.658575 0.183235 -0.029329
-0.657596 0.183030 -0.029317
-0.656617 0.182824 -0.029305
-0.655638 0.182619 -0.029292
-0.654659 0.182413 -0.029280
-0.653680 0.182208 -0.029268
-0.652701 0.182003 -0.029256
-0.651722 0.181797 -0.029244
-0.650743 0.181592 -0.029232
-0.649764 0.181386 -0.029220
-0.648785 0.181181 -0.029207
-0.647806 0.180975 -0.029195
-0.646827 0.180770 -0.029183
-0.645848 0.180565 -0.029171
-0.644869 0.180359 -0.029159
-0.643889 0.180154 -0.029147
-0.642910 0.179948 -0.029134
-0.641931 0.179743 -0.029122
-0.640952 0.179537 -0.029110
-0.639973 0.179332 -0.029098
-0.638994 0.179127 -0.029086
-0.638015 0.178921 -0.029074
-0.637036 0.178716 -0.029062
-0.636057 0.178510 -0.029049
-0.635078 0.178305 -0.029037
-0.634099 0.178099 -0.029025
-0.633120 0.177894 -0.029013
-0.632141 0.177689 -0.029001
-0.631162 0.177483 -0.028989
-0.630183 0.177278 -0.028977
-0.629204 0.177072 -0.028964
-0.628224 0.176867 -0.028952
-0.627245 0.176661 -0.028940
-0.626266 0.176456 -0.028928
-0.625287 0.176251 -0.028916
-0.624308 0.176045 -0.028904
-0.623329 0.175840 -0.028891
-0.622350 0.175634 -0.028879
-0.621371 0.175429 -0.028867
-0.620392 0.175223 -0.028855
-0.619413 0.175018 -0.028843
-0.618434 0.174813 -0.028831
-0.617455 0.174607 -0.028819
-0.616476 0.174402 -0.028806
-0.615497 0.174196 -0.028794
-0.614518 0.173991 -0.028782
-0.613539 0.173785 -0.028770
-0.612560 0.173580 -0.028758
-0.611580 0.173375 -0.028746
-0.610601 0.173169 -0.028734
-0.609622 0.172964 -0.028721
-0.608643 0.172758 -0.028709
-0.607664 0.172553 -0.028697
-0.606685 0.172347 -0.028685
-0.605706 0.172142 -0.028673
-0.604727 0.171937 -0.028661
-0.603748 0.171731 -0.028649
-0.602769 0.171526 -0.028636
-0.601790 0.171320 -0.028624
-0.600811 0.171115 -0.028612
-0.599832 0.170909 -0.028600
-0.598853 0.170704 -0.028588
-0.597874 0.170499 -0.028576
-0.596895 0.170293 -0.028563
-0.595915 0.170088 -0.028551
-0.594936 0.169882 -0.028539
-0.593957 0.169677 -0.028527
-0.592978 0.169471 -0.028515
-0.591999 0.169266 -0.028503
-0.591020 0.169061 -0.028491
-0.590041 0.168855 -0.028478
-0.589062 0.168650 -0.028466
-0.588083 0.168444 -0.028454
-0.587104 0.168239 -0.028442
-0.586125 0.168033 -0.028430
-0.585146 0.167828 -0.028418
-0.584167 0.167623 -0.028406
-0.583188 0.167417 -0.028393
-0.582209 0.167212 -0.028381
-0.581230 0.167006 -0.028369
-0.580251 0.166801 -0.028357
-0.579271 0.166595 -0.028345
-0.578292 0.166390 -0.028333
-0.577313 0.166185 -0.028321
-0.576334 0.165979 -0.028308
-0.575355 0.165774 -0.028296
-0.574376 0.165568 -0.028284
-0.573397 0.165363 -0.028272
-0.572418 0.165157 -0.028260
-0.571439 0.164952 -0.028248
-0.570460 0.164747 -0.028235
-0.569481 0.164541 -0.028223
-0.568502 0.164336 -0.028211
-0.567523 0.164130 -0.028199
-0.566544 0.163925 -0.028187
-0.565565 0.163719 -0.028175
-0.564586 0.163514 -0.028163
-0.563606 0.163309 -0.028150
-0.562627 0.163103 -0.028138
-0.561648 0.162898 -0.028126
-0.560669 0.162692 -0.028114
-0.559690 0.162487 -0.028102
-0.558711 0.162281 -0.028090
-0.557732 0.162076 -0.028078
-0.556753 0.161871 -0.028065
-0.555774 0.161665 -0.028053
-0.554795 0.161460 -0.028041
-0.553816 0.161254 -0.028029
-0.552837 0.161049 -0.028017
-0.551858 0.160843 -0.028005
-0.550879 0.160638 -0.027992
-0.549900 0.160433 -0.027980
-0.548921 0.160227 -0.027968
-0.547942 0.160022 -0.027956
-0.546962 0.159816 -0.027944
-0.545983 0.159611 -0.027932
-0.545004 0.159405 -0.027920
-0.544025 0.159200 -0.027907
-0.543046 0.158994 -0.027895
-0.542067 0.158789 -0.027883
-0.541088 0.158584 -0.027871
-0.540109 0.158378 -0.027859
-0.539130 0.158173 -0.027847
-0.538151 0.157967 -0.027835
-0.537172 0.157762 -0.027822
-0.536193 0.157556 -0.027810
-0.535214 0.157351 -0.027798
-0.534235 0.157146 -0.027786
-0.533256 0.156940 -0.027774
-0.532277 0.156735 -0.027762
-0.531297 0.156529 -0.027750
-0.530318 0.156324 -0.027737
-0.529339 0.156118 -0.027725
-0.528360 0.155913 -0.027713
-0.527381 0.155708 -0.027701
-0.526402 0.155502 -0.027689
-0.525423 0.155297 -0.027677
-0.524444 0.155091 -0.027664
-0.523465 0.154886 -0.027652
-0.522486 0.154680 -0.027640
-0.521507 0.154475 -0.027628
-0.520528 0.154270 -0.027616
-0.519549 0.154064 -0.027604
-0.518570 0.153859 -0.027592
-0.517591 0.153653 -0.027579
-0.516612 0.153448 -0.027567
-0.515633 0.153242 -0.027555
-0.514653 0.153037 -0.027543
-0.513674 0.152832 -0.027531
-0.512695 0.152626 -0.027519
-0.511716 0.152421 -0.027507
-0.510737 0.152215 -0.027494
-0.509758 0.152010 -0.027482
-0.508779 0.151804 -0.027470
-0.507800 0.151599 -0.027458
-0.506821 0.151394 -0.027446
-0.505842 0.151188 -0.027434
-0.504863 0.150983 -0.027421
-0.503884 0.150777 -0.027409
-0.502905 0.150572 -0.027397
-0.501926 0.150366 -0.027385
-0.500947 0.150161 -0.027373
-0.499968 0.149956 -0.027361
-0.498988 0.149750 -0.027349
-0.498009 0.149545 -0.027336
-0.497030 0.149339 -0.027324
-0.496051 0.149134 -0.027312
-0.495072 0.148928 -0.027300
-0.494093 0.148723 -0.027288
-0.493114 0.148518 -0.027276
-0.492135 0.148312 -0.027264
-0.491156 0.148107 -0.027251
-0.490177 0.147901 -0.027239
-0.489198 0.147696 -0.027227
-0.488219 0.147490 -0.027215
-0.487240 0.147285 -0.027203
-0.486261 0.147080 -0.027191
-0.485282 0.146874 -0.027179
-0.484303 0.146669 -0.027166
-0.483324 0.146463 -0.027154
-0.482344 0.146258 -0.027142
-0.481365 0.146052 -0.027130
-0.480386 0.145847 -0.027118
-0.479407 0.145642 -0.027106
-0.478428 0.145436 -0.027093
-0.477449 0.145231 -0.027081
-0.476470 0.145025 -0.027069
-0.475491 0.144820 -0.027057
-0.474512 0.144614 -0.027045
-0.473533 0.144409 -0.027033
-0.472554 0.144204 -0.027021
-0.471575 0.143998 -0.027008
-0.470596 0.143793 -0.026996
-0.469617 0.143587 -0.026984
-0.468638 0.143382 -0.026972
-0.467659 0.143176 -0.026960
-0.466679 0.142971 -0.026948
-0.465700 0.142766 -0.026936
-0.464721 0.142560 -0.026923
-0.463742 0.142355 -0.026911
-0.462763 0.142149 -0.026899
-0.461784 0.141944 -0.026887
-0.460805 0.141738 -0.026875
-0.459826 0.141533 -0.026863
-0.458847 0.141328 -0.026850
-0.457868 0.141122 -0.026838
-0.456889 0.140917 -0.026826
-0.455910 0.140711 -0.026814
-0.454931 0.140506 -0.026802
-0.453952 0.140300 -0.026790
-0.452973 0.140095 -0.026778
-0.451994 0.139890 -0.026765
-0.451015 0.139684 -0.026753
-0.450035 0.139479 -0.026741
-0.449056 0.139273 -0.026729
-0.448077 0.139068 -0.026717
-0.447098 0.138862 -0.026705
-0.446119 0.138657 -0.026693
-0.445140 0.138452 -0.026680
-0.444161 0.138246 -0.026668
-0.443182 0.138041 -0.026656
-0.442203 0.137835 -0.026644
