ply
format ascii 1.0
element vertex 195
property float x
property float y
property float z
end_header
-0.476311 0.046773 -0.087198
-0.477155 0.046239 -0.087191
-0.478016 0.045733 -0.087184
-0.478893 0.045255 -0.087175
-0.479785 0.044805 -0.087167
-0.480691 0.044384 -0.087157
-0.481610 0.043993 -0.087147
-0.482541 0.043631 -0.087137
-0.483484 0.043300 -0.087125
-0.484436 0.042999 -0.087113
-0.485398 0.042729 -0.087101
-0.486368 0.042490 -0.087088
-0.487345 0.042283 -0.087074
-0.488328 0.042107 -0.087060
-0.489316 0.041963 -0.087045
-0.490309 0.041851 -0.087030
-0.491304 0.041771 -0.087014
-0.492302 0.041723 -0.086998
-0.493301 0.041707 -0.086981
-0.494299 0.041724 -0.086964
-0.495297 0.041772 -0.086946
-0.496293 0.041853 -0.086928
-0.497285 0.041966 -0.086909
-0.498273 0.042110 -0.086891
-0.499256 0.042287 -0.086871
-0.500233 0.042495 -0.086852
-0.501203 0.042734 -0.086832
-0.502164 0.043004 -0.086811
-0.503116 0.043306 -0.086791
-0.504058 0.043637 -0.086770
-0.504989 0.043999 -0.086749
-0.505908 0.044391 -0.086728
-0.506813 0.044812 -0.086706
-0.507705 0.045263 -0.086685
-0.508582 0.045741 -0.086663
-0.509442 0.046248 -0.086641
-0.510286 0.046782 -0.086619
-0.511112 0.047343 -0.086597
-0.511920 0.047930 -0.086575
-0.512709 0.048543 -0.086553
-0.513477 0.049181 -0.086530
-0.514224 0.049844 -0.086508
-0.514950 0.050530 -0.086486
-0.515653 0.051239 -0.086464
-0.516333 0.051971 -0.086442
-0.516989 0.052724 -0.086420
-0.517620 0.053498 -0.086398
-0.518226 0.054292 -0.086376
-0.518806 0.055104 -0.086355
-0.519360 0.055936 -0.086334
-0.519887 0.056784 -0.086312
-0.520386 0.057649 -0.086292
-0.520857 0.058530 -0.086271
-0.521299 0.059425 -0.086251
-0.521712 0.060335 -0.086231
-0.522096 0.061257 -0.086211
-0.522450 0.062191 -0.086191
-0.522774 0.063135 -0.086172
-0.523067 0.064090 -0.086154
-0.523329 0.065054 -0.086135
-0.523560 0.066026 -0.086118
-0.523759 0.067004 -0.086100
-0.523927 0.067989 -0.086083
-0.524064 0.068978 -0.086067
-0.524168 0.069972 -0.086051
-0.524240 0.070968 -0.086035
-0.524280 0.071966 -0.086020
-0.524288 0.072965 -0.086006
-0.524263 0.073963 -0.085992
-0.524207 0.074961 -0.085979
-0.524118 0.075956 -0.085966
-0.523998 0.076947 -0.085954
-0.523845 0.077934 -0.085942
-0.523661 0.078916 -0.085931
-0.523445 0.079891 -0.085921
-0.523198 0.080859 -0.085911
-0.522920 0.081819 -0.085902
-0.522611 0.082769 -0.085894
-0.522272 0.083708 -0.085886
-0.521903 0.084636 -0.085879
-0.521504 0.085552 -0.085873
-0.521075 0.086455 -0.085867
-0.520618 0.087343 -0.085863
-0.520133 0.088216 -0.085858
-0.519619 0.089073 -0.085855
-0.519078 0.089912 -0.085852
-0.518511 0.090734 -0.085850
-0.517917 0.091538 -0.085848
-0.517298 0.092322 -0.085848
-0.516653 0.093085 -0.085848
-0.515985 0.093827 -0.085849
-0.515293 0.094548 -0.085850
-0.514578 0.095245 -0.085852
-0.513841 0.095919 -0.085855
-0.513082 0.096570 -0.085859
-0.512303 0.097195 -0.085863
-0.511505 0.097795 -0.085868
-0.510687 0.098369 -0.085874
-0.509851 0.098916 -0.085880
-0.508998 0.099436 -0.085887
-0.508129 0.099928 -0.085895
-0.507245 0.100393 -0.085903
-0.506346 0.100828 -0.085912
-0.505433 0.101234 -0.085922
-0.504508 0.101610 -0.085933
-0.503571 0.101957 -0.085944
-0.502623 0.102273 -0.085955
-0.501666 0.102558 -0.085967
-0.500700 0.102813 -0.085980
-0.499727 0.103036 -0.085994
-0.498746 0.103228 -0.086007
-0.497760 0.103387 -0.086022
-0.496770 0.103516 -0.086037
-0.495776 0.103612 -0.086053
-0.494779 0.103676 -0.086069
-0.493780 0.103708 -0.086085
-0.492782 0.103707 -0.086102
-0.491783 0.103675 -0.086120
-0.490787 0.103610 -0.086137
-0.489793 0.103513 -0.086156
-0.488802 0.103385 -0.086174
-0.487816 0.103224 -0.086194
-0.486836 0.103032 -0.086213
-0.485863 0.102808 -0.086233
-0.484897 0.102553 -0.086253
-0.483940 0.102268 -0.086273
-0.482993 0.101951 -0.086294
-0.482057 0.101604 -0.086315
-0.481132 0.101227 -0.086336
-0.480220 0.100820 -0.086357
-0.479321 0.100385 -0.086379
-0.478437 0.099920 -0.086401
-0.477568 0.099428 -0.086422
-0.476716 0.098907 -0.086444
-0.475880 0.098360 -0.086466
-0.475063 0.097785 -0.086489
-0.474265 0.097185 -0.086511
-0.473487 0.096560 -0.086533
-0.472729 0.095909 -0.086555
-0.471992 0.095235 -0.086577
-0.471278 0.094537 -0.086600
-0.470586 0.093816 -0.086622
-0.469918 0.093074 -0.086644
-0.469274 0.092310 -0.086666
-0.468656 0.091526 -0.086687
-0.468062 0.090723 -0.086709
-0.467495 0.089901 -0.086730
-0.466955 0.089061 -0.086752
-0.466442 0.088204 -0.086773
-0.465957 0.087331 -0.086793
-0.465500 0.086443 -0.086814
-0.465072 0.085540 -0.086834
-0.464674 0.084625 -0.086854
-0.464305 0.083697 -0.086873
-0.463966 0.082757 -0.086893
-0.463658 0.081807 -0.086912
-0.463380 0.080848 -0.086930
-0.463133 0.079880 -0.086948
-0.462918 0.078904 -0.086966
-0.462734 0.077923 -0.086983
-0.462582 0.076936 -0.087000
-0.462462 0.075944 -0.087016
-0.462374 0.074949 -0.087032
-0.462318 0.073952 -0.087047
-0.462294 0.072953 -0.087061
-0.462302 0.071954 -0.087076
-0.462343 0.070956 -0.087089
-0.462415 0.069960 -0.087102
-0.462520 0.068967 -0.087115
-0.462656 0.067977 -0.087127
-0.462825 0.066993 -0.087138
-0.463025 0.066014 -0.087148
-0.463256 0.065042 -0.087158
-0.463519 0.064079 -0.087168
-0.463812 0.063124 -0.087176
-0.464136 0.062179 -0.087184
-0.464491 0.061245 -0.087192
-0.464875 0.060323 -0.087198
-0.465289 0.059414 -0.087204
-0.465732 0.058518 -0.087210
-0.466203 0.057638 -0.087214
-0.466703 0.056773 -0.087218
-0.467230 0.055924 -0.087221
-0.467784 0.055093 -0.087224
-0.468365 0.054280 -0.087225
-0.468972 0.053487 -0.087226
-0.469603 0.052713 -0.087227
-0.470260 0.051960 -0.087226
-0.470940 0.051229 -0.087225
-0.471644 0.050519 -0.087223
-0.472370 0.049833 -0.087221
-0.473118 0.049171 -0.087218
-0.473887 0.048533 -0.087214
-0.474676 0.047920 -0.087209
-0.475484 0.047333 -0.087204
