ply
format ascii 1.0
element vertex 127
property float x
property float y
property float z
end_header
-0.610076 0.126975 -0.086003
-0.607547 0.125713 -0.088212
-0.604342 0.128940 -0.089340
-0.607046 0.134085 -0.089030
-0.604629 0.133202 -0.087913
-0.603458 0.123618 -0.086869
-0.594502 0.118847 -0.091364
-0.594108 0.118852 -0.085940
-0.592649 0.120857 -0.090533
-0.593575 0.127583 -0.088326
-0.589516 0.118179 -0.091432
-0.590757 0.117147 -0.085940
-0.588886 0.120553 -0.089795
-0.589140 0.125326 -0.088193
-0.587262 0.116968 -0.089898
-0.583175 0.114419 -0.090025
-0.582512 0.119057 -0.091493
-0.579929 0.116847 -0.090035
-0.568098 0.112207 -0.090347
-0.565352 0.113222 -0.087989
-0.556257 0.103227 -0.092087
-0.557034 0.102816 -0.090742
-0.557157 0.104745 -0.090700
-0.555843 0.096922 -0.092212
-0.553048 0.098010 -0.090079
-0.554229 0.098578 -0.087111
-0.555228 0.100822 -0.090816
-0.554805 0.106128 -0.092048
-0.554467 0.105053 -0.090743
-0.551270 0.097102 -0.089735
-0.546344 0.094315 -0.092367
-0.544454 0.093643 -0.090461
-0.547605 0.097553 -0.092292
-0.541041 0.099162 -0.091110
-0.541585 0.100505 -0.091072
-0.538428 0.092450 -0.091295
-0.533921 0.088157 -0.092623
-0.533469 0.088106 -0.091475
-0.528915 0.083451 -0.092769
-0.531565 0.087073 -0.089268
-0.527007 0.084763 -0.090079
-0.521028 0.083503 -0.092855
-0.522757 0.083619 -0.091763
-0.522938 0.085694 -0.091717
-0.519198 0.080795 -0.090452
-0.515060 0.086866 -0.091838
-0.510905 0.082727 -0.091999
-0.510423 0.085303 -0.090124
-0.501625 0.079333 -0.092238
-0.497755 0.078528 -0.093208
-0.492411 0.067186 -0.092026
-0.494570 0.070330 -0.092552
-0.494375 0.068171 -0.090784
-0.493614 0.075165 -0.092470
-0.493495 0.076904 -0.093287
-0.491757 0.066819 -0.089006
-0.490541 0.070228 -0.093040
-0.491009 0.074168 -0.092952
-0.490337 0.075103 -0.091672
-0.487271 0.074095 -0.093008
-0.487504 0.073657 -0.091268
-0.482006 0.063839 -0.093664
-0.483629 0.062714 -0.091639
-0.482101 0.066694 -0.093111
-0.480596 0.070136 -0.090648
-0.478470 0.058253 -0.093810
-0.479106 0.060410 -0.091373
-0.478245 0.066119 -0.092937
-0.478527 0.068246 -0.093618
-0.478567 0.069109 -0.091045
-0.474398 0.054923 -0.093919
-0.473063 0.059269 -0.093172
-0.474593 0.066369 -0.092999
-0.469525 0.056660 -0.093291
-0.470710 0.056129 -0.090497
-0.467481 0.054500 -0.091672
-0.464254 0.058815 -0.093343
-0.464670 0.062058 -0.092764
-0.458159 0.044682 -0.094295
-0.458573 0.054510 -0.094102
-0.456468 0.056725 -0.093529
-0.457458 0.058367 -0.090724
-0.453215 0.045897 -0.094327
-0.455653 0.049520 -0.093691
-0.455317 0.048300 -0.090551
-0.455594 0.052192 -0.093638
-0.454109 0.056694 -0.093597
-0.450484 0.054845 -0.093023
-0.451448 0.055312 -0.091009
-0.451010 0.058555 -0.094109
-0.446112 0.042965 -0.094461
-0.445795 0.049617 -0.094100
-0.444437 0.051753 -0.091670
-0.442516 0.038486 -0.094587
-0.441624 0.041930 -0.093561
-0.437117 0.039055 -0.091792
-0.437358 0.043564 -0.094348
-0.439619 0.040328 -0.091810
-0.436892 0.047272 -0.094081
-0.436881 0.047901 -0.090888
-0.432979 0.036939 -0.090811
-0.433856 0.042142 -0.094431
-0.434528 0.046342 -0.094144
-0.430852 0.034971 -0.094784
-0.429747 0.035307 -0.091911
-0.431942 0.038966 -0.094695
-0.430547 0.044711 -0.093782
-0.426402 0.033601 -0.091494
-0.426886 0.038104 -0.094611
-0.422968 0.039760 -0.094490
-0.416640 0.030097 -0.094804
-0.416916 0.034387 -0.094949
-0.413643 0.035867 -0.094741
-0.413962 0.036256 -0.092166
-0.414614 0.036576 -0.091102
-0.411792 0.033720 -0.095019
-0.404520 0.025513 -0.095120
-0.401600 0.021015 -0.094348
-0.401947 0.027753 -0.095242
-0.403813 0.031091 -0.091970
-0.392624 0.016700 -0.095518
-0.388081 0.014506 -0.095650
-0.388681 0.014411 -0.091420
-0.391114 0.016800 -0.095544
-0.385634 0.014141 -0.095684
-0.386464 0.018200 -0.095289
-0.386085 0.021312 -0.095542
