ply
format ascii 1.0
element vertex 502
property float x
property float y
property float z
end_header
-0.635837 0.144839 -0.037840
-0.635128 0.144134 -0.037859
-0.634418 0.143429 -0.037878
-0.633709 0.142725 -0.037896
-0.632999 0.142020 -0.037915
-0.632290 0.141315 -0.037934
-0.631581 0.140610 -0.037953
-0.630871 0.139905 -0.037972
-0.630162 0.139200 -0.037991
-0.629452 0.138496 -0.038010
-0.628743 0.137791 -0.038029
-0.628034 0.137086 -0.038048
-0.627324 0.136381 -0.038067
-0.626615 0.135676 -0.038086
-0.625906 0.134972 -0.038105
-0.625196 0.134267 -0.038123
-0.624487 0.133562 -0.038142
-0.623777 0.132857 -0.038161
-0.623068 0.132152 -0.038180
-0.622359 0.131447 -0.038199
-0.621649 0.130743 -0.038218
-0.620940 0.130038 -0.038237
-0.620230 0.129333 -0.038256
-0.619521 0.128628 -0.038275
-0.618812 0.127923 -0.038294
-0.618102 0.127219 -0.038313
-0.617393 0.126514 -0.038331
-0.616683 0.125809 -0.038350
-0.615974 0.125104 -0.038369
-0.615265 0.124399 -0.038388
-0.614555 0.123694 -0.038407
-0.613846 0.122990 -0.038426
-0.613136 0.122285 -0.038445
-0.612427 0.121580 -0.038464
-0.611718 0.120875 -0.038483
-0.611008 0.120170 -0.038502
-0.610299 0.119466 -0.038521
-0.609590 0.118761 -0.038540
-0.608880 0.118056 -0.038558
-0.608171 0.117351 -0.038577
-0.607461 0.116646 -0.038596
-0.606752 0.115941 -0.038615
-0.606043 0.115237 -0.038634
-0.605333 0.114532 -0.038653
-0.604624 0.113827 -0.038672
-0.603914 0.113122 -0.038691
-0.603205 0.112417 -0.038710
-0.602496 0.111713 -0.038729
-0.601786 0.111008 -0.038748
-0.601077 0.110303 -0.038767
-0.600367 0.109598 -0.038785
-0.599658 0.108893 -0.038804
-0.598949 0.108188 -0.038823
-0.598239 0.107484 -0.038842
-0.597530 0.106779 -0.038861
-0.596820 0.106074 -0.038880
-0.596111 0.105369 -0.038899
-0.595402 0.104664 -0.038918
-0.594692 0.103960 -0.038937
-0.593983 0.103255 -0.038956
-0.593274 0.102550 -0.038975
-0.592564 0.101845 -0.038993
-0.591855 0.101140 -0.039012
-0.591145 0.100435 -0.039031
-0.590436 0.099731 -0.039050
-0.589727 0.099026 -0.039069
-0.589017 0.098321 -0.039088
-0.588308 0.097616 -0.039107
-0.587598 0.096911 -0.039126
-0.586889 0.096207 -0.039145
-0.586180 0.095502 -0.039164
-0.585470 0.094797 -0.039183
-0.584761 0.094092 -0.039202
-0.584051 0.093387 -0.039220
-0.583342 0.092682 -0.039239
-0.582633 0.091978 -0.039258
-0.581923 0.091273 -0.039277
-0.581214 0.090568 -0.039296
-0.580504 0.089863 -0.039315
-0.579795 0.089158 -0.039334
-0.579086 0.088454 -0.039353
-0.578376 0.087749 -0.039372
-0.577667 0.087044 -0.039391
-0.576958 0.086339 -0.039410
-0.576248 0.085634 -0.039428
-0.575539 0.084929 -0.039447
-0.574829 0.084225 -0.039466
-0.574120 0.083520 -0.039485
-0.573411 0.082815 -0.039504
-0.572701 0.082110 -0.039523
-0.571992 0.081405 -0.039542
-0.571282 0.080701 -0.039561
-0.570573 0.079996 -0.039580
-0.569864 0.079291 -0.039599
-0.569154 0.078586 -0.039618
-0.568445 0.077881 -0.039637
-0.567735 0.077176 -0.039655
-0.567026 0.076472 -0.039674
-0.566317 0.075767 -0.039693
-0.565607 0.075062 -0.039712
-0.564898 0.074357 -0.039731
-0.564188 0.073652 -0.039750
-0.563479 0.072948 -0.039769
-0.562770 0.072243 -0.039788
-0.562060 0.071538 -0.039807
-0.561351 0.070833 -0.039826
-0.560641 0.070128 -0.039845
-0.559932 0.069423 -0.039864
-0.559223 0.068719 -0.039882
-0.558513 0.068014 -0.039901
-0.557804 0.067309 -0.039920
-0.557095 0.066604 -0.039939
-0.556385 0.065899 -0.039958
-0.555676 0.065195 -0.039977
-0.554966 0.064490 -0.039996
-0.554257 0.063785 -0.040015
-0.553548 0.063080 -0.040034
-0.552838 0.062375 -0.040053
-0.552129 0.061670 -0.040072
-0.551419 0.060966 -0.040090
-0.550710 0.060261 -0.040109
-0.550001 0.059556 -0.040128
-0.549291 0.058851 -0.040147
-0.548582 0.058146 -0.040166
-0.547872 0.057442 -0.040185
-0.547163 0.056737 -0.040204
-0.546454 0.056032 -0.040223
-0.545744 0.055327 -0.040242
-0.545035 0.054622 -0.040261
-0.544325 0.053917 -0.040280
-0.543616 0.053213 -0.040299
-0.542907 0.052508 -0.040317
-0.542197 0.051803 -0.040336
-0.541488 0.051098 -0.040355
-0.540779 0.050393 -0.040374
-0.540069 0.049689 -0.040393
-0.539360 0.048984 -0.040412
-0.538650 0.048279 -0.040431
-0.537941 0.047574 -0.040450
-0.537232 0.046869 -0.040469
-0.536522 0.046164 -0.040488
-0.535813 0.045460 -0.040507
-0.535103 0.044755 -0.040526
-0.534394 0.044050 -0.040544
-0.533685 0.043345 -0.040563
-0.532975 0.042640 -0.040582
-0.532266 0.041936 -0.040601
-0.531556 0.041231 -0.040620
-0.530847 0.040526 -0.040639
-0.530138 0.039821 -0.040658
-0.529428 0.039116 -0.040677
-0.528719 0.038411 -0.040696
-0.528009 0.037707 -0.040715
-0.527300 0.037002 -0.040734
-0.526591 0.036297 -0.040752
-0.525881 0.035592 -0.040771
-0.525172 0.034887 -0.040790
-0.524463 0.034183 -0.040809
-0.523753 0.033478 -0.040828
-0.523044 0.032773 -0.040847
-0.522334 0.032068 -0.040866
-0.521625 0.031363 -0.040885
-0.520916 0.030658 -0.040904
-0.520206 0.029954 -0.040923
-0.519497 0.029249 -0.040942
-0.518787 0.028544 -0.040961
-0.518078 0.027839 -0.040979
-0.517369 0.027134 -0.040998
-0.516659 0.026430 -0.041017
-0.515950 0.025725 -0.041036
-0.515240 0.025020 -0.041055
-0.514531 0.024315 -0.041074
-0.513822 0.023610 -0.041093
-0.513112 0.022905 -0.041112
-0.512403 0.022201 -0.041131
-0.511693 0.021496 -0.041150
-0.510984 0.020791 -0.041169
-0.510275 0.020086 -0.041188
-0.509565 0.019381 -0.041206
-0.508856 0.018677 -0.041225
-0.508146 0.017972 -0.041244
-0.507437 0.017267 -0.041263
-0.506728 0.016562 -0.041282
-0.506018 0.015857 -0.041301
-0.505309 0.015152 -0.041320
-0.504600 0.014448 -0.041339
-0.503890 0.013743 -0.041358
-0.503181 0.013038 -0.041377
-0.502471 0.012333 -0.041396
-0.501762 0.011628 -0.041414
-0.501053 0.010924 -0.041433
-0.500343 0.010219 -0.041452
-0.499634 0.009514 -0.041471
-0.498924 0.008809 -0.041490
-0.498215 0.008104 -0.041509
-0.497506 0.007399 -0.041528
-0.496796 0.006695 -0.041547
-0.496087 0.005990 -0.041566
-0.495377 0.005285 -0.041585
-0.494668 0.004580 -0.041604
-0.493959 0.003875 -0.041623
-0.493249 0.003171 -0.041641
-0.492540 0.002466 -0.041660
-0.491830 0.001761 -0.041679
-0.491121 0.001056 -0.041698
-0.490412 0.000351 -0.041717
-0.489702 -0.000354 -0.041736
-0.488993 -0.001058 -0.041755
-0.488284 -0.001763 -0.041774
-0.487574 -0.002468 -0.041793
-0.486865 -0.003173 -0.041812
-0.486155 -0.003878 -0.041831
-0.485446 -0.004582 -0.041850
-0.484737 -0.005287 -0.041868
-0.484027 -0.005992 -0.041887
-0.483318 -0.006697 -0.041906
-0.482608 -0.007402 -0.041925
-0.481899 -0.008107 -0.041944
-0.481190 -0.008811 -0.041963
-0.480480 -0.009516 -0.041982
-0.479771 -0.010221 -0.042001
-0.479061 -0.010926 -0.042020
-0.478352 -0.011631 -0.042039
-0.477643 -0.012335 -0.042058
-0.476933 -0.013040 -0.042076
-0.476224 -0.013745 -0.042095
-0.475514 -0.014450 -0.042114
-0.474805 -0.015155 -0.042133
-0.474096 -0.015860 -0.042152
-0.473386 -0.016564 -0.042171
-0.472677 -0.017269 -0.042190
-0.471968 -0.017974 -0.042209
-0.471258 -0.018679 -0.042228
-0.470549 -0.019384 -0.042247
-0.469839 -0.020088 -0.042266
-0.469130 -0.020793 -0.042285
-0.468421 -0.021498 -0.042303
-0.467711 -0.022203 -0.042322
-0.467002 -0.022908 -0.042341
-0.466292 -0.023613 -0.042360
-0.465583 -0.024317 -0.042379
-0.464874 -0.025022 -0.042398
-0.464164 -0.025727 -0.042417
-0.463455 -0.026432 -0.042436
-0.462745 -0.027137 -0.042455
-0.462036 -0.027841 -0.042474
-0.461327 -0.028546 -0.042493
-0.460617 -0.029251 -0.042512
-0.459908 -0.029956 -0.042530
-0.459198 -0.030661 -0.042549
-0.458489 -0.031366 -0.042568
-0.641479 0.139167 -0.037963
-0.640769 0.138462 -0.037981
-0.640060 0.137758 -0.038000
-0.639351 0.137053 -0.038019
-0.638641 0.136348 -0.038038
-0.637932 0.135643 -0.038057
-0.637222 0.134938 -0.038076
-0.636513 0.134233 -0.038095
-0.635804 0.133529 -0.038114
-0.635094 0.132824 -0.038133
-0.634385 0.132119 -0.038152
-0.633676 0.131414 -0.038171
-0.632966 0.130709 -0.038189
-0.632257 0.130005 -0.038208
-0.631547 0.129300 -0.038227
-0.630838 0.128595 -0.038246
-0.630129 0.127890 -0.038265
-0.629419 0.127185 -0.038284
-0.628710 0.126480 -0.038303
-0.628000 0.125776 -0.038322
-0.627291 0.125071 -0.038341
-0.626582 0.124366 -0.038360
-0.625872 0.123661 -0.038379
-0.625163 0.122956 -0.038398
-0.624453 0.122252 -0.038416
-0.623744 0.121547 -0.038435
-0.623035 0.120842 -0.038454
-0.622325 0.120137 -0.038473
-0.621616 0.119432 -0.038492
-0.620906 0.118727 -0.038511
-0.620197 0.118023 -0.038530
-0.619488 0.117318 -0.038549
-0.618778 0.116613 -0.038568
-0.618069 0.115908 -0.038587
-0.617359 0.115203 -0.038606
-0.616650 0.114499 -0.038624
-0.615941 0.113794 -0.038643
-0.615231 0.113089 -0.038662
-0.614522 0.112384 -0.038681
-0.613813 0.111679 -0.038700
-0.613103 0.110974 -0.038719
-0.612394 0.110270 -0.038738
-0.611684 0.109565 -0.038757
-0.610975 0.108860 -0.038776
-0.610266 0.108155 -0.038795
-0.609556 0.107450 -0.038814
-0.608847 0.106746 -0.038833
-0.608137 0.106041 -0.038851
-0.607428 0.105336 -0.038870
-0.606719 0.104631 -0.038889
-0.606009 0.103926 -0.038908
-0.605300 0.103221 -0.038927
-0.604590 0.102517 -0.038946
-0.603881 0.101812 -0.038965
-0.603172 0.101107 -0.038984
-0.602462 0.100402 -0.039003
-0.601753 0.099697 -0.039022
-0.601043 0.098993 -0.039041
-0.600334 0.098288 -0.039060
-0.599625 0.097583 -0.039078
-0.598915 0.096878 -0.039097
-0.598206 0.096173 -0.039116
-0.597497 0.095468 -0.039135
-0.596787 0.094764 -0.039154
-0.596078 0.094059 -0.039173
-0.595368 0.093354 -0.039192
-0.594659 0.092649 -0.039211
-0.593950 0.091944 -0.039230
-0.593240 0.091240 -0.039249
-0.592531 0.090535 -0.039268
-0.591821 0.089830 -0.039286
-0.591112 0.089125 -0.039305
-0.590403 0.088420 -0.039324
-0.589693 0.087715 -0.039343
-0.588984 0.087011 -0.039362
-0.588274 0.086306 -0.039381
-0.587565 0.085601 -0.039400
-0.586856 0.084896 -0.039419
-0.586146 0.084191 -0.039438
-0.585437 0.083487 -0.039457
-0.584727 0.082782 -0.039476
-0.584018 0.082077 -0.039495
-0.583309 0.081372 -0.039513
-0.582599 0.080667 -0.039532
-0.581890 0.079962 -0.039551
-0.581181 0.079258 -0.039570
-0.580471 0.078553 -0.039589
-0.579762 0.077848 -0.039608
-0.579052 0.077143 -0.039627
-0.578343 0.076438 -0.039646
-0.577634 0.075734 -0.039665
-0.576924 0.075029 -0.039684
-0.576215 0.074324 -0.039703
-0.575505 0.073619 -0.039722
-0.574796 0.072914 -0.039740
-0.574087 0.072209 -0.039759
-0.573377 0.071505 -0.039778
-0.572668 0.070800 -0.039797
-0.571958 0.070095 -0.039816
-0.571249 0.069390 -0.039835
-0.570540 0.068685 -0.039854
-0.569830 0.067981 -0.039873
-0.569121 0.067276 -0.039892
-0.568411 0.066571 -0.039911
-0.567702 0.065866 -0.039930
-0.566993 0.065161 -0.039948
-0.566283 0.064456 -0.039967
-0.565574 0.063752 -0.039986
-0.564864 0.063047 -0.040005
-0.564155 0.062342 -0.040024
-0.563446 0.061637 -0.040043
-0.562736 0.060932 -0.040062
-0.562027 0.060228 -0.040081
-0.561318 0.059523 -0.040100
-0.560608 0.058818 -0.040119
-0.559899 0.058113 -0.040138
-0.559189 0.057408 -0.040157
-0.558480 0.056703 -0.040175
-0.557771 0.055999 -0.040194
-0.557061 0.055294 -0.040213
-0.556352 0.054589 -0.040232
-0.555642 0.053884 -0.040251
-0.554933 0.053179 -0.040270
-0.554224 0.052475 -0.040289
-0.553514 0.051770 -0.040308
-0.552805 0.051065 -0.040327
-0.552095 0.050360 -0.040346
-0.551386 0.049655 -0.040365
-0.550677 0.048950 -0.040384
-0.549967 0.048246 -0.040402
-0.549258 0.047541 -0.040421
-0.548548 0.046836 -0.040440
-0.547839 0.046131 -0.040459
-0.547130 0.045426 -0.040478
-0.546420 0.044722 -0.040497
-0.545711 0.044017 -0.040516
-0.545002 0.043312 -0.040535
-0.544292 0.042607 -0.040554
-0.543583 0.041902 -0.040573
-0.542873 0.041197 -0.040592
-0.542164 0.040493 -0.040610
-0.541455 0.039788 -0.040629
-0.540745 0.039083 -0.040648
-0.540036 0.038378 -0.040667
-0.539326 0.037673 -0.040686
-0.538617 0.036969 -0.040705
-0.537908 0.036264 -0.040724
-0.537198 0.035559 -0.040743
-0.536489 0.034854 -0.040762
-0.535779 0.034149 -0.040781
-0.535070 0.033444 -0.040800
-0.534361 0.032740 -0.040819
-0.533651 0.032035 -0.040837
-0.532942 0.031330 -0.040856
-0.532232 0.030625 -0.040875
-0.531523 0.029920 -0.040894
-0.530814 0.029216 -0.040913
-0.530104 0.028511 -0.040932
-0.529395 0.027806 -0.040951
-0.528686 0.027101 -0.040970
-0.527976 0.026396 -0.040989
-0.527267 0.025691 -0.041008
-0.526557 0.024987 -0.041027
-0.525848 0.024282 -0.041046
-0.525139 0.023577 -0.041064
-0.524429 0.022872 -0.041083
-0.523720 0.022167 -0.041102
-0.523010 0.021463 -0.041121
-0.522301 0.020758 -0.041140
-0.521592 0.020053 -0.041159
-0.520882 0.019348 -0.041178
-0.520173 0.018643 -0.041197
-0.519463 0.017938 -0.041216
-0.518754 0.017234 -0.041235
-0.518045 0.016529 -0.041254
-0.517335 0.015824 -0.041272
-0.516626 0.015119 -0.041291
-0.515916 0.014414 -0.041310
-0.515207 0.013710 -0.041329
-0.514498 0.013005 -0.041348
-0.513788 0.012300 -0.041367
-0.513079 0.011595 -0.041386
-0.512370 0.010890 -0.041405
-0.511660 0.010185 -0.041424
-0.510951 0.009481 -0.041443
-0.510241 0.008776 -0.041462
-0.509532 0.008071 -0.041481
-0.508823 0.007366 -0.041499
-0.508113 0.006661 -0.041518
-0.507404 0.005957 -0.041537
-0.506694 0.005252 -0.041556
-0.505985 0.004547 -0.041575
-0.505276 0.003842 -0.041594
-0.504566 0.003137 -0.041613
-0.503857 0.002432 -0.041632
-0.503147 0.001728 -0.041651
-0.502438 0.001023 -0.041670
-0.501729 0.000318 -0.041689
-0.501019 -0.000387 -0.041708
-0.500310 -0.001092 -0.041726
-0.499600 -0.001796 -0.041745
-0.498891 -0.002501 -0.041764
-0.498182 -0.003206 -0.041783
-0.497472 -0.003911 -0.041802
-0.496763 -0.004616 -0.041821
-0.496053 -0.005321 -0.041840
-0.495344 -0.006025 -0.041859
-0.494635 -0.006730 -0.041878
-0.493925 -0.007435 -0.041897
-0.493216 -0.008140 -0.041916
-0.492507 -0.008845 -0.041934
-0.491797 -0.009549 -0.041953
-0.491088 -0.010254 -0.041972
-0.490378 -0.010959 -0.041991
-0.489669 -0.011664 -0.042010
-0.488960 -0.012369 -0.042029
-0.488250 -0.013074 -0.042048
-0.487541 -0.013778 -0.042067
-0.486831 -0.014483 -0.042086
-0.486122 -0.015188 -0.042105
-0.485413 -0.015893 -0.042124
-0.484703 -0.016598 -0.042143
-0.483994 -0.017302 -0.042161
-0.483284 -0.018007 -0.042180
-0.482575 -0.018712 -0.042199
-0.481866 -0.019417 -0.042218
-0.481156 -0.020122 -0.042237
-0.480447 -0.020827 -0.042256
-0.479737 -0.021531 -0.042275
-0.479028 -0.022236 -0.042294
-0.478319 -0.022941 -0.042313
-0.477609 -0.023646 -0.042332
-0.476900 -0.024351 -0.042351
-0.476191 -0.025055 -0.042370
-0.475481 -0.025760 -0.042388
-0.474772 -0.026465 -0.042407
-0.474062 -0.027170 -0.042426
-0.473353 -0.027875 -0.042445
-0.472644 -0.028580 -0.042464
-0.471934 -0.029284 -0.042483
-0.471225 -0.029989 -0.042502
-0.470515 -0.030694 -0.042521
-0.469806 -0.031399 -0.042540
-0.469097 -0.032104 -0.042559
-0.468387 -0.032808 -0.042578
-0.467678 -0.033513 -0.042596
-0.466968 -0.034218 -0.042615
-0.466259 -0.034923 -0.042634
-0.465550 -0.035628 -0.042653
-0.464840 -0.036333 -0.042672
-0.464131 -0.037037 -0.042691
