ply
format ascii 1.0
element vertex 270
property float x
property float y
property float z
end_header
-0.535458 0.027970 -0.007908
-0.534919 0.025677 -0.000325
-0.533248 0.028411 -0.008694
-0.533468 0.031197 -0.000958
-0.535624 0.030887 0.001825
-0.533887 0.034789 -0.001233
-0.534346 0.034175 0.000774
-0.533025 0.036840 -0.001946
-0.529722 0.022216 -0.008167
-0.529199 0.023853 -0.007400
-0.529262 0.020074 -0.002835
-0.529829 0.026311 -0.008283
-0.531351 0.025078 -0.004018
-0.529979 0.033129 -0.001273
-0.528992 0.045502 -0.010660
-0.528573 0.048232 -0.006264
-0.528143 0.051747 0.000291
-0.530227 0.053999 -0.003490
-0.527244 0.027286 -0.007277
-0.526284 0.031633 -0.008719
-0.526724 0.029797 -0.004333
-0.524876 0.034493 -0.006023
-0.526223 0.032669 -0.001754
-0.525416 0.035411 0.001043
-0.526784 0.047807 -0.010986
-0.526939 0.045254 -0.002660
-0.527363 0.049963 -0.011227
-0.526203 0.055717 -0.004237
-0.525822 0.056688 -0.004572
-0.525724 0.056735 -0.002667
-0.521748 0.032023 -0.001411
-0.523916 0.038543 -0.002280
-0.521634 0.040781 -0.001573
-0.522548 0.045779 -0.010648
-0.521821 0.044175 -0.003305
-0.520339 0.051777 -0.011610
-0.523436 0.061864 -0.012502
-0.523320 0.063489 -0.005589
-0.520514 0.064056 -0.012913
-0.522347 0.066690 -0.004392
-0.520036 0.071273 -0.010201
-0.520206 0.071734 -0.007485
-0.523228 0.072168 -0.013694
-0.523073 0.074336 -0.005880
-0.519157 0.049932 -0.008656
-0.518214 0.053110 -0.011485
-0.518280 0.053024 -0.006972
-0.516203 0.057485 -0.011222
-0.516544 0.059932 -0.001395
-0.517838 0.063405 -0.004878
-0.518223 0.066541 -0.013249
-0.519410 0.068178 -0.013387
-0.519588 0.073580 -0.013957
-0.519345 0.074277 -0.007253
-0.517840 0.077393 -0.010661
-0.516099 0.081058 -0.014437
-0.517318 0.087631 -0.015526
-0.515940 0.058614 -0.010134
-0.512835 0.061713 -0.012902
-0.514610 0.062445 -0.004985
-0.515846 0.062178 -0.000679
-0.513456 0.065363 -0.013053
-0.514929 0.065378 -0.005178
-0.514090 0.066595 -0.002409
-0.513635 0.081298 -0.015524
-0.513219 0.086554 -0.016307
-0.513755 0.085848 -0.014173
-0.514954 0.085517 -0.011034
-0.513325 0.091796 -0.016094
-0.513464 0.088817 -0.013791
-0.513883 0.088888 -0.010145
-0.513376 0.091421 -0.007039
-0.513844 0.092144 -0.008066
-0.512580 0.093746 -0.006895
-0.512643 0.100375 -0.017030
-0.512370 0.104855 -0.009467
-0.512468 0.108386 -0.009840
-0.511746 0.073068 -0.003078
-0.508007 0.082041 -0.015219
-0.510760 0.084500 -0.015396
-0.511816 0.085997 -0.007473
-0.510113 0.089142 -0.007862
-0.510572 0.093626 -0.016647
-0.508981 0.097237 -0.016809
-0.510470 0.097221 -0.014243
-0.508084 0.103272 -0.016455
-0.508325 0.102793 -0.015859
-0.508794 0.101854 -0.009258
-0.509256 0.103636 -0.005794
-0.508536 0.104254 -0.009928
-0.508229 0.106044 -0.007309
-0.507181 0.073409 -0.006275
-0.507853 0.082736 -0.007277
-0.506485 0.085121 -0.011662
-0.505582 0.088006 -0.016013
-0.504173 0.092517 -0.009405
-0.507697 0.098962 -0.017033
-0.505924 0.103301 -0.009501
-0.507046 0.109693 -0.006544
-0.504655 0.113550 -0.015099
-0.502883 0.089684 -0.008144
-0.501739 0.092776 -0.008509
-0.502842 0.097065 -0.017225
-0.501457 0.099048 -0.012957
-0.502411 0.097565 -0.009379
-0.500811 0.100716 -0.013468
-0.500118 0.105480 -0.005485
-0.500666 0.114891 -0.019374
-0.502434 0.112928 -0.010636
-0.502181 0.119364 -0.018720
-0.503698 0.116411 -0.014747
-0.502327 0.122583 -0.008285
-0.501974 0.123973 -0.007190
-0.501972 0.126622 -0.012262
-0.500724 0.126204 -0.011047
-0.500262 0.128681 -0.007724
-0.498616 0.097635 -0.017173
-0.499761 0.103761 -0.013351
-0.498118 0.105348 -0.017852
-0.498714 0.105943 -0.015680
-0.498575 0.106640 -0.010988
-0.498826 0.109619 -0.018889
-0.497902 0.108664 -0.014536
-0.497835 0.110263 -0.010498
-0.496004 0.115415 -0.010739
-0.497490 0.119951 -0.011538
-0.499916 0.122948 -0.011782
-0.497239 0.130152 -0.021571
-0.498479 0.128170 -0.012384
-0.499379 0.129947 -0.011346
-0.497207 0.132873 -0.020773
-0.496895 0.134705 -0.018074
-0.493544 0.114033 -0.019079
-0.493699 0.118369 -0.018746
-0.494939 0.117231 -0.014266
-0.495003 0.117982 -0.011586
-0.495986 0.123302 -0.011942
-0.493782 0.122945 -0.007360
-0.494207 0.125479 -0.012230
-0.492173 0.126480 -0.010418
-0.494573 0.131124 -0.021919
-0.493039 0.143944 -0.023205
-0.492082 0.147953 -0.019552
-0.493049 0.147138 -0.013956
-0.493855 0.148895 -0.022786
-0.491904 0.117256 -0.019474
-0.491280 0.127019 -0.012485
-0.489768 0.129986 -0.012848
-0.491046 0.129573 -0.010795
-0.490205 0.133026 -0.013890
-0.490062 0.132695 -0.009911
-0.488919 0.139509 -0.013890
-0.488549 0.136944 -0.010132
-0.488198 0.145135 -0.014512
-0.490465 0.149053 -0.024407
-0.489460 0.149189 -0.014905
-0.490414 0.153317 -0.022889
-0.489439 0.156269 -0.017381
-0.489978 0.157860 -0.013689
-0.490111 0.156420 -0.011431
-0.487517 0.127184 -0.012619
-0.487762 0.138302 -0.012695
-0.484975 0.143340 -0.021111
-0.485488 0.143814 -0.015539
-0.484198 0.146562 -0.018234
-0.485129 0.145208 -0.014479
-0.485583 0.145515 -0.009870
-0.487173 0.151588 -0.024574
-0.487448 0.153306 -0.024858
-0.485598 0.157473 -0.025376
-0.486035 0.163431 -0.024766
-0.487068 0.163022 -0.017460
-0.487759 0.161783 -0.015340
-0.485366 0.165114 -0.025422
-0.485178 0.167070 -0.021352
-0.486496 0.164757 -0.017176
-0.484891 0.168089 -0.020778
-0.484134 0.171614 -0.016877
-0.486505 0.176604 -0.025968
-0.483445 0.146694 -0.022875
-0.480938 0.154275 -0.022859
-0.481728 0.153997 -0.017169
-0.481461 0.155953 -0.013748
-0.480555 0.157321 -0.024098
-0.480118 0.158868 -0.016402
-0.481652 0.161933 -0.025205
-0.482047 0.166233 -0.016952
-0.482425 0.174157 -0.023604
-0.481539 0.176298 -0.024736
-0.481526 0.176968 -0.022914
-0.478842 0.156500 -0.016014
-0.478492 0.162406 -0.024704
-0.477571 0.163595 -0.023746
-0.478332 0.163192 -0.018656
-0.478030 0.164200 -0.024908
-0.477619 0.165607 -0.017570
-0.479708 0.178244 -0.026354
-0.477478 0.180031 -0.028305
-0.476968 0.188910 -0.026051
-0.475161 0.160886 -0.024645
-0.475710 0.177068 -0.027728
-0.473138 0.176348 -0.023525
-0.474433 0.194097 -0.028951
-0.472577 0.196831 -0.030565
-0.471410 0.182197 -0.020920
-0.469697 0.183428 -0.019194
-0.469912 0.185736 -0.023060
-0.470113 0.187410 -0.016601
-0.468942 0.188881 -0.021990
-0.470361 0.203690 -0.030587
-0.470199 0.205856 -0.030517
-0.469557 0.208397 -0.029884
-0.470727 0.208018 -0.022428
-0.467977 0.190020 -0.029202
-0.466225 0.188807 -0.027899
-0.467290 0.192789 -0.024337
-0.466233 0.197644 -0.029400
-0.467872 0.199183 -0.020905
-0.464478 0.200451 -0.025423
-0.466143 0.206445 -0.031612
-0.464654 0.208561 -0.030950
-0.464375 0.240796 -0.025450
-0.463598 0.192693 -0.028395
-0.462095 0.199092 -0.029124
-0.463070 0.203976 -0.029615
-0.462895 0.206224 -0.030691
-0.461514 0.209358 -0.031105
-0.460916 0.211579 -0.022719
-0.462305 0.226676 -0.033155
-0.461628 0.237292 -0.026596
-0.460694 0.237417 -0.020398
-0.459197 0.209908 -0.030367
-0.459470 0.215501 -0.023330
-0.457489 0.217981 -0.032473
-0.457337 0.218812 -0.031334
-0.458568 0.217101 -0.026141
-0.459490 0.216342 -0.020752
-0.456620 0.220620 -0.031584
-0.457364 0.222202 -0.021379
-0.457711 0.224559 -0.033835
-0.459775 0.230947 -0.034961
-0.457984 0.228815 -0.024372
-0.457684 0.233942 -0.034019
-0.458908 0.234344 -0.024932
-0.459315 0.238190 -0.029498
-0.459602 0.239963 -0.022048
-0.458474 0.241782 -0.025739
-0.459117 0.240819 -0.023577
-0.454561 0.214940 -0.022999
-0.455434 0.218869 -0.023390
-0.454925 0.227356 -0.026608
-0.452821 0.231280 -0.032616
-0.452236 0.241668 -0.036104
-0.452842 0.250845 -0.037561
-0.453277 0.249964 -0.034548
-0.453874 0.252582 -0.032852
-0.451032 0.239625 -0.033789
-0.448652 0.240704 -0.033978
-0.448632 0.243585 -0.031681
-0.450800 0.245225 -0.036555
-0.448082 0.244944 -0.032291
-0.448173 0.247051 -0.025494
-0.449537 0.252250 -0.037553
-0.451509 0.260740 -0.036025
-0.445069 0.246248 -0.034680
-0.447411 0.247741 -0.029768
-0.447680 0.250560 -0.037166
-0.445739 0.251719 -0.032075
-0.444856 0.252494 -0.037101
-0.444436 0.255656 -0.035703
