ply
format ascii 1.0
element vertex 2500
property float x
property float y
property float z
end_header
-0.485925 0.175232 -0.047687
-0.429132 -0.006661 -0.054278
-0.524221 0.117208 -0.057386
-0.398619 0.118874 -0.058239
-0.473595 0.127341 -0.049403
-0.377742 0.077994 -0.059779
-0.541744 -0.056551 -0.063163
-0.557187 -0.064529 -0.055317
-0.397521 -0.000475 -0.054297
-0.572407 0.110933 -0.049245
-0.598568 0.038676 -0.059515
-0.448394 0.078672 -0.051239
-0.610987 0.024298 -0.059914
-0.473992 0.103344 -0.058221
-0.507669 0.100491 -0.058073
-0.535374 -0.081018 -0.064040
-0.508916 0.110393 -0.057728
-0.422222 0.071944 -0.059663
-0.569883 -0.060463 -0.055087
-0.440250 0.127630 -0.057640
-0.473685 0.221658 -0.046198
-0.548871 0.171904 -0.047344
-0.528942 0.015151 -0.060819
-0.474137 0.038363 -0.052423
-0.538717 -0.043841 -0.062753
-0.557904 -0.005201 -0.053296
-0.569033 0.131621 -0.056571
-0.495676 0.213099 -0.046329
-0.498649 -0.030264 -0.054577
-0.542537 -0.004317 -0.053377
-0.650018 0.066150 -0.050204
-0.461301 0.197896 -0.055100
-0.519270 0.058406 -0.051415
-0.468505 0.150174 -0.056669
-0.636391 0.027812 -0.051606
-0.458965 0.124462 -0.057612
-0.599030 0.034142 -0.059666
-0.517648 0.133217 -0.056889
-0.620670 0.021322 -0.051940
-0.450755 0.056505 -0.051976
-0.422910 0.156848 -0.056773
-0.551147 0.110820 -0.057408
-0.529712 0.056929 -0.059394
-0.605395 0.115758 -0.048842
-0.392268 0.101572 -0.058873
-0.391890 0.017067 -0.061747
-0.425680 0.157198 -0.048736
-0.548971 -0.082713 -0.063999
-0.391499 0.062734 -0.060198
-0.444030 0.099036 -0.050579
-0.567766 0.012043 -0.052639
-0.388831 0.109249 -0.058637
-0.448118 0.109475 -0.050195
-0.565372 0.142712 -0.056221
-0.534682 0.100496 -0.057878
-0.532924 0.174488 -0.055376
-0.452538 0.132715 -0.057378
-0.545572 -0.050814 -0.062940
-0.459956 0.155988 -0.048529
-0.412588 0.135640 -0.049563
-0.441581 0.033085 -0.060843
-0.528699 0.154708 -0.048074
-0.444435 0.164104 -0.048365
-0.539681 -0.023315 -0.062048
-0.628043 0.013854 -0.060145
-0.435989 -0.002411 -0.062089
-0.423234 -0.003301 -0.062212
-0.490247 0.212449 -0.046391
-0.386407 0.006011 -0.057394
-0.556799 0.053331 -0.051315
-0.552140 0.025824 -0.052283
-0.557042 0.039242 -0.059797
-0.545720 -0.034671 -0.054385
-0.477837 0.093312 -0.050529
-0.424386 0.035728 -0.052873
-0.586013 0.013791 -0.060452
-0.553239 0.084601 -0.050278
-0.506242 0.015824 -0.052956
-0.655804 0.072570 -0.057949
-0.491191 0.238981 -0.047103
-0.451970 0.026318 -0.052992
-0.576853 0.053952 -0.059154
-0.649871 0.046346 -0.050878
-0.485004 -0.048898 -0.063314
-0.510053 0.050044 -0.051765
-0.356794 0.042168 -0.053143
-0.457978 0.141208 -0.057050
-0.507591 0.071344 -0.051060
-0.421489 0.066296 -0.051855
-0.515237 0.220328 -0.045942
-0.457585 0.073313 -0.051355
-0.449961 -0.027431 -0.054833
-0.412619 0.111954 -0.058373
-0.584833 0.072648 -0.050456
-0.569460 0.081800 -0.050256
-0.621776 0.093396 -0.049483
-0.651658 0.047488 -0.058831
-0.431796 0.170371 -0.048244
-0.558207 0.010802 -0.060755
-0.521039 -0.077216 -0.056010
-0.556862 -0.038918 -0.054449
-0.568316 0.178945 -0.054968
-0.537327 0.030914 -0.052218
-0.550716 0.099731 -0.057787
-0.587731 0.124557 -0.056676
-0.487163 0.200417 -0.046822
-0.430996 -0.014747 -0.054540
-0.372955 0.017905 -0.061856
-0.587242 0.075668 -0.058340
-0.509095 -0.087262 -0.063933
-0.489726 0.196019 -0.054958
-0.553119 -0.001448 -0.053203
-0.592756 0.038555 -0.059562
-0.508344 -0.041742 -0.062901
-0.444430 -0.032199 -0.055035
-0.436059 0.172846 -0.048129
-0.681046 0.094611 -0.056326
-0.650307 0.066846 -0.058183
-0.599089 0.019656 -0.060158
-0.551980 -0.057208 -0.055106
-0.646461 0.039472 -0.059141
-0.593114 0.021650 -0.052128
-0.539117 0.093461 -0.058085
-0.490119 0.194525 -0.055006
-0.592956 0.040413 -0.051492
-0.399365 -0.003880 -0.057079
-0.543916 0.005286 -0.053041
-0.501345 0.190002 -0.055078
-0.435236 0.026885 -0.061099
-0.402065 0.006412 -0.062035
-0.528341 -0.015164 -0.053849
-0.537062 0.012403 -0.052849
-0.607172 0.144874 -0.055845
-0.537109 -0.061995 -0.063381
-0.537843 -0.031354 -0.054330
-0.633957 0.059419 -0.050549
-0.532323 0.183606 -0.055071
-0.650249 0.105711 -0.048858
-0.445611 0.002342 -0.053853
-0.523369 -0.013559 -0.061835
-0.660022 0.098003 -0.049049
-0.447812 0.190054 -0.047459
-0.633959 0.034703 -0.059394
-0.477704 0.178311 -0.055646
-0.493474 0.234430 -0.045621
-0.350389 0.068778 -0.055049
-0.517479 0.042954 -0.051953
-0.552555 -0.060996 -0.063235
-0.644581 0.096660 -0.057212
-0.429041 -0.025782 -0.062934
-0.569717 0.153162 -0.047830
-0.453847 0.028899 -0.060896
-0.531908 0.105221 -0.049732
-0.531936 0.023318 -0.060520
-0.488049 0.135377 -0.049025
-0.528392 0.014073 -0.052855
-0.514688 0.172772 -0.047562
-0.487664 0.018881 -0.052987
-0.538653 -0.072093 -0.055708
-0.516772 0.217278 -0.046035
-0.393174 0.019549 -0.053648
-0.502109 -0.082062 -0.060731
-0.476554 -0.037428 -0.062985
-0.441111 0.090643 -0.058890
-0.371554 0.017398 -0.059006
-0.491721 0.083718 -0.050754
-0.622479 0.009966 -0.052313
-0.388872 0.045868 -0.052785
-0.371483 0.075349 -0.051910
-0.614778 0.013191 -0.060264
-0.583621 -0.024343 -0.053760
-0.461006 -0.015072 -0.054333
-0.492698 -0.072169 -0.064048
-0.403963 0.018791 -0.053596
-0.447434 0.190419 -0.047450
-0.590261 0.163714 -0.053643
-0.543037 0.047388 -0.059622
-0.451412 0.082763 -0.059083
-0.545715 0.182766 -0.046998
-0.666611 0.101877 -0.048870
-0.374302 0.060248 -0.060407
-0.576444 0.127799 -0.056647
-0.493799 -0.021341 -0.062314
-0.619432 -0.000447 -0.058375
-0.477001 0.000308 -0.053695
-0.515442 -0.044934 -0.062958
-0.491651 0.178468 -0.055540
-0.596578 0.078723 -0.050164
-0.417065 0.111746 -0.058347
-0.495654 0.109362 -0.049854
-0.632539 0.058050 -0.050606
-0.445178 0.148147 -0.056907
-0.516480 -0.089109 -0.056447
-0.546168 0.141958 -0.048381
-0.600818 0.051564 -0.051056
-0.453290 -0.035446 -0.055081
-0.624702 0.046352 -0.051060
-0.681008 0.093429 -0.057058
-0.416529 0.093188 -0.058982
-0.612948 -0.008915 -0.060245
-0.538013 -0.046645 -0.054848
-0.620678 0.040046 -0.059309
-0.586280 0.043844 -0.051424
-0.442073 0.069982 -0.051581
-0.474923 0.031896 -0.052637
-0.447960 -0.019264 -0.054570
-0.541625 -0.020783 -0.061948
-0.546733 0.169084 -0.047455
-0.668980 0.064453 -0.051968
-0.564217 0.125894 -0.048796
-0.604585 -0.019996 -0.056187
-0.428670 0.100393 -0.050644
-0.585829 -0.032552 -0.062028
-0.489703 0.206532 -0.046596
-0.430167 0.143053 -0.057189
-0.375148 0.089264 -0.059415
-0.499921 0.195737 -0.054893
-0.430505 0.145097 -0.057117
-0.532352 -0.087531 -0.064283
-0.542326 0.089710 -0.058189
-0.505178 0.220738 -0.054006
-0.496941 -0.051782 -0.055320
-0.503202 -0.071683 -0.063956
-0.411495 0.066062 -0.059940
-0.420857 -0.020200 -0.054798
-0.613217 0.018795 -0.060085
-0.625184 0.104993 -0.049064
-0.479477 -0.016325 -0.054242
-0.516715 -0.081195 -0.064181
-0.556980 0.108487 -0.057445
-0.416254 0.062767 -0.060018
-0.608923 0.026099 -0.059868
-0.602347 0.051308 -0.059059
-0.445535 0.128903 -0.057558
-0.489728 0.071520 -0.051183
-0.582869 0.035763 -0.059728
-0.610214 0.087865 -0.057760
-0.379892 0.014318 -0.061927
-0.666523 0.061299 -0.054898
-0.567077 0.122090 -0.056909
-0.534254 -0.066526 -0.063556
-0.477147 -0.055119 -0.055577
-0.559845 0.038226 -0.059811
-0.545718 0.034384 -0.060044
-0.423232 0.110199 -0.050351
-0.608247 0.149279 -0.047682
-0.669323 0.096301 -0.057045
-0.491972 -0.046242 -0.055168
-0.555993 -0.056744 -0.055061
-0.442435 0.159345 -0.048542
-0.416232 0.101544 -0.058700
-0.396829 0.073999 -0.051772
-0.587495 0.076713 -0.058303
-0.501918 -0.043671 -0.063013
-0.584304 0.148923 -0.055873
-0.419743 -0.006965 -0.062362
-0.583412 0.025040 -0.052084
-0.499818 0.060845 -0.051473
-0.511615 -0.002549 -0.061546
-0.555040 0.060875 -0.051072
-0.563297 0.074448 -0.058555
-0.540369 -0.071835 -0.055687
-0.449158 0.142475 -0.057071
-0.670288 0.102603 -0.051034
-0.412569 0.024008 -0.061361
-0.419474 0.046390 -0.060551
-0.403405 0.087231 -0.051275
-0.546929 -0.043138 -0.054664
-0.558268 0.100098 -0.057720
-0.451255 -0.031379 -0.062963
-0.491460 -0.073907 -0.061652
-0.429120 0.172016 -0.049491
-0.612032 -0.010291 -0.053183
-0.474025 0.014172 -0.061250
-0.443536 -0.014597 -0.054444
-0.581831 0.028829 -0.059971
-0.615566 0.086446 -0.057769
-0.573401 0.083058 -0.050185
-0.393242 0.050876 -0.060588
-0.450415 0.181074 -0.047745
-0.543623 0.054980 -0.051355
-0.574413 0.061340 -0.058920
-0.605582 0.001410 -0.052726
-0.500248 -0.061660 -0.055632
-0.466567 0.151588 -0.056635
-0.515265 -0.037387 -0.054698
-0.621248 0.061411 -0.050574
-0.620651 0.137154 -0.056009
-0.547622 -0.081034 -0.063952
-0.421169 -0.006104 -0.054317
-0.587349 0.145234 -0.055976
-0.438465 0.184362 -0.052577
-0.454128 0.086086 -0.058951
-0.440195 0.055937 -0.052071
-0.494482 0.107166 -0.057942
-0.466982 0.130021 -0.049360
-0.489812 0.079220 -0.058926
-0.616439 0.076585 -0.050093
-0.485330 0.128427 -0.057286
-0.588715 0.138032 -0.056211
-0.615712 0.113389 -0.048848
-0.468408 -0.041452 -0.063181
-0.523780 0.109408 -0.057654
-0.490293 0.155034 -0.056346
-0.600465 0.119455 -0.048752
-0.559773 0.104556 -0.049553
-0.440690 0.099246 -0.050596
-0.510803 0.086336 -0.050527
-0.397737 0.095512 -0.051034
-0.616541 0.109649 -0.056974
-0.425493 0.061918 -0.059979
-0.426547 0.047696 -0.052450
-0.600747 0.121516 -0.048680
-0.413248 0.051172 -0.060433
-0.546700 0.012506 -0.060780
-0.390083 0.080492 -0.051600
-0.533164 -0.066680 -0.055564
-0.493054 0.085682 -0.050678
-0.484495 0.132974 -0.049133
-0.416476 0.087512 -0.059175
-0.442225 0.189175 -0.047533
-0.593228 -0.026968 -0.053780
-0.464555 0.091285 -0.058699
-0.498766 -0.079582 -0.058998
-0.601587 -0.023903 -0.057323
-0.600684 0.126673 -0.048505
-0.486149 0.126381 -0.049345
-0.538351 0.099526 -0.049879
-0.508690 -0.018684 -0.054111
-0.479500 0.015265 -0.061173
-0.485525 -0.069449 -0.059981
-0.471922 -0.059095 -0.059581
-0.417157 0.085040 -0.051249
-0.437074 0.134069 -0.049439
-0.527000 0.017071 -0.060768
-0.429945 -0.023412 -0.062846
-0.486705 0.135036 -0.049047
-0.450589 -0.014604 -0.062398
-0.561181 -0.010551 -0.061459
-0.546755 0.096379 -0.057930
-0.465067 0.207663 -0.054741
-0.418552 0.105744 -0.058541
-0.460346 0.117622 -0.057834
-0.573766 0.121569 -0.056878
-0.575029 0.082481 -0.050193
-0.496757 0.109469 -0.057848
-0.459132 0.015867 -0.053296
-0.471491 0.110399 -0.057999
-0.571204 0.145399 -0.056087
-0.566037 0.012232 -0.060649
-0.598396 0.078125 -0.050171
-0.460209 -0.018549 -0.062462
-0.472481 -0.040411 -0.055111
-0.478683 -0.064238 -0.059850
-0.557218 -0.020115 -0.053808
-0.522645 -0.018997 -0.054020
-0.461617 0.184918 -0.055539
-0.439898 0.002742 -0.053881
-0.411920 0.146891 -0.057191
-0.529660 0.160004 -0.047887
-0.436387 0.117560 -0.058010
-0.503434 -0.042889 -0.062976
-0.573704 0.158381 -0.047623
-0.583685 0.137752 -0.056257
-0.521331 0.101067 -0.049950
-0.453909 0.057078 -0.051933
-0.493239 0.051148 -0.051850
-0.564939 0.126056 -0.056790
-0.656537 0.048237 -0.056970
-0.544046 -0.021163 -0.061943
-0.474899 -0.056202 -0.055630
-0.426953 -0.009345 -0.062390
-0.538500 -0.057220 -0.055204
-0.635403 0.042620 -0.059114
-0.490155 0.239942 -0.051439
-0.440988 0.147270 -0.056967
-0.548869 0.181336 -0.055028
-0.452334 0.139334 -0.057155
-0.476408 0.216064 -0.054373
-0.481921 0.031996 -0.060587
-0.539215 -0.078742 -0.063935
-0.479401 0.115686 -0.049757
-0.451039 0.062058 -0.051785
-0.445213 -0.002441 -0.062023
-0.519472 0.108237 -0.049720
-0.534954 -0.107240 -0.057226
-0.410926 0.042325 -0.060751
-0.483228 0.084546 -0.058792
-0.521406 -0.088040 -0.056375
-0.632311 0.115062 -0.056675
-0.489257 -0.055332 -0.063501
-0.423335 0.095300 -0.050856
-0.415607 0.014498 -0.053657
-0.583279 0.013593 -0.060478
-0.502884 0.140968 -0.048728
-0.426811 0.149308 -0.057001
-0.419720 0.074763 -0.051580
-0.558348 0.016044 -0.052571
-0.369757 0.046668 -0.052897
-0.539576 -0.092205 -0.064390
-0.461772 0.073731 -0.059315
-0.506599 0.123624 -0.057295
-0.426401 0.024090 -0.061258
-0.474864 0.194073 -0.047127
-0.486980 -0.058247 -0.063617
-0.615541 0.120572 -0.048605
-0.555312 0.069949 -0.058766
-0.436640 0.077986 -0.059353
-0.493914 -0.053540 -0.063407
-0.517692 0.056668 -0.051485
-0.377105 0.101656 -0.058980
-0.481727 0.109688 -0.049944
-0.623632 0.093361 -0.057476
-0.410181 0.146006 -0.057233
-0.457319 0.182004 -0.055669
-0.365218 0.042766 -0.053062
-0.569148 0.150370 -0.055933
-0.398282 0.117270 -0.058296
-0.482788 -0.035278 -0.054862
-0.394002 0.107332 -0.058665
-0.594555 -0.007456 -0.053107
-0.397206 0.046121 -0.052716
-0.651186 0.096777 -0.049155
-0.554670 0.190764 -0.051536
-0.654943 0.083989 -0.057567
-0.424924 0.103800 -0.058561
-0.586330 0.083020 -0.050092
-0.548344 0.001000 -0.061159
-0.418426 0.009701 -0.053800
-0.511024 -0.073224 -0.063952
-0.563652 0.074294 -0.058558
-0.571870 -0.010625 -0.053379
-0.555206 0.183194 -0.046914
-0.625764 0.105396 -0.049046
-0.465054 -0.032697 -0.054903
-0.468900 0.191490 -0.055262
-0.569121 0.029477 -0.052036
-0.430124 0.172860 -0.056176
-0.564830 0.096171 -0.057806
-0.495959 0.178059 -0.047518
-0.586004 0.069577 -0.058556
-0.593751 0.002937 -0.052760
-0.439973 0.000262 -0.061969
-0.614389 0.119418 -0.056657
-0.489430 0.130290 -0.057193
-0.406049 0.055804 -0.060328
-0.514153 0.028741 -0.052460
-0.550233 0.168650 -0.055449
-0.573340 -0.014253 -0.061496
-0.485363 0.199875 -0.054858
-0.568425 -0.050616 -0.062768
-0.452966 0.173549 -0.055987
-0.610276 0.094663 -0.049523
-0.439211 0.173109 -0.056102
-0.435150 0.114356 -0.050123
-0.509998 0.083643 -0.050624
-0.613749 0.062573 -0.058593
-0.445391 -0.024688 -0.054773
-0.595932 0.037580 -0.051567
-0.606704 0.022184 -0.052012
-0.500384 0.100312 -0.050128
-0.567469 0.047449 -0.059443
-0.490176 0.212498 -0.054395
-0.613119 0.146299 -0.053914
-0.610463 0.121070 -0.048625
-0.481121 0.223101 -0.046095
-0.550724 0.030599 -0.052131
-0.512410 0.148241 -0.048412
-0.582097 0.056620 -0.059025
-0.531999 0.170898 -0.055505
-0.479454 0.171006 -0.055882
-0.581630 0.161963 -0.047444
-0.382179 0.009212 -0.056816
-0.597515 -0.010178 -0.053178
-0.433351 0.023189 -0.053234
-0.636556 0.095749 -0.049296
-0.455117 0.206269 -0.054352
-0.433903 0.015540 -0.061494
-0.483510 0.073521 -0.059165
-0.490941 -0.051628 -0.063363
-0.559938 -0.053423 -0.054920
-0.360300 0.049943 -0.060859
-0.574663 0.149716 -0.055916
-0.617738 0.051930 -0.058926
-0.577151 0.014445 -0.052489
-0.566323 -0.039741 -0.062413
-0.545000 0.198028 -0.048803
-0.595494 0.045179 -0.051312
-0.504201 0.027430 -0.060581
-0.557551 0.020782 -0.052416
-0.493324 -0.053858 -0.063422
-0.553826 0.154360 -0.055909
-0.506120 -0.039137 -0.062829
-0.602787 0.140606 -0.056021
-0.465981 -0.045563 -0.063338
-0.543997 0.000281 -0.061215
-0.538308 -0.041703 -0.054678
-0.532195 0.021521 -0.052574
-0.486146 0.121579 -0.057513
-0.490443 0.125304 -0.049350
-0.519939 0.109911 -0.057665
-0.413210 0.069435 -0.051808
-0.453497 0.028626 -0.060908
-0.398002 0.009277 -0.061967
-0.513892 0.183474 -0.055209
-0.649314 0.113554 -0.048599
-0.414862 0.055370 -0.060279
-0.434199 0.151323 -0.056879
-0.609554 0.073581 -0.058250
-0.555110 0.149675 -0.056059
-0.571247 0.143206 -0.056162
-0.632131 0.057296 -0.058639
-0.501176 0.011988 -0.053123
-0.565077 0.114555 -0.057180
-0.643788 0.106479 -0.056884
-0.633597 0.113598 -0.056716
-0.613901 -0.007374 -0.060969
-0.536309 0.089504 -0.058239
-0.537210 -0.055987 -0.055171
-0.614927 0.134421 -0.056144
-0.429825 0.134034 -0.057498
-0.531802 0.167125 -0.047630
-0.575820 0.142068 -0.048162
-0.667364 0.091689 -0.057216
-0.537680 0.060744 -0.051202
-0.524741 0.140087 -0.048600
-0.389024 0.071453 -0.059920
-0.560172 0.005616 -0.060917
-0.519095 -0.060597 -0.055459
-0.533991 0.007162 -0.053049
-0.418747 0.146574 -0.049147
-0.601741 0.046115 -0.059240
-0.495394 0.121129 -0.049456
-0.523370 -0.051025 -0.055103
-0.480522 -0.000212 -0.053687
-0.505693 0.109288 -0.057789
-0.470703 0.183715 -0.047509
-0.452343 0.026743 -0.052975
-0.498562 -0.077781 -0.064197
-0.514682 -0.073856 -0.055942
-0.447751 0.138892 -0.049198
-0.523214 0.047290 -0.051764
-0.596062 0.147042 -0.055851
-0.565755 -0.052617 -0.054850
-0.501028 -0.070321 -0.055921
-0.570725 0.117484 -0.049034
-0.584489 -0.040615 -0.054307
-0.547120 -0.026567 -0.062105
-0.546124 0.009977 -0.052866
-0.457148 0.046488 -0.052270
-0.375427 0.038009 -0.053150
-0.560947 0.149508 -0.048017
-0.442420 0.076486 -0.051357
-0.517686 -0.093870 -0.062444
-0.601406 0.154967 -0.047539
-0.571972 0.155185 -0.047744
-0.450180 0.182195 -0.055714
-0.615919 0.106387 -0.049084
-0.402305 0.136977 -0.056396
-0.448981 0.003299 -0.061801
-0.405699 0.078681 -0.059553
-0.603080 0.042325 -0.051354
-0.470859 -0.042130 -0.063186
-0.383181 0.086873 -0.059438
-0.500324 -0.048123 -0.055171
-0.580384 0.022464 -0.052193
-0.587324 0.117178 -0.056929
-0.559683 0.165124 -0.055501
-0.500571 0.007615 -0.061281
-0.631770 0.132143 -0.055502
-0.486602 0.215864 -0.046301
-0.605816 0.070279 -0.058389
-0.520746 -0.013541 -0.061853
-0.600731 0.155611 -0.050565
-0.429237 0.168788 -0.056321
-0.460256 0.188002 -0.055444
-0.514676 0.112430 -0.049612
-0.526656 -0.013857 -0.061821
-0.539576 0.026942 -0.060341
-0.465270 0.219536 -0.051698
-0.521261 0.178162 -0.047331
-0.375496 0.098072 -0.051108
-0.598005 0.029828 -0.051815
-0.609754 0.100303 -0.049335
-0.427963 -0.005432 -0.054245
-0.445967 0.119682 -0.049864
-0.425079 0.016484 -0.061526
-0.407451 0.110759 -0.058451
-0.485122 0.133154 -0.057127
-0.587610 0.149765 -0.047815
-0.469566 0.114425 -0.049871
-0.560487 0.042123 -0.051669
-0.624163 0.036549 -0.059402
-0.392845 0.009042 -0.054008
-0.546957 0.178353 -0.047138
-0.465702 0.188785 -0.047373
-0.552988 -0.032592 -0.062267
-0.492412 0.117112 -0.049614
-0.557739 0.094253 -0.049918
-0.568135 -0.034484 -0.062222
-0.483976 -0.022314 -0.054413
-0.498189 -0.070393 -0.063948
-0.459681 0.161623 -0.048339
-0.565080 -0.014233 -0.061556
-0.492108 0.040977 -0.052204
-0.404490 0.030422 -0.061202
-0.553909 0.015488 -0.052622
-0.579476 0.102338 -0.057491
-0.495125 0.236114 -0.050426
-0.602293 0.074630 -0.050262
-0.486925 0.031023 -0.060584
-0.530454 -0.051160 -0.063061
-0.513824 -0.018883 -0.054080
-0.455696 0.104824 -0.050298
-0.577059 0.044077 -0.051483
-0.552127 -0.009123 -0.061476
-0.532445 -0.059492 -0.055325
-0.471040 0.070375 -0.051357
-0.517552 0.148639 -0.048361
-0.591817 -0.022276 -0.053630
-0.440621 -0.015494 -0.054495
-0.456863 0.106153 -0.058249
-0.352129 0.035223 -0.061418
-0.548437 0.001080 -0.061156
-0.569339 0.034832 -0.051853
-0.601011 0.139883 -0.048054
-0.482634 0.098953 -0.058307
-0.337704 0.043121 -0.056909
-0.506111 -0.065788 -0.063735
-0.418160 0.040396 -0.060764
-0.520856 0.104499 -0.049837
-0.427169 -0.025158 -0.055016
-0.347076 0.036133 -0.060879
-0.565314 0.094612 -0.057856
-0.572445 0.164092 -0.047438
-0.619557 0.085826 -0.049756
-0.529314 0.210032 -0.049958
-0.485558 0.209011 -0.046542
-0.647015 0.112468 -0.048652
-0.623516 0.026613 -0.051740
-0.461510 0.091523 -0.050708
-0.518144 0.144659 -0.048492
-0.396097 0.128715 -0.051855
-0.428228 0.039258 -0.060730
-0.543971 -0.019563 -0.053885
-0.559073 0.002674 -0.053020
-0.409279 0.020405 -0.053503
-0.626251 0.096311 -0.057356
-0.522425 -0.058344 -0.055359
-0.591268 0.075147 -0.050324
-0.584708 0.060859 -0.058862
-0.500345 0.113522 -0.057684
-0.466898 0.021453 -0.053050
-0.448565 -0.032078 -0.055001
-0.582264 0.001088 -0.060911
-0.482524 0.029222 -0.052672
-0.571420 -0.014627 -0.061523
-0.487678 0.025550 -0.052760
-0.402134 0.079653 -0.051541
-0.397577 0.002417 -0.062203
-0.457221 0.168447 -0.056130
-0.538597 -0.013905 -0.053731
-0.641643 0.067548 -0.058222
-0.445101 0.050918 -0.052206
-0.421841 0.134611 -0.049531
-0.481951 0.157474 -0.056324
-0.605231 0.003533 -0.060661
-0.457180 0.011306 -0.053465
-0.422029 0.023244 -0.053314
-0.509301 -0.067305 -0.063763
-0.562717 -0.020734 -0.061794
-0.473319 0.219284 -0.054286
-0.573252 0.113745 -0.057148
-0.517268 0.053257 -0.059609
-0.366572 0.061675 -0.060415
-0.358549 0.034141 -0.053403
-0.497057 0.068079 -0.059252
-0.432115 0.120461 -0.057942
-0.457115 0.178876 -0.047772
-0.508285 0.108477 -0.049793
-0.538461 -0.106765 -0.058299
-0.490748 0.107407 -0.049956
-0.526437 0.036904 -0.060098
-0.370340 0.070963 -0.052067
-0.648932 0.055749 -0.058570
-0.534594 -0.027707 -0.054229
-0.441985 0.009943 -0.061626
-0.625975 0.107278 -0.048981
-0.593780 -0.005009 -0.061034
-0.390910 0.016857 -0.053756
-0.533580 0.046716 -0.051708
-0.541118 0.023368 -0.052447
-0.673777 0.092507 -0.057141
-0.456360 -0.005719 -0.062054
-0.528720 0.163624 -0.047771
-0.473304 0.101743 -0.050275
-0.482918 0.026949 -0.052747
-0.536401 0.047206 -0.059676
-0.560553 0.045367 -0.051559
-0.493798 0.018798 -0.052945
-0.556289 -0.073521 -0.063634
-0.509398 -0.010566 -0.053830
-0.612453 0.003170 -0.052616
-0.422255 0.163126 -0.054571
-0.386711 0.116445 -0.054088
-0.623248 0.128901 -0.048266
-0.619471 0.133724 -0.056134
-0.489177 0.217622 -0.054228
-0.492707 0.236133 -0.053573
-0.501648 0.175394 -0.047567
-0.499471 0.103164 -0.050037
-0.590852 0.003900 -0.060753
-0.532351 -0.095178 -0.064543
-0.626884 0.085774 -0.049705
-0.458651 -0.031933 -0.054923
-0.360993 0.074839 -0.060008
-0.483654 0.243553 -0.046753
-0.468106 0.111251 -0.049990
-0.398490 0.083401 -0.059445
-0.388126 0.104200 -0.058814
-0.425046 0.043563 -0.060606
-0.481838 0.114060 -0.057800
-0.628167 0.101304 -0.057173
-0.462063 0.040107 -0.060456
-0.541928 0.126193 -0.056952
-0.418484 0.047371 -0.060525
-0.651165 0.070315 -0.058059
-0.476338 0.090451 -0.058642
-0.635407 0.034757 -0.051377
-0.409778 0.115143 -0.050280
-0.540970 0.126793 -0.056939
-0.500164 -0.080516 -0.062342
-0.555840 0.184569 -0.054868
-0.551946 0.161384 -0.055684
-0.510807 0.112863 -0.049626
-0.498372 -0.005998 -0.053754
-0.618423 0.116578 -0.056725
-0.570375 0.103260 -0.057525
-0.588414 0.090079 -0.049837
-0.483866 0.077953 -0.051007
-0.545661 0.153315 -0.047999
-0.475889 0.233501 -0.052612
-0.416118 -0.008498 -0.062440
-0.424220 0.002698 -0.053996
-0.427051 0.146412 -0.057097
-0.528192 0.010643 -0.052973
-0.527992 0.027906 -0.060393
-0.514646 0.187241 -0.055075
-0.497392 -0.000795 -0.061589
-0.357257 0.060638 -0.060517
-0.375232 0.022376 -0.061687
-0.536405 -0.058648 -0.063272
-0.420923 0.154258 -0.056875
-0.544425 -0.065988 -0.055459
-0.538771 0.200157 -0.046457
-0.608722 0.029429 -0.051751
-0.459706 0.001287 -0.061792
-0.355661 0.053968 -0.052751
-0.521219 -0.073867 -0.063900
-0.589102 0.086650 -0.049949
-0.560492 0.047719 -0.059484
-0.628239 0.067146 -0.050328
-0.489333 0.240477 -0.049087
-0.536819 -0.108491 -0.061541
-0.484908 0.021348 -0.052923
-0.576168 0.128252 -0.048629
-0.459915 0.172867 -0.055960
-0.508792 -0.079719 -0.056184
-0.547834 0.048421 -0.051547
-0.517080 0.141101 -0.048621
-0.565342 0.019585 -0.052400
-0.496579 0.130014 -0.057151
-0.588742 0.146248 -0.055931
-0.534318 0.105748 -0.057702
-0.670132 0.088075 -0.049314
-0.419369 0.119120 -0.050075
-0.416872 0.150088 -0.049041
-0.554128 0.148621 -0.056102
-0.555251 0.119313 -0.057089
-0.482404 -0.064292 -0.063855
-0.446259 0.139442 -0.049190
-0.411658 0.062263 -0.060068
-0.537933 -0.096784 -0.064557
-0.530990 0.090216 -0.058254
-0.443098 0.073705 -0.051447
-0.524253 0.161374 -0.055885
-0.462443 0.062258 -0.051695
-0.622781 0.051986 -0.058888
-0.589485 -0.037330 -0.062164
-0.399922 0.070362 -0.059878
-0.507377 0.001969 -0.061423
-0.375075 0.052070 -0.060679
-0.603298 0.082041 -0.050003
-0.491771 0.095786 -0.058349
-0.538692 0.047198 -0.051655
-0.561520 -0.020519 -0.061795
-0.484808 0.153457 -0.056439
-0.494422 -0.064063 -0.063761
-0.505625 0.058980 -0.051494
-0.437216 0.126937 -0.057685
-0.517735 0.142932 -0.056559
-0.448768 0.165188 -0.056302
-0.538450 -0.048619 -0.054912
-0.633903 0.034203 -0.051406
-0.429021 0.124040 -0.057843
-0.418422 -0.006625 -0.054355
-0.515383 -0.092335 -0.056841
-0.361435 0.071520 -0.052113
-0.487797 0.184650 -0.055358
-0.573194 -0.005351 -0.061195
-0.474281 0.088663 -0.058717
-0.503418 0.072536 -0.051049
-0.650629 0.117788 -0.056046
-0.539001 -0.106026 -0.059506
-0.475521 -0.048505 -0.063369
-0.514428 0.076303 -0.050842
-0.335157 0.045024 -0.055945
-0.505652 -0.053626 -0.055320
-0.458290 0.073247 -0.059357
-0.633803 0.018388 -0.056957
-0.475125 0.232345 -0.046352
-0.500379 -0.080787 -0.059616
-0.569670 0.041563 -0.051622
-0.660265 0.080520 -0.049642
-0.608598 0.029703 -0.051743
-0.492997 0.179940 -0.047476
-0.490594 0.212985 -0.054375
-0.452613 0.181853 -0.055708
-0.671465 0.080028 -0.049577
-0.482978 -0.017101 -0.054243
-0.454099 0.177976 -0.055829
-0.470175 0.148952 -0.048694
-0.424800 0.052802 -0.060294
-0.506110 0.020121 -0.052811
-0.544350 0.124220 -0.057002
-0.504597 0.101499 -0.058062
-0.492268 0.216669 -0.046233
-0.537874 0.140433 -0.056498
-0.401046 0.109699 -0.058533
-0.388377 0.107916 -0.058685
-0.572055 -0.008726 -0.053313
-0.627584 0.026777 -0.059709
-0.398962 0.062283 -0.060159
-0.544519 0.073839 -0.050707
-0.593409 0.088730 -0.057852
-0.576481 0.147790 -0.047963
-0.662715 0.062429 -0.050239
-0.578519 0.136532 -0.048331
-0.549756 0.026439 -0.060285
-0.392179 0.025588 -0.053450
-0.661942 0.057696 -0.050405
-0.528987 0.150271 -0.048223
-0.535296 0.161691 -0.055794
-0.659318 0.080407 -0.057657
-0.526631 0.207045 -0.046311
-0.419524 0.081674 -0.051347
-0.528877 -0.080540 -0.064071
-0.375693 0.066682 -0.052174
-0.512529 0.156388 -0.048134
-0.498342 0.087002 -0.050595
-0.546237 -0.008507 -0.053493
-0.482506 -0.035802 -0.062887
-0.451740 0.144112 -0.048992
-0.635071 0.104437 -0.049012
-0.597051 0.112050 -0.057033
-0.512072 0.104391 -0.049904
-0.553623 -0.031504 -0.062225
-0.521153 0.064230 -0.059208
-0.454509 0.138181 -0.057178
-0.376144 0.055329 -0.052556
-0.549090 0.034184 -0.060026
-0.551544 -0.061321 -0.055249
-0.580916 0.091120 -0.057861
-0.518342 -0.056527 -0.055326
-0.473266 0.007087 -0.061496
-0.523651 0.026533 -0.052466
-0.510471 -0.007968 -0.053734
-0.503894 0.113875 -0.057646
-0.648069 0.044432 -0.050956
-0.491325 -0.031803 -0.062687
-0.442748 0.026387 -0.053057
-0.662064 0.062295 -0.058253
-0.382189 0.032960 -0.061277
-0.433039 0.161221 -0.056551
-0.478510 0.206946 -0.054668
-0.551455 0.095110 -0.049934
-0.515654 0.206714 -0.046402
-0.409226 -0.011395 -0.057129
-0.436125 -0.001377 -0.062053
-0.557352 0.168795 -0.055393
-0.424938 0.117985 -0.050074
-0.447028 0.171270 -0.048103
-0.645383 0.067826 -0.050181
-0.398668 0.028939 -0.053290
-0.583701 -0.017195 -0.061521
-0.524319 -0.062992 -0.055503
-0.508321 0.103983 -0.057950
-0.578065 0.049175 -0.059307
-0.644957 0.092999 -0.049329
-0.526629 0.078555 -0.050677
-0.512763 0.060146 -0.051403
-0.537884 0.191331 -0.054768
-0.626442 0.136076 -0.052238
-0.487863 -0.063511 -0.055785
-0.418562 0.112295 -0.050313
-0.503823 0.218778 -0.046077
-0.427003 0.058250 -0.060093
-0.583441 0.132625 -0.056433
-0.501076 0.087926 -0.058548
-0.672069 0.094565 -0.057084
-0.571690 0.032751 -0.051906
-0.509796 0.075091 -0.050916
-0.519429 -0.066973 -0.063678
-0.483371 -0.062622 -0.063792
-0.502633 0.114237 -0.057643
-0.544241 0.081175 -0.058465
-0.430908 -0.004894 -0.054205
-0.531225 -0.037352 -0.062586
-0.652329 0.092523 -0.057296
-0.499627 0.028681 -0.052567
-0.515292 -0.020552 -0.062131
-0.618588 0.029572 -0.059680
-0.561225 0.164647 -0.047501
-0.475213 -0.004395 -0.053868
-0.564047 0.131911 -0.056598
-0.643162 0.036565 -0.051259
-0.524747 0.027738 -0.052417
-0.548737 0.090723 -0.050103
-0.498006 -0.020337 -0.054244
-0.660021 0.059534 -0.058361
-0.426677 -0.017489 -0.062669
-0.545979 -0.029266 -0.062205
-0.455651 0.015592 -0.061335
-0.521874 0.207396 -0.054338
-0.675696 0.073219 -0.049876
-0.480945 0.151350 -0.048534
-0.650300 0.077677 -0.057815
-0.385731 0.064681 -0.052169
-0.510446 0.154705 -0.048207
-0.529513 0.101575 -0.057878
-0.441322 0.091954 -0.050839
-0.548840 0.077487 -0.050552
-0.476680 0.234516 -0.051671
-0.609672 0.126064 -0.048461
-0.486613 0.018839 -0.052996
-0.592600 0.142642 -0.048021
-0.577855 0.139517 -0.056239
-0.518084 0.124182 -0.057193
-0.496542 0.003429 -0.061452
-0.494457 0.021412 -0.052851
-0.556731 0.041018 -0.059739
-0.462634 -0.039698 -0.055158
-0.670119 0.094446 -0.049097
-0.568622 0.074760 -0.058506
-0.483501 0.221521 -0.054136
-0.578904 0.091236 -0.057872
-0.500610 0.075436 -0.050971
-0.508572 0.049421 -0.059802
-0.342570 0.047879 -0.053052
-0.513484 -0.085515 -0.056347
-0.591034 0.084836 -0.058001
-0.370864 0.033652 -0.061336
-0.547169 0.153750 -0.055978
-0.440878 0.106674 -0.058347
-0.595559 0.067799 -0.050543
-0.411902 0.001488 -0.054126
-0.470514 0.212036 -0.046548
-0.430515 0.055442 -0.052158
-0.428903 0.101202 -0.050615
-0.523681 0.109321 -0.057657
-0.456206 0.173971 -0.055950
-0.520200 0.142451 -0.048552
-0.525461 -0.013611 -0.061821
-0.497716 0.124768 -0.057321
-0.432069 -0.028065 -0.054984
-0.397112 0.072706 -0.059819
-0.427391 0.127351 -0.057742
-0.621147 0.084336 -0.057800
-0.566772 -0.035194 -0.054251
-0.410037 0.053788 -0.060368
-0.450400 0.179289 -0.055811
-0.370726 0.094004 -0.059286
-0.446817 0.185706 -0.055619
-0.469430 0.051338 -0.052016
-0.639263 0.068937 -0.050187
-0.505810 0.117057 -0.057524
-0.554695 0.033128 -0.052017
-0.462613 -0.009518 -0.054133
-0.461016 0.058749 -0.051825
-0.514849 -0.055546 -0.063323
-0.407430 0.106602 -0.058592
-0.644049 0.122490 -0.048333
-0.683208 0.083165 -0.053198
-0.603831 0.083221 -0.049959
-0.653430 0.115538 -0.053161
-0.685591 0.091138 -0.056116
-0.441732 -0.021065 -0.062681
-0.468838 0.126351 -0.057476
-0.514301 -0.091222 -0.064135
-0.484168 0.180278 -0.055533
-0.616778 0.130996 -0.048242
-0.464407 0.030026 -0.052776
-0.559046 0.084797 -0.050230
-0.546714 -0.093151 -0.064370
-0.513478 0.137966 -0.056758
-0.473724 0.076559 -0.059133
-0.492384 -0.011493 -0.053984
-0.482540 0.169587 -0.047903
-0.422063 0.042650 -0.052654
-0.562245 0.185011 -0.052102
-0.545587 0.195470 -0.054572
-0.449092 0.005348 -0.053726
-0.393395 0.077947 -0.059667
-0.368645 0.047849 -0.060869
-0.489360 0.195371 -0.054982
-0.497956 -0.078962 -0.056236
-0.542562 0.200097 -0.054144
-0.578939 -0.033754 -0.062118
-0.558023 0.180086 -0.046999
-0.539262 0.073528 -0.050756
-0.388870 0.057890 -0.060382
-0.475137 0.035734 -0.060509
-0.364323 0.041950 -0.061101
-0.526974 0.003643 -0.061224
-0.454620 0.198373 -0.055132
-0.604223 -0.020498 -0.055024
-0.587966 -0.041820 -0.056032
-0.515215 0.042031 -0.060005
-0.614738 0.114437 -0.048819
-0.487799 -0.059823 -0.055660
-0.376873 0.061277 -0.060353
-0.585377 0.069775 -0.058554
-0.606411 0.043407 -0.051293
-0.567945 0.139213 -0.056321
-0.560286 0.063771 -0.058940
-0.566877 -0.052653 -0.054843
-0.410525 0.038455 -0.052880
-0.447656 0.141315 -0.057121
-0.499017 0.192089 -0.055024
-0.342734 0.039416 -0.060190
-0.525225 -0.033985 -0.062515
-0.499271 -0.002227 -0.053620
-0.456226 0.129877 -0.057448
-0.420067 0.039100 -0.060794
-0.559853 0.145296 -0.056173
-0.417826 0.103479 -0.058623
-0.670549 0.094533 -0.057096
-0.481256 0.193544 -0.047098
-0.556834 0.064487 -0.058941
-0.360333 0.038312 -0.061254
-0.363296 0.054639 -0.052673
-0.626229 0.012375 -0.060209
-0.536260 -0.106035 -0.056879
-0.589138 0.159013 -0.047490
-0.563434 0.135026 -0.056496
-0.458619 0.131681 -0.049364
-0.491882 0.037820 -0.052312
-0.380687 0.030818 -0.053356
-0.450971 0.112627 -0.058072
-0.422231 0.006760 -0.053872
-0.457343 0.188172 -0.047454
-0.440801 0.136681 -0.057328
-0.524149 0.154536 -0.056118
-0.475417 0.107072 -0.058084
-0.558413 -0.036563 -0.054358
-0.545750 -0.045516 -0.062759
-0.536000 0.135755 -0.056670
-0.549058 0.002580 -0.053096
-0.623445 0.095079 -0.057419
-0.558818 0.020688 -0.060414
-0.556928 0.031209 -0.060071
-0.442344 0.000309 -0.053946
-0.455662 0.068245 -0.059546
-0.438107 0.149445 -0.056914
-0.485012 0.129847 -0.049235
-0.491377 0.045857 -0.052043
-0.379499 0.107070 -0.057904
-0.466672 0.098352 -0.050438
-0.557825 0.075000 -0.058576
-0.525685 0.064097 -0.051175
-0.547151 0.081599 -0.050425
-0.463230 -0.023003 -0.062591
-0.478227 0.039185 -0.052365
-0.481972 0.150153 -0.056572
-0.451433 0.105548 -0.050304
-0.569407 -0.000215 -0.061048
-0.584318 0.089744 -0.049879
-0.385496 0.017512 -0.053773
-0.484347 0.168848 -0.055920
-0.651028 0.093435 -0.057275
-0.534039 -0.076191 -0.063886
-0.435581 0.062723 -0.059879
-0.503278 -0.018034 -0.054128
-0.393619 0.036025 -0.061090
-0.548191 -0.005679 -0.061387
-0.396038 0.059306 -0.060282
-0.479479 0.100289 -0.058285
-0.444647 0.013027 -0.053497
-0.540829 0.066459 -0.058990
-0.573933 0.077001 -0.050387
-0.615517 0.062962 -0.050562
-0.389010 0.020886 -0.053633
-0.489239 0.175495 -0.047654
-0.426695 0.075772 -0.059500
-0.475612 0.040482 -0.060345
-0.463433 0.067581 -0.059512
-0.576670 0.129506 -0.048583
-0.573923 0.139215 -0.048273
-0.591535 0.129346 -0.056486
-0.630058 0.037151 -0.059339
-0.662439 0.068208 -0.050044
-0.500674 0.145678 -0.048584
-0.485565 0.187264 -0.047281
-0.532399 0.121474 -0.057181
-0.404877 0.107859 -0.050563
-0.623529 0.060875 -0.050575
-0.475537 0.012353 -0.053296
-0.669971 0.086949 -0.049353
-0.460807 0.209555 -0.054707
-0.571821 0.117011 -0.057047
-0.513324 0.138920 -0.048722
-0.507846 0.036355 -0.060251
-0.507208 0.066923 -0.059217
-0.407709 0.051432 -0.052460
-0.572148 0.065208 -0.058805
-0.481898 0.037530 -0.060399
-0.519416 0.063374 -0.051245
-0.495873 0.064841 -0.051365
-0.448018 0.196844 -0.050087
-0.615649 0.029581 -0.059701
-0.500796 -0.007480 -0.053787
-0.672775 0.090609 -0.049208
-0.612638 0.022141 -0.059975
-0.447660 0.070345 -0.059533
-0.419964 0.061821 -0.060023
-0.466030 -0.028608 -0.062762
-0.455393 0.184418 -0.055601
-0.517059 -0.023807 -0.062229
-0.476274 0.048660 -0.052057
-0.549745 0.138681 -0.048466
-0.481717 0.115519 -0.057751
-0.472502 0.190505 -0.055270
-0.528906 -0.056587 -0.063257
-0.598438 0.004543 -0.060676
-0.510301 0.124015 -0.049250
-0.432279 0.018772 -0.061396
-0.511173 0.137118 -0.048799
-0.583291 0.127752 -0.056599
-0.530733 -0.103829 -0.062124
-0.526005 0.048337 -0.051708
-0.473359 0.168356 -0.056016
-0.452799 0.030619 -0.052840
-0.461151 0.204194 -0.046882
-0.498306 -0.013802 -0.062025
-0.489110 0.081877 -0.058840
-0.589666 -0.004701 -0.061054
-0.377203 0.033133 -0.061307
-0.547964 -0.008058 -0.053465
-0.473704 -0.004402 -0.061884
-0.532227 0.141355 -0.056507
-0.530400 0.161717 -0.047824
-0.493634 0.072835 -0.059115
-0.518275 -0.094342 -0.061845
-0.499325 0.168198 -0.047829
-0.584701 -0.027493 -0.053859
-0.592806 0.057909 -0.050899
-0.579219 -0.049410 -0.054644
-0.512187 -0.061675 -0.055546
-0.603007 -0.018949 -0.053436
-0.427076 0.036691 -0.052820
-0.417229 0.129588 -0.057740
-0.558234 -0.077781 -0.055760
-0.428103 0.030811 -0.053013
-0.526525 -0.088191 -0.056343
-0.504864 0.133364 -0.048972
-0.506501 -0.039492 -0.062838
-0.457476 0.133794 -0.057306
-0.462196 0.109169 -0.058108
-0.659026 0.066556 -0.058130
-0.382579 0.016828 -0.053818
-0.453315 0.019013 -0.053231
-0.605566 0.127886 -0.048429
-0.460158 0.177181 -0.047807
-0.550290 0.164728 -0.047577
-0.522658 -0.019288 -0.054030
-0.414707 -0.015621 -0.055946
-0.459959 -0.024793 -0.054671
-0.409167 0.008029 -0.053924
-0.573780 0.175843 -0.047029
-0.480440 0.110526 -0.049925
-0.399949 0.037846 -0.060982
-0.643387 0.054099 -0.050662
-0.353476 0.063894 -0.060434
-0.540909 -0.012102 -0.053653
-0.627225 0.105656 -0.057032
-0.631774 0.111736 -0.048787
-0.639464 0.065208 -0.050313
-0.610469 0.015410 -0.052215
-0.585979 0.126653 -0.048612
-0.451614 0.128104 -0.049537
-0.482101 0.070819 -0.051262
-0.494456 0.002716 -0.061491
-0.397666 0.125239 -0.058030
-0.470033 0.127344 -0.049429
-0.508848 -0.012537 -0.053901
-0.568313 0.088381 -0.050041
-0.493836 0.236907 -0.045630
-0.590315 0.148543 -0.047837
-0.444705 -0.028082 -0.054893
-0.505265 -0.047034 -0.055099
-0.481280 -0.051726 -0.055432
-0.469487 0.139855 -0.057013
-0.409524 0.146271 -0.057229
-0.525244 0.110738 -0.057598
-0.527986 0.158311 -0.047957
-0.443128 0.096630 -0.050667
-0.546721 0.012778 -0.060771
-0.546111 -0.064394 -0.063397
-0.636431 0.072101 -0.058105
-0.628005 0.120333 -0.056527
-0.452112 0.009369 -0.061572
-0.518619 -0.045229 -0.054941
-0.527419 0.077862 -0.058699
-0.455888 0.073288 -0.051368
-0.488870 0.073638 -0.051117
-0.481233 -0.034947 -0.062867
-0.610031 0.025697 -0.059873
-0.676322 0.074136 -0.053733
-0.447415 0.104204 -0.058384
-0.397175 0.027495 -0.053349
-0.497067 -0.011634 -0.061960
-0.470050 0.179038 -0.055677
-0.606804 0.062543 -0.050640
-0.560437 -0.058857 -0.055101
-0.579314 -0.008929 -0.053267
-0.557032 0.139402 -0.056394
-0.545095 0.175905 -0.047235
-0.544984 0.040297 -0.059848
-0.488992 0.234504 -0.045651
-0.554118 0.042144 -0.051715
-0.512713 0.181369 -0.055289
-0.484713 0.017395 -0.061063
-0.481873 0.026634 -0.060770
-0.584907 0.162435 -0.047404
-0.585880 -0.021129 -0.061639
-0.443470 0.120021 -0.057875
-0.580337 0.171047 -0.047747
-0.485379 0.230472 -0.045814
-0.534650 -0.046248 -0.054859
-0.510578 -0.053346 -0.063279
-0.530549 0.205284 -0.054347
-0.624075 0.032783 -0.059531
-0.671735 0.085190 -0.057405
-0.521678 0.078267 -0.058727
-0.457822 0.116282 -0.057898
-0.530872 0.125534 -0.057055
-0.503338 -0.011602 -0.061914
-0.494060 -0.044161 -0.063087
-0.501047 0.146150 -0.048565
-0.369331 0.044702 -0.060971
-0.609693 0.050523 -0.059032
-0.647455 0.079556 -0.049767
-0.616835 0.048113 -0.059062
-0.403086 0.133389 -0.057713
-0.451459 0.150709 -0.056774
-0.492166 0.006413 -0.053378
-0.560130 0.060417 -0.051050
-0.481135 0.099827 -0.058288
-0.471915 -0.020367 -0.062439
-0.451725 0.105175 -0.050315
-0.516997 0.011488 -0.053025
-0.491332 -0.013975 -0.062081
-0.517965 -0.074861 -0.063957
-0.532890 0.091267 -0.050199
-0.462321 0.071652 -0.059382
-0.604977 0.152423 -0.051794
-0.596876 0.113863 -0.056973
-0.610646 0.029339 -0.051740
-0.435735 0.084615 -0.059134
-0.567793 -0.068229 -0.059237
-0.519689 0.160277 -0.047950
-0.598301 0.087754 -0.049845
-0.469557 0.010794 -0.061397
-0.634629 0.099376 -0.057192
-0.426065 0.072030 -0.051627
-0.478531 0.022997 -0.060918
-0.492498 0.034586 -0.052418
-0.572197 0.088711 -0.050001
-0.575444 -0.043470 -0.054469
-0.482804 0.052186 -0.051890
-0.521998 0.133967 -0.056832
-0.391821 0.104795 -0.050762
-0.639941 0.077265 -0.057904
-0.424223 0.016176 -0.053538
-0.521921 0.065505 -0.051154
-0.460084 0.067374 -0.051539
-0.630719 0.028593 -0.051620
-0.660082 0.070841 -0.049972
-0.503606 -0.026676 -0.062424
-0.591309 0.021773 -0.052137
-0.605697 0.012745 -0.060345
-0.558145 -0.046816 -0.062713
-0.563213 0.062300 -0.050964
-0.497769 0.208639 -0.054471
-0.516913 -0.093372 -0.060131
-0.495866 -0.042581 -0.055015
-0.428807 0.073385 -0.059566
-0.448845 -0.000518 -0.053927
-0.547648 0.161217 -0.055721
-0.506777 0.187176 -0.055135
-0.357882 0.067669 -0.052269
-0.530434 0.039509 -0.059981
-0.409850 0.144433 -0.057289
-0.510517 -0.043546 -0.062947
-0.436282 0.096235 -0.050730
-0.584311 0.005165 -0.060757
-0.505091 0.168892 -0.047763
-0.334960 0.048504 -0.054416
-0.584429 0.024977 -0.060083
-0.486349 0.177788 -0.055602
-0.361680 0.032618 -0.053433
-0.457546 0.096611 -0.050564
-0.458028 0.026523 -0.060946
-0.593288 0.008565 -0.052572
-0.473323 0.159795 -0.048303
-0.492338 0.216346 -0.046243
-0.621296 0.014715 -0.052160
-0.562341 0.056675 -0.059166
-0.487928 0.207460 -0.054582
-0.423681 -0.014837 -0.054596
-0.560028 0.123191 -0.048918
-0.460971 0.116521 -0.049862
-0.554033 0.050752 -0.051423
-0.531599 0.086124 -0.058388
-0.532852 -0.105565 -0.059046
-0.667951 0.086909 -0.049369
-0.508368 0.104319 -0.049934
-0.454236 0.203472 -0.046957
-0.593681 0.136405 -0.048225
-0.535785 -0.065856 -0.063522
-0.580589 0.093744 -0.057774
-0.614100 0.143736 -0.047828
-0.419415 -0.013322 -0.054575
-0.424963 0.046898 -0.060494
-0.503872 0.155590 -0.056229
-0.472196 -0.019599 -0.062411
-0.671374 0.095655 -0.057052
-0.492854 -0.015003 -0.054100
-0.494617 0.014790 -0.061080
-0.487418 0.120769 -0.057531
-0.348788 0.056433 -0.060722
-0.640158 0.060798 -0.058462
-0.552395 0.048334 -0.059522
-0.621966 0.004719 -0.052495
-0.365433 0.088530 -0.054976
-0.559710 -0.024761 -0.053947
-0.531336 -0.074304 -0.055836
-0.667378 0.070596 -0.057932
-0.566484 -0.069847 -0.063331
-0.372492 0.033406 -0.053327
-0.432165 0.002009 -0.053962
-0.448223 0.022339 -0.061160
-0.605854 0.018878 -0.060135
-0.574772 0.047706 -0.059381
-0.510787 0.013259 -0.053010
-0.524311 0.182912 -0.047148
-0.426984 0.056434 -0.052150
-0.415422 0.029182 -0.053160
-0.635305 0.091799 -0.049439
-0.434116 0.136946 -0.049363
-0.493044 0.191510 -0.047082
-0.598107 0.060542 -0.050771
-0.472692 -0.002866 -0.061839
-0.649113 0.098920 -0.057102
-0.442607 0.189628 -0.055516
-0.454788 0.101077 -0.058437
-0.340564 0.041066 -0.060092
-0.464475 -0.011878 -0.062204
-0.540249 -0.044814 -0.054770
-0.516636 0.191329 -0.054922
-0.516858 0.007838 -0.053150
-0.456856 0.178379 -0.047790
-0.590079 0.016389 -0.052329
-0.558383 0.091001 -0.050024
-0.598617 0.125892 -0.056552
-0.439540 -0.003995 -0.062117
-0.556418 -0.032108 -0.054221
-0.410998 0.020869 -0.053474
-0.438105 0.037308 -0.052719
-0.569528 -0.030530 -0.054072
-0.543615 0.050353 -0.051512
-0.572152 0.107755 -0.057360
-0.442144 0.149320 -0.056889
-0.585175 -0.024950 -0.061774
-0.498878 0.099462 -0.058172
-0.565926 0.076694 -0.058460
-0.639529 0.027320 -0.059604
-0.580977 0.081631 -0.058183
-0.496919 0.054905 -0.051695
-0.430707 0.107556 -0.050386
-0.377409 0.104311 -0.057312
-0.415304 0.055246 -0.060280
-0.501196 -0.012575 -0.061962
-0.371723 0.047580 -0.060856
-0.486085 0.140463 -0.056872
-0.471768 -0.012449 -0.054166
-0.440516 -0.031677 -0.063051
-0.445933 -0.037990 -0.055221
-0.634841 0.093970 -0.049369
-0.540569 0.011142 -0.052866
-0.479180 0.225858 -0.046015
-0.608218 0.043522 -0.059281
-0.525666 -0.028710 -0.054328
-0.532829 0.027523 -0.060370
-0.395926 0.117453 -0.050302
-0.481100 -0.066021 -0.061358
-0.544496 0.169572 -0.047455
-0.537133 0.098086 -0.049937
-0.610727 0.066710 -0.058475
-0.543027 0.193563 -0.046650
-0.507587 0.052309 -0.059711
-0.571526 0.108398 -0.057342
-0.515076 -0.012187 -0.053844
-0.547952 0.118686 -0.049159
-0.562589 0.054118 -0.051246
-0.559724 0.061294 -0.051023
-0.564445 -0.012760 -0.053505
-0.482264 0.032840 -0.060556
-0.571191 0.073181 -0.058541
-0.537657 -0.048738 -0.062927
-0.573623 0.103926 -0.057479
-0.502650 0.008792 -0.053221
-0.492643 0.158169 -0.048218
-0.647917 0.051201 -0.050727
-0.533490 0.165179 -0.055689
-0.521490 0.005559 -0.061199
-0.503049 0.037037 -0.060263
-0.459170 0.207848 -0.054777
-0.482237 0.054722 -0.059813
-0.334784 0.046517 -0.061160
-0.657121 0.048941 -0.054355
-0.648260 0.065185 -0.058255
-0.596682 0.007500 -0.060588
-0.531460 0.136280 -0.056685
-0.580415 -0.016524 -0.061522
-0.528451 -0.091645 -0.064451
-0.423575 0.130202 -0.057673
-0.551186 0.176147 -0.055188
-0.479655 0.186084 -0.047363
-0.565381 0.163534 -0.055513
-0.442623 0.043673 -0.060475
-0.609491 0.092312 -0.049609
-0.384429 0.048661 -0.052723
-0.560539 -0.051951 -0.062870
-0.568197 0.050831 -0.051317
-0.594623 0.123120 -0.056675
-0.395036 0.056293 -0.052386
-0.537767 0.170353 -0.047477
-0.653986 0.104287 -0.056884
-0.393243 0.072105 -0.059867
-0.562271 -0.067839 -0.063397
-0.581148 0.103817 -0.057428
-0.511654 0.122712 -0.057290
-0.568070 -0.029531 -0.054049
-0.571164 0.049067 -0.059361
-0.452418 0.119557 -0.049821
-0.502167 0.100956 -0.050093
-0.526147 0.192535 -0.046807
-0.607891 0.072719 -0.058291
-0.641789 0.110960 -0.056746
-0.490476 0.222193 -0.054063
-0.497738 -0.075409 -0.056117
-0.526365 -0.003877 -0.061484
-0.578062 -0.037068 -0.062237
-0.423731 0.101620 -0.050638
-0.415358 0.049409 -0.060478
-0.472567 0.067295 -0.051451
-0.508590 0.225718 -0.047128
-0.484442 0.117848 -0.057652
-0.647633 0.036431 -0.052236
-0.610091 0.088897 -0.057725
-0.523826 0.128378 -0.049004
-0.447632 0.031075 -0.052862
-0.638884 0.064365 -0.058350
-0.547854 -0.002369 -0.053272
-0.602959 0.120348 -0.056708
-0.572189 -0.025636 -0.053887
-0.488769 0.123637 -0.057424
-0.572701 0.038483 -0.059709
-0.448114 0.190836 -0.055435
-0.421179 0.060353 -0.060064
-0.497148 0.052013 -0.059797
-0.369899 0.058058 -0.052509
-0.582241 -0.010884 -0.053313
-0.410485 0.012888 -0.053749
-0.633883 0.101042 -0.057140
-0.491658 0.101575 -0.058153
-0.557280 -0.011764 -0.061528
-0.643516 0.091468 -0.057396
-0.534841 0.149930 -0.056197
-0.443178 0.031932 -0.060870
-0.471337 0.040763 -0.060366
-0.537523 -0.095086 -0.064502
-0.582423 -0.040373 -0.054313
-0.417263 0.106560 -0.050517
-0.616588 0.071908 -0.058256
-0.434934 0.035360 -0.060813
-0.512092 0.149899 -0.048358
-0.459195 0.177426 -0.055811
-0.611766 -0.007481 -0.060988
-0.591144 0.067121 -0.050598
-0.553016 0.106365 -0.057545
-0.402198 0.044999 -0.052718
-0.498331 -0.035365 -0.062757
-0.458521 0.020189 -0.053153
-0.480871 0.188589 -0.055274
-0.576036 0.092627 -0.057845
-0.389623 0.078409 -0.059679
-0.505028 0.002880 -0.061409
-0.586938 0.046932 -0.059319
-0.437287 -0.019012 -0.054639
-0.419705 0.112893 -0.058289
-0.485286 -0.012292 -0.062068
-0.443667 0.099078 -0.058585
-0.387162 0.089571 -0.059318
-0.555043 0.079474 -0.058444
-0.408769 0.097258 -0.050895
-0.489701 -0.034424 -0.062788
-0.444235 0.094709 -0.050725
-0.468864 0.062771 -0.051631
-0.496836 0.185171 -0.055275
-0.459581 0.179032 -0.055753
-0.370677 0.058337 -0.060498
-0.572283 -0.035611 -0.062230
-0.479738 0.037580 -0.052409
-0.580602 0.012736 -0.060527
-0.468243 0.087008 -0.058817
-0.610081 0.123960 -0.056534
-0.549441 -0.048084 -0.054814
-0.583775 0.070975 -0.058525
-0.392425 0.072344 -0.051860
-0.491868 0.233866 -0.053656
-0.540398 0.027093 -0.060330
-0.418727 0.077133 -0.059512
-0.489554 0.085046 -0.058730
-0.561749 0.018410 -0.052466
-0.614001 0.075914 -0.050133
-0.490992 0.154410 -0.056362
-0.575101 0.148126 -0.047962
-0.530536 0.004788 -0.053155
-0.436620 0.093252 -0.050829
-0.552594 -0.002063 -0.053228
-0.459546 0.100344 -0.058427
-0.612906 0.116691 -0.048756
-0.431725 0.143298 -0.057169
-0.427830 -0.021023 -0.054776
-0.640564 0.048992 -0.058861
-0.442262 0.037132 -0.052695
-0.358296 0.079249 -0.058685
-0.556131 0.106349 -0.057523
-0.473764 -0.027716 -0.062675
-0.463686 0.019906 -0.061130
-0.534796 -0.039221 -0.054619
-0.375444 0.063409 -0.060291
-0.543044 -0.060967 -0.055298
-0.439988 -0.014424 -0.054464
-0.490928 0.226244 -0.045917
-0.565049 0.158802 -0.047672
-0.548896 0.070765 -0.050780
-0.436352 0.074190 -0.051479
-0.563252 0.161138 -0.055610
-0.439658 -0.016331 -0.054531
-0.607801 0.120726 -0.056661
-0.518744 0.202808 -0.054517
-0.518742 0.190114 -0.046943
-0.424723 0.047504 -0.052470
-0.583005 -0.003405 -0.061058
-0.632527 0.123720 -0.048375
-0.453520 -0.037476 -0.063154
-0.555511 -0.084384 -0.058029
-0.477305 0.032152 -0.052611
-0.571799 0.152899 -0.047823
-0.426536 0.025008 -0.061226
-0.551970 0.029006 -0.060181
-0.453129 0.068130 -0.059568
-0.340344 0.044995 -0.061171
-0.526833 -0.035652 -0.062560
-0.569373 0.155568 -0.047750
-0.381727 0.085524 -0.059494
-0.650260 0.106758 -0.048823
-0.516987 0.030112 -0.052392
-0.599455 0.146832 -0.047829
-0.523207 0.214558 -0.046698
-0.433969 0.032056 -0.052928
-0.451153 0.188593 -0.055489
-0.505768 0.175552 -0.055537
-0.525254 0.073795 -0.058853
-0.649995 0.040121 -0.051089
-0.541306 0.005884 -0.053039
-0.514925 -0.072878 -0.063912
-0.598595 0.021197 -0.052104
-0.569275 0.108155 -0.049362
-0.380777 0.014983 -0.061898
-0.646585 0.110386 -0.048726
-0.411869 0.015810 -0.053640
-0.581338 -0.005484 -0.053136
-0.548010 0.113553 -0.057337
-0.502735 0.009803 -0.061191
-0.542019 -0.002803 -0.061334
-0.528346 0.161804 -0.055840
-0.666028 0.060654 -0.055109
-0.564983 0.119066 -0.057027
-0.419576 0.128013 -0.057777
-0.419859 0.111053 -0.050346
-0.662155 0.057046 -0.058430
-0.564303 -0.052421 -0.062859
-0.372931 0.042654 -0.053010
-0.491203 0.039890 -0.052247
-0.470876 0.070128 -0.051367
-0.623340 0.013272 -0.060199
-0.487335 0.241236 -0.045434
-0.428183 -0.025929 -0.055046
-0.508294 -0.026444 -0.062382
-0.673427 0.070379 -0.055561
-0.425748 0.130450 -0.057649
-0.531184 0.180642 -0.047175
-0.437473 0.167544 -0.048299
-0.493464 -0.057112 -0.055527
-0.580604 0.154659 -0.047700
-0.431835 0.065514 -0.059811
-0.411095 0.090203 -0.051118
-0.567053 -0.049565 -0.054737
-0.562179 0.071921 -0.058649
-0.466291 0.161422 -0.048298
-0.410501 0.117014 -0.050211
-0.456253 0.153222 -0.048650
-0.532169 -0.099538 -0.064692
-0.514137 0.077536 -0.050802
-0.535951 0.198978 -0.046517
-0.431467 0.061623 -0.059946
-0.577768 0.135268 -0.048379
-0.478476 -0.041947 -0.063125
-0.566459 -0.069899 -0.062545
-0.593626 0.126774 -0.048553
-0.547183 0.130085 -0.056782
-0.537653 0.196072 -0.046604
-0.570105 0.022189 -0.052277
-0.426624 0.054410 -0.052222
-0.463853 0.086634 -0.058862
-0.539090 -0.071301 -0.055678
-0.665699 0.060188 -0.053764
-0.373024 0.067419 -0.052168
-0.539350 0.103629 -0.049733
-0.518456 -0.003391 -0.061525
-0.574632 0.161214 -0.047520
-0.575037 0.117038 -0.057023
-0.473946 0.017682 -0.061131
-0.643564 0.091533 -0.057393
-0.563391 0.122575 -0.048915
-0.528738 0.173913 -0.047421
-0.571191 0.002644 -0.060938
-0.425294 0.104117 -0.050542
-0.447012 0.058028 -0.051951
-0.532481 0.057220 -0.051359
-0.573989 0.039820 -0.059654
-0.487599 0.198884 -0.054876
-0.437522 0.099023 -0.050627
-0.549313 -0.092367 -0.056320
-0.422572 0.023022 -0.053317
-0.559029 0.058070 -0.051138
-0.445902 0.085280 -0.059038
-0.426392 0.072027 -0.059629
-0.529409 0.059441 -0.051306
-0.541602 -0.003005 -0.053339
-0.463935 0.207197 -0.054765
-0.633529 0.093618 -0.057395
-0.587852 -0.007485 -0.053157
-0.523603 0.151316 -0.056231
-0.570222 -0.005723 -0.053224
-0.577088 0.136141 -0.056359
-0.573109 -0.001618 -0.053064
-0.548269 0.059941 -0.051152
-0.507531 0.214324 -0.046202
-0.421493 0.142041 -0.049281
-0.405423 0.014669 -0.061730
-0.540600 0.119258 -0.049192
-0.464017 0.178588 -0.055736
-0.500710 -0.081019 -0.060136
-0.484490 -0.068795 -0.056553
-0.415184 0.089047 -0.051128
-0.395268 0.000201 -0.054291
-0.425334 0.160063 -0.056646
-0.565670 0.036594 -0.051820
-0.614641 0.110283 -0.048961
-0.437229 0.020904 -0.061288
-0.455259 0.119590 -0.049799
-0.635192 0.105771 -0.056970
-0.455493 0.206730 -0.052961
-0.478285 0.128041 -0.057350
-0.377515 0.014056 -0.061953
-0.617427 0.130510 -0.056258
-0.507371 -0.030455 -0.054520
-0.436567 0.123924 -0.049788
-0.580753 -0.028199 -0.061917
-0.579539 0.171857 -0.052865
-0.567254 0.071146 -0.058639
-0.538996 0.072209 -0.050803
-0.527877 -0.051943 -0.063106
-0.419242 -0.001215 -0.062170
-0.550831 0.002938 -0.061075
-0.629673 0.102767 -0.049107
-0.577498 0.173297 -0.049929
-0.468416 0.167646 -0.056076
-0.336838 0.045150 -0.061192
-0.520181 0.054686 -0.059539
-0.455760 0.103691 -0.050336
-0.458962 0.159147 -0.048429
-0.577967 0.049698 -0.051285
-0.675828 0.087407 -0.049295
-0.535244 -0.039053 -0.054610
-0.444438 0.173973 -0.056035
-0.594506 0.076861 -0.050242
-0.547970 -0.091307 -0.056293
-0.530166 -0.084668 -0.064202
-0.511858 0.164783 -0.055859
-0.527481 -0.069727 -0.055709
-0.647472 0.112486 -0.056653
-0.455173 0.163860 -0.048296
-0.350303 0.033553 -0.057853
-0.423633 0.006168 -0.053882
-0.516502 0.216614 -0.054064
-0.508350 -0.060737 -0.055542
-0.490474 0.212799 -0.046377
-0.576454 0.027918 -0.060041
-0.551537 -0.060170 -0.055210
-0.534715 -0.046271 -0.062864
-0.527897 -0.088874 -0.056356
-0.534121 -0.020517 -0.053989
-0.485748 0.113145 -0.057802
-0.518903 0.169476 -0.055648
-0.579523 0.009355 -0.060649
-0.489032 0.156501 -0.048301
-0.450688 0.010725 -0.061536
-0.429886 -0.026958 -0.061876
-0.351911 0.062894 -0.060479
-0.481871 0.096544 -0.050390
-0.560933 0.015360 -0.060580
-0.537398 -0.092879 -0.064428
-0.486154 -0.034589 -0.054814
-0.633553 0.128998 -0.048188
-0.603700 0.129179 -0.048398
-0.536698 0.000746 -0.053247
-0.478755 0.162824 -0.048160
-0.454764 0.163778 -0.048302
-0.487050 0.031668 -0.052556
-0.590305 0.002907 -0.060790
-0.448498 -0.004905 -0.054078
-0.514167 0.024512 -0.052603
-0.524476 -0.089444 -0.056400
-0.449144 0.159818 -0.048477
-0.432654 0.037142 -0.052765
-0.415880 0.133290 -0.057624
-0.527866 0.211221 -0.052143
-0.431683 0.133237 -0.057511
-0.579382 0.074395 -0.058441
-0.523411 0.085849 -0.050452
-0.494393 0.076439 -0.050982
-0.450248 -0.029454 -0.054900
-0.459744 0.194381 -0.055231
-0.638891 0.097797 -0.049210
-0.439551 0.100510 -0.058566
-0.532432 0.009934 -0.060971
-0.510082 0.195556 -0.046821
-0.515177 0.145261 -0.056498
-0.412910 -0.011675 -0.062571
-0.348815 0.050763 -0.060914
-0.524541 -0.069491 -0.063727
-0.430820 0.155587 -0.056758
-0.483938 0.091358 -0.050551
-0.355296 0.062374 -0.060473
-0.431955 0.161784 -0.056539
-0.509538 0.224227 -0.053856
-0.624507 0.010770 -0.052271
-0.513563 0.208175 -0.046367
-0.512953 0.192824 -0.054898
-0.499569 0.046365 -0.051966
-0.434375 0.054951 -0.060152
-0.496151 -0.049659 -0.055254
-0.545338 0.022933 -0.052431
-0.504985 -0.076278 -0.056094
-0.669926 0.084656 -0.057436
-0.532026 -0.086092 -0.064237
-0.594445 0.133743 -0.048310
-0.605499 0.048148 -0.059143
-0.414131 0.030329 -0.061135
-0.625189 0.043823 -0.059148
-0.400126 0.103670 -0.050740
-0.645721 0.081446 -0.057720
-0.442935 0.085762 -0.059043
-0.553429 0.156446 -0.055841
-0.450378 -0.039036 -0.055225
-0.481996 0.036231 -0.060443
-0.492368 0.091176 -0.058501
-0.415337 0.136604 -0.057515
-0.406916 0.028079 -0.061264
-0.556350 -0.071553 -0.063566
-0.386383 0.093221 -0.051194
-0.629800 0.115131 -0.048686
-0.620610 0.026720 -0.051757
-0.648813 0.047097 -0.050860
-0.442611 0.053180 -0.052148
-0.634947 0.030320 -0.051531
-0.554627 0.081230 -0.050383
-0.621919 0.124333 -0.048431
-0.557804 0.068882 -0.058784
-0.428396 0.077058 -0.059444
-0.444710 0.133113 -0.057421
-0.416690 0.032182 -0.053049
-0.581934 -0.028118 -0.053900
-0.585583 0.017797 -0.060319
-0.345812 0.056251 -0.052744
-0.512261 -0.006517 -0.061676
-0.633567 0.078180 -0.057919
-0.484895 -0.001758 -0.053708
-0.584503 -0.017392 -0.061522
-0.570342 0.117757 -0.049028
-0.515860 0.192133 -0.054900
-0.655821 0.080417 -0.057682
-0.522108 0.050065 -0.059682
-0.390792 0.084142 -0.059476
-0.409140 0.008164 -0.061924
-0.531723 0.175345 -0.055356
-0.601357 0.100317 -0.057401
-0.545216 -0.097852 -0.060064
-0.517638 0.047051 -0.059817
-0.437287 0.031346 -0.060933
-0.553220 0.069086 -0.050806
-0.479071 0.187886 -0.055311
-0.419710 0.035789 -0.052904
-0.523170 0.142633 -0.048525
-0.522134 0.036494 -0.052138
-0.433603 0.047965 -0.060395
-0.584736 -0.034824 -0.062113
-0.502999 0.025104 -0.052664
-0.523220 -0.062307 -0.063492
-0.478836 0.049330 -0.052016
-0.592678 0.062394 -0.058752
-0.579023 0.119744 -0.056902
-0.427495 0.006991 -0.053826
-0.571901 -0.053796 -0.054846
-0.418433 0.027524 -0.053194
-0.391446 0.003770 -0.062202
-0.602340 0.059927 -0.058766
-0.640478 0.092724 -0.049370
-0.632669 0.040042 -0.059222
-0.572473 0.027653 -0.052074
-0.572887 0.165729 -0.055384
-0.418529 0.020500 -0.053432
-0.522807 0.128369 -0.049012
-0.556619 -0.014179 -0.053610
-0.634525 0.113515 -0.056712
-0.598231 0.094216 -0.057631
-0.657522 0.049840 -0.058709
-0.522816 -0.083870 -0.064228
-0.394057 0.104952 -0.058745
-0.416037 0.072966 -0.051668
-0.459353 0.187263 -0.055475
-0.527348 0.109687 -0.049614
-0.612527 0.080288 -0.058000
-0.474537 0.177540 -0.047691
-0.348709 0.038102 -0.053340
-0.460747 0.159114 -0.056422
-0.539087 0.139434 -0.056523
-0.417621 0.108017 -0.058470
-0.415897 0.024871 -0.053303
-0.410679 0.049973 -0.060493
-0.555412 -0.021847 -0.061884
-0.536330 -0.025874 -0.054155
-0.435919 0.171329 -0.056186
-0.481854 0.025647 -0.052799
-0.678069 0.076396 -0.052350
-0.472648 0.212496 -0.046517
-0.522943 -0.006877 -0.053606
-0.537257 0.204023 -0.051141
-0.433087 0.037089 -0.052763
-0.593043 -0.023292 -0.061661
-0.546876 0.035999 -0.051976
-0.519234 -0.033099 -0.054524
-0.586081 0.074634 -0.050379
-0.535397 -0.049902 -0.054978
-0.585913 0.053542 -0.051097
-0.675472 0.073008 -0.053270
-0.412101 0.127710 -0.049836
-0.617377 0.022158 -0.051935
-0.437053 0.008417 -0.053709
-0.583896 0.099520 -0.049549
-0.602622 -0.015930 -0.053336
-0.405724 0.031367 -0.061161
-0.539233 0.193063 -0.054699
-0.563848 -0.024436 -0.053906
-0.581054 -0.006065 -0.061162
-0.457842 0.087214 -0.050881
-0.551063 0.171458 -0.047343
-0.518885 0.209078 -0.054303
-0.518489 -0.086380 -0.056340
-0.649974 0.039598 -0.056062
-0.486725 0.155430 -0.048354
-0.534286 0.157019 -0.047955
-0.494149 0.126090 -0.057302
-0.621599 0.137927 -0.047971
-0.480991 -0.061294 -0.055759
-0.572461 0.175389 -0.047054
-0.457957 0.018283 -0.053222
-0.371897 0.066385 -0.060216
-0.617992 0.004902 -0.060522
-0.580314 -0.049575 -0.054641
-0.440341 0.145233 -0.049036
-0.584938 0.063618 -0.050762
-0.415784 0.116861 -0.050178
-0.453571 0.028651 -0.060906
-0.405669 0.030393 -0.053189
-0.469414 0.068266 -0.059446
-0.598992 0.039249 -0.051488
-0.618801 0.121847 -0.048538
-0.508331 0.098767 -0.058127
-0.474343 0.084401 -0.058862
-0.536910 0.203749 -0.046348
-0.468086 0.146480 -0.048793
-0.429932 0.100734 -0.058628
-0.486591 0.079971 -0.058923
-0.363093 0.023746 -0.056421
-0.544466 0.106954 -0.049582
-0.494517 0.011811 -0.053177
-0.429927 0.014129 -0.061571
-0.470589 -0.047733 -0.055374
-0.416193 0.137140 -0.049486
-0.375814 0.035312 -0.061243
-0.577637 0.163469 -0.047422
-0.549949 0.030102 -0.052154
-0.506046 -0.043243 -0.062969
-0.478812 0.074737 -0.059158
-0.445396 0.060348 -0.059889
-0.424919 0.121229 -0.049964
-0.451141 0.095542 -0.050646
-0.505528 0.190157 -0.047038
-0.627120 0.101376 -0.057178
-0.457637 0.036126 -0.052618
-0.437129 -0.007689 -0.054255
-0.446116 0.156254 -0.048620
-0.555775 0.009461 -0.052813
-0.393322 0.120739 -0.050209
-0.467690 0.140386 -0.049003
-0.447361 -0.009748 -0.054251
-0.469754 0.053025 -0.051956
-0.519467 0.171179 -0.055586
-0.482769 0.192867 -0.047110
-0.487547 -0.049715 -0.063323
-0.465686 0.121907 -0.057650
-0.394446 0.126504 -0.050075
-0.546697 0.125030 -0.048952
-0.363461 0.051902 -0.060769
-0.453945 -0.001637 -0.061933
-0.422097 0.011009 -0.053729
-0.552330 0.166580 -0.055504
-0.592658 0.099500 -0.057491
-0.526801 0.045212 -0.059813
-0.468444 0.105429 -0.058190
-0.462278 0.163784 -0.056252
-0.662767 0.083758 -0.057518
-0.576921 0.050588 -0.051263
-0.479525 0.002151 -0.061619
-0.486147 0.209237 -0.054535
-0.532603 0.018446 -0.060681
-0.501382 0.064410 -0.051340
-0.470829 0.222984 -0.054178
-0.591346 0.162771 -0.050688
-0.537711 -0.107665 -0.061735
-0.513969 -0.004686 -0.061601
-0.438969 0.037791 -0.060702
-0.486736 0.072098 -0.059190
-0.522085 0.165955 -0.047740
-0.526878 0.211912 -0.050559
-0.458563 0.112761 -0.058012
-0.451394 -0.018695 -0.054526
-0.577165 0.121311 -0.048858
-0.581517 0.087340 -0.049981
-0.526085 -0.042196 -0.054783
-0.462474 0.060667 -0.051749
-0.592810 0.030632 -0.051825
-0.520679 0.216624 -0.050215
-0.601176 0.118569 -0.056782
-0.657948 0.097084 -0.057101
-0.576050 -0.029786 -0.062005
-0.584696 0.127015 -0.056614
-0.469969 -0.020181 -0.062447
-0.470274 0.209246 -0.046644
-0.612869 -0.009047 -0.059117
-0.573740 0.042721 -0.051553
-0.451498 0.120022 -0.049812
-0.592510 0.128274 -0.048510
-0.542678 0.199870 -0.050620
-0.664539 0.064340 -0.050160
-0.426291 0.083472 -0.059241
-0.493369 0.193456 -0.055018
-0.546505 -0.077108 -0.063826
-0.530142 -0.093073 -0.064487
-0.665491 0.071865 -0.049898
-0.593079 0.136262 -0.056239
-0.481426 0.217450 -0.054290
-0.605652 0.135396 -0.056178
-0.570468 0.107028 -0.057396
-0.472574 0.196207 -0.055076
-0.348353 0.066089 -0.054414
-0.403783 0.082567 -0.059435
-0.395270 0.045098 -0.052765
-0.392674 0.068763 -0.059985
-0.392622 0.101822 -0.050857
-0.587822 0.015019 -0.060397
-0.541667 0.159411 -0.055825
-0.487969 0.136559 -0.048986
-0.586558 0.074091 -0.050394
-0.569577 0.179366 -0.050682
-0.449355 -0.040875 -0.055294
-0.610204 -0.003910 -0.060878
-0.396580 0.101177 -0.058855
-0.685649 0.086643 -0.049250
-0.648550 0.091698 -0.049347
-0.455570 0.033003 -0.052739
-0.499648 0.210817 -0.046378
-0.420653 -0.002172 -0.054187
-0.555754 0.050557 -0.051417
-0.362210 0.052770 -0.060749
-0.569756 0.022919 -0.060259
-0.524063 0.114372 -0.049478
-0.583799 0.042550 -0.059491
-0.663317 0.083930 -0.049504
-0.511269 0.041858 -0.052035
-0.492761 -0.030217 -0.054618
-0.392688 0.023892 -0.053504
-0.576088 0.064437 -0.050798
-0.442313 0.012048 -0.053547
-0.519283 0.146719 -0.048414
-0.573399 0.032130 -0.059920
-0.581143 0.012581 -0.060528
-0.633423 0.098386 -0.057234
-0.617566 0.066202 -0.050438
-0.443120 0.069031 -0.059610
-0.436954 0.158414 -0.056618
-0.446393 0.053862 -0.052097
-0.605448 0.044030 -0.051279
-0.615656 0.020483 -0.052005
-0.508157 -0.031800 -0.062565
-0.355803 0.073359 -0.060096
-0.499922 -0.030550 -0.062582
-0.448376 0.141941 -0.049090
-0.595689 0.035754 -0.059635
-0.563300 0.012995 -0.060643
-0.500372 0.198193 -0.046802
-0.381297 0.025682 -0.053526
-0.427918 0.092171 -0.050929
-0.469845 -0.010967 -0.062135
-0.436097 0.015809 -0.061469
-0.485612 0.176961 -0.047630
-0.355861 0.047744 -0.052961
-0.520526 0.164164 -0.047812
-0.562227 0.170284 -0.047302
-0.409509 0.000856 -0.054165
-0.520432 0.087274 -0.058430
-0.442169 0.181920 -0.055781
-0.413860 0.050649 -0.060447
-0.377673 0.090831 -0.051339
-0.576118 0.130664 -0.048548
-0.605692 0.108552 -0.049085
-0.407342 0.049952 -0.060518
-0.466818 0.072192 -0.051326
-0.542963 -0.021040 -0.061947
-0.624943 0.022563 -0.051867
-0.491472 -0.029667 -0.054608
-0.541784 -0.069488 -0.055597
-0.430875 0.014109 -0.061565
-0.422495 0.125537 -0.057840
-0.477413 0.181003 -0.047552
-0.532801 -0.014500 -0.053794
-0.550940 -0.090284 -0.062195
-0.491648 0.080407 -0.058872
-0.624141 0.137680 -0.048421
-0.490796 0.068089 -0.051292
-0.487956 0.117099 -0.049647
-0.565308 0.117818 -0.057067
-0.490991 0.062392 -0.059489
-0.446008 -0.006084 -0.054137
-0.466862 0.188567 -0.047372
-0.521639 0.003106 -0.061281
-0.454947 -0.009007 -0.062176
-0.536100 -0.011754 -0.053676
-0.469807 0.188237 -0.047362
-0.575863 0.058864 -0.050989
-0.640313 0.078045 -0.057875
-0.475127 0.150728 -0.056602
-0.624641 0.082298 -0.049839
-0.499670 -0.011390 -0.053928
-0.435930 0.129509 -0.049602
-0.653477 0.069592 -0.058067
-0.644742 0.087382 -0.049521
-0.496578 -0.054633 -0.055420
-0.536227 0.009548 -0.060957
-0.527225 0.126706 -0.049036
-0.631907 0.069617 -0.050218
-0.627172 0.023316 -0.051825
-0.618780 0.025619 -0.051808
-0.557764 0.127104 -0.056806
-0.535159 0.022272 -0.060532
-0.523396 -0.026306 -0.054263
-0.388007 0.032644 -0.061246
-0.599256 0.128079 -0.056473
-0.528259 0.100923 -0.057910
-0.561302 0.101565 -0.049644
-0.388209 0.092752 -0.051197
-0.573362 0.096821 -0.057722
-0.550742 -0.010877 -0.061545
-0.477457 0.235477 -0.049252
-0.623828 0.107860 -0.056982
-0.454226 0.010704 -0.053507
-0.434436 -0.023270 -0.062809
-0.544283 0.183951 -0.046968
-0.474670 0.007111 -0.061485
-0.627768 0.085971 -0.057697
-0.500995 0.073952 -0.059024
-0.623094 0.110121 -0.056910
-0.535662 -0.019227 -0.053934
-0.568520 0.180179 -0.050862
-0.435156 0.108764 -0.058318
-0.555349 -0.075846 -0.063720
-0.593702 0.087716 -0.049879
-0.556556 0.083999 -0.058280
-0.450271 0.145787 -0.048945
-0.504879 -0.010459 -0.053859
-0.542392 -0.096850 -0.056522
-0.344216 0.038245 -0.059159
-0.402565 0.017770 -0.061646
-0.518071 -0.013535 -0.053868
-0.492342 -0.061574 -0.055686
-0.537640 -0.104162 -0.064810
-0.425461 0.065689 -0.051847
-0.532270 0.065230 -0.059093
-0.535851 0.030085 -0.052257
-0.532432 -0.061966 -0.063414
-0.453097 -0.036224 -0.055109
-0.495627 0.031876 -0.052487
-0.512391 0.031011 -0.052395
-0.499496 -0.024011 -0.062363
-0.447174 0.102725 -0.050431
-0.491867 0.105495 -0.050013
-0.596782 -0.030245 -0.056007
-0.528028 0.092229 -0.050202
-0.442036 0.074048 -0.051443
-0.533392 0.128437 -0.056938
-0.433547 -0.001492 -0.054071
-0.405962 0.085617 -0.059316
-0.604313 0.101250 -0.049343
-0.570528 0.099019 -0.049663
-0.529252 0.184880 -0.047045
-0.494617 0.231630 -0.045707
-0.384673 0.111636 -0.050581
-0.593429 0.123385 -0.056674
-0.507798 0.183830 -0.055241
-0.550792 0.098273 -0.057836
-0.422021 0.139340 -0.057374
-0.472690 0.110742 -0.057979
-0.520778 0.062256 -0.059278
-0.470776 0.053578 -0.059935
-0.576350 -0.038062 -0.062284
-0.568797 0.171961 -0.047197
-0.488347 -0.063950 -0.063801
-0.457378 -0.029985 -0.054866
-0.546910 -0.023049 -0.053982
-0.567513 0.110878 -0.049282
-0.523195 0.166322 -0.055724
-0.505256 0.225460 -0.045840
-0.512357 0.098396 -0.050106
-0.562725 -0.049359 -0.054761
-0.474264 0.231206 -0.046043
-0.521883 -0.051038 -0.055114
-0.414838 0.086905 -0.051203
-0.532246 0.177854 -0.055267
-0.439647 -0.014655 -0.062479
-0.577650 -0.017967 -0.061591
-0.368026 0.091919 -0.054397
-0.498047 0.136737 -0.048907
-0.472222 0.041332 -0.052336
-0.593099 0.053159 -0.051058
-0.434352 0.011313 -0.061635
-0.527228 -0.095491 -0.056586
-0.472019 0.154253 -0.048500
-0.586491 0.150301 -0.055810
-0.459141 0.118555 -0.049806
-0.454807 0.081656 -0.059096
-0.407214 0.033765 -0.053064
-0.601670 0.021732 -0.052064
-0.596492 0.046584 -0.059262
-0.493498 -0.075554 -0.059286
-0.487898 -0.051112 -0.063368
-0.473381 0.226030 -0.054056
-0.597756 0.034516 -0.059663
-0.529426 -0.001322 -0.061375
-0.540539 -0.038257 -0.054545
-0.463999 0.043383 -0.052325
-0.569547 0.037733 -0.051753
-0.461526 0.064788 -0.059621
-0.546429 0.145301 -0.048265
-0.482863 -0.028668 -0.062642
-0.532021 0.079031 -0.050621
-0.462785 0.216177 -0.047837
-0.526772 0.106170 -0.057742
-0.458541 0.130637 -0.049400
-0.405318 0.068887 -0.059889
-0.408539 0.111066 -0.050428
-0.374577 0.074672 -0.051910
-0.494701 0.027110 -0.060661
-0.476393 0.217041 -0.054340
-0.417022 0.148119 -0.057112
-0.497444 -0.070202 -0.063947
-0.463439 0.081501 -0.059039
-0.585491 0.130253 -0.048494
-0.620860 0.076342 -0.058074
-0.352157 0.032955 -0.053490
-0.378491 0.043252 -0.052949
-0.553710 0.054209 -0.051308
-0.593634 0.148441 -0.047817
-0.429029 0.169111 -0.056312
-0.481537 -0.023862 -0.062488
-0.542385 0.079925 -0.050516
-0.603129 0.059088 -0.058789
-0.523848 0.040709 -0.051983
-0.615956 0.098918 -0.057342
-0.380069 0.066147 -0.052160
-0.442319 0.063836 -0.059792
-0.603810 0.067440 -0.050495
-0.393524 0.107548 -0.050656
-0.391903 0.088439 -0.059322
-0.522899 0.008391 -0.061092
-0.537427 -0.041021 -0.054661
-0.578973 0.032671 -0.051856
-0.401943 0.048628 -0.060602
-0.620950 0.062743 -0.050531
-0.434894 0.145555 -0.049065
-0.534432 0.011111 -0.052912
-0.480784 0.102596 -0.058197
-0.572350 0.094498 -0.057809
-0.549784 -0.021882 -0.053921
-0.560405 0.098209 -0.049764
-0.475833 -0.055192 -0.063594
-0.592630 -0.014962 -0.053376
-0.470169 -0.056696 -0.063686
-0.589123 -0.040199 -0.060183
-0.438370 0.024415 -0.053156
-0.629829 0.049326 -0.058927
-0.418245 -0.018062 -0.062418
-0.418852 0.010638 -0.061770
-0.630041 0.048244 -0.058962
-0.606483 0.095129 -0.057540
-0.501555 -0.015878 -0.062072
-0.499082 0.201631 -0.046694
-0.587611 0.133980 -0.056356
-0.424109 -0.022579 -0.061237
-0.520077 0.036847 -0.060146
-0.434457 0.074757 -0.059478
-0.540229 -0.082731 -0.056058
-0.684835 0.086125 -0.057278
-0.479249 0.077730 -0.051048
-0.428775 0.067798 -0.051751
-0.466443 0.036153 -0.052553
-0.544118 0.157842 -0.055861
-0.446541 -0.000707 -0.053950
-0.537599 0.065553 -0.051039
-0.488356 -0.003921 -0.053756
-0.491619 0.189871 -0.055153
-0.622211 0.059987 -0.058620
-0.649672 0.064493 -0.050263
-0.473472 0.051070 -0.051996
-0.501248 0.183668 -0.047289
-0.413439 0.115590 -0.058243
-0.528379 0.101606 -0.057886
-0.483178 0.008088 -0.053386
-0.410641 0.093015 -0.059030
-0.520081 0.061659 -0.051298
-0.540993 0.127964 -0.056899
-0.419956 -0.019415 -0.061193
-0.390524 0.010728 -0.061972
-0.523111 0.140930 -0.056588
-0.544279 0.085496 -0.050313
-0.430344 0.173679 -0.051749
-0.387714 0.011039 -0.053977
-0.438327 0.079876 -0.059276
-0.478225 0.215012 -0.054396
-0.529136 0.140201 -0.056569
-0.578121 0.029527 -0.059974
-0.611352 0.021462 -0.060008
-0.560111 -0.042899 -0.054561
-0.505759 -0.004027 -0.061639
-0.580958 0.140288 -0.056190
-0.365149 0.083990 -0.059667
-0.461828 0.118779 -0.049779
-0.582548 0.138105 -0.048248
-0.528010 0.124494 -0.049106
-0.466985 -0.047033 -0.063381
-0.476622 0.233400 -0.053783
-0.442046 0.014237 -0.061480
-0.549657 0.139142 -0.056456
-0.462443 -0.014098 -0.054290
-0.568958 0.037039 -0.059785
-0.457470 0.044339 -0.052340
-0.551608 0.130180 -0.048742
-0.639331 0.094696 -0.049312
-0.467551 0.048647 -0.060126
-0.640106 0.119011 -0.048480
-0.629674 0.126070 -0.056320
-0.398556 -0.003056 -0.062335
-0.381225 0.048446 -0.060758
-0.570373 0.158960 -0.055633
-0.563291 0.142873 -0.056231
-0.538627 -0.016957 -0.061840
-0.563065 -0.011061 -0.053458
-0.436680 0.182008 -0.052164
-0.395527 0.003650 -0.054172
-0.525504 0.015287 -0.060839
-0.582793 -0.002359 -0.053019
-0.449391 0.172366 -0.056054
-0.421700 0.009257 -0.053791
-0.533170 0.020442 -0.060609
-0.387957 0.114533 -0.050459
-0.502806 0.013306 -0.053066
-0.577349 0.099948 -0.057587
-0.359337 0.052804 -0.060768
-0.474515 0.020500 -0.053027
-0.557263 -0.078569 -0.063798
-0.469535 -0.043825 -0.063253
-0.569559 0.101845 -0.049574
-0.500197 -0.053290 -0.055348
-0.524173 0.176135 -0.055384
-0.545231 0.062496 -0.051088
-0.437986 -0.004166 -0.062134
-0.580968 -0.040016 -0.054312
-0.612697 0.112014 -0.048916
-0.555438 0.169376 -0.047382
-0.488407 0.134980 -0.057041
-0.407539 0.098289 -0.058874
-0.551505 -0.088033 -0.056157
-0.555718 0.086697 -0.058194
-0.357755 0.059346 -0.052553
-0.539795 0.150724 -0.048129
-0.510165 0.081646 -0.050691
-0.452922 0.067343 -0.051592
-0.573382 0.114534 -0.049115
-0.652939 0.075529 -0.057869
-0.618480 0.136297 -0.056054
-0.470864 -0.058177 -0.062405
-0.444118 0.093284 -0.058779
-0.501533 0.133007 -0.049008
-0.489906 0.183546 -0.055380
-0.446027 0.028162 -0.060978
-0.554618 -0.085569 -0.057531
-0.581891 0.008929 -0.052642
-0.638681 0.060174 -0.050489
-0.472444 0.186068 -0.055421
-0.476618 0.081049 -0.050954
-0.391411 0.030277 -0.053297
-0.508143 0.068537 -0.051151
-0.524860 0.041541 -0.059952
-0.489833 0.108213 -0.049936
-0.527769 0.108721 -0.049643
-0.498632 0.127720 -0.049209
-0.558863 -0.039428 -0.054452
-0.459011 0.136048 -0.049213
-0.553172 0.041560 -0.059746
-0.543222 -0.008928 -0.053529
-0.521164 -0.008948 -0.053689
-0.570208 0.043827 -0.051541
-0.512440 0.011200 -0.053068
-0.403251 -0.006831 -0.057365
-0.464912 0.073587 -0.059297
-0.500761 0.230089 -0.053720
-0.470972 0.105899 -0.050151
-0.478817 0.031430 -0.052624
-0.547133 -0.041788 -0.062622
-0.583687 -0.020587 -0.061637
-0.660475 0.053358 -0.054932
-0.490080 0.103799 -0.058089
-0.402846 0.094430 -0.059039
-0.556954 0.136525 -0.056492
-0.475467 0.210544 -0.046563
-0.379846 0.085633 -0.051500
-0.616509 0.018608 -0.052062
-0.593623 0.019838 -0.052186
-0.432483 0.125041 -0.057784
-0.430799 0.099564 -0.050657
-0.492464 -0.016059 -0.054139
-0.554760 -0.073921 -0.055654
-0.572616 0.065096 -0.058806
-0.536177 -0.012267 -0.061698
-0.384908 0.038808 -0.061059
-0.391219 0.050595 -0.052608
-0.562442 0.042480 -0.059648
-0.602344 0.022686 -0.060031
-0.423303 0.110650 -0.050335
-0.451593 0.129681 -0.049483
-0.532286 0.207685 -0.047911
-0.500671 -0.074798 -0.064080
-0.506006 -0.082804 -0.056309
-0.559590 0.148900 -0.048048
-0.446924 0.195381 -0.049023
-0.536435 0.084679 -0.050398
-0.629834 0.030611 -0.051558
-0.509315 0.012734 -0.061043
-0.588299 0.140851 -0.048113
-0.568073 -0.048133 -0.054681
-0.550148 0.053517 -0.059362
-0.477911 0.112684 -0.049870
-0.431657 0.174634 -0.048100
-0.582558 0.147963 -0.055918
-0.502381 0.104914 -0.049957
-0.412419 0.059000 -0.060173
-0.432495 0.093738 -0.058848
-0.587751 0.039558 -0.051559
-0.663851 0.057736 -0.052672
-0.515945 0.165278 -0.055812
-0.635153 0.062480 -0.050437
-0.622396 0.074618 -0.050117
-0.431979 0.175813 -0.051259
-0.487711 -0.049141 -0.055297
-0.488121 0.127694 -0.057291
-0.631626 0.115915 -0.056651
-0.568734 0.178104 -0.054994
-0.549206 0.160088 -0.055748
-0.533916 -0.101576 -0.056744
-0.455546 -0.025564 -0.062734
-0.404831 0.122885 -0.058058
-0.582218 0.062096 -0.050833
-0.491733 0.130506 -0.057169
-0.512990 0.077680 -0.050805
-0.503278 -0.014893 -0.054021
-0.411927 -0.013532 -0.055169
-0.497551 0.135901 -0.048939
-0.407430 0.029517 -0.061211
-0.667264 0.083753 -0.049481
-0.620775 0.001211 -0.054086
-0.482335 0.038700 -0.060357
-0.360830 0.081719 -0.059775
-0.604005 0.013113 -0.052340
-0.534506 0.143419 -0.048416
-0.449065 0.152779 -0.048717
-0.507153 0.032395 -0.060391
-0.571985 0.052441 -0.059240
-0.510513 -0.035740 -0.062682
-0.382879 0.051662 -0.060637
-0.455386 0.111635 -0.050069
-0.496021 0.171994 -0.055728
-0.487676 0.093204 -0.050461
-0.501309 0.141703 -0.056719
-0.575228 -0.022951 -0.061778
-0.478149 0.021941 -0.060956
-0.459023 0.170024 -0.048059
-0.547118 -0.016230 -0.061754
-0.483233 0.015924 -0.061124
-0.485062 0.089911 -0.050592
-0.506416 0.029075 -0.060509
-0.412272 0.058851 -0.052175
-0.606774 0.074370 -0.050238
-0.433788 0.149520 -0.056943
-0.620335 0.069731 -0.050298
-0.544532 -0.095675 -0.064472
-0.515882 -0.017357 -0.062018
-0.565170 0.017269 -0.052480
-0.413384 0.118323 -0.058151
-0.540569 0.138097 -0.048553
-0.631935 0.131864 -0.051607
-0.539419 0.157107 -0.047915
-0.650777 0.116089 -0.056507
-0.461332 0.069501 -0.051457
-0.620093 0.121762 -0.056536
-0.510764 0.119240 -0.057414
-0.358734 0.050849 -0.060839
-0.575222 -0.058530 -0.056954
-0.449070 -0.028143 -0.054864
-0.589918 0.142557 -0.048044
-0.482725 -0.036279 -0.062901
-0.423162 0.115865 -0.050159
-0.411471 0.049376 -0.060507
-0.468641 0.054395 -0.051918
-0.425450 0.165122 -0.048468
-0.575874 0.066674 -0.050724
-0.626024 0.085530 -0.057724
-0.513089 0.222298 -0.047363
-0.572898 -0.061528 -0.059129
-0.498083 0.104280 -0.050009
-0.614870 0.012374 -0.052286
-0.493230 0.149651 -0.048503
-0.462273 0.038798 -0.060499
-0.447878 0.193483 -0.055347
-0.462318 0.032588 -0.052704
