ply
format ascii 1.0
element vertex 502
property float x
property float y
property float z
end_header
-0.644909 0.019166 -0.090908
-0.643947 0.019442 -0.090938
-0.642986 0.019717 -0.090967
-0.642025 0.019992 -0.090997
-0.641063 0.020268 -0.091027
-0.640102 0.020543 -0.091056
-0.639141 0.020819 -0.091086
-0.638179 0.021094 -0.091116
-0.637218 0.021370 -0.091146
-0.636257 0.021645 -0.091175
-0.635295 0.021920 -0.091205
-0.634334 0.022196 -0.091235
-0.633373 0.022471 -0.091265
-0.632411 0.022747 -0.091294
-0.631450 0.023022 -0.091324
-0.630489 0.023298 -0.091354
-0.629527 0.023573 -0.091383
-0.628566 0.023848 -0.091413
-0.627605 0.024124 -0.091443
-0.626644 0.024399 -0.091473
-0.625682 0.024675 -0.091502
-0.624721 0.024950 -0.091532
-0.623760 0.025226 -0.091562
-0.622798 0.025501 -0.091592
-0.621837 0.025776 -0.091621
-0.620876 0.026052 -0.091651
-0.619914 0.026327 -0.091681
-0.618953 0.026603 -0.091710
-0.617992 0.026878 -0.091740
-0.617030 0.027154 -0.091770
-0.616069 0.027429 -0.091800
-0.615108 0.027704 -0.091829
-0.614146 0.027980 -0.091859
-0.613185 0.028255 -0.091889
-0.612224 0.028531 -0.091919
-0.611262 0.028806 -0.091948
-0.610301 0.029082 -0.091978
-0.609340 0.029357 -0.092008
-0.608378 0.029632 -0.092037
-0.607417 0.029908 -0.092067
-0.606456 0.030183 -0.092097
-0.605494 0.030459 -0.092127
-0.604533 0.030734 -0.092156
-0.603572 0.031010 -0.092186
-0.602610 0.031285 -0.092216
-0.601649 0.031560 -0.092246
-0.600688 0.031836 -0.092275
-0.599727 0.032111 -0.092305
-0.598765 0.032387 -0.092335
-0.597804 0.032662 -0.092365
-0.596843 0.032938 -0.092394
-0.595881 0.033213 -0.092424
-0.594920 0.033488 -0.092454
-0.593959 0.033764 -0.092483
-0.592997 0.034039 -0.092513
-0.592036 0.034315 -0.092543
-0.591075 0.034590 -0.092573
-0.590113 0.034865 -0.092602
-0.589152 0.035141 -0.092632
-0.588191 0.035416 -0.092662
-0.587229 0.035692 -0.092692
-0.586268 0.035967 -0.092721
-0.585307 0.036243 -0.092751
-0.584345 0.036518 -0.092781
-0.583384 0.036793 -0.092810
-0.582423 0.037069 -0.092840
-0.581461 0.037344 -0.092870
-0.580500 0.037620 -0.092900
-0.579539 0.037895 -0.092929
-0.578577 0.038171 -0.092959
-0.577616 0.038446 -0.092989
-0.576655 0.038721 -0.093019
-0.575693 0.038997 -0.093048
-0.574732 0.039272 -0.093078
-0.573771 0.039548 -0.093108
-0.572810 0.039823 -0.093137
-0.571848 0.040099 -0.093167
-0.570887 0.040374 -0.093197
-0.569926 0.040649 -0.093227
-0.568964 0.040925 -0.093256
-0.568003 0.041200 -0.093286
-0.567042 0.041476 -0.093316
-0.566080 0.041751 -0.093346
-0.565119 0.042027 -0.093375
-0.564158 0.042302 -0.093405
-0.563196 0.042577 -0.093435
-0.562235 0.042853 -0.093464
-0.561274 0.043128 -0.093494
-0.560312 0.043404 -0.093524
-0.559351 0.043679 -0.093554
-0.558390 0.043955 -0.093583
-0.557428 0.044230 -0.093613
-0.556467 0.044505 -0.093643
-0.555506 0.044781 -0.093673
-0.554544 0.045056 -0.093702
-0.553583 0.045332 -0.093732
-0.552622 0.045607 -0.093762
-0.551660 0.045883 -0.093791
-0.550699 0.046158 -0.093821
-0.549738 0.046433 -0.093851
-0.548776 0.046709 -0.093881
-0.547815 0.046984 -0.093910
-0.546854 0.047260 -0.093940
-0.545893 0.047535 -0.093970
-0.544931 0.047811 -0.094000
-0.543970 0.048086 -0.094029
-0.543009 0.048361 -0.094059
-0.542047 0.048637 -0.094089
-0.541086 0.048912 -0.094118
-0.540125 0.049188 -0.094148
-0.539163 0.049463 -0.094178
-0.538202 0.049739 -0.094208
-0.537241 0.050014 -0.094237
-0.536279 0.050289 -0.094267
-0.535318 0.050565 -0.094297
-0.534357 0.050840 -0.094327
-0.533395 0.051116 -0.094356
-0.532434 0.051391 -0.094386
-0.531473 0.051667 -0.094416
-0.530511 0.051942 -0.094445
-0.529550 0.052217 -0.094475
-0.528589 0.052493 -0.094505
-0.527627 0.052768 -0.094535
-0.526666 0.053044 -0.094564
-0.525705 0.053319 -0.094594
-0.524743 0.053594 -0.094624
-0.523782 0.053870 -0.094654
-0.522821 0.054145 -0.094683
-0.521859 0.054421 -0.094713
-0.520898 0.054696 -0.094743
-0.519937 0.054972 -0.094772
-0.518975 0.055247 -0.094802
-0.518014 0.055522 -0.094832
-0.517053 0.055798 -0.094862
-0.516092 0.056073 -0.094891
-0.515130 0.056349 -0.094921
-0.514169 0.056624 -0.094951
-0.513208 0.056900 -0.094981
-0.512246 0.057175 -0.095010
-0.511285 0.057450 -0.095040
-0.510324 0.057726 -0.095070
-0.509362 0.058001 -0.095099
-0.508401 0.058277 -0.095129
-0.507440 0.058552 -0.095159
-0.506478 0.058828 -0.095189
-0.505517 0.059103 -0.095218
-0.504556 0.059378 -0.095248
-0.503594 0.059654 -0.095278
-0.502633 0.059929 -0.095308
-0.501672 0.060205 -0.095337
-0.500710 0.060480 -0.095367
-0.499749 0.060756 -0.095397
-0.498788 0.061031 -0.095426
-0.497826 0.061306 -0.095456
-0.496865 0.061582 -0.095486
-0.495904 0.061857 -0.095516
-0.494942 0.062133 -0.095545
-0.493981 0.062408 -0.095575
-0.493020 0.062684 -0.095605
-0.492058 0.062959 -0.095635
-0.491097 0.063234 -0.095664
-0.490136 0.063510 -0.095694
-0.489175 0.063785 -0.095724
-0.488213 0.064061 -0.095753
-0.487252 0.064336 -0.095783
-0.486291 0.064612 -0.095813
-0.485329 0.064887 -0.095843
-0.484368 0.065162 -0.095872
-0.483407 0.065438 -0.095902
-0.482445 0.065713 -0.095932
-0.481484 0.065989 -0.095962
-0.480523 0.066264 -0.095991
-0.479561 0.066540 -0.096021
-0.478600 0.066815 -0.096051
-0.477639 0.067090 -0.096081
-0.476677 0.067366 -0.096110
-0.475716 0.067641 -0.096140
-0.474755 0.067917 -0.096170
-0.473793 0.068192 -0.096199
-0.472832 0.068468 -0.096229
-0.471871 0.068743 -0.096259
-0.470909 0.069018 -0.096289
-0.469948 0.069294 -0.096318
-0.468987 0.069569 -0.096348
-0.468025 0.069845 -0.096378
-0.467064 0.070120 -0.096408
-0.466103 0.070396 -0.096437
-0.465141 0.070671 -0.096467
-0.464180 0.070946 -0.096497
-0.463219 0.071222 -0.096526
-0.462258 0.071497 -0.096556
-0.461296 0.071773 -0.096586
-0.460335 0.072048 -0.096616
-0.459374 0.072323 -0.096645
-0.458412 0.072599 -0.096675
-0.457451 0.072874 -0.096705
-0.456490 0.073150 -0.096735
-0.455528 0.073425 -0.096764
-0.454567 0.073701 -0.096794
-0.453606 0.073976 -0.096824
-0.452644 0.074251 -0.096853
-0.451683 0.074527 -0.096883
-0.450722 0.074802 -0.096913
-0.449760 0.075078 -0.096943
-0.448799 0.075353 -0.096972
-0.447838 0.075629 -0.097002
-0.446876 0.075904 -0.097032
-0.445915 0.076179 -0.097062
-0.444954 0.076455 -0.097091
-0.443992 0.076730 -0.097121
-0.443031 0.077006 -0.097151
-0.442070 0.077281 -0.097180
-0.441108 0.077557 -0.097210
-0.440147 0.077832 -0.097240
-0.439186 0.078107 -0.097270
-0.438224 0.078383 -0.097299
-0.437263 0.078658 -0.097329
-0.436302 0.078934 -0.097359
-0.435341 0.079209 -0.097389
-0.434379 0.079485 -0.097418
-0.433418 0.079760 -0.097448
-0.432457 0.080035 -0.097478
-0.431495 0.080311 -0.097507
-0.430534 0.080586 -0.097537
-0.429573 0.080862 -0.097567
-0.428611 0.081137 -0.097597
-0.427650 0.081413 -0.097626
-0.426689 0.081688 -0.097656
-0.425727 0.081963 -0.097686
-0.424766 0.082239 -0.097716
-0.423805 0.082514 -0.097745
-0.422843 0.082790 -0.097775
-0.421882 0.083065 -0.097805
-0.420921 0.083341 -0.097834
-0.419959 0.083616 -0.097864
-0.418998 0.083891 -0.097894
-0.418037 0.084167 -0.097924
-0.417075 0.084442 -0.097953
-0.416114 0.084718 -0.097983
-0.415153 0.084993 -0.098013
-0.414191 0.085269 -0.098043
-0.413230 0.085544 -0.098072
-0.412269 0.085819 -0.098102
-0.411307 0.086095 -0.098132
-0.410346 0.086370 -0.098161
-0.409385 0.086646 -0.098191
-0.408424 0.086921 -0.098221
-0.407462 0.087197 -0.098251
-0.406501 0.087472 -0.098280
-0.405540 0.087747 -0.098310
-0.404578 0.088023 -0.098340
-0.647086 0.026908 -0.090503
-0.646125 0.027183 -0.090532
-0.645165 0.027458 -0.090562
-0.644204 0.027734 -0.090592
-0.643243 0.028009 -0.090622
-0.642283 0.028284 -0.090651
-0.641322 0.028559 -0.090681
-0.640362 0.028834 -0.090711
-0.639401 0.029110 -0.090740
-0.638441 0.029385 -0.090770
-0.637480 0.029660 -0.090800
-0.636519 0.029935 -0.090830
-0.635559 0.030211 -0.090859
-0.634598 0.030486 -0.090889
-0.633638 0.030761 -0.090919
-0.632677 0.031036 -0.090948
-0.631716 0.031311 -0.090978
-0.630756 0.031587 -0.091008
-0.629795 0.031862 -0.091037
-0.628835 0.032137 -0.091067
-0.627874 0.032412 -0.091097
-0.626913 0.032688 -0.091127
-0.625953 0.032963 -0.091156
-0.624992 0.033238 -0.091186
-0.624032 0.033513 -0.091216
-0.623071 0.033788 -0.091245
-0.622110 0.034064 -0.091275
-0.621150 0.034339 -0.091305
-0.620189 0.034614 -0.091335
-0.619229 0.034889 -0.091364
-0.618268 0.035164 -0.091394
-0.617307 0.035440 -0.091424
-0.616347 0.035715 -0.091453
-0.615386 0.035990 -0.091483
-0.614426 0.036265 -0.091513
-0.613465 0.036541 -0.091542
-0.612504 0.036816 -0.091572
-0.611544 0.037091 -0.091602
-0.610583 0.037366 -0.091632
-0.609623 0.037641 -0.091661
-0.608662 0.037917 -0.091691
-0.607702 0.038192 -0.091721
-0.606741 0.038467 -0.091750
-0.605780 0.038742 -0.091780
-0.604820 0.039018 -0.091810
-0.603859 0.039293 -0.091840
-0.602899 0.039568 -0.091869
-0.601938 0.039843 -0.091899
-0.600977 0.040118 -0.091929
-0.600017 0.040394 -0.091958
-0.599056 0.040669 -0.091988
-0.598096 0.040944 -0.092018
-0.597135 0.041219 -0.092047
-0.596174 0.041494 -0.092077
-0.595214 0.041770 -0.092107
-0.594253 0.042045 -0.092137
-0.593293 0.042320 -0.092166
-0.592332 0.042595 -0.092196
-0.591371 0.042871 -0.092226
-0.590411 0.043146 -0.092255
-0.589450 0.043421 -0.092285
-0.588490 0.043696 -0.092315
-0.587529 0.043971 -0.092345
-0.586568 0.044247 -0.092374
-0.585608 0.044522 -0.092404
-0.584647 0.044797 -0.092434
-0.583687 0.045072 -0.092463
-0.582726 0.045348 -0.092493
-0.581765 0.045623 -0.092523
-0.580805 0.045898 -0.092552
-0.579844 0.046173 -0.092582
-0.578884 0.046448 -0.092612
-0.577923 0.046724 -0.092642
-0.576963 0.046999 -0.092671
-0.576002 0.047274 -0.092701
-0.575041 0.047549 -0.092731
-0.574081 0.047825 -0.092760
-0.573120 0.048100 -0.092790
-0.572160 0.048375 -0.092820
-0.571199 0.048650 -0.092850
-0.570238 0.048925 -0.092879
-0.569278 0.049201 -0.092909
-0.568317 0.049476 -0.092939
-0.567357 0.049751 -0.092968
-0.566396 0.050026 -0.092998
-0.565435 0.050301 -0.093028
-0.564475 0.050577 -0.093057
-0.563514 0.050852 -0.093087
-0.562554 0.051127 -0.093117
-0.561593 0.051402 -0.093147
-0.560632 0.051678 -0.093176
-0.559672 0.051953 -0.093206
-0.558711 0.052228 -0.093236
-0.557751 0.052503 -0.093265
-0.556790 0.052778 -0.093295
-0.555829 0.053054 -0.093325
-0.554869 0.053329 -0.093355
-0.553908 0.053604 -0.093384
-0.552948 0.053879 -0.093414
-0.551987 0.054155 -0.093444
-0.551026 0.054430 -0.093473
-0.550066 0.054705 -0.093503
-0.549105 0.054980 -0.093533
-0.548145 0.055255 -0.093562
-0.547184 0.055531 -0.093592
-0.546224 0.055806 -0.093622
-0.545263 0.056081 -0.093652
-0.544302 0.056356 -0.093681
-0.543342 0.056631 -0.093711
-0.542381 0.056907 -0.093741
-0.541421 0.057182 -0.093770
-0.540460 0.057457 -0.093800
-0.539499 0.057732 -0.093830
-0.538539 0.058008 -0.093859
-0.537578 0.058283 -0.093889
-0.536618 0.058558 -0.093919
-0.535657 0.058833 -0.093949
-0.534696 0.059108 -0.093978
-0.533736 0.059384 -0.094008
-0.532775 0.059659 -0.094038
-0.531815 0.059934 -0.094067
-0.530854 0.060209 -0.094097
-0.529893 0.060485 -0.094127
-0.528933 0.060760 -0.094157
-0.527972 0.061035 -0.094186
-0.527012 0.061310 -0.094216
-0.526051 0.061585 -0.094246
-0.525090 0.061861 -0.094275
-0.524130 0.062136 -0.094305
-0.523169 0.062411 -0.094335
-0.522209 0.062686 -0.094364
-0.521248 0.062961 -0.094394
-0.520287 0.063237 -0.094424
-0.519327 0.063512 -0.094454
-0.518366 0.063787 -0.094483
-0.517406 0.064062 -0.094513
-0.516445 0.064338 -0.094543
-0.515485 0.064613 -0.094572
-0.514524 0.064888 -0.094602
-0.513563 0.065163 -0.094632
-0.512603 0.065438 -0.094662
-0.511642 0.065714 -0.094691
-0.510682 0.065989 -0.094721
-0.509721 0.066264 -0.094751
-0.508760 0.066539 -0.094780
-0.507800 0.066815 -0.094810
-0.506839 0.067090 -0.094840
-0.505879 0.067365 -0.094869
-0.504918 0.067640 -0.094899
-0.503957 0.067915 -0.094929
-0.502997 0.068191 -0.094959
-0.502036 0.068466 -0.094988
-0.501076 0.068741 -0.095018
-0.500115 0.069016 -0.095048
-0.499154 0.069292 -0.095077
-0.498194 0.069567 -0.095107
-0.497233 0.069842 -0.095137
-0.496273 0.070117 -0.095167
-0.495312 0.070392 -0.095196
-0.494351 0.070668 -0.095226
-0.493391 0.070943 -0.095256
-0.492430 0.071218 -0.095285
-0.491470 0.071493 -0.095315
-0.490509 0.071768 -0.095345
-0.489548 0.072044 -0.095374
-0.488588 0.072319 -0.095404
-0.487627 0.072594 -0.095434
-0.486667 0.072869 -0.095464
-0.485706 0.073145 -0.095493
-0.484746 0.073420 -0.095523
-0.483785 0.073695 -0.095553
-0.482824 0.073970 -0.095582
-0.481864 0.074245 -0.095612
-0.480903 0.074521 -0.095642
-0.479943 0.074796 -0.095672
-0.478982 0.075071 -0.095701
-0.478021 0.075346 -0.095731
-0.477061 0.075622 -0.095761
-0.476100 0.075897 -0.095790
-0.475140 0.076172 -0.095820
-0.474179 0.076447 -0.095850
-0.473218 0.076722 -0.095879
-0.472258 0.076998 -0.095909
-0.471297 0.077273 -0.095939
-0.470337 0.077548 -0.095969
-0.469376 0.077823 -0.095998
-0.468415 0.078098 -0.096028
-0.467455 0.078374 -0.096058
-0.466494 0.078649 -0.096087
-0.465534 0.078924 -0.096117
-0.464573 0.079199 -0.096147
-0.463612 0.079475 -0.096177
-0.462652 0.079750 -0.096206
-0.461691 0.080025 -0.096236
-0.460731 0.080300 -0.096266
-0.459770 0.080575 -0.096295
-0.458809 0.080851 -0.096325
-0.457849 0.081126 -0.096355
-0.456888 0.081401 -0.096384
-0.455928 0.081676 -0.096414
-0.454967 0.081952 -0.096444
-0.454007 0.082227 -0.096474
-0.453046 0.082502 -0.096503
-0.452085 0.082777 -0.096533
-0.451125 0.083052 -0.096563
-0.450164 0.083328 -0.096592
-0.449204 0.083603 -0.096622
-0.448243 0.083878 -0.096652
-0.447282 0.084153 -0.096682
-0.446322 0.084428 -0.096711
-0.445361 0.084704 -0.096741
-0.444401 0.084979 -0.096771
-0.443440 0.085254 -0.096800
-0.442479 0.085529 -0.096830
-0.441519 0.085805 -0.096860
-0.440558 0.086080 -0.096889
-0.439598 0.086355 -0.096919
-0.438637 0.086630 -0.096949
-0.437676 0.086905 -0.096979
-0.436716 0.087181 -0.097008
-0.435755 0.087456 -0.097038
-0.434795 0.087731 -0.097068
-0.433834 0.088006 -0.097097
-0.432873 0.088282 -0.097127
-0.431913 0.088557 -0.097157
-0.430952 0.088832 -0.097187
-0.429992 0.089107 -0.097216
-0.429031 0.089382 -0.097246
-0.428070 0.089658 -0.097276
-0.427110 0.089933 -0.097305
-0.426149 0.090208 -0.097335
-0.425189 0.090483 -0.097365
-0.424228 0.090759 -0.097394
-0.423267 0.091034 -0.097424
-0.422307 0.091309 -0.097454
-0.421346 0.091584 -0.097484
-0.420386 0.091859 -0.097513
-0.419425 0.092135 -0.097543
-0.418465 0.092410 -0.097573
-0.417504 0.092685 -0.097602
-0.416543 0.092960 -0.097632
-0.415583 0.093235 -0.097662
-0.414622 0.093511 -0.097692
-0.413662 0.093786 -0.097721
-0.412701 0.094061 -0.097751
-0.411740 0.094336 -0.097781
-0.410780 0.094612 -0.097810
-0.409819 0.094887 -0.097840
-0.408859 0.095162 -0.097870
-0.407898 0.095437 -0.097899
-0.406937 0.095712 -0.097929
