ply
format ascii 1.0
element vertex 248
property float x
property float y
property float z
end_header
-0.615522 0.109850 -0.083580
-0.614757 0.109207 -0.083589
-0.613992 0.108563 -0.083599
-0.613227 0.107919 -0.083608
-0.612462 0.107275 -0.083618
-0.611697 0.106632 -0.083628
-0.610932 0.105988 -0.083637
-0.610167 0.105344 -0.083647
-0.609402 0.104701 -0.083656
-0.608637 0.104057 -0.083666
-0.607872 0.103413 -0.083676
-0.607107 0.102769 -0.083685
-0.606342 0.102126 -0.083695
-0.605577 0.101482 -0.083704
-0.604812 0.100838 -0.083714
-0.604047 0.100195 -0.083724
-0.603282 0.099551 -0.083733
-0.602517 0.098907 -0.083743
-0.601752 0.098264 -0.083752
-0.600987 0.097620 -0.083762
-0.600222 0.096976 -0.083772
-0.599458 0.096332 -0.083781
-0.598693 0.095689 -0.083791
-0.597928 0.095045 -0.083800
-0.597163 0.094401 -0.083810
-0.596398 0.093758 -0.083819
-0.595633 0.093114 -0.083829
-0.594868 0.092470 -0.083839
-0.594103 0.091826 -0.083848
-0.593338 0.091183 -0.083858
-0.592573 0.090539 -0.083867
-0.591808 0.089895 -0.083877
-0.591043 0.089252 -0.083887
-0.590278 0.088608 -0.083896
-0.589513 0.087964 -0.083906
-0.588748 0.087321 -0.083915
-0.587983 0.086677 -0.083925
-0.587218 0.086033 -0.083935
-0.586453 0.085389 -0.083944
-0.585688 0.084746 -0.083954
-0.584923 0.084102 -0.083963
-0.584158 0.083458 -0.083973
-0.583393 0.082815 -0.083983
-0.582628 0.082171 -0.083992
-0.581863 0.081527 -0.084002
-0.581098 0.080883 -0.084011
-0.580333 0.080240 -0.084021
-0.579568 0.079596 -0.084031
-0.578803 0.078952 -0.084040
-0.578038 0.078309 -0.084050
-0.577273 0.077665 -0.084059
-0.576508 0.077021 -0.084069
-0.575743 0.076378 -0.084079
-0.574978 0.075734 -0.084088
-0.574213 0.075090 -0.084098
-0.573448 0.074446 -0.084107
-0.572683 0.073803 -0.084117
-0.571918 0.073159 -0.084127
-0.571153 0.072515 -0.084136
-0.570388 0.071872 -0.084146
-0.569623 0.071228 -0.084155
-0.568859 0.070584 -0.084165
-0.568094 0.069940 -0.084175
-0.567329 0.069297 -0.084184
-0.566564 0.068653 -0.084194
-0.565799 0.068009 -0.084203
-0.565034 0.067366 -0.084213
-0.564269 0.066722 -0.084222
-0.563504 0.066078 -0.084232
-0.562739 0.065434 -0.084242
-0.561974 0.064791 -0.084251
-0.561209 0.064147 -0.084261
-0.560444 0.063503 -0.084270
-0.559679 0.062860 -0.084280
-0.558914 0.062216 -0.084290
-0.558149 0.061572 -0.084299
-0.557384 0.060929 -0.084309
-0.556619 0.060285 -0.084318
-0.555854 0.059641 -0.084328
-0.555089 0.058997 -0.084338
-0.554324 0.058354 -0.084347
-0.553559 0.057710 -0.084357
-0.552794 0.057066 -0.084366
-0.552029 0.056423 -0.084376
-0.551264 0.055779 -0.084386
-0.550499 0.055135 -0.084395
-0.549734 0.054491 -0.084405
-0.548969 0.053848 -0.084414
-0.548204 0.053204 -0.084424
-0.547439 0.052560 -0.084434
-0.546674 0.051917 -0.084443
-0.545909 0.051273 -0.084453
-0.545144 0.050629 -0.084462
-0.544379 0.049986 -0.084472
-0.543614 0.049342 -0.084482
-0.542849 0.048698 -0.084491
-0.542084 0.048054 -0.084501
-0.541319 0.047411 -0.084510
-0.540554 0.046767 -0.084520
-0.539789 0.046123 -0.084530
-0.539025 0.045480 -0.084539
-0.538260 0.044836 -0.084549
-0.537495 0.044192 -0.084558
-0.536730 0.043548 -0.084568
-0.535965 0.042905 -0.084578
-0.535200 0.042261 -0.084587
-0.534435 0.041617 -0.084597
-0.533670 0.040974 -0.084606
-0.532905 0.040330 -0.084616
-0.532140 0.039686 -0.084625
-0.531375 0.039043 -0.084635
-0.530610 0.038399 -0.084645
-0.529845 0.037755 -0.084654
-0.529080 0.037111 -0.084664
-0.528315 0.036468 -0.084673
-0.527550 0.035824 -0.084683
-0.526785 0.035180 -0.084693
-0.526020 0.034537 -0.084702
-0.525255 0.033893 -0.084712
-0.524490 0.033249 -0.084721
-0.523725 0.032605 -0.084731
-0.522960 0.031962 -0.084741
-0.522195 0.031318 -0.084750
-0.521430 0.030674 -0.084760
-0.520665 0.030031 -0.084769
-0.519900 0.029387 -0.084779
-0.519135 0.028743 -0.084789
-0.518370 0.028099 -0.084798
-0.517605 0.027456 -0.084808
-0.516840 0.026812 -0.084817
-0.516075 0.026168 -0.084827
-0.515310 0.025525 -0.084837
-0.514545 0.024881 -0.084846
-0.513780 0.024237 -0.084856
-0.513015 0.023594 -0.084865
-0.512250 0.022950 -0.084875
-0.511485 0.022306 -0.084885
-0.510720 0.021662 -0.084894
-0.509955 0.021019 -0.084904
-0.509190 0.020375 -0.084913
-0.508426 0.019731 -0.084923
-0.507661 0.019088 -0.084933
-0.506896 0.018444 -0.084942
-0.506131 0.017800 -0.084952
-0.505366 0.017156 -0.084961
-0.504601 0.016513 -0.084971
-0.503836 0.015869 -0.084981
-0.503071 0.015225 -0.084990
-0.502306 0.014582 -0.085000
-0.501541 0.013938 -0.085009
-0.500776 0.013294 -0.085019
-0.500011 0.012651 -0.085028
-0.499246 0.012007 -0.085038
-0.498481 0.011363 -0.085048
-0.497716 0.010719 -0.085057
-0.496951 0.010076 -0.085067
-0.496186 0.009432 -0.085076
-0.495421 0.008788 -0.085086
-0.494656 0.008145 -0.085096
-0.493891 0.007501 -0.085105
-0.493126 0.006857 -0.085115
-0.492361 0.006213 -0.085124
-0.491596 0.005570 -0.085134
-0.490831 0.004926 -0.085144
-0.490066 0.004282 -0.085153
-0.489301 0.003639 -0.085163
-0.488536 0.002995 -0.085172
-0.487771 0.002351 -0.085182
-0.487006 0.001707 -0.085192
-0.486241 0.001064 -0.085201
-0.485476 0.000420 -0.085211
-0.484711 -0.000224 -0.085220
-0.483946 -0.000867 -0.085230
-0.483181 -0.001511 -0.085240
-0.482416 -0.002155 -0.085249
-0.481651 -0.002798 -0.085259
-0.480886 -0.003442 -0.085268
-0.480121 -0.004086 -0.085278
-0.479356 -0.004730 -0.085288
-0.478591 -0.005373 -0.085297
-0.477827 -0.006017 -0.085307
-0.477062 -0.006661 -0.085316
-0.476297 -0.007304 -0.085326
-0.475532 -0.007948 -0.085336
-0.474767 -0.008592 -0.085345
-0.474002 -0.009236 -0.085355
-0.473237 -0.009879 -0.085364
-0.472472 -0.010523 -0.085374
-0.471707 -0.011167 -0.085384
-0.470942 -0.011810 -0.085393
-0.470177 -0.012454 -0.085403
-0.469412 -0.013098 -0.085412
-0.468647 -0.013741 -0.085422
-0.467882 -0.014385 -0.085431
-0.467117 -0.015029 -0.085441
-0.466352 -0.015673 -0.085451
-0.465587 -0.016316 -0.085460
-0.464822 -0.016960 -0.085470
-0.464057 -0.017604 -0.085479
-0.463292 -0.018247 -0.085489
-0.462527 -0.018891 -0.085499
-0.461762 -0.019535 -0.085508
-0.460997 -0.020179 -0.085518
-0.460232 -0.020822 -0.085527
-0.459467 -0.021466 -0.085537
-0.458702 -0.022110 -0.085547
-0.457937 -0.022753 -0.085556
-0.457172 -0.023397 -0.085566
-0.456407 -0.024041 -0.085575
-0.455642 -0.024684 -0.085585
-0.454877 -0.025328 -0.085595
-0.454112 -0.025972 -0.085604
-0.453347 -0.026616 -0.085614
-0.452582 -0.027259 -0.085623
-0.451817 -0.027903 -0.085633
-0.451052 -0.028547 -0.085643
-0.450287 -0.029190 -0.085652
-0.449522 -0.029834 -0.085662
-0.448757 -0.030478 -0.085671
-0.447993 -0.031122 -0.085681
-0.447228 -0.031765 -0.085691
-0.446463 -0.032409 -0.085700
-0.445698 -0.033053 -0.085710
-0.444933 -0.033696 -0.085719
-0.444168 -0.034340 -0.085729
-0.443403 -0.034984 -0.085739
-0.442638 -0.035628 -0.085748
-0.441873 -0.036271 -0.085758
-0.441108 -0.036915 -0.085767
-0.440343 -0.037559 -0.085777
-0.439578 -0.038202 -0.085787
-0.438813 -0.038846 -0.085796
-0.438048 -0.039490 -0.085806
-0.437283 -0.040133 -0.085815
-0.436518 -0.040777 -0.085825
-0.435753 -0.041421 -0.085834
-0.434988 -0.042065 -0.085844
-0.434223 -0.042708 -0.085854
-0.433458 -0.043352 -0.085863
-0.432693 -0.043996 -0.085873
-0.431928 -0.044639 -0.085882
-0.431163 -0.045283 -0.085892
-0.430398 -0.045927 -0.085902
-0.429633 -0.046571 -0.085911
-0.428868 -0.047214 -0.085921
-0.428103 -0.047858 -0.085930
-0.427338 -0.048502 -0.085940
-0.426573 -0.049145 -0.085950
