ply
format ascii 1.0
element vertex 502
property float x
property float y
property float z
end_header
-0.440429 -0.013742 -0.042502
-0.441097 -0.012998 -0.042482
-0.441765 -0.012254 -0.042461
-0.442433 -0.011510 -0.042441
-0.443101 -0.010766 -0.042421
-0.443769 -0.010022 -0.042401
-0.444437 -0.009278 -0.042380
-0.445105 -0.008534 -0.042360
-0.445773 -0.007790 -0.042340
-0.446441 -0.007045 -0.042319
-0.447109 -0.006301 -0.042299
-0.447777 -0.005557 -0.042279
-0.448445 -0.004813 -0.042258
-0.449113 -0.004069 -0.042238
-0.449781 -0.003325 -0.042218
-0.450449 -0.002581 -0.042198
-0.451117 -0.001837 -0.042177
-0.451785 -0.001093 -0.042157
-0.452453 -0.000349 -0.042137
-0.453121 0.000395 -0.042116
-0.453789 0.001139 -0.042096
-0.454457 0.001883 -0.042076
-0.455124 0.002627 -0.042056
-0.455792 0.003371 -0.042035
-0.456460 0.004115 -0.042015
-0.457128 0.004859 -0.041995
-0.457796 0.005603 -0.041974
-0.458464 0.006347 -0.041954
-0.459132 0.007091 -0.041934
-0.459800 0.007835 -0.041914
-0.460468 0.008579 -0.041893
-0.461136 0.009323 -0.041873
-0.461804 0.010067 -0.041853
-0.462472 0.010811 -0.041832
-0.463140 0.011555 -0.041812
-0.463808 0.012299 -0.041792
-0.464476 0.013043 -0.041771
-0.465144 0.013787 -0.041751
-0.465812 0.014531 -0.041731
-0.466480 0.015275 -0.041711
-0.467148 0.016020 -0.041690
-0.467816 0.016764 -0.041670
-0.468484 0.017508 -0.041650
-0.469152 0.018252 -0.041629
-0.469820 0.018996 -0.041609
-0.470488 0.019740 -0.041589
-0.471156 0.020484 -0.041569
-0.471824 0.021228 -0.041548
-0.472492 0.021972 -0.041528
-0.473160 0.022716 -0.041508
-0.473828 0.023460 -0.041487
-0.474496 0.024204 -0.041467
-0.475164 0.024948 -0.041447
-0.475832 0.025692 -0.041427
-0.476500 0.026436 -0.041406
-0.477168 0.027180 -0.041386
-0.477836 0.027924 -0.041366
-0.478504 0.028668 -0.041345
-0.479172 0.029412 -0.041325
-0.479840 0.030156 -0.041305
-0.480508 0.030900 -0.041285
-0.481176 0.031644 -0.041264
-0.481844 0.032388 -0.041244
-0.482512 0.033132 -0.041224
-0.483180 0.033876 -0.041203
-0.483848 0.034620 -0.041183
-0.484516 0.035364 -0.041163
-0.485184 0.036108 -0.041142
-0.485852 0.036852 -0.041122
-0.486520 0.037596 -0.041102
-0.487188 0.038341 -0.041082
-0.487856 0.039085 -0.041061
-0.488524 0.039829 -0.041041
-0.489192 0.040573 -0.041021
-0.489860 0.041317 -0.041000
-0.490528 0.042061 -0.040980
-0.491196 0.042805 -0.040960
-0.491864 0.043549 -0.040940
-0.492532 0.044293 -0.040919
-0.493200 0.045037 -0.040899
-0.493868 0.045781 -0.040879
-0.494536 0.046525 -0.040858
-0.495204 0.047269 -0.040838
-0.495872 0.048013 -0.040818
-0.496540 0.048757 -0.040798
-0.497208 0.049501 -0.040777
-0.497876 0.050245 -0.040757
-0.498544 0.050989 -0.040737
-0.499212 0.051733 -0.040716
-0.499880 0.052477 -0.040696
-0.500548 0.053221 -0.040676
-0.501216 0.053965 -0.040655
-0.501884 0.054709 -0.040635
-0.502552 0.055453 -0.040615
-0.503220 0.056197 -0.040595
-0.503888 0.056941 -0.040574
-0.504556 0.057685 -0.040554
-0.505224 0.058429 -0.040534
-0.505892 0.059173 -0.040513
-0.506560 0.059917 -0.040493
-0.507228 0.060662 -0.040473
-0.507896 0.061406 -0.040453
-0.508564 0.062150 -0.040432
-0.509232 0.062894 -0.040412
-0.509900 0.063638 -0.040392
-0.510568 0.064382 -0.040371
-0.511236 0.065126 -0.040351
-0.511904 0.065870 -0.040331
-0.512572 0.066614 -0.040311
-0.513240 0.067358 -0.040290
-0.513908 0.068102 -0.040270
-0.514576 0.068846 -0.040250
-0.515244 0.069590 -0.040229
-0.515912 0.070334 -0.040209
-0.516580 0.071078 -0.040189
-0.517248 0.071822 -0.040169
-0.517916 0.072566 -0.040148
-0.518584 0.073310 -0.040128
-0.519252 0.074054 -0.040108
-0.519920 0.074798 -0.040087
-0.520588 0.075542 -0.040067
-0.521256 0.076286 -0.040047
-0.521924 0.077030 -0.040026
-0.522592 0.077774 -0.040006
-0.523260 0.078518 -0.039986
-0.523928 0.079262 -0.039966
-0.524596 0.080006 -0.039945
-0.525264 0.080750 -0.039925
-0.525932 0.081494 -0.039905
-0.526600 0.082238 -0.039884
-0.527268 0.082982 -0.039864
-0.527936 0.083727 -0.039844
-0.528604 0.084471 -0.039824
-0.529272 0.085215 -0.039803
-0.529940 0.085959 -0.039783
-0.530608 0.086703 -0.039763
-0.531276 0.087447 -0.039742
-0.531944 0.088191 -0.039722
-0.532612 0.088935 -0.039702
-0.533280 0.089679 -0.039682
-0.533948 0.090423 -0.039661
-0.534615 0.091167 -0.039641
-0.535283 0.091911 -0.039621
-0.535951 0.092655 -0.039600
-0.536619 0.093399 -0.039580
-0.537287 0.094143 -0.039560
-0.537955 0.094887 -0.039540
-0.538623 0.095631 -0.039519
-0.539291 0.096375 -0.039499
-0.539959 0.097119 -0.039479
-0.540627 0.097863 -0.039458
-0.541295 0.098607 -0.039438
-0.541963 0.099351 -0.039418
-0.542631 0.100095 -0.039397
-0.543299 0.100839 -0.039377
-0.543967 0.101583 -0.039357
-0.544635 0.102327 -0.039337
-0.545303 0.103071 -0.039316
-0.545971 0.103815 -0.039296
-0.546639 0.104559 -0.039276
-0.547307 0.105303 -0.039255
-0.547975 0.106048 -0.039235
-0.548643 0.106792 -0.039215
-0.549311 0.107536 -0.039195
-0.549979 0.108280 -0.039174
-0.550647 0.109024 -0.039154
-0.551315 0.109768 -0.039134
-0.551983 0.110512 -0.039113
-0.552651 0.111256 -0.039093
-0.553319 0.112000 -0.039073
-0.553987 0.112744 -0.039053
-0.554655 0.113488 -0.039032
-0.555323 0.114232 -0.039012
-0.555991 0.114976 -0.038992
-0.556659 0.115720 -0.038971
-0.557327 0.116464 -0.038951
-0.557995 0.117208 -0.038931
-0.558663 0.117952 -0.038910
-0.559331 0.118696 -0.038890
-0.559999 0.119440 -0.038870
-0.560667 0.120184 -0.038850
-0.561335 0.120928 -0.038829
-0.562003 0.121672 -0.038809
-0.562671 0.122416 -0.038789
-0.563339 0.123160 -0.038768
-0.564007 0.123904 -0.038748
-0.564675 0.124648 -0.038728
-0.565343 0.125392 -0.038708
-0.566011 0.126136 -0.038687
-0.566679 0.126880 -0.038667
-0.567347 0.127624 -0.038647
-0.568015 0.128368 -0.038626
-0.568683 0.129113 -0.038606
-0.569351 0.129857 -0.038586
-0.570019 0.130601 -0.038566
-0.570687 0.131345 -0.038545
-0.571355 0.132089 -0.038525
-0.572023 0.132833 -0.038505
-0.572691 0.133577 -0.038484
-0.573359 0.134321 -0.038464
-0.574027 0.135065 -0.038444
-0.574695 0.135809 -0.038424
-0.575363 0.136553 -0.038403
-0.576031 0.137297 -0.038383
-0.576699 0.138041 -0.038363
-0.577367 0.138785 -0.038342
-0.578035 0.139529 -0.038322
-0.578703 0.140273 -0.038302
-0.579371 0.141017 -0.038281
-0.580039 0.141761 -0.038261
-0.580707 0.142505 -0.038241
-0.581375 0.143249 -0.038221
-0.582043 0.143993 -0.038200
-0.582711 0.144737 -0.038180
-0.583379 0.145481 -0.038160
-0.584047 0.146225 -0.038139
-0.584715 0.146969 -0.038119
-0.585383 0.147713 -0.038099
-0.586051 0.148457 -0.038079
-0.586719 0.149201 -0.038058
-0.587387 0.149945 -0.038038
-0.588055 0.150689 -0.038018
-0.588723 0.151434 -0.037997
-0.589391 0.152178 -0.037977
-0.590059 0.152922 -0.037957
-0.590727 0.153666 -0.037937
-0.591395 0.154410 -0.037916
-0.592063 0.155154 -0.037896
-0.592731 0.155898 -0.037876
-0.593399 0.156642 -0.037855
-0.594067 0.157386 -0.037835
-0.594735 0.158130 -0.037815
-0.595403 0.158874 -0.037794
-0.596071 0.159618 -0.037774
-0.596739 0.160362 -0.037754
-0.597407 0.161106 -0.037734
-0.598075 0.161850 -0.037713
-0.598743 0.162594 -0.037693
-0.599411 0.163338 -0.037673
-0.600079 0.164082 -0.037652
-0.600747 0.164826 -0.037632
-0.601415 0.165570 -0.037612
-0.602083 0.166314 -0.037592
-0.602751 0.167058 -0.037571
-0.603419 0.167802 -0.037551
-0.604087 0.168546 -0.037531
-0.604755 0.169290 -0.037510
-0.605423 0.170034 -0.037490
-0.606091 0.170778 -0.037470
-0.606759 0.171522 -0.037450
-0.607427 0.172266 -0.037429
-0.434475 -0.008401 -0.042345
-0.435143 -0.007657 -0.042324
-0.435811 -0.006913 -0.042304
-0.436479 -0.006169 -0.042284
-0.437147 -0.005425 -0.042264
-0.437815 -0.004681 -0.042243
-0.438483 -0.003937 -0.042223
-0.439151 -0.003193 -0.042203
-0.439819 -0.002449 -0.042182
-0.440487 -0.001704 -0.042162
-0.441155 -0.000960 -0.042142
-0.441823 -0.000216 -0.042121
-0.442491 0.000528 -0.042101
-0.443159 0.001272 -0.042081
-0.443827 0.002016 -0.042061
-0.444495 0.002760 -0.042040
-0.445163 0.003504 -0.042020
-0.445831 0.004248 -0.042000
-0.446499 0.004992 -0.041979
-0.447167 0.005736 -0.041959
-0.447835 0.006480 -0.041939
-0.448503 0.007224 -0.041919
-0.449171 0.007968 -0.041898
-0.449839 0.008712 -0.041878
-0.450507 0.009456 -0.041858
-0.451175 0.010200 -0.041837
-0.451843 0.010944 -0.041817
-0.452511 0.011688 -0.041797
-0.453179 0.012432 -0.041777
-0.453847 0.013176 -0.041756
-0.454515 0.013920 -0.041736
-0.455183 0.014664 -0.041716
-0.455851 0.015408 -0.041695
-0.456519 0.016152 -0.041675
-0.457187 0.016896 -0.041655
-0.457854 0.017640 -0.041635
-0.458522 0.018384 -0.041614
-0.459190 0.019128 -0.041594
-0.459858 0.019872 -0.041574
-0.460526 0.020617 -0.041553
-0.461194 0.021361 -0.041533
-0.461862 0.022105 -0.041513
-0.462530 0.022849 -0.041492
-0.463198 0.023593 -0.041472
-0.463866 0.024337 -0.041452
-0.464534 0.025081 -0.041432
-0.465202 0.025825 -0.041411
-0.465870 0.026569 -0.041391
-0.466538 0.027313 -0.041371
-0.467206 0.028057 -0.041350
-0.467874 0.028801 -0.041330
-0.468542 0.029545 -0.041310
-0.469210 0.030289 -0.041290
-0.469878 0.031033 -0.041269
-0.470546 0.031777 -0.041249
-0.471214 0.032521 -0.041229
-0.471882 0.033265 -0.041208
-0.472550 0.034009 -0.041188
-0.473218 0.034753 -0.041168
-0.473886 0.035497 -0.041148
-0.474554 0.036241 -0.041127
-0.475222 0.036985 -0.041107
-0.475890 0.037729 -0.041087
-0.476558 0.038473 -0.041066
-0.477226 0.039217 -0.041046
-0.477894 0.039961 -0.041026
-0.478562 0.040705 -0.041005
-0.479230 0.041449 -0.040985
-0.479898 0.042193 -0.040965
-0.480566 0.042938 -0.040945
-0.481234 0.043682 -0.040924
-0.481902 0.044426 -0.040904
-0.482570 0.045170 -0.040884
-0.483238 0.045914 -0.040863
-0.483906 0.046658 -0.040843
-0.484574 0.047402 -0.040823
-0.485242 0.048146 -0.040803
-0.485910 0.048890 -0.040782
-0.486578 0.049634 -0.040762
-0.487246 0.050378 -0.040742
-0.487914 0.051122 -0.040721
-0.488582 0.051866 -0.040701
-0.489250 0.052610 -0.040681
-0.489918 0.053354 -0.040661
-0.490586 0.054098 -0.040640
-0.491254 0.054842 -0.040620
-0.491922 0.055586 -0.040600
-0.492590 0.056330 -0.040579
-0.493258 0.057074 -0.040559
-0.493926 0.057818 -0.040539
-0.494594 0.058562 -0.040519
-0.495262 0.059306 -0.040498
-0.495930 0.060050 -0.040478
-0.496598 0.060794 -0.040458
-0.497266 0.061538 -0.040437
-0.497934 0.062282 -0.040417
-0.498602 0.063026 -0.040397
-0.499270 0.063770 -0.040376
-0.499938 0.064514 -0.040356
-0.500606 0.065258 -0.040336
-0.501274 0.066003 -0.040316
-0.501942 0.066747 -0.040295
-0.502610 0.067491 -0.040275
-0.503278 0.068235 -0.040255
-0.503946 0.068979 -0.040234
-0.504614 0.069723 -0.040214
-0.505282 0.070467 -0.040194
-0.505950 0.071211 -0.040174
-0.506618 0.071955 -0.040153
-0.507286 0.072699 -0.040133
-0.507954 0.073443 -0.040113
-0.508622 0.074187 -0.040092
-0.509290 0.074931 -0.040072
-0.509958 0.075675 -0.040052
-0.510626 0.076419 -0.040032
-0.511294 0.077163 -0.040011
-0.511962 0.077907 -0.039991
-0.512630 0.078651 -0.039971
-0.513298 0.079395 -0.039950
-0.513966 0.080139 -0.039930
-0.514634 0.080883 -0.039910
-0.515302 0.081627 -0.039889
-0.515970 0.082371 -0.039869
-0.516638 0.083115 -0.039849
-0.517306 0.083859 -0.039829
-0.517974 0.084603 -0.039808
-0.518642 0.085347 -0.039788
-0.519310 0.086091 -0.039768
-0.519978 0.086835 -0.039747
-0.520646 0.087579 -0.039727
-0.521314 0.088324 -0.039707
-0.521982 0.089068 -0.039687
-0.522650 0.089812 -0.039666
-0.523318 0.090556 -0.039646
-0.523986 0.091300 -0.039626
-0.524654 0.092044 -0.039605
-0.525322 0.092788 -0.039585
-0.525990 0.093532 -0.039565
-0.526658 0.094276 -0.039545
-0.527326 0.095020 -0.039524
-0.527994 0.095764 -0.039504
-0.528662 0.096508 -0.039484
-0.529330 0.097252 -0.039463
-0.529998 0.097996 -0.039443
-0.530666 0.098740 -0.039423
-0.531334 0.099484 -0.039403
-0.532002 0.100228 -0.039382
-0.532670 0.100972 -0.039362
-0.533338 0.101716 -0.039342
-0.534006 0.102460 -0.039321
-0.534674 0.103204 -0.039301
-0.535342 0.103948 -0.039281
-0.536010 0.104692 -0.039260
-0.536678 0.105436 -0.039240
-0.537346 0.106180 -0.039220
-0.538013 0.106924 -0.039200
-0.538681 0.107668 -0.039179
-0.539349 0.108412 -0.039159
-0.540017 0.109156 -0.039139
-0.540685 0.109900 -0.039118
-0.541353 0.110644 -0.039098
-0.542021 0.111389 -0.039078
-0.542689 0.112133 -0.039058
-0.543357 0.112877 -0.039037
-0.544025 0.113621 -0.039017
-0.544693 0.114365 -0.038997
-0.545361 0.115109 -0.038976
-0.546029 0.115853 -0.038956
-0.546697 0.116597 -0.038936
-0.547365 0.117341 -0.038916
-0.548033 0.118085 -0.038895
-0.548701 0.118829 -0.038875
-0.549369 0.119573 -0.038855
-0.550037 0.120317 -0.038834
-0.550705 0.121061 -0.038814
-0.551373 0.121805 -0.038794
-0.552041 0.122549 -0.038774
-0.552709 0.123293 -0.038753
-0.553377 0.124037 -0.038733
-0.554045 0.124781 -0.038713
-0.554713 0.125525 -0.038692
-0.555381 0.126269 -0.038672
-0.556049 0.127013 -0.038652
-0.556717 0.127757 -0.038631
-0.557385 0.128501 -0.038611
-0.558053 0.129245 -0.038591
-0.558721 0.129989 -0.038571
-0.559389 0.130733 -0.038550
-0.560057 0.131477 -0.038530
-0.560725 0.132221 -0.038510
-0.561393 0.132965 -0.038489
-0.562061 0.133710 -0.038469
-0.562729 0.134454 -0.038449
-0.563397 0.135198 -0.038429
-0.564065 0.135942 -0.038408
-0.564733 0.136686 -0.038388
-0.565401 0.137430 -0.038368
-0.566069 0.138174 -0.038347
-0.566737 0.138918 -0.038327
-0.567405 0.139662 -0.038307
-0.568073 0.140406 -0.038287
-0.568741 0.141150 -0.038266
-0.569409 0.141894 -0.038246
-0.570077 0.142638 -0.038226
-0.570745 0.143382 -0.038205
-0.571413 0.144126 -0.038185
-0.572081 0.144870 -0.038165
-0.572749 0.145614 -0.038144
-0.573417 0.146358 -0.038124
-0.574085 0.147102 -0.038104
-0.574753 0.147846 -0.038084
-0.575421 0.148590 -0.038063
-0.576089 0.149334 -0.038043
-0.576757 0.150078 -0.038023
-0.577425 0.150822 -0.038002
-0.578093 0.151566 -0.037982
-0.578761 0.152310 -0.037962
-0.579429 0.153054 -0.037942
-0.580097 0.153798 -0.037921
-0.580765 0.154542 -0.037901
-0.581433 0.155286 -0.037881
-0.582101 0.156031 -0.037860
-0.582769 0.156775 -0.037840
-0.583437 0.157519 -0.037820
-0.584105 0.158263 -0.037800
-0.584773 0.159007 -0.037779
-0.585441 0.159751 -0.037759
-0.586109 0.160495 -0.037739
-0.586777 0.161239 -0.037718
-0.587445 0.161983 -0.037698
-0.588113 0.162727 -0.037678
-0.588781 0.163471 -0.037658
-0.589449 0.164215 -0.037637
-0.590117 0.164959 -0.037617
-0.590785 0.165703 -0.037597
-0.591453 0.166447 -0.037576
-0.592121 0.167191 -0.037556
-0.592789 0.167935 -0.037536
-0.593457 0.168679 -0.037515
-0.594125 0.169423 -0.037495
-0.594793 0.170167 -0.037475
-0.595461 0.170911 -0.037455
-0.596129 0.171655 -0.037434
-0.596797 0.172399 -0.037414
-0.597465 0.173143 -0.037394
-0.598133 0.173887 -0.037373
-0.598801 0.174631 -0.037353
-0.599469 0.175375 -0.037333
-0.600137 0.176119 -0.037313
-0.600805 0.176863 -0.037292
-0.601473 0.177607 -0.037272
