ply
format ascii 1.0
element vertex 119
property float x
property float y
property float z
end_header
-0.620929 0.020588 -0.021213
-0.618356 0.019956 -0.021184
-0.616254 0.022319 -0.020795
-0.616225 0.030527 -0.021385
-0.616480 0.032226 -0.021468
-0.616600 0.033344 -0.017012
-0.614593 0.018440 -0.020205
-0.615352 0.017642 -0.016766
-0.612478 0.025068 -0.020831
-0.614166 0.031963 -0.021234
-0.613598 0.033343 -0.021266
-0.608204 0.025309 -0.021115
-0.610486 0.027411 -0.017233
-0.610979 0.033476 -0.021187
-0.608903 0.055588 -0.021817
-0.606516 0.035452 -0.017393
-0.604454 0.039673 -0.017325
-0.605665 0.042386 -0.021456
-0.605879 0.050824 -0.020820
-0.605352 0.052910 -0.021694
-0.606255 0.053911 -0.018679
-0.603964 0.040503 -0.020659
-0.600027 0.047973 -0.019683
-0.600166 0.057643 -0.021429
-0.603031 0.065087 -0.021923
-0.600262 0.066198 -0.018429
-0.598969 0.048465 -0.021468
-0.596891 0.057676 -0.021054
-0.598108 0.061732 -0.021716
-0.599474 0.067730 -0.018669
-0.598040 0.069850 -0.021287
-0.596555 0.076219 -0.022054
-0.594939 0.058557 -0.018970
-0.593694 0.061144 -0.018807
-0.595196 0.071058 -0.021802
-0.592873 0.073776 -0.021725
-0.595617 0.075728 -0.018214
-0.594528 0.078273 -0.021153
-0.591456 0.059323 -0.021573
-0.590684 0.063197 -0.021647
-0.591560 0.065418 -0.019047
-0.589612 0.075138 -0.021445
-0.589209 0.081785 -0.021867
-0.589451 0.084253 -0.022069
-0.589189 0.088143 -0.020438
-0.588567 0.089724 -0.019414
-0.587573 0.074627 -0.021173
-0.587095 0.083537 -0.022042
-0.585972 0.085712 -0.021770
-0.585899 0.091370 -0.021934
-0.586802 0.093072 -0.020224
-0.583734 0.080793 -0.020912
-0.581194 0.086325 -0.019745
-0.582227 0.090086 -0.021768
-0.580595 0.104415 -0.022469
-0.581347 0.104502 -0.019196
-0.577187 0.094144 -0.020870
-0.576854 0.095299 -0.019309
-0.579922 0.098375 -0.021965
-0.579529 0.101639 -0.022150
-0.576879 0.113007 -0.021148
-0.573134 0.107080 -0.022091
-0.572619 0.112105 -0.022090
-0.573600 0.117955 -0.022161
-0.568924 0.111108 -0.020449
-0.570300 0.108812 -0.018787
-0.571667 0.112599 -0.022015
-0.560419 0.146193 -0.022297
-0.556422 0.139517 -0.022446
-0.558541 0.150090 -0.022064
-0.557712 0.154816 -0.023111
-0.557732 0.156047 -0.023140
-0.555823 0.137413 -0.021717
-0.552263 0.145088 -0.020337
-0.554708 0.154391 -0.022662
-0.554402 0.157669 -0.021873
-0.552939 0.162169 -0.023189
-0.553684 0.161106 -0.018401
-0.551587 0.140148 -0.022662
-0.551481 0.159911 -0.023110
-0.551412 0.162569 -0.023169
-0.546565 0.157536 -0.022407
-0.545951 0.160792 -0.022446
-0.543427 0.180639 -0.022862
-0.541036 0.185393 -0.023251
-0.538144 0.173545 -0.022913
-0.537868 0.177848 -0.022646
-0.536098 0.181191 -0.023304
-0.538778 0.190193 -0.022597
-0.537418 0.193443 -0.023022
-0.538753 0.197391 -0.023723
-0.534507 0.177423 -0.022825
-0.535980 0.178791 -0.018606
-0.534652 0.193709 -0.023456
-0.534592 0.198054 -0.023281
-0.533431 0.201812 -0.023197
-0.533058 0.204867 -0.022395
-0.531064 0.190879 -0.023430
-0.524710 0.199015 -0.022427
-0.525696 0.216851 -0.022579
-0.525451 0.218178 -0.019872
-0.523436 0.203229 -0.022269
-0.522008 0.205621 -0.023025
-0.520723 0.208810 -0.023643
-0.521098 0.212900 -0.023252
-0.523295 0.217527 -0.023832
-0.522947 0.220617 -0.023954
-0.519710 0.207070 -0.023584
-0.519927 0.210581 -0.021608
-0.517032 0.218957 -0.023804
-0.518013 0.222144 -0.023548
-0.516101 0.224398 -0.023486
-0.517472 0.232268 -0.021646
-0.515438 0.219513 -0.022311
-0.514241 0.222149 -0.021665
-0.515173 0.221094 -0.018902
-0.512936 0.224748 -0.021860
-0.512587 0.229464 -0.022445
-0.510418 0.226575 -0.022672
